<svg xmlns="http://www.w3.org/2000/svg" xmlns:xlink="http://www.w3.org/1999/xlink" width="148.416" height="146" viewBox="0 0 148.416 146">
  <defs>
    <clipPath id="clip-path">
      <rect id="Rectángulo_378175" data-name="Rectángulo 378175" width="95.542" height="95.528" fill="#376460"/>
    </clipPath>
  </defs>
  <g id="Grupo_1073286" data-name="Grupo 1073286" transform="translate(-305.75 -1549)">
    <g id="Grupo_1072842" data-name="Grupo 1072842" transform="translate(38 591)">
      <path id="Trazado_608969" data-name="Trazado 608969" d="M73,0A73,73,0,1,1,0,73,73,73,0,0,1,73,0Z" transform="translate(269 958)" fill="#e7ffdd"/>
    </g>
    <g id="Grupo_1072845" data-name="Grupo 1072845" transform="translate(307 1679.797)">
      <line id="Línea_2906" data-name="Línea 2906" x1="30.608" transform="translate(13.308)" fill="none" stroke="#376460" stroke-linecap="round" stroke-linejoin="round" stroke-width="2.5"/>
      <line id="Línea_2907" data-name="Línea 2907" x2="29.277" transform="translate(0 5.323)" fill="none" stroke="#376460" stroke-linecap="round" stroke-linejoin="round" stroke-width="2.5"/>
      <line id="Línea_2908" data-name="Línea 2908" x2="1.33" transform="translate(33.935 5.323)" fill="none" stroke="#376460" stroke-linecap="round" stroke-linejoin="round" stroke-width="2.5"/>
    </g>
    <g id="Grupo_1072848" data-name="Grupo 1072848" transform="translate(409 1563.138)">
      <line id="Línea_2906-2" data-name="Línea 2906" x1="30.608" transform="translate(13.308 0)" fill="none" stroke="#376460" stroke-linecap="round" stroke-linejoin="round" stroke-width="2.5"/>
      <line id="Línea_2907-2" data-name="Línea 2907" x2="29.277" transform="translate(0 5.323)" fill="none" stroke="#376460" stroke-linecap="round" stroke-linejoin="round" stroke-width="2.5"/>
      <line id="Línea_2908-2" data-name="Línea 2908" x2="1.33" transform="translate(33.935 5.323)" fill="none" stroke="#376460" stroke-linecap="round" stroke-linejoin="round" stroke-width="2.5"/>
    </g>
    <g id="Grupo_1072884" data-name="Grupo 1072884" transform="translate(332.066 1574.236)">
      <g id="Grupo_1072883" data-name="Grupo 1072883" clip-path="url(#clip-path)">
        <path id="Trazado_610614" data-name="Trazado 610614" d="M49.2,11.773c0,2.538.025,5.076-.014,7.613-.013.834.158,1.177,1.116,1.273A27.221,27.221,0,0,1,74.883,45.239c.1.949.424,1.129,1.267,1.124,5.125-.028,10.25-.039,15.375.007,1.031.009,1.222-.334,1.153-1.3A44.7,44.7,0,0,0,76.722,13.327a6.415,6.415,0,0,1-.98-.908,1.244,1.244,0,0,1,.042-1.649,1.229,1.229,0,0,1,1.72-.348,7.858,7.858,0,0,1,.951.715A47.994,47.994,0,0,1,95.539,46.859c.038,1.948-.349,2.312-2.355,2.326-1.144.008-2.29.034-3.433-.008-.763-.028-1.009.256-1.061,1.026A40.224,40.224,0,0,1,78.44,74.914c-.65.732-.451,1.105.129,1.689,1.741,1.754,1.726,2.019-.056,3.681A43.807,43.807,0,0,1,51.565,92.323c-.446.037-.892.126-1.337.122-.721-.007-1.023.223-1.057,1.03-.075,1.833-.4,2.066-2.307,2.051-21.721-.167-41.1-16.019-45.706-37.343A52.887,52.887,0,0,1,0,48.284C-.031,46.964.55,46.34,1.859,46.35c1.244.009,2.491-.058,3.731.018.992.061,1.234-.322,1.293-1.27A39.852,39.852,0,0,1,9,34.468c.337-.971.689-2.055,2.016-1.625s1.007,1.494.663,2.484a39.989,39.989,0,0,0-2,9.751c-.085.987.179,1.311,1.184,1.291,2.885-.055,5.772-.043,8.657,0,.816.011,1.067-.24,1.154-1.081C22.044,32,31.956,22.116,45.361,20.646c.765-.084,1.021-.3,1.012-1.064-.032-2.935-.054-5.872.01-8.807.024-1.1-.462-1.19-1.353-1.107Q25.7,11.472,15.222,27.8c-.593.921-1.054,2.411-2.514,1.555-1.563-.915-.446-2.106.157-3.056A40.809,40.809,0,0,1,41.341,7.263a31.5,31.5,0,0,1,4-.412c.771-.037,1.054-.3,1.03-1.063-.04-1.242-.025-2.488,0-3.731C46.394.419,46.807-.021,48.383,0a47.486,47.486,0,0,1,23.3,6.388c.841.482,1.583,1.084,1.023,2.121-.6,1.1-1.529.834-2.438.311A45.156,45.156,0,0,0,50.777,2.879c-1.217-.088-1.667.105-1.61,1.432.107,2.483.031,4.974.032,7.462M11.688,49.187c-2.536,0-5.073.035-7.608-.018-.96-.02-1.284.208-1.2,1.248a57.856,57.856,0,0,0,1.3,8.377c4.287,18.524,21.9,33.069,41.012,33.865.939.039,1.215-.182,1.189-1.109-.056-1.988-.025-3.978,0-5.967.01-.908.459-1.607,1.4-1.613s1.384.689,1.412,1.6c.029.944.063,1.893,0,2.833s.225,1.325,1.248,1.227c1.83-.176,3.655-.348,5.462-.7A41.672,41.672,0,0,0,75.56,79.213c.631-.551.881-.872.135-1.6-3.032-2.942-6.006-5.944-8.969-8.956-.524-.533-.842-.591-1.445-.083a26.81,26.81,0,0,1-15.153,6.307c-.7.064-.961.282-.938.978a29.461,29.461,0,0,1-.034,2.981,1.379,1.379,0,1,1-2.757,0,19.622,19.622,0,0,1-.022-2.683c.074-.967-.291-1.21-1.243-1.3a27.269,27.269,0,0,1-24.457-24.53c-.09-.91-.344-1.176-1.232-1.159-2.585.05-5.172.018-7.758.017m60.55-1.371a24.458,24.458,0,1,0-24.589,24.4,24.6,24.6,0,0,0,24.589-24.4M85.894,50.1c.157-.66-.174-.93-.963-.922q-4.474.042-8.949,0c-.732-.007-1.012.19-1.086.986a26.617,26.617,0,0,1-6.146,14.9c-.6.718-.64,1.121.061,1.79q3.127,2.984,6.116,6.111c.631.658.966.686,1.578-.026A38.242,38.242,0,0,0,85.894,50.1" transform="translate(0 0)" fill="#376460"/>
        <path id="Trazado_610615" data-name="Trazado 610615" d="M112.113,100.2c-1.828-3.944-1.4-7,1.153-9.084a6.543,6.543,0,0,1,8.02-.15c2.713,2.042,3.185,5.016,1.4,9.194,3.107-.732,5.831-.2,7.683,2.515,1.685,2.468,1.468,5.046-.09,7.531,4.569,2.565,6.2,6.146,5.216,11.383a1.47,1.47,0,0,1-1.654,1.348c-1.74-.027-3.481-.005-5.222-.005q-13.429,0-26.857,0c-2.31,0-2.514-.214-2.519-2.589,0-.547.018-1.095,0-1.641-.155-3.944,1.408-6.832,5.261-8.415-1.624-2.719-1.832-5.447.192-8,1.877-2.372,4.422-2.822,7.427-2.081M109.7,120.218c2.084,0,4.172-.077,6.25.029,1.212.062,1.6-.355,1.435-1.493a8.4,8.4,0,0,1-.01-1.041,4.633,4.633,0,0,0-4.832-4.9q-2.827-.06-5.656,0a4.54,4.54,0,0,0-4.754,4.781c-.007.546.043,1.1-.012,1.636-.081.809.276,1.009,1.029,1,2.182-.04,4.366-.014,6.549-.013m16.644,0c1.74,0,3.48.011,5.22-.009.357,0,.788.17,1.019-.348.787-1.761-.179-5.414-2.062-6.231-3.433-1.491-7.057-1.068-10.62-.277-.388.086-.732.322-.452.858a9.576,9.576,0,0,1,.678,4.96c-.033.9.351,1.083,1.147,1.062,1.689-.044,3.38-.013,5.07-.014m2.337-13.918a3.737,3.737,0,0,0-3.726-3.693,3.845,3.845,0,0,0-3.653,3.657A3.771,3.771,0,0,0,124.995,110a3.676,3.676,0,0,0,3.69-3.7M109.7,110a3.766,3.766,0,0,0,3.745-3.684,3.848,3.848,0,0,0-3.753-3.708,3.738,3.738,0,0,0-3.628,3.639A3.67,3.67,0,0,0,109.7,110m11.332-13.806a3.659,3.659,0,0,0-7.315-.171,3.66,3.66,0,1,0,7.315.171m-5.862,6.485a6.7,6.7,0,0,1,.067,7.066c-.115.195-.27.37-.037.643.816.961,3.627.958,4.37-.017a.4.4,0,0,0,0-.521,6.835,6.835,0,0,1-.028-7.171Z" transform="translate(-69.596 -62.895)" fill="#376460"/>
        <path id="Trazado_610616" data-name="Trazado 610616" d="M139.207,213.624c-2.48,0-4.96-.007-7.439,0-1,0-1.858-.248-1.835-1.425s.892-1.368,1.889-1.365q7.439.024,14.878,0c1,0,1.884.192,1.914,1.347.032,1.273-.933,1.452-1.967,1.447-2.479-.013-4.959,0-7.439-.005" transform="translate(-91.136 -147.883)" fill="#376460"/>
      </g>
    </g>
  </g>
</svg>
