<svg xmlns="http://www.w3.org/2000/svg" xmlns:xlink="http://www.w3.org/1999/xlink" width="70" height="70" viewBox="0 0 70 70">
  <defs>
    <clipPath id="clip-path">
      <rect id="Rectángulo_378556" data-name="Rectángulo 378556" width="35.341" height="51.517" fill="#376460"/>
    </clipPath>
  </defs>
  <g id="Grupo_1072981" data-name="Grupo 1072981" transform="translate(-269 -958)">
    <circle id="Elipse_5614" data-name="Elipse 5614" cx="35" cy="35" r="35" transform="translate(269 958)" fill="#fff"/>
    <g id="Grupo_1073223" data-name="Grupo 1073223" transform="translate(286.329 967.241)">
      <g id="Grupo_1073222" data-name="Grupo 1073222" clip-path="url(#clip-path)">
        <path id="Trazado_610783" data-name="Trazado 610783" d="M17.7,38.643H10.581c-.118,0-.237,0-.355,0-.534-.029-.569-.089-.759-.585A25.121,25.121,0,0,0,8.378,35.59c-.43-.84-.874-1.67-1.372-2.467a25.25,25.25,0,0,0-1.764-2.517c-.577-.714-1.09-1.481-1.635-2.222a16.556,16.556,0,0,1-1.219-1.8A17.728,17.728,0,0,1,.557,21.973C.388,21.236.352,20.489.2,19.759a9.99,9.99,0,0,1-.1-3.423A25.433,25.433,0,0,1,.84,12.59,17.8,17.8,0,0,1,2.23,9.209,17.6,17.6,0,0,1,4.422,6.13,17.988,17.988,0,0,1,8.2,2.856,16.425,16.425,0,0,1,12.619.818a22.756,22.756,0,0,1,4.751-.8,14.07,14.07,0,0,1,3.769.39,16.209,16.209,0,0,1,4.03,1.279,18.43,18.43,0,0,1,5.622,4.236,16.863,16.863,0,0,1,3,4.506,18.672,18.672,0,0,1,1.247,4.049,17.453,17.453,0,0,1,.307,3.3,17.106,17.106,0,0,1-.278,3.3,17.529,17.529,0,0,1-2.09,5.537c-.573.982-1.286,1.871-1.932,2.805-.744,1.076-1.581,2.084-2.282,3.19a29.392,29.392,0,0,0-2.1,3.761c-.261.588-.559,1.158-.776,1.766-.165.46-.262.508-.767.509H17.7M17.477,6.4A15.178,15.178,0,0,0,14.72,6.8a11.738,11.738,0,0,0-3.095,1.381,12.268,12.268,0,0,0-4.01,4.314,9.358,9.358,0,0,0-.95,2.621c-.14.693-.192,1.4-.3,2.1a2.317,2.317,0,0,0,.177,1.218A1.6,1.6,0,0,0,8.4,19.31c.845-.185,1.129-.506,1.285-1.42a19.114,19.114,0,0,1,.417-2.565,8.019,8.019,0,0,1,1.717-3.087,7.2,7.2,0,0,1,2.356-1.7,7.71,7.71,0,0,1,2.839-.764A4.558,4.558,0,0,0,18.453,9.5a1.531,1.531,0,0,0,.711-2.238A1.743,1.743,0,0,0,17.477,6.4" transform="translate(0 0)" fill="#376460"/>
        <path id="Trazado_610784" data-name="Trazado 610784" d="M45.523,162.2q3.723,0,7.446,0c.53,0,.53.011.512.539a13,13,0,0,1-.215,2.753,9.7,9.7,0,0,1-.846,2.215,7.271,7.271,0,0,1-4.265,3.554,7.65,7.65,0,0,1-3.934.344,8.832,8.832,0,0,1-3.709-1.541,7.571,7.571,0,0,1-1.49-1.545,7.686,7.686,0,0,1-1.351-3.2,13.311,13.311,0,0,1-.194-2.727c0-.294.137-.407.408-.405.4,0,.795.011,1.192.012q3.223,0,6.446,0Z" transform="translate(-27.775 -120.214)" fill="#376460"/>
      </g>
    </g>
  </g>
</svg>
