<svg xmlns="http://www.w3.org/2000/svg" xmlns:xlink="http://www.w3.org/1999/xlink" width="148.416" height="146" viewBox="0 0 148.416 146">
  <defs>
    <clipPath id="clip-path">
      <rect id="Rectángulo_378176" data-name="Rectángulo 378176" width="90" height="87.725" fill="#376460"/>
    </clipPath>
  </defs>
  <g id="Grupo_1073287" data-name="Grupo 1073287" transform="translate(-725.75 -1549)">
    <g id="Grupo_1072843" data-name="Grupo 1072843" transform="translate(458 591)">
      <path id="Trazado_608969" data-name="Trazado 608969" d="M73,0A73,73,0,1,1,0,73,73,73,0,0,1,73,0Z" transform="translate(269 958)" fill="#e7ffdd"/>
    </g>
    <g id="Grupo_1072846" data-name="Grupo 1072846" transform="translate(727 1679.797)">
      <line id="Línea_2906" data-name="Línea 2906" x1="30.608" transform="translate(13.308)" fill="none" stroke="#376460" stroke-linecap="round" stroke-linejoin="round" stroke-width="2.5"/>
      <line id="Línea_2907" data-name="Línea 2907" x2="29.277" transform="translate(0 5.323)" fill="none" stroke="#376460" stroke-linecap="round" stroke-linejoin="round" stroke-width="2.5"/>
      <line id="Línea_2908" data-name="Línea 2908" x2="1.33" transform="translate(33.935 5.323)" fill="none" stroke="#376460" stroke-linecap="round" stroke-linejoin="round" stroke-width="2.5"/>
    </g>
    <g id="Grupo_1072849" data-name="Grupo 1072849" transform="translate(829 1563.138)">
      <line id="Línea_2906-2" data-name="Línea 2906" x1="30.608" transform="translate(13.308 0)" fill="none" stroke="#376460" stroke-linecap="round" stroke-linejoin="round" stroke-width="2.5"/>
      <line id="Línea_2907-2" data-name="Línea 2907" x2="29.277" transform="translate(0 5.323)" fill="none" stroke="#376460" stroke-linecap="round" stroke-linejoin="round" stroke-width="2.5"/>
      <line id="Línea_2908-2" data-name="Línea 2908" x2="1.33" transform="translate(33.935 5.323)" fill="none" stroke="#376460" stroke-linecap="round" stroke-linejoin="round" stroke-width="2.5"/>
    </g>
    <g id="Grupo_1072886" data-name="Grupo 1072886" transform="translate(755 1578.624)">
      <g id="Grupo_1072885" data-name="Grupo 1072885" clip-path="url(#clip-path)">
        <path id="Trazado_610617" data-name="Trazado 610617" d="M44.652,100.745q-8.928,0-17.855,0c-2.09,0-2.615-.822-1.752-2.731a20.9,20.9,0,0,0,1.871-6.065c.347-2.844-.833-4.313-3.673-4.509-3.33-.23-6.675.05-10.006-.274a12.385,12.385,0,0,1-3.926-.932c-2.078-.933-2.742-2.519-1.825-4.591a4.113,4.113,0,0,0,.087-4.052c-.5-.931-.474-2.149-1.394-3-.283-.261-.3-.914-.28-1.38a21.2,21.2,0,0,1,.31-2.442c.178-1.092.871-2.439.461-3.2-.5-.932-2.025-.253-3.1-.366a3.757,3.757,0,0,1-3.21-5.378,47.988,47.988,0,0,1,2.378-5.118c1.967-3.367,2.4-7.058,2.813-10.829C7,32.613,17,21.1,30.469,18.862a42.989,42.989,0,0,1,5.043-.507c1.342-.063,1.949.583,1.944,1.915q-.022,6.532,0,13.065a1.718,1.718,0,0,1-1.66,1.949c-2.728.451-4.162,2.076-4.136,4.536.026,2.4,1.513,3.953,4.214,4.29,1.252.156,1.582.894,1.579,2-.01,3.581.03,7.162-.025,10.742-.015.986.216,1.37,1.271,1.324,1.883-.082,3.774,0,5.66-.03a1.782,1.782,0,0,1,2.107,1.813,4.327,4.327,0,0,0,8.616.114c.173-1.52.917-1.961,2.3-1.932,2.177.046,4.355.007,6.532.014,2.069.007,2.531.514,2.2,2.535A87.915,87.915,0,0,1,62.006,75.9a38.017,38.017,0,0,0-1.919,6.816,17.609,17.609,0,0,0,1.892,10.669c.743,1.518,1.54,3.01,2.323,4.509,1.009,1.929.492,2.843-1.649,2.846q-9,.012-18,0M5.1,58.15c2.842,0,5.356.032,7.869-.013,1.4-.025,2.108.471,2.261,1.971a4.11,4.11,0,0,0,4.323,3.825,4.144,4.144,0,0,0,4.274-3.876c.129-1.428.809-1.936,2.156-1.917,2.468.034,4.937-.032,7.4.029.969.024,1.226-.308,1.211-1.239-.051-3.048-.036-6.1-.007-9.146a1.113,1.113,0,0,0-.855-1.251,7.059,7.059,0,0,1-4.941-6.786,7.273,7.273,0,0,1,4.865-6.878,1.227,1.227,0,0,0,.934-1.369c-.036-3-.054-6,.007-9,.021-1.041-.278-1.292-1.317-1.2A27.729,27.729,0,0,0,8.95,42.744a32.223,32.223,0,0,0-.867,6.015A20.834,20.834,0,0,1,5.1,58.15M60.837,97.873A2.652,2.652,0,0,0,60.26,96.3a22,22,0,0,1-1.63-19.242A100.366,100.366,0,0,0,62.955,62.5c.22-1.1.078-1.639-1.2-1.505A15.173,15.173,0,0,1,59,61a1.267,1.267,0,0,0-1.475.977A7.019,7.019,0,0,1,50.815,66.8a7.11,7.11,0,0,1-6.827-4.895c-.25-.641-.494-.931-1.2-.908q-2.175.069-4.353,0c-.763-.025-1,.247-1,1,.031,3.192.024,6.385,0,9.577,0,.64.24.878.854,1.095a7.126,7.126,0,0,1,.072,13.534,1.173,1.173,0,0,0-.93,1.351c.028,3,.066,6-.017,9-.031,1.132.355,1.35,1.4,1.342,6.094-.047,12.189-.023,18.284-.023h3.729M34.579,67.7c0-1.886-.02-3.772.01-5.658.011-.7-.154-1.059-.959-1.042-2.079.044-4.159.022-6.238.01a.913.913,0,0,0-1.029.724C25.15,65,22.663,66.8,19.531,66.8a7.042,7.042,0,0,1-6.785-4.929A1.131,1.131,0,0,0,11.5,61a58.827,58.827,0,0,1-5.945-.022A2.071,2.071,0,0,0,3.12,62.587c-.469,1.308-.221,1.8,1.188,1.833,1.305.035,2.612-.005,3.917.013,1.553.022,2,.549,1.723,2.052-.312,1.707-.582,3.427-1,5.109-.32,1.275.076,1.877,1.288,2.34,1.5.575,1.644,1.374.567,2.63-.346.4-.242.62-.082.993a4.9,4.9,0,0,1-.126,3.939c-.849,2.083-.771,2.219,1.448,2.677.283.058.577.053.865.09a88.353,88.353,0,0,0,10.289.256,6.384,6.384,0,0,1,6.583,7.257,18.036,18.036,0,0,1-1.214,5.048c-.348.882-.109,1.093.766,1.06,1.352-.05,2.711-.071,4.061.006.975.055,1.221-.308,1.209-1.236-.046-3.578.015-7.158-.035-10.736-.019-1.367.471-2.012,1.884-2.167a4.313,4.313,0,0,0-.072-8.6,1.751,1.751,0,0,1-1.808-2.088c.053-1.788.013-3.578.012-5.368" transform="translate(0 -13.022)" fill="#376460"/>
        <path id="Trazado_610618" data-name="Trazado 610618" d="M161.329,0c10.45.085,18.448,4.894,24.745,12.927a50.5,50.5,0,0,1,6.452,11.294,1.778,1.778,0,0,1-.881,2.631c-1.611.877-3.16,1.868-4.755,2.776a1.032,1.032,0,0,0-.605,1.256c.526,3.6-.646,6.333-3.381,7.8a6.977,6.977,0,0,1-8.46-.97.972.972,0,0,0-1.375-.077c-1.651,1-3.333,1.954-5.007,2.92-1.828,1.056-2.143.979-3.206-.8-1.831-3.07-3.671-6.135-5.469-9.224a1.278,1.278,0,0,0-1.6-.779,7.114,7.114,0,0,1-7.588-3.289,6.948,6.948,0,0,1,.471-8.247,1.663,1.663,0,0,0,.139-2.348c-1.866-2.991-3.627-6.048-5.416-9.087-.883-1.5-.731-2.061.805-2.88A31.041,31.041,0,0,1,161.329,0m-1.055,2.832a29.2,29.2,0,0,0-10.792,2.558c-1.069.456-1.175.876-.552,1.872,1.869,2.989,3.6,6.061,5.423,9.082a1.745,1.745,0,0,1-.526,2.7,4.259,4.259,0,0,0-1.34,5.765,4.353,4.353,0,0,0,5.74,1.862c1.336-.63,2.033-.234,2.7.919,1.811,3.137,3.7,6.228,5.512,9.366.431.748.77.905,1.546.413,1.671-1.06,3.418-2,5.119-3.012a1.718,1.718,0,0,1,2.6.524,4.328,4.328,0,0,0,7.464-4.359,1.686,1.686,0,0,1,.868-2.49c1.6-.9,3.153-1.882,4.762-2.763.7-.385.8-.751.466-1.475a43.056,43.056,0,0,0-8.219-12.373c-5.7-5.792-12.564-8.843-20.77-8.589" transform="translate(-102.787 0)" fill="#376460"/>
      </g>
    </g>
  </g>
</svg>
