<svg xmlns="http://www.w3.org/2000/svg" xmlns:xlink="http://www.w3.org/1999/xlink" width="70" height="70" viewBox="0 0 70 70">
  <defs>
    <clipPath id="clip-path">
      <rect id="Rectángulo_378555" data-name="Rectángulo 378555" width="47.455" height="37.885" fill="#376460"/>
    </clipPath>
  </defs>
  <g id="Grupo_1072984" data-name="Grupo 1072984" transform="translate(-269 -958)">
    <circle id="Elipse_5614" data-name="Elipse 5614" cx="35" cy="35" r="35" transform="translate(269 958)" fill="#fff"/>
    <g id="Grupo_1073221" data-name="Grupo 1073221" transform="translate(280.272 971.176)">
      <g id="Grupo_1073220" data-name="Grupo 1073220" clip-path="url(#clip-path)">
        <path id="Trazado_610779" data-name="Trazado 610779" d="M87.446,108.943c0-2.476-.016-4.952.01-7.428a2.08,2.08,0,0,1,1.249-1.8,3.136,3.136,0,0,1,1.337-.263c2.976.008,5.951,0,8.927.009a2.429,2.429,0,0,1,2.331,1.219,2.083,2.083,0,0,1,.253.928c.012.245.012.49.012.735q0,6.6,0,13.2a4.69,4.69,0,0,1-.065,1.134,2.153,2.153,0,0,1-2.062,1.7c-3.3-.006-6.6,0-9.9,0a2.2,2.2,0,0,1-2.088-2.107c.008-2.444,0-4.889,0-7.333h0" transform="translate(-70.779 -80.505)" fill="#376460"/>
        <path id="Trazado_610780" data-name="Trazado 610780" d="M7.034,138.542c-1.638,0-3.276.006-4.914,0a2.073,2.073,0,0,1-1.6-.821,2.32,2.32,0,0,1-.514-1.6c0-3.148-.006-6.3,0-9.444a2.275,2.275,0,0,1,2.031-2.241,26.449,26.449,0,0,1,2.654-.065c2.2-.011,4.4-.005,6.6,0a4.486,4.486,0,0,1,1.384.168,2.213,2.213,0,0,1,1.487,1.861,3.646,3.646,0,0,1,.05.732q0,4.461,0,8.922a2.773,2.773,0,0,1-.436,1.529,1.99,1.99,0,0,1-1.75.957c-1.662.009-3.323,0-4.985,0v0" transform="translate(0 -100.665)" fill="#376460"/>
        <path id="Trazado_610781" data-name="Trazado 610781" d="M181.747,158.9c-1.614,0-3.229-.016-4.842.008a2.865,2.865,0,0,1-1.534-.542,1.218,1.218,0,0,1-.353-.468,2.249,2.249,0,0,1-.343-1.253c.021-1.684-.009-3.369.018-5.054a2.023,2.023,0,0,1,1.112-1.8,2.237,2.237,0,0,1,1.156-.272c3.2,0,6.393.023,9.59-.007a2.259,2.259,0,0,1,2.207,1.858,9.318,9.318,0,0,1,.085,1.225c0,1.171.007,2.341-.006,3.512a4.188,4.188,0,0,1-.256,1.553,1.916,1.916,0,0,1-.882.952,2.223,2.223,0,0,1-1.156.286c-1.6-.009-3.2,0-4.8,0Z" transform="translate(-141.389 -121.026)" fill="#376460"/>
        <path id="Trazado_610782" data-name="Trazado 610782" d="M98.351,13.489a.89.89,0,0,1-.429-.12q-1.5-.76-3-1.521c-.07-.035-.129-.09-.2-.131a.289.289,0,0,0-.33-.028c-.63.379-1.3.693-1.944,1.037-.439.233-.877.47-1.316.7a.877.877,0,0,1-1.212-.3.521.521,0,0,1-.058-.435c.16-.417.05-.878.2-1.281.23-.608.132-1.269.363-1.875a2.206,2.206,0,0,0,.061-.8.265.265,0,0,0-.1-.205C89.511,7.76,88.7,6.9,87.87,6.072a1.777,1.777,0,0,1-.306-.36A.72.72,0,0,1,88.114,4.6c1.2-.211,2.4-.352,3.6-.548a.552.552,0,0,0,.426-.332c.444-.879.892-1.756,1.331-2.637a2.4,2.4,0,0,1,.545-.9.749.749,0,0,1,1.151.2c.619,1.048,1.095,2.17,1.659,3.246a.693.693,0,0,0,.533.416c.922.138,1.844.277,2.764.426.232.037.458.107.7.129a.794.794,0,0,1,.674.487.723.723,0,0,1-.161.886c-.554.562-1.12,1.113-1.687,1.663q-.467.453-.956.884a.319.319,0,0,0-.117.311c.114.893.276,1.777.436,2.662a4.788,4.788,0,0,1,.129,1.293.783.783,0,0,1-.787.7" transform="translate(-70.784 0)" fill="#376460"/>
      </g>
    </g>
  </g>
</svg>
