<svg xmlns="http://www.w3.org/2000/svg" xmlns:xlink="http://www.w3.org/1999/xlink" width="107" height="107" viewBox="0 0 107 107">
  <defs>
    <clipPath id="clip-path">
      <rect id="Rectángulo_378248" data-name="Rectángulo 378248" width="68.131" height="68.086" fill="#fff"/>
    </clipPath>
  </defs>
  <g id="Grupo_156312" data-name="Grupo 156312" transform="translate(-288.668 -4448)">
    <circle id="Elipse_5845" data-name="Elipse 5845" cx="53.5" cy="53.5" r="53.5" transform="translate(288.668 4448)" fill="#376460"/>
    <g id="Grupo_1072939" data-name="Grupo 1072939" transform="translate(308.103 4467.457)">
      <g id="Grupo_1072938" data-name="Grupo 1072938" clip-path="url(#clip-path)">
        <path id="Trazado_610682" data-name="Trazado 610682" d="M59.676,28.715c-1.631,0-3.267.086-4.89-.029-1.172-.083-.983.682-1.074,1.33-.131.927.587.6.984.606,1.737.031,3.474.024,5.211.009.711-.006,1.335.136,1.365.969.03.858-.606,1.011-1.311,1.01-1.914,0-3.829.031-5.742-.016a.965.965,0,0,0-1.158.873,25.172,25.172,0,0,1-4.518,9.515c-.428.565-.465.919.092,1.39.593.5,1.116,1.088,1.663,1.644.638.649,1.148,1.482,2.3.674.505-.354,1.189.008,1.637.453q4.64,4.608,9.256,9.242a.984.984,0,0,1,.118,1.5c-.541.573-1.087.351-1.568-.124-.857-.847-1.727-1.683-2.546-2.566-.439-.472-.735-.6-1.243-.05-.981,1.07-2.027,2.083-3.077,3.086-.409.391-.5.636-.038,1.087,2.08,2.03,4.127,4.093,6.169,6.161.361.365.59.465,1,.029,1.043-1.109,2.129-2.181,3.23-3.234.385-.368.476-.619.03-1-.548-.467-.994-1.074-.341-1.714.682-.668,1.272-.185,1.814.356,1.446,1.443,1.462,2.209.029,3.647-1.251,1.255-2.5,2.517-3.764,3.754a1.823,1.823,0,0,1-2.956.018q-6.482-6.451-12.939-12.927a1.8,1.8,0,0,1-.363-2.558.458.458,0,0,0-.075-.713c-.936-.918-1.87-1.839-2.78-2.784-.316-.328-.544-.315-.894-.046A26.654,26.654,0,0,1,32.383,53.3c-.561.118-.648.373-.644.855.017,1.808,0,3.616.011,5.423.005.735-.116,1.442-.99,1.469-.967.029-1.071-.737-1.07-1.5,0-1.666-.016-3.332.007-5,.008-.568-.122-.878-.77-.778-.519.08-1.142-.159-1.128.8.043,3.083.016,6.168.014,9.251,0,.284.009.568-.014.85-.052.645-.342,1.1-1.055,1.067-.644-.029-.925-.46-.952-1.062-.022-.5-.007-.992-.007-1.489,0-2.836-.055-5.673.026-8.506.034-1.169-.733-.849-1.315-.943-.835-.135-.588.506-.593.9-.02,1.63-.017,3.261,0,4.892.006.762-.064,1.523-1.036,1.516-.913-.007-.975-.741-.971-1.46.01-1.7-.035-3.4.019-5.1.026-.8-.174-1.141-1.023-1.36-9.6-2.467-16.16-8.372-19.449-17.717C-3.679,20.866,5.372,4.436,20.4.841A26.511,26.511,0,0,1,44.143,6.186c.222.176.423.378.644.555.572.458.86,1.032.332,1.639C44.574,9,44,8.7,43.458,8.238,37.445,3.1,30.478.951,22.719,2.405,12.825,4.259,6.073,10.161,3.146,19.79c-4,13.167,3.158,26.462,16.222,30.85A24.9,24.9,0,0,0,50.5,35.085c2.781-8.351,1.5-16.122-3.687-23.238-.327-.448-.641-.875-.375-1.446.367-.79,1.2-.763,1.869.1a25.774,25.774,0,0,1,4.383,8.428,22.994,22.994,0,0,1,.731,3.092c.1.663.4.79.985.781,1.808-.025,3.616,0,5.423-.012.732,0,1.434.1,1.441,1,.007.925-.737,1.01-1.442,1.015-1.666.012-3.332.025-5-.005-.66-.012-1.055.05-1,.895.047.7.09,1.078.971,1.063,3.26-.056,6.522-.024,9.783-.019a1.5,1.5,0,0,1,1.114.231.937.937,0,0,1,.276,1.063,1.011,1.011,0,0,1-1.088.674q-2.605,0-5.211,0M53.127,48.6c-.387.358-.572.517-.745.689q-1.273,1.267-2.54,2.539c-1.118,1.117-1.085,1.085-.017,2.194.484.5.747.408,1.168-.036.969-1.022,1.994-1.991,2.971-3.006.211-.219.725-.385.428-.821-.374-.548-.834-1.037-1.266-1.561m4.348,4.44c-.415-.353-.8-.7-1.211-1.027s-.573.1-.771.292c-1.064,1.038-2.075,2.132-3.172,3.133-.662.6-.169.874.195,1.249s.663.814,1.25.168c1-1.1,2.089-2.113,3.138-3.167.146-.147.275-.311.571-.65m-7.417-4.391c-.126-.137-.237-.268-.357-.389-.844-.85-1.725-1.666-2.524-2.556-.572-.638-.83-.12-1.13.22s-1.008.559-.29,1.205c.863.777,1.65,1.636,2.484,2.446.179.174.338.58.664.32a3.979,3.979,0,0,0,1.154-1.246" transform="translate(0 0)" fill="#fff"/>
        <path id="Trazado_610683" data-name="Trazado 610683" d="M64.907,41.537A22.937,22.937,0,0,1,28.572,60.3c-.527-.365-1.1-.753-.733-1.546.317-.68.969-.745,1.791-.158a21.23,21.23,0,0,0,8.4,3.633,20.922,20.922,0,1,0,7.373-41.185,21.046,21.046,0,0,0-24.185,18.5A20.525,20.525,0,0,0,26.06,55.311c.473.568.854,1.15.142,1.732s-1.222.093-1.7-.456C13.976,44.525,19.555,24.8,34.875,19.919A22.918,22.918,0,0,1,64.687,38.373a28.051,28.051,0,0,1,.221,3.164" transform="translate(-15.034 -14.793)" fill="#fff"/>
        <path id="Trazado_610684" data-name="Trazado 610684" d="M71.766,62.084H58.583c-.284,0-.567,0-.85-.006-.677-.017-1.259-.277-1.24-1.012a1,1,0,0,1,1.255-.976c.93.127,1.1-.281,1.085-1.128-.05-3.011-.024-6.024-.017-9.037,0-1.577.46-2.046,2.011-2.061s3.124-.086,4.676.023c1.137.08,1.427-.34,1.315-1.377a13.142,13.142,0,0,1,0-2.124,1.482,1.482,0,0,1,1.617-1.575q3.349-.037,6.7,0c1.125.014,1.625.594,1.64,1.893.026,2.339.05,4.679-.012,7.016-.024.911.193,1.246,1.163,1.2,1.626-.085,3.259-.037,4.889-.018,1.423.017,1.925.527,1.934,1.927.009,1.453.031,2.907-.01,4.359-.019.671.15.986.881.9s1.43.1,1.427,1c0,.917-.748.995-1.456,1q-6.911,0-13.821,0m3-9.542c0-2.3-.017-4.6.011-6.9.008-.624-.153-.883-.827-.862-1.449.044-2.9.033-4.35,0-.57-.011-.818.135-.815.764q.032,6.9,0,13.8c0,.659.285.75.831.741,1.414-.024,2.832-.052,4.244.009.781.034.935-.268.922-.975-.04-2.192-.014-4.386-.015-6.579M66.8,54.981c0-1.453-.024-2.907.011-4.359.015-.612-.206-.8-.8-.783-1.488.033-2.977.022-4.465.005-.464-.005-.725.1-.722.637q.022,4.466,0,8.931c0,.505.188.68.688.673,1.524-.021,3.048-.026,4.572,0,.565.01.735-.207.726-.747-.026-1.453-.009-2.906-.008-4.359m12.923,5.1c.743,0,1.487-.027,2.228.009.576.028.834-.138.813-.767-.04-1.2-.035-2.406,0-3.608.016-.586-.165-.822-.78-.808-1.485.034-2.971.028-4.457,0-.534-.009-.768.147-.754.718.03,1.237.036,2.477,0,3.714-.02.643.275.773.831.747.706-.033,1.415-.008,2.122-.008" transform="translate(-44.476 -33.69)" fill="#fff"/>
        <path id="Trazado_610685" data-name="Trazado 610685" d="M87.823,148.472c-.9,2.423-1.668,4.582-2.51,6.711-.289.73-.245,1.877-1.413,1.85s-1.073-1.179-1.362-1.908c-.609-1.536-1.112-3.114-1.663-4.684-.531.1-.626.553-.745.868a2.145,2.145,0,0,1-2.5,1.449c-1.233-.094-2.479-.024-3.72-.02-.736,0-1.436-.138-1.4-1.044.031-.884.733-1,1.465-1,1.1.011,2.2-.037,3.3.018a1.212,1.212,0,0,0,1.332-.76c.382-.8.866-1.542,1.28-2.324.26-.491.542-.969,1.17-.914s.841.555,1.024,1.083c.576,1.662,1.172,3.318,1.872,5.291.635-1.671,1.167-3.054,1.686-4.442.384-1.026.747-2.06,1.125-3.088.181-.493.458-.9,1.054-.892s.854.406,1.045.9c.571,1.485,1.179,2.957,1.722,4.452a.875.875,0,0,0,.993.69c1.2-.041,2.41-.011,3.615-.012.708,0,1.32.191,1.326,1.022.006.848-.621,1.014-1.325,1.013-1.524,0-3.048-.02-4.572.009a1.385,1.385,0,0,1-1.521-1.027c-.347-1-.766-1.973-1.267-3.245" transform="translate(-57.081 -113.897)" fill="#fff"/>
      </g>
    </g>
  </g>
</svg>
