<svg xmlns="http://www.w3.org/2000/svg" xmlns:xlink="http://www.w3.org/1999/xlink" width="107" height="107" viewBox="0 0 107 107">
  <defs>
    <clipPath id="clip-path">
      <rect id="Rectángulo_378247" data-name="Rectángulo 378247" width="63.345" height="63.37" fill="#fff"/>
    </clipPath>
  </defs>
  <g id="Grupo_156312" data-name="Grupo 156312" transform="translate(-288.668 -4448)">
    <circle id="Elipse_5845" data-name="Elipse 5845" cx="53.5" cy="53.5" r="53.5" transform="translate(288.668 4448)" fill="#376460"/>
    <g id="Grupo_1072937" data-name="Grupo 1072937" transform="translate(310.323 4469.815)">
      <g id="Grupo_1072936" data-name="Grupo 1072936" clip-path="url(#clip-path)">
        <path id="Trazado_610673" data-name="Trazado 610673" d="M57.933,15.324c.588.031,1.14,0,1.691.054A4.084,4.084,0,0,1,63.3,19.053c.035.383.047.764.047,1.147q0,14.793,0,29.585a4.187,4.187,0,0,1-1.858,3.687,4.3,4.3,0,0,1-2.492.695q-10.216.008-20.432,0c-.051,0-.1,0-.153,0-.149-.013-.221.008-.158.193.3.893.591,1.79.884,2.686.1.315.206.63.3.948a.321.321,0,0,0,.366.265c.928-.011,1.856,0,2.784,0a2.238,2.238,0,0,1,.306.011,1.062,1.062,0,0,1,1.044,1.182c.008.528.013,1.056,0,1.584-.007.228.05.3.288.295,3.192-.009,6.385-.005,9.577-.007a2.449,2.449,0,0,1,.582.061.985.985,0,0,1,.06,1.908,1.774,1.774,0,0,1-.528.08l-44.49,0a1.074,1.074,0,0,1-1.174-.745.971.971,0,0,1,.595-1.2,1.945,1.945,0,0,1,.677-.1c3.2,0,6.4,0,9.6.008.254,0,.31-.07.3-.31-.02-.485-.006-.971-.006-1.456,0-.9.406-1.305,1.315-1.306.954,0,1.907,0,2.86,0a.28.28,0,0,0,.316-.224c.34-1.149.745-2.276,1.122-3.413.149-.449.138-.453-.336-.453H4.387A4.175,4.175,0,0,1,.008,49.892q-.011-15.15,0-30.3a4.054,4.054,0,0,1,2.6-3.95,4.555,4.555,0,0,1,1.851-.305q3.256-.009,6.512,0c.233,0,.275-.066.275-.283-.008-2.2-.005-4.394,0-6.591,0-.9.406-1.307,1.314-1.308q1.749,0,3.5,0a1.933,1.933,0,0,1,.28.012,1.067,1.067,0,0,1,1.037,1.214c.005,1.039,0,2.078,0,3.117,0,1.184.008,2.368-.006,3.551,0,.244.074.306.3.284a3.719,3.719,0,0,1,.561,0c.139.008.183-.048.169-.177a1.624,1.624,0,0,1,0-.179q0-6.821,0-13.643a2.054,2.054,0,0,1,.01-.306A1.058,1.058,0,0,1,19.578.007q1.864-.014,3.729,0a1.109,1.109,0,0,1,1.216,1.275q0,6.821,0,13.643c0,.409,0,.409.418.409.6,0,.6,0,.6-.608q0-4.663,0-9.325a1.829,1.829,0,0,1,.028-.355,1.011,1.011,0,0,1,1.1-.948q1.915-.024,3.831,0c.777.01,1.165.452,1.166,1.271q0,4.688,0,9.376c0,.589,0,.589.6.589q5.823,0,11.646,0a.6.6,0,0,0,.311-.031,9.11,9.11,0,0,1-2.164-7.738,8.928,8.928,0,0,1,3.188-5.431A9.175,9.175,0,0,1,57.933,15.324M31.674,45.994q14.671,0,29.343,0c.176,0,.289.009.289-.24Q61.3,32.574,61.3,19.391a1.979,1.979,0,0,0-2.03-2.012c-1.149,0-2.3.011-3.448-.006a2.563,2.563,0,0,0-1.153.256,8.446,8.446,0,0,1-3.486.762,8.605,8.605,0,0,1-3.83-.825,2.012,2.012,0,0,0-.886-.191q-5.8.009-11.594,0c-1,0-1.992,0-2.988,0-.165,0-.219.042-.214.212.012.4,0,.8,0,1.2,0,2.172,0,4.343,0,6.514,0,.193.039.28.248.255a1.942,1.942,0,0,1,.459,0c.246.03.326-.039.324-.309-.014-1.873-.009-3.747-.007-5.62A1.1,1.1,0,0,1,33.91,18.4q1.839-.01,3.677,0a1.1,1.1,0,0,1,1.237,1.228q.006,3.385,0,6.77a1.1,1.1,0,0,1-1.166,1.2c-.077,0-.153,0-.23,0H5.507c-.077,0-.153,0-.23,0A1.094,1.094,0,0,1,4.092,26.42q-.01-3.423,0-6.846a1.069,1.069,0,0,1,1.139-1.167q1.915-.025,3.831,0a1.049,1.049,0,0,1,1.147,1.023,2.448,2.448,0,0,1,.011.332c0,1.848,0,3.7,0,5.544,0,.2.045.275.251.253a2.437,2.437,0,0,1,.51,0c.209.022.27-.043.269-.26q-.012-3.819,0-7.639c0-.248-.081-.284-.3-.283-2.273.007-4.546,0-6.819,0a1.983,1.983,0,0,0-2.082,2.089q0,13.106-.006,26.211c0,.252.052.321.315.32q14.659-.012,29.318-.007m.027,2.046H5.4c-1.039,0-2.077.005-3.116,0-.192,0-.243.05-.239.24.013.6,0,1.192,0,1.788A1.992,1.992,0,0,0,3.7,52.1a3.544,3.544,0,0,0,.738.025H58.7c.2,0,.409.007.613,0A1.983,1.983,0,0,0,61.3,50.092q0-.856,0-1.712c0-.342,0-.342-.332-.342H31.7M22.479,13.8V6.7c0-1.464,0-2.929.005-4.393,0-.217-.06-.269-.269-.262-.493.016-.988.02-1.48,0-.249-.011-.3.06-.3.306q.011,11.455.006,22.909a.652.652,0,0,1,0,.1c-.027.162.048.2.2.2.519-.009,1.039-.016,1.557,0,.235.009.291-.061.291-.292q-.011-5.734-.005-11.467m32.31-3.574c-1.038,0-2.077,0-3.115,0a.423.423,0,0,0-.334.138q-2.205,2.219-4.423,4.425c-.134.133-.1.184.03.279a7.142,7.142,0,0,0,5.566,1.152,6.734,6.734,0,0,0,4.273-2.66,6.724,6.724,0,0,0,1.346-3.075c.031-.194-.013-.265-.229-.263-1.038.011-2.077.005-3.115.005m-4.726-8.1a6.385,6.385,0,0,0-2.67.939,6.948,6.948,0,0,0-3.417,5.477,7.129,7.129,0,0,0,.47,3.376,7.285,7.285,0,0,0,.781,1.429c.076.109.14.176.273.037.418-.436.851-.858,1.279-1.285l3.094-3.082a.589.589,0,0,0,.2-.447c-.007-2.061,0-4.122,0-6.183V2.121m-18.4,56.136H37.1c.322,0,.328,0,.225-.316-.378-1.155-.767-2.306-1.136-3.463a.379.379,0,0,0-.432-.313c-2.6.01-5.193.006-7.789.006-.719,0-.7,0-.926.7q-.5,1.579-1.042,3.145c-.08.232,0,.245.2.245q2.733-.007,5.465,0M27.588,15.833q0,4.737,0,9.475c0,.2.054.257.253.251.493-.014.988-.02,1.48,0,.255.011.32-.055.32-.316q-.013-9.4-.007-18.8a.911.911,0,0,1,0-.127c.02-.147-.042-.188-.185-.186-.528.008-1.056.015-1.583,0-.222-.007-.281.048-.28.277q.013,4.712.006,9.424m-12.261,1.56q0-3.971,0-7.942c0-.2-.052-.258-.252-.252-.5.015-1,.017-1.506,0-.229-.008-.294.051-.294.289q.011,7.406.006,14.811c0,.358.006.715,0,1.072,0,.146.042.189.187.186.527-.008,1.055-.015,1.582,0,.221.007.282-.045.281-.276-.009-2.63-.006-5.261-.006-7.891m36.8-15.3a1.551,1.551,0,0,0-.018.157c0,1.914,0,3.829,0,5.743,0,.175.073.187.212.187,1.038,0,2.075,0,3.113,0,.833,0,1.667-.006,2.5,0,.2,0,.238-.052.209-.244a5.752,5.752,0,0,0-.388-1.369A7.132,7.132,0,0,0,52.127,2.1M31.68,61.323q4.978,0,9.956,0c.19,0,.282-.034.256-.246a1.906,1.906,0,0,1,0-.484c.036-.258-.072-.3-.308-.3q-9.688.01-19.377.008c-.243,0-.567-.109-.707.049-.12.136-.021.454-.048.688s.074.286.3.285q4.965-.01,9.931,0M34.74,22.987c0,.782.006,1.565,0,2.347,0,.183.053.227.229.224.544-.011,1.088-.008,1.632,0,.142,0,.189-.037.188-.184q-.007-2.373,0-4.746c0-.148-.047-.186-.189-.184-.544.007-1.088.01-1.632,0-.176,0-.231.042-.228.224.01.774,0,1.548,0,2.322m-28.605,0c0,.782.006,1.565,0,2.347,0,.183.053.227.229.223.544-.011,1.088-.008,1.632,0,.142,0,.189-.037.188-.184q-.007-2.373,0-4.746c0-.148-.048-.186-.189-.184-.544.007-1.088.01-1.632,0-.176,0-.23.042-.228.224.01.774,0,1.548,0,2.322m19.409-1.513c0-1.285,0-2.569,0-3.854,0-.181-.03-.265-.233-.244a2.769,2.769,0,0,1-.561,0c-.2-.02-.235.059-.234.243q.009,3.854,0,7.708c0,.17.031.248.22.231a3.437,3.437,0,0,1,.586,0c.186.016.222-.057.221-.23-.007-1.285,0-2.569,0-3.854m-7.151-.01q0-1.646,0-3.292c0-.254.085-.594-.044-.738-.149-.165-.5-.029-.755-.056-.183-.019-.225.05-.224.226.008,1.2,0,2.4,0,3.6,0,1.361.007,2.722-.006,4.084,0,.235.068.294.284.272a2.461,2.461,0,0,1,.509,0c.2.02.239-.052.237-.24-.008-1.285,0-2.569,0-3.854" transform="translate(0 0)" fill="#fff"/>
        <path id="Trazado_610674" data-name="Trazado 610674" d="M23.1,148.844a3.055,3.055,0,0,1,2.917,2.184.417.417,0,0,0,.267.28c3.286,1.324,6.545,2.713,9.816,4.074a1.975,1.975,0,0,0,.575.2c.256.019.251-.277.368-.423a3.018,3.018,0,0,1,4.8-.025c.155.183.248.184.428.048,1.413-1.066,2.833-2.122,4.25-3.182q2.974-2.225,5.948-4.451a1.129,1.129,0,0,0,.455-.667,3.019,3.019,0,0,1,5.8.147.42.42,0,0,0,.213.268q5.049,2.938,10.095,5.882c.153.089.308.253.459.249s.2-.248.3-.376a3.052,3.052,0,1,1-.557,2.68.325.325,0,0,0-.177-.232q-5.048-2.939-10.093-5.883c-.161-.094-.324-.271-.48-.264s-.233.264-.353.4a3.015,3.015,0,0,1-4.716-.077c-.128-.159-.207-.2-.4-.059-1.677,1.267-3.366,2.519-5.049,3.777s-3.389,2.544-5.088,3.81a1.526,1.526,0,0,0-.56.774,2.906,2.906,0,0,1-2.481,2.036,3.034,3.034,0,0,1-3.287-2.128.41.41,0,0,0-.275-.293q-2.053-.835-4.1-1.693-2.87-1.2-5.738-2.4a1.506,1.506,0,0,0-.577-.182c-.209.008-.226.282-.342.429a3.043,3.043,0,1,1-2.422-4.907m1.035,3.073a1.026,1.026,0,1,0-1.036,1.016.988.988,0,0,0,1.036-1.016m30.643-4.132a1.025,1.025,0,1,0,1.049-1.014.991.991,0,0,0-1.049,1.014m16.346,7.169a1.025,1.025,0,1,0,1.059-1.03,1,1,0,0,0-1.059,1.03M38.434,157a1,1,0,0,0,1.052,1.034.979.979,0,0,0,1-1.031,1.025,1.025,0,1,0-2.049,0" transform="translate(-15.959 -115.099)" fill="#fff"/>
        <path id="Trazado_610675" data-name="Trazado 610675" d="M214.182,94.762q2.157,0,4.315,0a1.85,1.85,0,0,1,.674.115.958.958,0,0,1,.6.9.942.942,0,0,1-.561.9,1.732,1.732,0,0,1-.72.136q-4.136,0-8.272,0a.531.531,0,0,0-.42.177q-1.731,1.753-3.478,3.491a1.089,1.089,0,0,1-.973.4.963.963,0,0,1-.81-.719,1,1,0,0,1,.3-1.046c.524-.535,1.064-1.054,1.593-1.585.757-.759,1.516-1.517,2.263-2.286a1.506,1.506,0,0,1,1.141-.472q2.17,0,4.34,0" transform="translate(-162.588 -75.341)" fill="#fff"/>
        <path id="Trazado_610676" data-name="Trazado 610676" d="M26.692,141.69q-2.706,0-5.412,0a1.064,1.064,0,0,1-1.181-.833.974.974,0,0,1,.559-1.088,1.687,1.687,0,0,1,.647-.125q5.387,0,10.774,0a1.082,1.082,0,0,1,1.2.781c.176.672-.325,1.245-1.121,1.261-.587.012-1.174,0-1.761,0h-3.7" transform="translate(-15.962 -111.025)" fill="#fff"/>
        <path id="Trazado_610677" data-name="Trazado 610677" d="M199.108,211.5c-1.123,0-2.246,0-3.369,0a1.071,1.071,0,0,1-1.156-.769.975.975,0,0,1,.579-1.165,1.742,1.742,0,0,1,.624-.112q3.331,0,6.662,0a1.09,1.09,0,0,1,1.209.767c.191.686-.331,1.27-1.154,1.276-.927.007-1.855,0-2.782,0h-.613" transform="translate(-154.676 -166.531)" fill="#fff"/>
        <path id="Trazado_610678" data-name="Trazado 610678" d="M217,194.5c.51,0,1.024-.038,1.529.01a.986.986,0,0,1,1.008,1.009,1.014,1.014,0,0,1-1.075,1c-.977.029-1.957.04-2.934,0a1,1,0,0,1-.88-1.57,1.1,1.1,0,0,1,.973-.457c.458-.018.918,0,1.378,0v.011" transform="translate(-170.52 -154.624)" fill="#fff"/>
        <path id="Trazado_610679" data-name="Trazado 610679" d="M91.333,141.606a2.1,2.1,0,0,1-.874-.1,1.012,1.012,0,0,1-.631-.934.958.958,0,0,1,.64-.9,3,3,0,0,1,1.732,0,.947.947,0,0,1,.654.91.987.987,0,0,1-.636.928,2.16,2.16,0,0,1-.885.1" transform="translate(-71.418 -110.944)" fill="#fff"/>
        <path id="Trazado_610680" data-name="Trazado 610680" d="M24.137,241.424c-.953,0-1.906.007-2.859,0a1.139,1.139,0,0,1-1.012-.435,1.009,1.009,0,0,1,.835-1.6c.093-.009.187-.008.28-.008q2.757,0,5.513,0a1.946,1.946,0,0,1,.652.1.98.98,0,0,1,.023,1.842,1.741,1.741,0,0,1-.625.107c-.936,0-1.872,0-2.808,0" transform="translate(-15.963 -190.319)" fill="#fff"/>
        <path id="Trazado_610681" data-name="Trazado 610681" d="M66.448,239.377a2.638,2.638,0,0,1,.678.051.985.985,0,0,1,.8.957.975.975,0,0,1-.778.976,3.448,3.448,0,0,1-1.442,0,.985.985,0,0,1-.806-.98,1,1,0,0,1,.8-.958,2.913,2.913,0,0,1,.741-.05" transform="translate(-51.601 -190.317)" fill="#fff"/>
      </g>
    </g>
  </g>
</svg>
