<svg xmlns="http://www.w3.org/2000/svg" xmlns:xlink="http://www.w3.org/1999/xlink" width="1030" height="423.758" viewBox="0 0 1030 423.758">
  <defs>
    <linearGradient id="linear-gradient" x1="0.5" x2="0.5" y2="1" gradientUnits="objectBoundingBox">
      <stop offset="0" stop-color="#c3fdf7"/>
      <stop offset="1" stop-color="#e7ffdd"/>
    </linearGradient>
    <clipPath id="clip-path">
      <rect id="Rectángulo_378271" data-name="Rectángulo 378271" width="960.686" height="351.723" fill="none"/>
    </clipPath>
    <clipPath id="clip-path-2">
      <rect id="Rectángulo_378260" data-name="Rectángulo 378260" width="960.687" height="351.723" fill="none"/>
    </clipPath>
    <clipPath id="clip-path-3">
      <rect id="Rectángulo_378259" data-name="Rectángulo 378259" width="145.49" height="145.489" fill="none"/>
    </clipPath>
    <clipPath id="clip-path-6">
      <rect id="Rectángulo_378267" data-name="Rectángulo 378267" width="145.49" height="145.488" fill="none"/>
    </clipPath>
    <clipPath id="clip-path-8">
      <rect id="Rectángulo_378272" data-name="Rectángulo 378272" width="60.478" height="60.456" fill="#4e6644"/>
    </clipPath>
    <clipPath id="clip-path-9">
      <rect id="Rectángulo_378273" data-name="Rectángulo 378273" width="64.865" height="64.857" fill="#376460"/>
    </clipPath>
    <clipPath id="clip-path-10">
      <rect id="Rectángulo_378274" data-name="Rectángulo 378274" width="55.602" height="66.999" fill="#4e6644"/>
    </clipPath>
    <clipPath id="clip-path-11">
      <rect id="Rectángulo_378275" data-name="Rectángulo 378275" width="62.827" height="62.771" fill="#376460"/>
    </clipPath>
  </defs>
  <g id="Grupo_1072974" data-name="Grupo 1072974" transform="translate(-285 -7933.809)">
    <path id="Trazado_610687" data-name="Trazado 610687" d="M16,0h998c8.837,0,16,6.57,16,14.676V409.083c0,8.105-7.163,14.676-16,14.676H16c-8.837,0-16-6.57-16-14.676V14.676C0,6.57,7.163,0,16,0Z" transform="translate(285 7933.809)" fill="url(#linear-gradient)"/>
    <g id="Grupo_1072962" data-name="Grupo 1072962" transform="translate(320 7977)">
      <g id="Grupo_1072961" data-name="Grupo 1072961" clip-path="url(#clip-path)">
        <rect id="Rectángulo_378249" data-name="Rectángulo 378249" width="332.697" height="77.828" transform="translate(627.989 26.71)" fill="#99fbf2"/>
        <rect id="Rectángulo_378250" data-name="Rectángulo 378250" width="4.199" height="77.828" transform="translate(627.99 26.71)" fill="#8de0d8"/>
        <rect id="Rectángulo_378251" data-name="Rectángulo 378251" width="332.697" height="77.828" transform="translate(0 26.71)" fill="#cefcba"/>
        <rect id="Rectángulo_378252" data-name="Rectángulo 378252" width="4.199" height="77.828" transform="translate(328.498 26.71)" fill="#afe599"/>
        <rect id="Rectángulo_378253" data-name="Rectángulo 378253" width="332.697" height="77.828" transform="translate(0 247.185)" fill="#99fbf2"/>
        <rect id="Rectángulo_378254" data-name="Rectángulo 378254" width="4.199" height="77.828" transform="translate(328.498 247.185)" fill="#8de0d8"/>
        <rect id="Rectángulo_378255" data-name="Rectángulo 378255" width="332.697" height="77.828" transform="translate(627.989 247.185)" fill="#cefcba"/>
        <rect id="Rectángulo_378256" data-name="Rectángulo 378256" width="4.199" height="77.828" transform="translate(627.99 247.185)" fill="#afe599"/>
        <rect id="Rectángulo_378257" data-name="Rectángulo 378257" width="118.489" height="118.489" transform="translate(304.482 175.955) rotate(-45)" fill="#cefcba"/>
        <g id="Grupo_1072949" data-name="Grupo 1072949">
          <g id="Grupo_1072948" data-name="Grupo 1072948" clip-path="url(#clip-path-2)">
            <g id="Grupo_1072947" data-name="Grupo 1072947" transform="translate(315.522 103.211)" opacity="0.15">
              <g id="Grupo_1072946" data-name="Grupo 1072946">
                <g id="Grupo_1072945" data-name="Grupo 1072945" clip-path="url(#clip-path-3)">
                  <rect id="Rectángulo_378258" data-name="Rectángulo 378258" width="102.876" height="102.876" transform="translate(0 72.744) rotate(-45)"/>
                </g>
              </g>
            </g>
          </g>
        </g>
        <rect id="Rectángulo_378261" data-name="Rectángulo 378261" width="118.489" height="118.489" transform="translate(396.653 83.784) rotate(-45)" fill="#99fbf2"/>
        <rect id="Rectángulo_378262" data-name="Rectángulo 378262" width="118.489" height="118.489" transform="translate(396.465 267.939) rotate(-45)" fill="#99fbf2"/>
        <rect id="Rectángulo_378263" data-name="Rectángulo 378263" width="118.489" height="118.489" transform="translate(488.636 175.768) rotate(-45)" fill="#cefcba"/>
        <g id="Grupo_1072960" data-name="Grupo 1072960">
          <g id="Grupo_1072959" data-name="Grupo 1072959" clip-path="url(#clip-path-2)">
            <g id="Grupo_1072952" data-name="Grupo 1072952" transform="translate(407.598 195.288)" opacity="0.15">
              <g id="Grupo_1072951" data-name="Grupo 1072951">
                <g id="Grupo_1072950" data-name="Grupo 1072950" clip-path="url(#clip-path-3)">
                  <rect id="Rectángulo_378264" data-name="Rectángulo 378264" width="102.876" height="102.876" transform="translate(0.001 72.744) rotate(-45)"/>
                </g>
              </g>
            </g>
            <g id="Grupo_1072955" data-name="Grupo 1072955" transform="translate(407.941 11.289)" opacity="0.15">
              <g id="Grupo_1072954" data-name="Grupo 1072954">
                <g id="Grupo_1072953" data-name="Grupo 1072953" clip-path="url(#clip-path-6)">
                  <rect id="Rectángulo_378266" data-name="Rectángulo 378266" width="102.876" height="102.876" transform="translate(0 72.743) rotate(-45)"/>
                </g>
              </g>
            </g>
            <g id="Grupo_1072958" data-name="Grupo 1072958" transform="translate(500.017 103.365)" opacity="0.15">
              <g id="Grupo_1072957" data-name="Grupo 1072957">
                <g id="Grupo_1072956" data-name="Grupo 1072956" clip-path="url(#clip-path-3)">
                  <rect id="Rectángulo_378268" data-name="Rectángulo 378268" width="102.876" height="102.876" transform="translate(0.001 72.744) rotate(-45)"/>
                </g>
              </g>
            </g>
          </g>
        </g>
      </g>
    </g>
    <path id="Trazado_611168" data-name="Trazado 611168" d="M7.04,0H4.5V-9.791l-3.032.94v-2.065l5.3-1.9H7.04Zm4.395-1.248a1.279,1.279,0,0,1,.409-.984,1.45,1.45,0,0,1,1.024-.378,1.462,1.462,0,0,1,1.033.378,1.279,1.279,0,0,1,.409.984,1.261,1.261,0,0,1-.4.971A1.468,1.468,0,0,1,12.867.1a1.456,1.456,0,0,1-1.028-.374A1.261,1.261,0,0,1,11.435-1.248ZM27.817-3.357A1.353,1.353,0,0,0,27.29-4.5a6.917,6.917,0,0,0-1.9-.844,13.458,13.458,0,0,1-2.171-.875A3.547,3.547,0,0,1,21.041-9.4a3.09,3.09,0,0,1,.584-1.85,3.812,3.812,0,0,1,1.679-1.27,6.318,6.318,0,0,1,2.457-.457,5.751,5.751,0,0,1,2.443.5,3.891,3.891,0,0,1,1.666,1.4,3.668,3.668,0,0,1,.593,2.057H27.826a1.726,1.726,0,0,0-.554-1.367,2.276,2.276,0,0,0-1.556-.488,2.432,2.432,0,0,0-1.5.409,1.289,1.289,0,0,0-.536,1.077,1.235,1.235,0,0,0,.628,1.046,7.1,7.1,0,0,0,1.85.791,7.994,7.994,0,0,1,3.278,1.679,3.343,3.343,0,0,1,1.028,2.5A3.08,3.08,0,0,1,29.206-.769a5.5,5.5,0,0,1-3.384.945,6.534,6.534,0,0,1-2.689-.541,4.256,4.256,0,0,1-1.85-1.481,3.793,3.793,0,0,1-.637-2.18h2.646q0,2.118,2.531,2.118A2.462,2.462,0,0,0,27.29-2.29,1.244,1.244,0,0,0,27.817-3.357ZM36.457.176a4.668,4.668,0,0,1-3.406-1.283,4.561,4.561,0,0,1-1.314-3.419v-.246a5.745,5.745,0,0,1,.554-2.562,4.064,4.064,0,0,1,1.569-1.74,4.4,4.4,0,0,1,2.316-.611,3.947,3.947,0,0,1,3.072,1.23,5,5,0,0,1,1.121,3.489v1.037H34.313a2.36,2.36,0,0,0,.743,1.494,2.245,2.245,0,0,0,1.569.563,2.742,2.742,0,0,0,2.294-1.063l1.248,1.4A3.813,3.813,0,0,1,38.619-.277,5.075,5.075,0,0,1,36.457.176Zm-.29-7.813a1.587,1.587,0,0,0-1.226.512,2.651,2.651,0,0,0-.6,1.466h3.533v-.2a1.891,1.891,0,0,0-.457-1.311A1.638,1.638,0,0,0,36.167-7.638ZM41.44-4.825A5.573,5.573,0,0,1,42.482-8.35,3.375,3.375,0,0,1,45.29-9.686a2.96,2.96,0,0,1,2.435,1.072l.105-.9h2.3V-.316a4.064,4.064,0,0,1-.567,2.171,3.641,3.641,0,0,1-1.6,1.406,5.608,5.608,0,0,1-2.408.483,5.215,5.215,0,0,1-2.039-.417,3.619,3.619,0,0,1-1.5-1.077L43.146.7a2.975,2.975,0,0,0,2.3,1.063,2.178,2.178,0,0,0,1.573-.541,2.027,2.027,0,0,0,.563-1.534v-.51a2.938,2.938,0,0,1-2.312.993A3.366,3.366,0,0,1,42.5-1.165,5.572,5.572,0,0,1,41.44-4.72Zm2.54.189A3.47,3.47,0,0,0,44.5-2.607a1.65,1.65,0,0,0,1.424.735,1.764,1.764,0,0,0,1.661-.871V-6.749A1.76,1.76,0,0,0,45.94-7.62a1.66,1.66,0,0,0-1.437.748A3.911,3.911,0,0,0,43.98-4.636ZM54.466-9.51l.079,1.063a3.342,3.342,0,0,1,2.733-1.239A2.536,2.536,0,0,1,59.8-8.235a3.265,3.265,0,0,1,2.856-1.45,2.836,2.836,0,0,1,2.3.9,4.141,4.141,0,0,1,.756,2.711V0H63.167V-6.064a1.811,1.811,0,0,0-.316-1.182,1.4,1.4,0,0,0-1.116-.374,1.585,1.585,0,0,0-1.582,1.09L60.161,0h-2.54V-6.056a1.789,1.789,0,0,0-.325-1.2,1.416,1.416,0,0,0-1.107-.369,1.646,1.646,0,0,0-1.564.9V0h-2.54V-9.51ZM72.044.176a4.668,4.668,0,0,1-3.406-1.283,4.561,4.561,0,0,1-1.314-3.419v-.246a5.745,5.745,0,0,1,.554-2.562,4.064,4.064,0,0,1,1.569-1.74,4.4,4.4,0,0,1,2.316-.611,3.947,3.947,0,0,1,3.072,1.23,5,5,0,0,1,1.121,3.489v1.037H69.9a2.36,2.36,0,0,0,.743,1.494,2.245,2.245,0,0,0,1.569.563A2.742,2.742,0,0,0,74.5-2.936l1.248,1.4A3.813,3.813,0,0,1,74.206-.277,5.075,5.075,0,0,1,72.044.176Zm-.29-7.813a1.587,1.587,0,0,0-1.226.512,2.651,2.651,0,0,0-.6,1.466h3.533v-.2A1.891,1.891,0,0,0,73-7.174,1.638,1.638,0,0,0,71.754-7.638Zm7.98-1.872.079,1.1a3.32,3.32,0,0,1,2.733-1.274A2.759,2.759,0,0,1,84.8-8.8a4.142,4.142,0,0,1,.756,2.654V0h-2.54V-6.082a1.648,1.648,0,0,0-.352-1.173,1.574,1.574,0,0,0-1.169-.365,1.747,1.747,0,0,0-1.608.914V0h-2.54V-9.51Zm10.784-2.338V-9.51h1.626v1.863H90.519V-2.9a1.133,1.133,0,0,0,.2.756,1.015,1.015,0,0,0,.773.229,4.051,4.051,0,0,0,.747-.062V-.053A5.229,5.229,0,0,1,90.7.176a2.425,2.425,0,0,1-2.725-2.7V-7.646H86.59V-9.51h1.389v-2.338ZM99.07,0a2.821,2.821,0,0,1-.255-.853,3.073,3.073,0,0,1-2.4,1.028A3.376,3.376,0,0,1,94.1-.633a2.6,2.6,0,0,1-.918-2.039A2.687,2.687,0,0,1,94.3-4.992a5.529,5.529,0,0,1,3.239-.817H98.71v-.545a1.567,1.567,0,0,0-.338-1.055A1.331,1.331,0,0,0,97.3-7.8,1.513,1.513,0,0,0,96.3-7.5a1.045,1.045,0,0,0-.365.844h-2.54a2.551,2.551,0,0,1,.51-1.529,3.37,3.37,0,0,1,1.441-1.1,5.253,5.253,0,0,1,2.092-.4,4.15,4.15,0,0,1,2.791.883,3.09,3.09,0,0,1,1.033,2.483V-2.2a4.546,4.546,0,0,0,.378,2.048V0Zm-2.1-1.767a2.188,2.188,0,0,0,1.037-.25,1.645,1.645,0,0,0,.7-.672V-4.324h-.949q-1.907,0-2.03,1.318l-.009.149a1.017,1.017,0,0,0,.334.782A1.3,1.3,0,0,0,96.97-1.767Zm10.2-.105a1.666,1.666,0,0,0,1.143-.387,1.355,1.355,0,0,0,.457-1.028h2.382a3.258,3.258,0,0,1-.527,1.771A3.48,3.48,0,0,1,109.2-.268a4.442,4.442,0,0,1-1.991.444,4.129,4.129,0,0,1-3.217-1.3A5.13,5.13,0,0,1,102.814-4.7v-.167a5.071,5.071,0,0,1,1.169-3.507,4.08,4.08,0,0,1,3.208-1.31,4,4,0,0,1,2.861,1.015,3.594,3.594,0,0,1,1.094,2.7h-2.382a1.745,1.745,0,0,0-.457-1.206,1.524,1.524,0,0,0-1.16-.464,1.53,1.53,0,0,0-1.34.647,3.749,3.749,0,0,0-.453,2.1v.264a3.8,3.8,0,0,0,.448,2.113A1.549,1.549,0,0,0,107.165-1.872ZM115.277,0h-2.549V-9.51h2.549Zm-2.7-11.971a1.251,1.251,0,0,1,.382-.94A1.436,1.436,0,0,1,114-13.28a1.44,1.44,0,0,1,1.037.369,1.244,1.244,0,0,1,.387.94,1.247,1.247,0,0,1-.391.949,1.443,1.443,0,0,1-1.033.369,1.443,1.443,0,0,1-1.033-.369A1.247,1.247,0,0,1,112.579-11.971Zm4.395,7.128a5.64,5.64,0,0,1,.545-2.522,3.989,3.989,0,0,1,1.569-1.714,4.577,4.577,0,0,1,2.377-.606,4.33,4.33,0,0,1,3.142,1.178,4.727,4.727,0,0,1,1.358,3.2l.018.65a4.97,4.97,0,0,1-1.222,3.511A4.247,4.247,0,0,1,121.482.176,4.268,4.268,0,0,1,118.2-1.143a5.058,5.058,0,0,1-1.226-3.586Zm2.54.18a3.555,3.555,0,0,0,.51,2.073,1.682,1.682,0,0,0,1.459.717,1.686,1.686,0,0,0,1.441-.709,3.89,3.89,0,0,0,.519-2.267,3.519,3.519,0,0,0-.519-2.06,1.686,1.686,0,0,0-1.459-.731,1.658,1.658,0,0,0-1.441.726A3.955,3.955,0,0,0,119.514-4.662Zm2.452-8.838h2.769L122.3-10.775h-2.065Zm7.919,3.99.079,1.1A3.32,3.32,0,0,1,132.7-9.686a2.759,2.759,0,0,1,2.25.888,4.142,4.142,0,0,1,.756,2.654V0h-2.54V-6.082a1.648,1.648,0,0,0-.352-1.173,1.574,1.574,0,0,0-1.169-.365,1.747,1.747,0,0,0-1.608.914V0h-2.54V-9.51Zm11.83,4.685a5.731,5.731,0,0,1,1-3.542,3.237,3.237,0,0,1,2.729-1.318,2.913,2.913,0,0,1,2.294,1.037V-13.5h2.549V0H147.99l-.123-1.011A2.989,2.989,0,0,1,145.424.176a3.228,3.228,0,0,1-2.694-1.323A5.916,5.916,0,0,1,141.715-4.825Zm2.54.189a3.754,3.754,0,0,0,.466,2.051,1.517,1.517,0,0,0,1.354.713,1.7,1.7,0,0,0,1.661-.995V-6.625a1.675,1.675,0,0,0-1.644-.995Q144.255-7.62,144.255-4.636ZM156.63.176a4.668,4.668,0,0,1-3.406-1.283,4.561,4.561,0,0,1-1.314-3.419v-.246a5.745,5.745,0,0,1,.554-2.562,4.064,4.064,0,0,1,1.569-1.74,4.4,4.4,0,0,1,2.316-.611,3.947,3.947,0,0,1,3.072,1.23,5,5,0,0,1,1.121,3.489v1.037h-6.056a2.36,2.36,0,0,0,.743,1.494,2.245,2.245,0,0,0,1.569.563,2.742,2.742,0,0,0,2.294-1.063l1.248,1.4a3.813,3.813,0,0,1-1.547,1.261A5.075,5.075,0,0,1,156.63.176Zm-.29-7.813a1.587,1.587,0,0,0-1.226.512,2.651,2.651,0,0,0-.6,1.466h3.533v-.2a1.891,1.891,0,0,0-.457-1.311A1.638,1.638,0,0,0,156.34-7.638Zm8.024-1.872.079,1.063a3.342,3.342,0,0,1,2.733-1.239,2.536,2.536,0,0,1,2.522,1.45,3.265,3.265,0,0,1,2.856-1.45,2.836,2.836,0,0,1,2.3.9,4.141,4.141,0,0,1,.756,2.711V0h-2.549V-6.064a1.811,1.811,0,0,0-.316-1.182,1.4,1.4,0,0,0-1.116-.374,1.585,1.585,0,0,0-1.582,1.09L170.06,0h-2.54V-6.056a1.789,1.789,0,0,0-.325-1.2,1.416,1.416,0,0,0-1.107-.369,1.646,1.646,0,0,0-1.564.9V0h-2.54V-9.51ZM177.17-4.843a5.64,5.64,0,0,1,.545-2.522,3.989,3.989,0,0,1,1.569-1.714,4.577,4.577,0,0,1,2.377-.606A4.33,4.33,0,0,1,184.8-8.508a4.727,4.727,0,0,1,1.358,3.2l.018.65a4.97,4.97,0,0,1-1.222,3.511A4.247,4.247,0,0,1,181.679.176,4.268,4.268,0,0,1,178.4-1.143a5.058,5.058,0,0,1-1.226-3.586Zm2.54.18a3.555,3.555,0,0,0,.51,2.073,1.682,1.682,0,0,0,1.459.717,1.686,1.686,0,0,0,1.441-.709,3.89,3.89,0,0,0,.519-2.267,3.519,3.519,0,0,0-.519-2.06,1.686,1.686,0,0,0-1.459-.731,1.658,1.658,0,0,0-1.441.726A3.955,3.955,0,0,0,179.71-4.662Zm7.664-.163a5.573,5.573,0,0,1,1.042-3.524,3.375,3.375,0,0,1,2.808-1.336,2.96,2.96,0,0,1,2.435,1.072l.105-.9h2.3V-.316a4.064,4.064,0,0,1-.567,2.171,3.641,3.641,0,0,1-1.6,1.406,5.608,5.608,0,0,1-2.408.483,5.215,5.215,0,0,1-2.039-.417,3.619,3.619,0,0,1-1.5-1.077L189.079.7a2.975,2.975,0,0,0,2.3,1.063,2.178,2.178,0,0,0,1.573-.541,2.027,2.027,0,0,0,.563-1.534v-.51a2.938,2.938,0,0,1-2.312.993,3.366,3.366,0,0,1-2.773-1.34,5.572,5.572,0,0,1-1.059-3.555Zm2.54.189a3.47,3.47,0,0,0,.519,2.029,1.65,1.65,0,0,0,1.424.735,1.764,1.764,0,0,0,1.661-.871V-6.749a1.76,1.76,0,0,0-1.644-.871,1.66,1.66,0,0,0-1.437.748A3.911,3.911,0,0,0,189.914-4.636Zm13.447-2.492a6.9,6.9,0,0,0-.914-.07,1.86,1.86,0,0,0-1.89.976V0h-2.54V-9.51h2.4l.07,1.134a2.354,2.354,0,0,1,2.118-1.31,2.662,2.662,0,0,1,.791.114ZM209.83,0a2.821,2.821,0,0,1-.255-.853,3.073,3.073,0,0,1-2.4,1.028,3.376,3.376,0,0,1-2.316-.809,2.6,2.6,0,0,1-.918-2.039,2.687,2.687,0,0,1,1.121-2.32A5.529,5.529,0,0,1,208.3-5.81h1.169v-.545a1.567,1.567,0,0,0-.338-1.055,1.331,1.331,0,0,0-1.068-.4,1.513,1.513,0,0,0-1.006.308,1.045,1.045,0,0,0-.365.844h-2.54a2.551,2.551,0,0,1,.51-1.529,3.37,3.37,0,0,1,1.441-1.1,5.253,5.253,0,0,1,2.092-.4,4.15,4.15,0,0,1,2.791.883,3.09,3.09,0,0,1,1.033,2.483V-2.2A4.546,4.546,0,0,0,212.4-.149V0Zm-2.1-1.767a2.188,2.188,0,0,0,1.037-.25,1.645,1.645,0,0,0,.7-.672V-4.324h-.949q-1.907,0-2.03,1.318l-.009.149a1.017,1.017,0,0,0,.334.782A1.3,1.3,0,0,0,207.729-1.767ZM208.7-13.5h2.769l-2.435,2.725h-2.065ZM214.585,0V-7.646H213.17V-9.51h1.415v-.439a3.566,3.566,0,0,1,1.1-2.764,4.438,4.438,0,0,1,3.063-.971,10.16,10.16,0,0,1,2.883.519l-.369,2.1a11.248,11.248,0,0,0-1.336-.33,6.564,6.564,0,0,0-1.02-.075q-1.775,0-1.775,1.573v.387h1.872v1.863h-1.872V0Zm8.235,0h-2.549V-9.51h2.549Zm6.056-1.872a1.666,1.666,0,0,0,1.143-.387,1.355,1.355,0,0,0,.457-1.028h2.382a3.258,3.258,0,0,1-.527,1.771,3.48,3.48,0,0,1-1.419,1.248,4.442,4.442,0,0,1-1.991.444,4.129,4.129,0,0,1-3.217-1.3A5.13,5.13,0,0,1,224.525-4.7v-.167a5.071,5.071,0,0,1,1.169-3.507,4.08,4.08,0,0,1,3.208-1.31,4,4,0,0,1,2.861,1.015,3.594,3.594,0,0,1,1.094,2.7h-2.382a1.745,1.745,0,0,0-.457-1.206,1.524,1.524,0,0,0-1.16-.464,1.53,1.53,0,0,0-1.34.647,3.749,3.749,0,0,0-.453,2.1v.264a3.8,3.8,0,0,0,.448,2.113A1.549,1.549,0,0,0,228.876-1.872ZM239.818,0a2.821,2.821,0,0,1-.255-.853,3.073,3.073,0,0,1-2.4,1.028,3.376,3.376,0,0,1-2.316-.809,2.6,2.6,0,0,1-.918-2.039,2.687,2.687,0,0,1,1.121-2.32,5.529,5.529,0,0,1,3.239-.817h1.169v-.545a1.567,1.567,0,0,0-.338-1.055,1.331,1.331,0,0,0-1.068-.4,1.513,1.513,0,0,0-1.006.308,1.045,1.045,0,0,0-.365.844h-2.54a2.551,2.551,0,0,1,.51-1.529,3.37,3.37,0,0,1,1.441-1.1,5.253,5.253,0,0,1,2.092-.4,4.15,4.15,0,0,1,2.791.883,3.09,3.09,0,0,1,1.033,2.483V-2.2a4.546,4.546,0,0,0,.378,2.048V0Zm-2.1-1.767a2.188,2.188,0,0,0,1.037-.25,1.645,1.645,0,0,0,.7-.672V-4.324h-.949q-1.907,0-2.03,1.318l-.009.149a1.017,1.017,0,0,0,.334.782A1.3,1.3,0,0,0,237.718-1.767Z" transform="translate(365 8049)" fill="#12263f"/>
    <path id="Trazado_611169" data-name="Trazado 611169" d="M9.642,0H.87V-1.74L5.01-6.152A10.212,10.212,0,0,0,6.271-7.778,2.612,2.612,0,0,0,6.68-9.1a1.955,1.955,0,0,0-.431-1.34,1.555,1.555,0,0,0-1.23-.488,1.677,1.677,0,0,0-1.358.593,2.35,2.35,0,0,0-.5,1.56H.615a4.2,4.2,0,0,1,.558-2.136,3.934,3.934,0,0,1,1.578-1.516,4.8,4.8,0,0,1,2.312-.549,4.54,4.54,0,0,1,3.072.949A3.358,3.358,0,0,1,9.229-9.343a4.3,4.3,0,0,1-.492,1.934A10.745,10.745,0,0,1,7.049-5.115L4.14-2.048h5.5Zm1.793-1.248a1.279,1.279,0,0,1,.409-.984,1.45,1.45,0,0,1,1.024-.378,1.462,1.462,0,0,1,1.033.378,1.279,1.279,0,0,1,.409.984,1.261,1.261,0,0,1-.4.971A1.468,1.468,0,0,1,12.867.1a1.456,1.456,0,0,1-1.028-.374A1.261,1.261,0,0,1,11.435-1.248ZM27.817-3.357A1.353,1.353,0,0,0,27.29-4.5a6.917,6.917,0,0,0-1.9-.844,13.458,13.458,0,0,1-2.171-.875A3.547,3.547,0,0,1,21.041-9.4a3.09,3.09,0,0,1,.584-1.85,3.812,3.812,0,0,1,1.679-1.27,6.318,6.318,0,0,1,2.457-.457,5.751,5.751,0,0,1,2.443.5,3.891,3.891,0,0,1,1.666,1.4,3.668,3.668,0,0,1,.593,2.057H27.826a1.726,1.726,0,0,0-.554-1.367,2.276,2.276,0,0,0-1.556-.488,2.432,2.432,0,0,0-1.5.409,1.289,1.289,0,0,0-.536,1.077,1.235,1.235,0,0,0,.628,1.046,7.1,7.1,0,0,0,1.85.791,7.994,7.994,0,0,1,3.278,1.679,3.343,3.343,0,0,1,1.028,2.5A3.08,3.08,0,0,1,29.206-.769a5.5,5.5,0,0,1-3.384.945,6.534,6.534,0,0,1-2.689-.541,4.256,4.256,0,0,1-1.85-1.481,3.793,3.793,0,0,1-.637-2.18h2.646q0,2.118,2.531,2.118A2.462,2.462,0,0,0,27.29-2.29,1.244,1.244,0,0,0,27.817-3.357ZM36.457.176a4.668,4.668,0,0,1-3.406-1.283,4.561,4.561,0,0,1-1.314-3.419v-.246a5.745,5.745,0,0,1,.554-2.562,4.064,4.064,0,0,1,1.569-1.74,4.4,4.4,0,0,1,2.316-.611,3.947,3.947,0,0,1,3.072,1.23,5,5,0,0,1,1.121,3.489v1.037H34.313a2.36,2.36,0,0,0,.743,1.494,2.245,2.245,0,0,0,1.569.563,2.742,2.742,0,0,0,2.294-1.063l1.248,1.4A3.813,3.813,0,0,1,38.619-.277,5.075,5.075,0,0,1,36.457.176Zm-.29-7.813a1.587,1.587,0,0,0-1.226.512,2.651,2.651,0,0,0-.6,1.466h3.533v-.2a1.891,1.891,0,0,0-.457-1.311A1.638,1.638,0,0,0,36.167-7.638ZM41.44-4.825A5.573,5.573,0,0,1,42.482-8.35,3.375,3.375,0,0,1,45.29-9.686a2.96,2.96,0,0,1,2.435,1.072l.105-.9h2.3V-.316a4.064,4.064,0,0,1-.567,2.171,3.641,3.641,0,0,1-1.6,1.406,5.608,5.608,0,0,1-2.408.483,5.215,5.215,0,0,1-2.039-.417,3.619,3.619,0,0,1-1.5-1.077L43.146.7a2.975,2.975,0,0,0,2.3,1.063,2.178,2.178,0,0,0,1.573-.541,2.027,2.027,0,0,0,.563-1.534v-.51a2.938,2.938,0,0,1-2.312.993A3.366,3.366,0,0,1,42.5-1.165,5.572,5.572,0,0,1,41.44-4.72Zm2.54.189A3.47,3.47,0,0,0,44.5-2.607a1.65,1.65,0,0,0,1.424.735,1.764,1.764,0,0,0,1.661-.871V-6.749A1.76,1.76,0,0,0,45.94-7.62a1.66,1.66,0,0,0-1.437.748A3.911,3.911,0,0,0,43.98-4.636ZM54.466-9.51l.079,1.063a3.342,3.342,0,0,1,2.733-1.239A2.536,2.536,0,0,1,59.8-8.235a3.265,3.265,0,0,1,2.856-1.45,2.836,2.836,0,0,1,2.3.9,4.141,4.141,0,0,1,.756,2.711V0H63.167V-6.064a1.811,1.811,0,0,0-.316-1.182,1.4,1.4,0,0,0-1.116-.374,1.585,1.585,0,0,0-1.582,1.09L60.161,0h-2.54V-6.056a1.789,1.789,0,0,0-.325-1.2,1.416,1.416,0,0,0-1.107-.369,1.646,1.646,0,0,0-1.564.9V0h-2.54V-9.51ZM72.044.176a4.668,4.668,0,0,1-3.406-1.283,4.561,4.561,0,0,1-1.314-3.419v-.246a5.745,5.745,0,0,1,.554-2.562,4.064,4.064,0,0,1,1.569-1.74,4.4,4.4,0,0,1,2.316-.611,3.947,3.947,0,0,1,3.072,1.23,5,5,0,0,1,1.121,3.489v1.037H69.9a2.36,2.36,0,0,0,.743,1.494,2.245,2.245,0,0,0,1.569.563A2.742,2.742,0,0,0,74.5-2.936l1.248,1.4A3.813,3.813,0,0,1,74.206-.277,5.075,5.075,0,0,1,72.044.176Zm-.29-7.813a1.587,1.587,0,0,0-1.226.512,2.651,2.651,0,0,0-.6,1.466h3.533v-.2A1.891,1.891,0,0,0,73-7.174,1.638,1.638,0,0,0,71.754-7.638Zm7.98-1.872.079,1.1a3.32,3.32,0,0,1,2.733-1.274A2.759,2.759,0,0,1,84.8-8.8a4.142,4.142,0,0,1,.756,2.654V0h-2.54V-6.082a1.648,1.648,0,0,0-.352-1.173,1.574,1.574,0,0,0-1.169-.365,1.747,1.747,0,0,0-1.608.914V0h-2.54V-9.51Zm10.784-2.338V-9.51h1.626v1.863H90.519V-2.9a1.133,1.133,0,0,0,.2.756,1.015,1.015,0,0,0,.773.229,4.051,4.051,0,0,0,.747-.062V-.053A5.229,5.229,0,0,1,90.7.176a2.425,2.425,0,0,1-2.725-2.7V-7.646H86.59V-9.51h1.389v-2.338ZM99.07,0a2.821,2.821,0,0,1-.255-.853,3.073,3.073,0,0,1-2.4,1.028A3.376,3.376,0,0,1,94.1-.633a2.6,2.6,0,0,1-.918-2.039A2.687,2.687,0,0,1,94.3-4.992a5.529,5.529,0,0,1,3.239-.817H98.71v-.545a1.567,1.567,0,0,0-.338-1.055A1.331,1.331,0,0,0,97.3-7.8,1.513,1.513,0,0,0,96.3-7.5a1.045,1.045,0,0,0-.365.844h-2.54a2.551,2.551,0,0,1,.51-1.529,3.37,3.37,0,0,1,1.441-1.1,5.253,5.253,0,0,1,2.092-.4,4.15,4.15,0,0,1,2.791.883,3.09,3.09,0,0,1,1.033,2.483V-2.2a4.546,4.546,0,0,0,.378,2.048V0Zm-2.1-1.767a2.188,2.188,0,0,0,1.037-.25,1.645,1.645,0,0,0,.7-.672V-4.324h-.949q-1.907,0-2.03,1.318l-.009.149a1.017,1.017,0,0,0,.334.782A1.3,1.3,0,0,0,96.97-1.767Zm10.2-.105a1.666,1.666,0,0,0,1.143-.387,1.355,1.355,0,0,0,.457-1.028h2.382a3.258,3.258,0,0,1-.527,1.771A3.48,3.48,0,0,1,109.2-.268a4.442,4.442,0,0,1-1.991.444,4.129,4.129,0,0,1-3.217-1.3A5.13,5.13,0,0,1,102.814-4.7v-.167a5.071,5.071,0,0,1,1.169-3.507,4.08,4.08,0,0,1,3.208-1.31,4,4,0,0,1,2.861,1.015,3.594,3.594,0,0,1,1.094,2.7h-2.382a1.745,1.745,0,0,0-.457-1.206,1.524,1.524,0,0,0-1.16-.464,1.53,1.53,0,0,0-1.34.647,3.749,3.749,0,0,0-.453,2.1v.264a3.8,3.8,0,0,0,.448,2.113A1.549,1.549,0,0,0,107.165-1.872ZM115.277,0h-2.549V-9.51h2.549Zm-2.7-11.971a1.251,1.251,0,0,1,.382-.94A1.436,1.436,0,0,1,114-13.28a1.44,1.44,0,0,1,1.037.369,1.244,1.244,0,0,1,.387.94,1.247,1.247,0,0,1-.391.949,1.443,1.443,0,0,1-1.033.369,1.443,1.443,0,0,1-1.033-.369A1.247,1.247,0,0,1,112.579-11.971Zm4.395,7.128a5.64,5.64,0,0,1,.545-2.522,3.989,3.989,0,0,1,1.569-1.714,4.577,4.577,0,0,1,2.377-.606,4.33,4.33,0,0,1,3.142,1.178,4.727,4.727,0,0,1,1.358,3.2l.018.65a4.97,4.97,0,0,1-1.222,3.511A4.247,4.247,0,0,1,121.482.176,4.268,4.268,0,0,1,118.2-1.143a5.058,5.058,0,0,1-1.226-3.586Zm2.54.18a3.555,3.555,0,0,0,.51,2.073,1.682,1.682,0,0,0,1.459.717,1.686,1.686,0,0,0,1.441-.709,3.89,3.89,0,0,0,.519-2.267,3.519,3.519,0,0,0-.519-2.06,1.686,1.686,0,0,0-1.459-.731,1.658,1.658,0,0,0-1.441.726A3.955,3.955,0,0,0,119.514-4.662Zm2.452-8.838h2.769L122.3-10.775h-2.065Zm7.919,3.99.079,1.1A3.32,3.32,0,0,1,132.7-9.686a2.759,2.759,0,0,1,2.25.888,4.142,4.142,0,0,1,.756,2.654V0h-2.54V-6.082a1.648,1.648,0,0,0-.352-1.173,1.574,1.574,0,0,0-1.169-.365,1.747,1.747,0,0,0-1.608.914V0h-2.54V-9.51Zm11.856,4.685a5.573,5.573,0,0,1,1.042-3.524,3.375,3.375,0,0,1,2.808-1.336,2.96,2.96,0,0,1,2.435,1.072l.105-.9h2.3V-.316a4.064,4.064,0,0,1-.567,2.171,3.641,3.641,0,0,1-1.6,1.406,5.608,5.608,0,0,1-2.408.483,5.215,5.215,0,0,1-2.039-.417,3.619,3.619,0,0,1-1.5-1.077L143.446.7a2.975,2.975,0,0,0,2.3,1.063,2.178,2.178,0,0,0,1.573-.541,2.027,2.027,0,0,0,.563-1.534v-.51a2.938,2.938,0,0,1-2.312.993,3.366,3.366,0,0,1-2.773-1.34,5.572,5.572,0,0,1-1.059-3.555Zm2.54.189a3.47,3.47,0,0,0,.519,2.029,1.65,1.65,0,0,0,1.424.735,1.764,1.764,0,0,0,1.661-.871V-6.749a1.76,1.76,0,0,0-1.644-.871,1.66,1.66,0,0,0-1.437.748A3.911,3.911,0,0,0,144.281-4.636ZM156.762.176a4.668,4.668,0,0,1-3.406-1.283,4.561,4.561,0,0,1-1.314-3.419v-.246a5.745,5.745,0,0,1,.554-2.562,4.064,4.064,0,0,1,1.569-1.74,4.4,4.4,0,0,1,2.316-.611,3.947,3.947,0,0,1,3.072,1.23,5,5,0,0,1,1.121,3.489v1.037h-6.056a2.36,2.36,0,0,0,.743,1.494,2.245,2.245,0,0,0,1.569.563,2.742,2.742,0,0,0,2.294-1.063l1.248,1.4a3.813,3.813,0,0,1-1.547,1.261A5.075,5.075,0,0,1,156.762.176Zm-.29-7.813a1.587,1.587,0,0,0-1.226.512,2.651,2.651,0,0,0-.6,1.466h3.533v-.2a1.891,1.891,0,0,0-.457-1.311A1.638,1.638,0,0,0,156.472-7.638Zm5.247,2.795a5.64,5.64,0,0,1,.545-2.522,3.989,3.989,0,0,1,1.569-1.714,4.577,4.577,0,0,1,2.377-.606,4.33,4.33,0,0,1,3.142,1.178,4.727,4.727,0,0,1,1.358,3.2l.018.65a4.97,4.97,0,0,1-1.222,3.511A4.247,4.247,0,0,1,166.228.176a4.268,4.268,0,0,1-3.283-1.318,5.058,5.058,0,0,1-1.226-3.586Zm2.54.18a3.555,3.555,0,0,0,.51,2.073,1.682,1.682,0,0,0,1.459.717,1.686,1.686,0,0,0,1.441-.709,3.89,3.89,0,0,0,.519-2.267,3.519,3.519,0,0,0-.519-2.06,1.686,1.686,0,0,0-1.459-.731,1.658,1.658,0,0,0-1.441.726A3.955,3.955,0,0,0,164.259-4.662Zm7.664-.163a5.573,5.573,0,0,1,1.042-3.524,3.375,3.375,0,0,1,2.808-1.336,2.96,2.96,0,0,1,2.435,1.072l.105-.9h2.3V-.316a4.064,4.064,0,0,1-.567,2.171,3.641,3.641,0,0,1-1.6,1.406,5.608,5.608,0,0,1-2.408.483,5.215,5.215,0,0,1-2.039-.417,3.619,3.619,0,0,1-1.5-1.077L173.628.7a2.975,2.975,0,0,0,2.3,1.063,2.178,2.178,0,0,0,1.573-.541,2.027,2.027,0,0,0,.563-1.534v-.51a2.938,2.938,0,0,1-2.312.993,3.366,3.366,0,0,1-2.773-1.34,5.572,5.572,0,0,1-1.059-3.555Zm2.54.189a3.47,3.47,0,0,0,.519,2.029,1.65,1.65,0,0,0,1.424.735,1.764,1.764,0,0,0,1.661-.871V-6.749a1.76,1.76,0,0,0-1.644-.871,1.66,1.66,0,0,0-1.437.748A3.911,3.911,0,0,0,174.463-4.636ZM187.91-7.128A6.9,6.9,0,0,0,187-7.2a1.86,1.86,0,0,0-1.89.976V0h-2.54V-9.51h2.4l.07,1.134a2.354,2.354,0,0,1,2.118-1.31,2.662,2.662,0,0,1,.791.114ZM194.379,0a2.821,2.821,0,0,1-.255-.853,3.073,3.073,0,0,1-2.4,1.028,3.376,3.376,0,0,1-2.316-.809,2.6,2.6,0,0,1-.918-2.039,2.687,2.687,0,0,1,1.121-2.32,5.529,5.529,0,0,1,3.239-.817h1.169v-.545a1.567,1.567,0,0,0-.338-1.055,1.331,1.331,0,0,0-1.068-.4,1.513,1.513,0,0,0-1.006.308,1.045,1.045,0,0,0-.365.844H188.7a2.551,2.551,0,0,1,.51-1.529,3.37,3.37,0,0,1,1.441-1.1,5.253,5.253,0,0,1,2.092-.4,4.15,4.15,0,0,1,2.791.883,3.09,3.09,0,0,1,1.033,2.483V-2.2a4.546,4.546,0,0,0,.378,2.048V0Zm-2.1-1.767a2.188,2.188,0,0,0,1.037-.25,1.645,1.645,0,0,0,.7-.672V-4.324h-.949q-1.907,0-2.03,1.318l-.009.149a1.017,1.017,0,0,0,.334.782A1.3,1.3,0,0,0,192.278-1.767Zm.967-11.733h2.769l-2.435,2.725h-2.065ZM199.134,0V-7.646h-1.415V-9.51h1.415v-.439a3.566,3.566,0,0,1,1.1-2.764,4.438,4.438,0,0,1,3.063-.971,10.16,10.16,0,0,1,2.883.519l-.369,2.1a11.248,11.248,0,0,0-1.336-.33,6.564,6.564,0,0,0-1.02-.075q-1.775,0-1.775,1.573v.387h1.872v1.863h-1.872V0Zm8.235,0H204.82V-9.51h2.549Zm6.056-1.872a1.666,1.666,0,0,0,1.143-.387,1.355,1.355,0,0,0,.457-1.028h2.382a3.258,3.258,0,0,1-.527,1.771,3.48,3.48,0,0,1-1.419,1.248,4.442,4.442,0,0,1-1.991.444,4.129,4.129,0,0,1-3.217-1.3A5.13,5.13,0,0,1,209.074-4.7v-.167a5.071,5.071,0,0,1,1.169-3.507,4.08,4.08,0,0,1,3.208-1.31,4,4,0,0,1,2.861,1.015,3.594,3.594,0,0,1,1.094,2.7h-2.382a1.745,1.745,0,0,0-.457-1.206,1.524,1.524,0,0,0-1.16-.464,1.53,1.53,0,0,0-1.34.647,3.749,3.749,0,0,0-.453,2.1v.264a3.8,3.8,0,0,0,.448,2.113A1.549,1.549,0,0,0,213.425-1.872ZM224.367,0a2.821,2.821,0,0,1-.255-.853,3.073,3.073,0,0,1-2.4,1.028A3.376,3.376,0,0,1,219.4-.633a2.6,2.6,0,0,1-.918-2.039,2.687,2.687,0,0,1,1.121-2.32,5.529,5.529,0,0,1,3.239-.817h1.169v-.545a1.567,1.567,0,0,0-.338-1.055,1.331,1.331,0,0,0-1.068-.4,1.513,1.513,0,0,0-1.006.308,1.045,1.045,0,0,0-.365.844h-2.54a2.551,2.551,0,0,1,.51-1.529,3.37,3.37,0,0,1,1.441-1.1,5.253,5.253,0,0,1,2.092-.4,4.15,4.15,0,0,1,2.791.883,3.09,3.09,0,0,1,1.033,2.483V-2.2a4.546,4.546,0,0,0,.378,2.048V0Zm-2.1-1.767a2.188,2.188,0,0,0,1.037-.25,1.645,1.645,0,0,0,.7-.672V-4.324h-.949q-1.907,0-2.03,1.318l-.009.149a1.017,1.017,0,0,0,.334.782A1.3,1.3,0,0,0,222.267-1.767Z" transform="translate(1001 8049)" fill="#12263f"/>
    <path id="Trazado_611170" data-name="Trazado 611170" d="M3.454-7.523H4.808A1.907,1.907,0,0,0,6.24-8.007,1.771,1.771,0,0,0,6.706-9.29a1.566,1.566,0,0,0-.461-1.2,1.788,1.788,0,0,0-1.27-.431,1.874,1.874,0,0,0-1.222.4,1.279,1.279,0,0,0-.492,1.042H.721a3.124,3.124,0,0,1,.541-1.8,3.6,3.6,0,0,1,1.512-1.244,5.045,5.045,0,0,1,2.14-.448A4.785,4.785,0,0,1,8.095-12,3.314,3.314,0,0,1,9.246-9.325,2.693,2.693,0,0,1,8.71-7.708,3.483,3.483,0,0,1,7.3-6.574a3.18,3.18,0,0,1,1.613,1.16,3.147,3.147,0,0,1,.532,1.828A3.369,3.369,0,0,1,8.2-.853,5,5,0,0,1,4.913.176,4.741,4.741,0,0,1,1.78-.835,3.3,3.3,0,0,1,.563-3.507H3.1a1.472,1.472,0,0,0,.541,1.178,1.992,1.992,0,0,0,1.332.457,2,2,0,0,0,1.419-.479,1.654,1.654,0,0,0,.514-1.27q0-1.916-2.109-1.916H3.454Zm7.98,6.275a1.279,1.279,0,0,1,.409-.984,1.45,1.45,0,0,1,1.024-.378,1.462,1.462,0,0,1,1.033.378,1.279,1.279,0,0,1,.409.984,1.261,1.261,0,0,1-.4.971A1.468,1.468,0,0,1,12.867.1a1.456,1.456,0,0,1-1.028-.374A1.261,1.261,0,0,1,11.435-1.248ZM27.817-3.357A1.353,1.353,0,0,0,27.29-4.5a6.917,6.917,0,0,0-1.9-.844,13.458,13.458,0,0,1-2.171-.875A3.547,3.547,0,0,1,21.041-9.4a3.09,3.09,0,0,1,.584-1.85,3.812,3.812,0,0,1,1.679-1.27,6.318,6.318,0,0,1,2.457-.457,5.751,5.751,0,0,1,2.443.5,3.891,3.891,0,0,1,1.666,1.4,3.668,3.668,0,0,1,.593,2.057H27.826a1.726,1.726,0,0,0-.554-1.367,2.276,2.276,0,0,0-1.556-.488,2.432,2.432,0,0,0-1.5.409,1.289,1.289,0,0,0-.536,1.077,1.235,1.235,0,0,0,.628,1.046,7.1,7.1,0,0,0,1.85.791,7.994,7.994,0,0,1,3.278,1.679,3.343,3.343,0,0,1,1.028,2.5A3.08,3.08,0,0,1,29.206-.769a5.5,5.5,0,0,1-3.384.945,6.534,6.534,0,0,1-2.689-.541,4.256,4.256,0,0,1-1.85-1.481,3.793,3.793,0,0,1-.637-2.18h2.646q0,2.118,2.531,2.118A2.462,2.462,0,0,0,27.29-2.29,1.244,1.244,0,0,0,27.817-3.357ZM36.457.176a4.668,4.668,0,0,1-3.406-1.283,4.561,4.561,0,0,1-1.314-3.419v-.246a5.745,5.745,0,0,1,.554-2.562,4.064,4.064,0,0,1,1.569-1.74,4.4,4.4,0,0,1,2.316-.611,3.947,3.947,0,0,1,3.072,1.23,5,5,0,0,1,1.121,3.489v1.037H34.313a2.36,2.36,0,0,0,.743,1.494,2.245,2.245,0,0,0,1.569.563,2.742,2.742,0,0,0,2.294-1.063l1.248,1.4A3.813,3.813,0,0,1,38.619-.277,5.075,5.075,0,0,1,36.457.176Zm-.29-7.813a1.587,1.587,0,0,0-1.226.512,2.651,2.651,0,0,0-.6,1.466h3.533v-.2a1.891,1.891,0,0,0-.457-1.311A1.638,1.638,0,0,0,36.167-7.638ZM41.44-4.825A5.573,5.573,0,0,1,42.482-8.35,3.375,3.375,0,0,1,45.29-9.686a2.96,2.96,0,0,1,2.435,1.072l.105-.9h2.3V-.316a4.064,4.064,0,0,1-.567,2.171,3.641,3.641,0,0,1-1.6,1.406,5.608,5.608,0,0,1-2.408.483,5.215,5.215,0,0,1-2.039-.417,3.619,3.619,0,0,1-1.5-1.077L43.146.7a2.975,2.975,0,0,0,2.3,1.063,2.178,2.178,0,0,0,1.573-.541,2.027,2.027,0,0,0,.563-1.534v-.51a2.938,2.938,0,0,1-2.312.993A3.366,3.366,0,0,1,42.5-1.165,5.572,5.572,0,0,1,41.44-4.72Zm2.54.189A3.47,3.47,0,0,0,44.5-2.607a1.65,1.65,0,0,0,1.424.735,1.764,1.764,0,0,0,1.661-.871V-6.749A1.76,1.76,0,0,0,45.94-7.62a1.66,1.66,0,0,0-1.437.748A3.911,3.911,0,0,0,43.98-4.636ZM54.466-9.51l.079,1.063a3.342,3.342,0,0,1,2.733-1.239A2.536,2.536,0,0,1,59.8-8.235a3.265,3.265,0,0,1,2.856-1.45,2.836,2.836,0,0,1,2.3.9,4.141,4.141,0,0,1,.756,2.711V0H63.167V-6.064a1.811,1.811,0,0,0-.316-1.182,1.4,1.4,0,0,0-1.116-.374,1.585,1.585,0,0,0-1.582,1.09L60.161,0h-2.54V-6.056a1.789,1.789,0,0,0-.325-1.2,1.416,1.416,0,0,0-1.107-.369,1.646,1.646,0,0,0-1.564.9V0h-2.54V-9.51ZM72.044.176a4.668,4.668,0,0,1-3.406-1.283,4.561,4.561,0,0,1-1.314-3.419v-.246a5.745,5.745,0,0,1,.554-2.562,4.064,4.064,0,0,1,1.569-1.74,4.4,4.4,0,0,1,2.316-.611,3.947,3.947,0,0,1,3.072,1.23,5,5,0,0,1,1.121,3.489v1.037H69.9a2.36,2.36,0,0,0,.743,1.494,2.245,2.245,0,0,0,1.569.563A2.742,2.742,0,0,0,74.5-2.936l1.248,1.4A3.813,3.813,0,0,1,74.206-.277,5.075,5.075,0,0,1,72.044.176Zm-.29-7.813a1.587,1.587,0,0,0-1.226.512,2.651,2.651,0,0,0-.6,1.466h3.533v-.2A1.891,1.891,0,0,0,73-7.174,1.638,1.638,0,0,0,71.754-7.638Zm7.98-1.872.079,1.1a3.32,3.32,0,0,1,2.733-1.274A2.759,2.759,0,0,1,84.8-8.8a4.142,4.142,0,0,1,.756,2.654V0h-2.54V-6.082a1.648,1.648,0,0,0-.352-1.173,1.574,1.574,0,0,0-1.169-.365,1.747,1.747,0,0,0-1.608.914V0h-2.54V-9.51Zm10.784-2.338V-9.51h1.626v1.863H90.519V-2.9a1.133,1.133,0,0,0,.2.756,1.015,1.015,0,0,0,.773.229,4.051,4.051,0,0,0,.747-.062V-.053A5.229,5.229,0,0,1,90.7.176a2.425,2.425,0,0,1-2.725-2.7V-7.646H86.59V-9.51h1.389v-2.338ZM99.07,0a2.821,2.821,0,0,1-.255-.853,3.073,3.073,0,0,1-2.4,1.028A3.376,3.376,0,0,1,94.1-.633a2.6,2.6,0,0,1-.918-2.039A2.687,2.687,0,0,1,94.3-4.992a5.529,5.529,0,0,1,3.239-.817H98.71v-.545a1.567,1.567,0,0,0-.338-1.055A1.331,1.331,0,0,0,97.3-7.8,1.513,1.513,0,0,0,96.3-7.5a1.045,1.045,0,0,0-.365.844h-2.54a2.551,2.551,0,0,1,.51-1.529,3.37,3.37,0,0,1,1.441-1.1,5.253,5.253,0,0,1,2.092-.4,4.15,4.15,0,0,1,2.791.883,3.09,3.09,0,0,1,1.033,2.483V-2.2a4.546,4.546,0,0,0,.378,2.048V0Zm-2.1-1.767a2.188,2.188,0,0,0,1.037-.25,1.645,1.645,0,0,0,.7-.672V-4.324h-.949q-1.907,0-2.03,1.318l-.009.149a1.017,1.017,0,0,0,.334.782A1.3,1.3,0,0,0,96.97-1.767Zm10.2-.105a1.666,1.666,0,0,0,1.143-.387,1.355,1.355,0,0,0,.457-1.028h2.382a3.258,3.258,0,0,1-.527,1.771A3.48,3.48,0,0,1,109.2-.268a4.442,4.442,0,0,1-1.991.444,4.129,4.129,0,0,1-3.217-1.3A5.13,5.13,0,0,1,102.814-4.7v-.167a5.071,5.071,0,0,1,1.169-3.507,4.08,4.08,0,0,1,3.208-1.31,4,4,0,0,1,2.861,1.015,3.594,3.594,0,0,1,1.094,2.7h-2.382a1.745,1.745,0,0,0-.457-1.206,1.524,1.524,0,0,0-1.16-.464,1.53,1.53,0,0,0-1.34.647,3.749,3.749,0,0,0-.453,2.1v.264a3.8,3.8,0,0,0,.448,2.113A1.549,1.549,0,0,0,107.165-1.872ZM115.277,0h-2.549V-9.51h2.549Zm-2.7-11.971a1.251,1.251,0,0,1,.382-.94A1.436,1.436,0,0,1,114-13.28a1.44,1.44,0,0,1,1.037.369,1.244,1.244,0,0,1,.387.94,1.247,1.247,0,0,1-.391.949,1.443,1.443,0,0,1-1.033.369,1.443,1.443,0,0,1-1.033-.369A1.247,1.247,0,0,1,112.579-11.971Zm4.395,7.128a5.64,5.64,0,0,1,.545-2.522,3.989,3.989,0,0,1,1.569-1.714,4.577,4.577,0,0,1,2.377-.606,4.33,4.33,0,0,1,3.142,1.178,4.727,4.727,0,0,1,1.358,3.2l.018.65a4.97,4.97,0,0,1-1.222,3.511A4.247,4.247,0,0,1,121.482.176,4.268,4.268,0,0,1,118.2-1.143a5.058,5.058,0,0,1-1.226-3.586Zm2.54.18a3.555,3.555,0,0,0,.51,2.073,1.682,1.682,0,0,0,1.459.717,1.686,1.686,0,0,0,1.441-.709,3.89,3.89,0,0,0,.519-2.267,3.519,3.519,0,0,0-.519-2.06,1.686,1.686,0,0,0-1.459-.731,1.658,1.658,0,0,0-1.441.726A3.955,3.955,0,0,0,119.514-4.662Zm2.452-8.838h2.769L122.3-10.775h-2.065Zm7.919,3.99.079,1.1A3.32,3.32,0,0,1,132.7-9.686a2.759,2.759,0,0,1,2.25.888,4.142,4.142,0,0,1,.756,2.654V0h-2.54V-6.082a1.648,1.648,0,0,0-.352-1.173,1.574,1.574,0,0,0-1.169-.365,1.747,1.747,0,0,0-1.608.914V0h-2.54V-9.51Zm20.786,4.843a5.7,5.7,0,0,1-1,3.52A3.2,3.2,0,0,1,146.979.176a2.963,2.963,0,0,1-2.329-1V3.656h-2.54V-9.51h2.355l.088.932a2.985,2.985,0,0,1,2.408-1.107,3.22,3.22,0,0,1,2.733,1.3,5.858,5.858,0,0,1,.976,3.586Zm-2.54-.185a3.743,3.743,0,0,0-.47-2.048,1.532,1.532,0,0,0-1.367-.721,1.663,1.663,0,0,0-1.644.914v3.894a1.692,1.692,0,0,0,1.661.94Q148.131-1.872,148.131-4.852Zm9.264,2.224a.818.818,0,0,0-.461-.734,5.241,5.241,0,0,0-1.481-.479q-3.393-.712-3.393-2.883a2.613,2.613,0,0,1,1.05-2.114,4.237,4.237,0,0,1,2.747-.848,4.56,4.56,0,0,1,2.9.853,2.687,2.687,0,0,1,1.085,2.215H157.3a1.229,1.229,0,0,0-.352-.9,1.488,1.488,0,0,0-1.1-.356,1.52,1.52,0,0,0-.993.29.916.916,0,0,0-.352.738.783.783,0,0,0,.4.681,4.114,4.114,0,0,0,1.349.448,11.019,11.019,0,0,1,1.6.426,2.628,2.628,0,0,1,2.013,2.558,2.481,2.481,0,0,1-1.116,2.1,4.815,4.815,0,0,1-2.883.8,5.029,5.029,0,0,1-2.123-.426,3.561,3.561,0,0,1-1.455-1.169,2.716,2.716,0,0,1-.527-1.6h2.408a1.326,1.326,0,0,0,.5,1.037,1.987,1.987,0,0,0,1.248.36,1.839,1.839,0,0,0,1.1-.277A.861.861,0,0,0,157.395-2.628ZM164.18,0h-2.549V-9.51h2.549Zm-2.7-11.971a1.251,1.251,0,0,1,.382-.94,1.436,1.436,0,0,1,1.042-.369,1.44,1.44,0,0,1,1.037.369,1.244,1.244,0,0,1,.387.94,1.247,1.247,0,0,1-.391.949,1.443,1.443,0,0,1-1.033.369,1.443,1.443,0,0,1-1.033-.369A1.247,1.247,0,0,1,161.481-11.971Zm8.745,10.1a1.666,1.666,0,0,0,1.143-.387,1.355,1.355,0,0,0,.457-1.028h2.382a3.258,3.258,0,0,1-.527,1.771,3.48,3.48,0,0,1-1.419,1.248,4.442,4.442,0,0,1-1.991.444,4.129,4.129,0,0,1-3.217-1.3A5.13,5.13,0,0,1,165.876-4.7v-.167a5.071,5.071,0,0,1,1.169-3.507,4.08,4.08,0,0,1,3.208-1.31,4,4,0,0,1,2.861,1.015,3.594,3.594,0,0,1,1.094,2.7h-2.382a1.745,1.745,0,0,0-.457-1.206,1.524,1.524,0,0,0-1.16-.464,1.53,1.53,0,0,0-1.34.647,3.749,3.749,0,0,0-.453,2.1v.264a3.8,3.8,0,0,0,.448,2.113A1.549,1.549,0,0,0,170.227-1.872Zm5.036-2.971a5.64,5.64,0,0,1,.545-2.522,3.989,3.989,0,0,1,1.569-1.714,4.577,4.577,0,0,1,2.377-.606A4.33,4.33,0,0,1,182.9-8.508a4.727,4.727,0,0,1,1.358,3.2l.018.65a4.97,4.97,0,0,1-1.222,3.511A4.247,4.247,0,0,1,179.771.176a4.268,4.268,0,0,1-3.283-1.318,5.058,5.058,0,0,1-1.226-3.586Zm2.54.18a3.555,3.555,0,0,0,.51,2.073,1.682,1.682,0,0,0,1.459.717,1.686,1.686,0,0,0,1.441-.709,3.89,3.89,0,0,0,.519-2.267,3.519,3.519,0,0,0-.519-2.06,1.686,1.686,0,0,0-1.459-.731,1.658,1.658,0,0,0-1.441.726A3.955,3.955,0,0,0,177.8-4.662Zm7.664-.163a5.573,5.573,0,0,1,1.042-3.524,3.375,3.375,0,0,1,2.808-1.336,2.96,2.96,0,0,1,2.435,1.072l.105-.9h2.3V-.316a4.064,4.064,0,0,1-.567,2.171A3.641,3.641,0,0,1,192,3.261a5.608,5.608,0,0,1-2.408.483,5.215,5.215,0,0,1-2.039-.417,3.619,3.619,0,0,1-1.5-1.077L187.172.7a2.975,2.975,0,0,0,2.3,1.063,2.178,2.178,0,0,0,1.573-.541,2.027,2.027,0,0,0,.563-1.534v-.51A2.938,2.938,0,0,1,189.3.176a3.366,3.366,0,0,1-2.773-1.34,5.572,5.572,0,0,1-1.059-3.555Zm2.54.189a3.47,3.47,0,0,0,.519,2.029,1.65,1.65,0,0,0,1.424.735,1.764,1.764,0,0,0,1.661-.871V-6.749a1.76,1.76,0,0,0-1.644-.871,1.66,1.66,0,0,0-1.437.748A3.911,3.911,0,0,0,188.007-4.636Zm13.447-2.492a6.9,6.9,0,0,0-.914-.07,1.86,1.86,0,0,0-1.89.976V0h-2.54V-9.51h2.4l.07,1.134a2.354,2.354,0,0,1,2.118-1.31,2.662,2.662,0,0,1,.791.114ZM207.923,0a2.821,2.821,0,0,1-.255-.853,3.073,3.073,0,0,1-2.4,1.028,3.376,3.376,0,0,1-2.316-.809,2.6,2.6,0,0,1-.918-2.039,2.687,2.687,0,0,1,1.121-2.32,5.529,5.529,0,0,1,3.239-.817h1.169v-.545a1.567,1.567,0,0,0-.338-1.055,1.331,1.331,0,0,0-1.068-.4,1.513,1.513,0,0,0-1.006.308,1.045,1.045,0,0,0-.365.844h-2.54a2.551,2.551,0,0,1,.51-1.529,3.37,3.37,0,0,1,1.441-1.1,5.253,5.253,0,0,1,2.092-.4,4.15,4.15,0,0,1,2.791.883,3.09,3.09,0,0,1,1.033,2.483V-2.2a4.546,4.546,0,0,0,.378,2.048V0Zm-2.1-1.767a2.188,2.188,0,0,0,1.037-.25,1.645,1.645,0,0,0,.7-.672V-4.324h-.949q-1.907,0-2.03,1.318l-.009.149a1.017,1.017,0,0,0,.334.782A1.3,1.3,0,0,0,205.822-1.767Zm.967-11.733h2.769l-2.435,2.725h-2.065ZM212.678,0V-7.646h-1.415V-9.51h1.415v-.439a3.566,3.566,0,0,1,1.1-2.764,4.438,4.438,0,0,1,3.063-.971,10.16,10.16,0,0,1,2.883.519l-.369,2.1a11.248,11.248,0,0,0-1.336-.33A6.564,6.564,0,0,0,217-11.47q-1.775,0-1.775,1.573v.387H217.1v1.863h-1.872V0Zm8.235,0h-2.549V-9.51h2.549Zm6.056-1.872a1.666,1.666,0,0,0,1.143-.387,1.355,1.355,0,0,0,.457-1.028h2.382a3.258,3.258,0,0,1-.527,1.771A3.48,3.48,0,0,1,229-.268a4.442,4.442,0,0,1-1.991.444,4.129,4.129,0,0,1-3.217-1.3A5.13,5.13,0,0,1,222.618-4.7v-.167a5.071,5.071,0,0,1,1.169-3.507A4.08,4.08,0,0,1,227-9.686a4,4,0,0,1,2.861,1.015,3.594,3.594,0,0,1,1.094,2.7h-2.382a1.745,1.745,0,0,0-.457-1.206,1.524,1.524,0,0,0-1.16-.464,1.53,1.53,0,0,0-1.34.647,3.749,3.749,0,0,0-.453,2.1v.264a3.8,3.8,0,0,0,.448,2.113A1.549,1.549,0,0,0,226.969-1.872ZM237.911,0a2.821,2.821,0,0,1-.255-.853,3.073,3.073,0,0,1-2.4,1.028,3.376,3.376,0,0,1-2.316-.809,2.6,2.6,0,0,1-.918-2.039,2.687,2.687,0,0,1,1.121-2.32,5.529,5.529,0,0,1,3.239-.817h1.169v-.545a1.567,1.567,0,0,0-.338-1.055,1.331,1.331,0,0,0-1.068-.4,1.513,1.513,0,0,0-1.006.308,1.045,1.045,0,0,0-.365.844h-2.54a2.551,2.551,0,0,1,.51-1.529,3.37,3.37,0,0,1,1.441-1.1,5.253,5.253,0,0,1,2.092-.4,4.15,4.15,0,0,1,2.791.883A3.09,3.09,0,0,1,240.1-6.319V-2.2a4.546,4.546,0,0,0,.378,2.048V0Zm-2.1-1.767a2.188,2.188,0,0,0,1.037-.25,1.645,1.645,0,0,0,.7-.672V-4.324H236.6q-1.907,0-2.03,1.318l-.009.149a1.017,1.017,0,0,0,.334.782A1.3,1.3,0,0,0,235.811-1.767Z" transform="translate(994 8268)" fill="#12263f"/>
    <path id="Trazado_611171" data-name="Trazado 611171" d="M8.385-4.816h1.45v2.048H8.385V0H5.845V-2.769H.6l-.114-1.6L5.818-12.8H8.385Zm-5.37,0h2.83V-9.334l-.167.29Zm8.42,3.568a1.279,1.279,0,0,1,.409-.984,1.45,1.45,0,0,1,1.024-.378,1.462,1.462,0,0,1,1.033.378,1.279,1.279,0,0,1,.409.984,1.261,1.261,0,0,1-.4.971A1.468,1.468,0,0,1,12.867.1a1.456,1.456,0,0,1-1.028-.374A1.261,1.261,0,0,1,11.435-1.248ZM27.817-3.357A1.353,1.353,0,0,0,27.29-4.5a6.917,6.917,0,0,0-1.9-.844,13.458,13.458,0,0,1-2.171-.875A3.547,3.547,0,0,1,21.041-9.4a3.09,3.09,0,0,1,.584-1.85,3.812,3.812,0,0,1,1.679-1.27,6.318,6.318,0,0,1,2.457-.457,5.751,5.751,0,0,1,2.443.5,3.891,3.891,0,0,1,1.666,1.4,3.668,3.668,0,0,1,.593,2.057H27.826a1.726,1.726,0,0,0-.554-1.367,2.276,2.276,0,0,0-1.556-.488,2.432,2.432,0,0,0-1.5.409,1.289,1.289,0,0,0-.536,1.077,1.235,1.235,0,0,0,.628,1.046,7.1,7.1,0,0,0,1.85.791,7.994,7.994,0,0,1,3.278,1.679,3.343,3.343,0,0,1,1.028,2.5A3.08,3.08,0,0,1,29.206-.769a5.5,5.5,0,0,1-3.384.945,6.534,6.534,0,0,1-2.689-.541,4.256,4.256,0,0,1-1.85-1.481,3.793,3.793,0,0,1-.637-2.18h2.646q0,2.118,2.531,2.118A2.462,2.462,0,0,0,27.29-2.29,1.244,1.244,0,0,0,27.817-3.357ZM36.457.176a4.668,4.668,0,0,1-3.406-1.283,4.561,4.561,0,0,1-1.314-3.419v-.246a5.745,5.745,0,0,1,.554-2.562,4.064,4.064,0,0,1,1.569-1.74,4.4,4.4,0,0,1,2.316-.611,3.947,3.947,0,0,1,3.072,1.23,5,5,0,0,1,1.121,3.489v1.037H34.313a2.36,2.36,0,0,0,.743,1.494,2.245,2.245,0,0,0,1.569.563,2.742,2.742,0,0,0,2.294-1.063l1.248,1.4A3.813,3.813,0,0,1,38.619-.277,5.075,5.075,0,0,1,36.457.176Zm-.29-7.813a1.587,1.587,0,0,0-1.226.512,2.651,2.651,0,0,0-.6,1.466h3.533v-.2a1.891,1.891,0,0,0-.457-1.311A1.638,1.638,0,0,0,36.167-7.638ZM41.44-4.825A5.573,5.573,0,0,1,42.482-8.35,3.375,3.375,0,0,1,45.29-9.686a2.96,2.96,0,0,1,2.435,1.072l.105-.9h2.3V-.316a4.064,4.064,0,0,1-.567,2.171,3.641,3.641,0,0,1-1.6,1.406,5.608,5.608,0,0,1-2.408.483,5.215,5.215,0,0,1-2.039-.417,3.619,3.619,0,0,1-1.5-1.077L43.146.7a2.975,2.975,0,0,0,2.3,1.063,2.178,2.178,0,0,0,1.573-.541,2.027,2.027,0,0,0,.563-1.534v-.51a2.938,2.938,0,0,1-2.312.993A3.366,3.366,0,0,1,42.5-1.165,5.572,5.572,0,0,1,41.44-4.72Zm2.54.189A3.47,3.47,0,0,0,44.5-2.607a1.65,1.65,0,0,0,1.424.735,1.764,1.764,0,0,0,1.661-.871V-6.749A1.76,1.76,0,0,0,45.94-7.62a1.66,1.66,0,0,0-1.437.748A3.911,3.911,0,0,0,43.98-4.636ZM54.466-9.51l.079,1.063a3.342,3.342,0,0,1,2.733-1.239A2.536,2.536,0,0,1,59.8-8.235a3.265,3.265,0,0,1,2.856-1.45,2.836,2.836,0,0,1,2.3.9,4.141,4.141,0,0,1,.756,2.711V0H63.167V-6.064a1.811,1.811,0,0,0-.316-1.182,1.4,1.4,0,0,0-1.116-.374,1.585,1.585,0,0,0-1.582,1.09L60.161,0h-2.54V-6.056a1.789,1.789,0,0,0-.325-1.2,1.416,1.416,0,0,0-1.107-.369,1.646,1.646,0,0,0-1.564.9V0h-2.54V-9.51ZM72.044.176a4.668,4.668,0,0,1-3.406-1.283,4.561,4.561,0,0,1-1.314-3.419v-.246a5.745,5.745,0,0,1,.554-2.562,4.064,4.064,0,0,1,1.569-1.74,4.4,4.4,0,0,1,2.316-.611,3.947,3.947,0,0,1,3.072,1.23,5,5,0,0,1,1.121,3.489v1.037H69.9a2.36,2.36,0,0,0,.743,1.494,2.245,2.245,0,0,0,1.569.563A2.742,2.742,0,0,0,74.5-2.936l1.248,1.4A3.813,3.813,0,0,1,74.206-.277,5.075,5.075,0,0,1,72.044.176Zm-.29-7.813a1.587,1.587,0,0,0-1.226.512,2.651,2.651,0,0,0-.6,1.466h3.533v-.2A1.891,1.891,0,0,0,73-7.174,1.638,1.638,0,0,0,71.754-7.638Zm7.98-1.872.079,1.1a3.32,3.32,0,0,1,2.733-1.274A2.759,2.759,0,0,1,84.8-8.8a4.142,4.142,0,0,1,.756,2.654V0h-2.54V-6.082a1.648,1.648,0,0,0-.352-1.173,1.574,1.574,0,0,0-1.169-.365,1.747,1.747,0,0,0-1.608.914V0h-2.54V-9.51Zm10.784-2.338V-9.51h1.626v1.863H90.519V-2.9a1.133,1.133,0,0,0,.2.756,1.015,1.015,0,0,0,.773.229,4.051,4.051,0,0,0,.747-.062V-.053A5.229,5.229,0,0,1,90.7.176a2.425,2.425,0,0,1-2.725-2.7V-7.646H86.59V-9.51h1.389v-2.338ZM99.07,0a2.821,2.821,0,0,1-.255-.853,3.073,3.073,0,0,1-2.4,1.028A3.376,3.376,0,0,1,94.1-.633a2.6,2.6,0,0,1-.918-2.039A2.687,2.687,0,0,1,94.3-4.992a5.529,5.529,0,0,1,3.239-.817H98.71v-.545a1.567,1.567,0,0,0-.338-1.055A1.331,1.331,0,0,0,97.3-7.8,1.513,1.513,0,0,0,96.3-7.5a1.045,1.045,0,0,0-.365.844h-2.54a2.551,2.551,0,0,1,.51-1.529,3.37,3.37,0,0,1,1.441-1.1,5.253,5.253,0,0,1,2.092-.4,4.15,4.15,0,0,1,2.791.883,3.09,3.09,0,0,1,1.033,2.483V-2.2a4.546,4.546,0,0,0,.378,2.048V0Zm-2.1-1.767a2.188,2.188,0,0,0,1.037-.25,1.645,1.645,0,0,0,.7-.672V-4.324h-.949q-1.907,0-2.03,1.318l-.009.149a1.017,1.017,0,0,0,.334.782A1.3,1.3,0,0,0,96.97-1.767Zm10.2-.105a1.666,1.666,0,0,0,1.143-.387,1.355,1.355,0,0,0,.457-1.028h2.382a3.258,3.258,0,0,1-.527,1.771A3.48,3.48,0,0,1,109.2-.268a4.442,4.442,0,0,1-1.991.444,4.129,4.129,0,0,1-3.217-1.3A5.13,5.13,0,0,1,102.814-4.7v-.167a5.071,5.071,0,0,1,1.169-3.507,4.08,4.08,0,0,1,3.208-1.31,4,4,0,0,1,2.861,1.015,3.594,3.594,0,0,1,1.094,2.7h-2.382a1.745,1.745,0,0,0-.457-1.206,1.524,1.524,0,0,0-1.16-.464,1.53,1.53,0,0,0-1.34.647,3.749,3.749,0,0,0-.453,2.1v.264a3.8,3.8,0,0,0,.448,2.113A1.549,1.549,0,0,0,107.165-1.872ZM115.277,0h-2.549V-9.51h2.549Zm-2.7-11.971a1.251,1.251,0,0,1,.382-.94A1.436,1.436,0,0,1,114-13.28a1.44,1.44,0,0,1,1.037.369,1.244,1.244,0,0,1,.387.94,1.247,1.247,0,0,1-.391.949,1.443,1.443,0,0,1-1.033.369,1.443,1.443,0,0,1-1.033-.369A1.247,1.247,0,0,1,112.579-11.971Zm4.395,7.128a5.64,5.64,0,0,1,.545-2.522,3.989,3.989,0,0,1,1.569-1.714,4.577,4.577,0,0,1,2.377-.606,4.33,4.33,0,0,1,3.142,1.178,4.727,4.727,0,0,1,1.358,3.2l.018.65a4.97,4.97,0,0,1-1.222,3.511A4.247,4.247,0,0,1,121.482.176,4.268,4.268,0,0,1,118.2-1.143a5.058,5.058,0,0,1-1.226-3.586Zm2.54.18a3.555,3.555,0,0,0,.51,2.073,1.682,1.682,0,0,0,1.459.717,1.686,1.686,0,0,0,1.441-.709,3.89,3.89,0,0,0,.519-2.267,3.519,3.519,0,0,0-.519-2.06,1.686,1.686,0,0,0-1.459-.731,1.658,1.658,0,0,0-1.441.726A3.955,3.955,0,0,0,119.514-4.662Zm2.452-8.838h2.769L122.3-10.775h-2.065Zm7.919,3.99.079,1.1A3.32,3.32,0,0,1,132.7-9.686a2.759,2.759,0,0,1,2.25.888,4.142,4.142,0,0,1,.756,2.654V0h-2.54V-6.082a1.648,1.648,0,0,0-.352-1.173,1.574,1.574,0,0,0-1.169-.365,1.747,1.747,0,0,0-1.608.914V0h-2.54V-9.51Zm16.181,7.638a1.666,1.666,0,0,0,1.143-.387,1.355,1.355,0,0,0,.457-1.028h2.382a3.258,3.258,0,0,1-.527,1.771A3.48,3.48,0,0,1,148.1-.268a4.442,4.442,0,0,1-1.991.444,4.129,4.129,0,0,1-3.217-1.3A5.13,5.13,0,0,1,141.715-4.7v-.167a5.071,5.071,0,0,1,1.169-3.507,4.08,4.08,0,0,1,3.208-1.31,4,4,0,0,1,2.861,1.015,3.594,3.594,0,0,1,1.094,2.7h-2.382a1.745,1.745,0,0,0-.457-1.206,1.524,1.524,0,0,0-1.16-.464,1.53,1.53,0,0,0-1.34.647,3.749,3.749,0,0,0-.453,2.1v.264a3.8,3.8,0,0,0,.448,2.113A1.549,1.549,0,0,0,146.065-1.872ZM151.1-4.843a5.64,5.64,0,0,1,.545-2.522,3.989,3.989,0,0,1,1.569-1.714,4.577,4.577,0,0,1,2.377-.606,4.33,4.33,0,0,1,3.142,1.178,4.727,4.727,0,0,1,1.358,3.2l.018.65a4.97,4.97,0,0,1-1.222,3.511A4.247,4.247,0,0,1,155.61.176a4.268,4.268,0,0,1-3.283-1.318A5.058,5.058,0,0,1,151.1-4.729Zm2.54.18a3.555,3.555,0,0,0,.51,2.073,1.682,1.682,0,0,0,1.459.717,1.686,1.686,0,0,0,1.441-.709,3.89,3.89,0,0,0,.519-2.267,3.519,3.519,0,0,0-.519-2.06,1.686,1.686,0,0,0-1.459-.731,1.658,1.658,0,0,0-1.441.726A3.955,3.955,0,0,0,153.642-4.662ZM164.013-9.51l.079,1.1a3.32,3.32,0,0,1,2.733-1.274,2.759,2.759,0,0,1,2.25.888,4.142,4.142,0,0,1,.756,2.654V0h-2.54V-6.082a1.648,1.648,0,0,0-.352-1.173,1.574,1.574,0,0,0-1.169-.365,1.747,1.747,0,0,0-1.608.914V0h-2.54V-9.51Zm7.348,4.685a5.731,5.731,0,0,1,1-3.542,3.237,3.237,0,0,1,2.729-1.318,2.913,2.913,0,0,1,2.294,1.037V-13.5h2.549V0h-2.294l-.123-1.011A2.989,2.989,0,0,1,175.069.176a3.228,3.228,0,0,1-2.694-1.323A5.916,5.916,0,0,1,171.36-4.825Zm2.54.189a3.754,3.754,0,0,0,.466,2.051,1.517,1.517,0,0,0,1.354.713,1.7,1.7,0,0,0,1.661-.995V-6.625a1.675,1.675,0,0,0-1.644-.995Q173.9-7.62,173.9-4.636ZM187.594-.967a3.185,3.185,0,0,1-2.6,1.143A3,3,0,0,1,182.659-.7a3.752,3.752,0,0,1-.822-2.575V-9.51h2.54v6.151q0,1.487,1.354,1.487a1.834,1.834,0,0,0,1.775-.9V-9.51h2.549V0h-2.391Zm8.332-.905a1.666,1.666,0,0,0,1.143-.387,1.355,1.355,0,0,0,.457-1.028h2.382a3.258,3.258,0,0,1-.527,1.771A3.48,3.48,0,0,1,197.96-.268a4.442,4.442,0,0,1-1.991.444,4.129,4.129,0,0,1-3.217-1.3A5.13,5.13,0,0,1,191.575-4.7v-.167a5.071,5.071,0,0,1,1.169-3.507,4.08,4.08,0,0,1,3.208-1.31,4,4,0,0,1,2.861,1.015,3.594,3.594,0,0,1,1.094,2.7h-2.382a1.745,1.745,0,0,0-.457-1.206,1.524,1.524,0,0,0-1.16-.464,1.53,1.53,0,0,0-1.34.647,3.749,3.749,0,0,0-.453,2.1v.264a3.8,3.8,0,0,0,.448,2.113A1.549,1.549,0,0,0,195.926-1.872Zm8.473-9.976V-9.51h1.626v1.863H204.4V-2.9a1.133,1.133,0,0,0,.2.756,1.015,1.015,0,0,0,.773.229,4.051,4.051,0,0,0,.747-.062V-.053a5.229,5.229,0,0,1-1.538.229,2.425,2.425,0,0,1-2.725-2.7V-7.646H200.47V-9.51h1.389v-2.338ZM213.135-.967a3.185,3.185,0,0,1-2.6,1.143A3,3,0,0,1,208.2-.7a3.752,3.752,0,0,1-.822-2.575V-9.51h2.54v6.151q0,1.487,1.354,1.487a1.834,1.834,0,0,0,1.775-.9V-9.51H215.6V0h-2.391ZM223.022,0a2.821,2.821,0,0,1-.255-.853,3.073,3.073,0,0,1-2.4,1.028,3.376,3.376,0,0,1-2.316-.809,2.6,2.6,0,0,1-.918-2.039,2.687,2.687,0,0,1,1.121-2.32,5.529,5.529,0,0,1,3.239-.817h1.169v-.545a1.567,1.567,0,0,0-.338-1.055,1.331,1.331,0,0,0-1.068-.4,1.513,1.513,0,0,0-1.006.308,1.045,1.045,0,0,0-.365.844h-2.54a2.551,2.551,0,0,1,.51-1.529,3.37,3.37,0,0,1,1.441-1.1,5.253,5.253,0,0,1,2.092-.4,4.15,4.15,0,0,1,2.791.883,3.09,3.09,0,0,1,1.033,2.483V-2.2a4.546,4.546,0,0,0,.378,2.048V0Zm-2.1-1.767a2.188,2.188,0,0,0,1.037-.25,1.645,1.645,0,0,0,.7-.672V-4.324h-.949q-1.907,0-2.03,1.318l-.009.149a1.017,1.017,0,0,0,.334.782A1.3,1.3,0,0,0,220.922-1.767ZM229.843,0h-2.549V-13.5h2.549Z" transform="translate(370 8271)" fill="#12263f"/>
    <path id="Trazado_611172" data-name="Trazado 611172" d="M24.5,0A24.5,24.5,0,1,1,0,24.5,24.5,24.5,0,0,1,24.5,0Z" transform="translate(684 8066)" fill="#4e6644"/>
    <path id="Trazado_611173" data-name="Trazado 611173" d="M24.5,0A24.5,24.5,0,1,1,0,24.5,24.5,24.5,0,0,1,24.5,0Z" transform="translate(868 8066)" fill="#4e6644"/>
    <path id="Trazado_611174" data-name="Trazado 611174" d="M24.5,0A24.5,24.5,0,1,1,0,24.5,24.5,24.5,0,0,1,24.5,0Z" transform="translate(776 7969)" fill="#376460"/>
    <path id="Trazado_611175" data-name="Trazado 611175" d="M24.5,0A24.5,24.5,0,1,1,0,24.5,24.5,24.5,0,0,1,24.5,0Z" transform="translate(776 8160)" fill="#376460"/>
    <path id="Trazado_611176" data-name="Trazado 611176" d="M7.04,0H4.5V-9.791l-3.032.94v-2.065l5.3-1.9H7.04Z" transform="translate(703 8097)" fill="#fff"/>
    <path id="Trazado_611177" data-name="Trazado 611177" d="M3.454-7.523H4.808A1.907,1.907,0,0,0,6.24-8.007,1.771,1.771,0,0,0,6.706-9.29a1.566,1.566,0,0,0-.461-1.2,1.788,1.788,0,0,0-1.27-.431,1.874,1.874,0,0,0-1.222.4,1.279,1.279,0,0,0-.492,1.042H.721a3.124,3.124,0,0,1,.541-1.8,3.6,3.6,0,0,1,1.512-1.244,5.045,5.045,0,0,1,2.14-.448A4.785,4.785,0,0,1,8.095-12,3.314,3.314,0,0,1,9.246-9.325,2.693,2.693,0,0,1,8.71-7.708,3.483,3.483,0,0,1,7.3-6.574a3.18,3.18,0,0,1,1.613,1.16,3.147,3.147,0,0,1,.532,1.828A3.369,3.369,0,0,1,8.2-.853,5,5,0,0,1,4.913.176,4.741,4.741,0,0,1,1.78-.835,3.3,3.3,0,0,1,.563-3.507H3.1a1.472,1.472,0,0,0,.541,1.178,1.992,1.992,0,0,0,1.332.457,2,2,0,0,0,1.419-.479,1.654,1.654,0,0,0,.514-1.27q0-1.916-2.109-1.916H3.454Z" transform="translate(887 8097)" fill="#fff"/>
    <path id="Trazado_611178" data-name="Trazado 611178" d="M9.642,0H.87V-1.74L5.01-6.152A10.212,10.212,0,0,0,6.271-7.778,2.612,2.612,0,0,0,6.68-9.1a1.955,1.955,0,0,0-.431-1.34,1.555,1.555,0,0,0-1.23-.488,1.677,1.677,0,0,0-1.358.593,2.35,2.35,0,0,0-.5,1.56H.615a4.2,4.2,0,0,1,.558-2.136,3.934,3.934,0,0,1,1.578-1.516,4.8,4.8,0,0,1,2.312-.549,4.54,4.54,0,0,1,3.072.949A3.358,3.358,0,0,1,9.229-9.343a4.3,4.3,0,0,1-.492,1.934A10.745,10.745,0,0,1,7.049-5.115L4.14-2.048h5.5Z" transform="translate(795 8000)" fill="#fff"/>
    <path id="Trazado_611179" data-name="Trazado 611179" d="M8.385-4.816h1.45v2.048H8.385V0H5.845V-2.769H.6l-.114-1.6L5.818-12.8H8.385Zm-5.37,0h2.83V-9.334l-.167.29Z" transform="translate(795 8191)" fill="#fff"/>
    <g id="Grupo_1072967" data-name="Grupo 1072967" transform="translate(677.761 8124.544)">
      <g id="Grupo_1072966" data-name="Grupo 1072966" clip-path="url(#clip-path-8)">
        <path id="Trazado_610688" data-name="Trazado 610688" d="M57.063,33.356c2.469.279,3.394,1.313,3.4,3.708,0,.63-.007,1.259,0,1.889.009.652-.089,1.261-.91,1.252-.768-.009-.854-.587-.842-1.206.014-.724.015-1.448,0-2.172-.026-1.172-.519-1.678-1.668-1.683q-3.73-.016-7.461,0c-1.153,0-1.625.448-1.631,1.579-.016,2.9,0,5.792-.01,8.688a1.448,1.448,0,0,0,.895,1.5c.621.277.732.745.5,1.4-.473,1.357-.873,2.739-1.306,4.121,2.351.3,2.35.3,2.351,2.665,0,.787,0,1.574.007,2.361A1.112,1.112,0,0,0,51.621,58.7c1.1.009,2.2,0,3.305,0a1.155,1.155,0,0,0,1.3-1.275c.015-1.1,0-2.2.007-3.305,0-1.417.162-1.578,1.562-1.6.218,0,.436,0,.775,0-.432-1.36-.8-2.644-1.252-3.9-.3-.83-.291-1.449.653-1.829a1.311,1.311,0,0,0,.738-1.322c.014-.629.007-1.259.008-1.889,0-.553.231-.913.823-.933a.793.793,0,0,1,.9.862c-.013,1.606.373,3.326-1.141,4.56-.255.208-.14.431-.058.679.355,1.072.709,2.146,1.031,3.229.408,1.374-.154,2.252-1.568,2.331-.621.035-.724.269-.7.8.034.785.02,1.574.006,2.361a2.831,2.831,0,0,1-2.958,2.976c-1.2.016-2.393.021-3.589,0A2.783,2.783,0,0,1,48.6,57.669c-.041-.88-.024-1.763-.007-2.644.008-.432-.05-.667-.591-.711-1.644-.136-2.151-.933-1.662-2.474.076-.239.129-.488.228-.717.711-1.647,1.246-3.273-.547-4.648-.8.645-1.658,1.433-2.608,2.086a22.274,22.274,0,0,1-21.862,2.5,1.059,1.059,0,0,0-1.383.256c-1.613,1.678-3.295,3.291-4.924,4.954a1.8,1.8,0,0,1-1.405.6q-6.28-.029-12.56-.005c-.667,0-1.261-.109-1.239-.916.021-.761.624-.827,1.233-.826,3.9,0,7.807-.009,11.71.013a1.864,1.864,0,0,0,1.494-.592c1.352-1.406,2.738-2.781,4.134-4.143.4-.389.4-.568-.1-.881A22.185,22.185,0,0,1,8.267,35.4c-.124-.512-.35-.732-.9-.685a17.256,17.256,0,0,1-1.793.009,2.92,2.92,0,0,1-3.115-3.14c-.01-2.581-.016-5.163.008-7.744.005-.577-.069-.947-.7-1.193A2.608,2.608,0,0,1,.077,20.427a23.958,23.958,0,0,1-.046-3.111.8.8,0,0,1,.852-.831.8.8,0,0,1,.869.9c0,.756-.013,1.511.01,2.266.032,1,.413,1.46,1.394,1.542.872.073,1.093.544,1.088,1.322-.018,2.927-.011,5.855,0,8.783,0,1.353.252,1.6,1.592,1.6q1.369,0,2.739,0c1.253-.005,1.507-.238,1.512-1.481.011-2.865,0-5.729.005-8.594,0-1.319.047-1.365,1.364-1.639A1.145,1.145,0,0,0,12.5,20.028q.024-4.721,0-9.442a1.083,1.083,0,0,0-1.145-1.142q-4.155-.05-8.31,0c-.884.011-1.247.644-1.277,1.463-.026.723-.02,1.448-.006,2.172.012.605-.25,1-.862,1s-.884-.408-.884-1c0-.85-.037-1.7.014-2.549.1-1.621,1.063-2.491,3.307-3a4.929,4.929,0,0,1-.582-4.466,4.711,4.711,0,0,1,7.475-1.917q2.719,2.359.8,6.339c.152.208.394.156.6.189a3.069,3.069,0,0,1,2.718,3.106c.022,1.031,0,2.063,0,3.325a29.375,29.375,0,0,1,3.117-2.5c.577-.371,1.242-1.1,1.849-.2.59.875-.272,1.244-.849,1.664-.61.444-1.2.922-1.8,1.371-1.689,1.25-2.7,2.749-2.347,5.018a2.935,2.935,0,0,1-2.04,3.343c-.484.188-.386.5-.387.821-.008,2.581-.026,5.163,0,7.744a3.015,3.015,0,0,1-1.628,3.047c-.406.2-.329.476-.25.78a20.824,20.824,0,0,0,9.895,13.115.647.647,0,0,0,.952-.164c.757-.8,1.552-1.563,2.329-2.344.455-.458.955-.833,1.529-.24s.15,1.084-.3,1.527l-2.291,2.26a16.412,16.412,0,0,0,4.8,1.436,21.349,21.349,0,0,0,8.245-.318c.712-.167.978-.367.669-1.176-.739-1.934-1.381-3.906-2.015-5.878-.209-.65-.485-.772-1.158-.618a12.8,12.8,0,1,1-4.02-25.258c.589-.089.7-.342.691-.861-.021-2.14-.035-4.282.006-6.421.013-.686-.2-.862-.86-.785A22.5,22.5,0,0,0,23,10.713a1.316,1.316,0,0,1-1,.116.834.834,0,0,1-.555-.8c-.006-.561.411-.8.88-.969a22.661,22.661,0,0,1,8.318-1.4,22.17,22.17,0,0,1,13.221,4.571c.464.349.75.355,1.075-.1a2.591,2.591,0,0,1,2.4-.97c3.84.046,7.681.017,11.521.022a3.672,3.672,0,0,1,.935.074.871.871,0,0,1,.035,1.679,3.125,3.125,0,0,1-.93.086q-5.713.008-11.427,0a3.548,3.548,0,0,0-.753.018.724.724,0,0,0-.392,1.317,22.111,22.111,0,0,1,5.853,10.59c.145.636.376.828,1.112.817A4.688,4.688,0,0,1,57.5,32.519c-.121.251-.259.494-.44.837m-15.806-3a11.022,11.022,0,1,0-11.17,10.9,10.992,10.992,0,0,0,11.17-10.9m8.2,3.019c-1.379-3.134-1.257-3.964,1.006-6.642a.89.89,0,0,0,.124-.879,20.9,20.9,0,0,0-5.647-10.37c-.374-.38-.582-.273-.891.048-.785.816-1.6,1.6-2.4,2.406-.423.429-.895.659-1.4.2-.561-.5-.326-1,.134-1.451.784-.773,1.552-1.562,2.337-2.335.28-.275.448-.465.005-.791a21.148,21.148,0,0,0-10.976-4.1c-.44-.037-.622.081-.619.552q.024,3.4,0,6.8c0,.48.171.658.638.716a12.578,12.578,0,0,1,1.936.38A12.785,12.785,0,0,1,36,41.644c-.605.309-.752.573-.517,1.215.734,2,1.442,4.017,2.084,6.051.21.666.445.644.989.4A21.324,21.324,0,0,0,45.763,44.1a1.479,1.479,0,0,0,.363-1.113q-.014-3.021,0-6.042c0-2.23,1.025-3.344,3.329-3.572m3.843-5.815a2.881,2.881,0,0,0-2.923,2.921,2.916,2.916,0,1,0,5.833.014,2.891,2.891,0,0,0-2.909-2.934M10.055,4.724a2.942,2.942,0,0,0-2.9-2.971A2.99,2.99,0,0,0,4.234,4.718a2.926,2.926,0,0,0,2.873,2.9,2.874,2.874,0,0,0,2.948-2.89" transform="translate(0 0)" fill="#4e6644"/>
        <path id="Trazado_610689" data-name="Trazado 610689" d="M22.456,252.893c-.722,0-1.443,0-2.165,0-.6,0-1.092-.2-1.112-.874-.022-.734.508-.953,1.132-.959q2.259-.021,4.518,0c.6.006,1.082.278,1.073.93s-.479.9-1.093.9H22.456" transform="translate(-15.556 -203.629)" fill="#4e6644"/>
        <path id="Trazado_610690" data-name="Trazado 610690" d="M268.728,40.891c-.784,0-1.568.019-2.35-.006-.6-.019-1.079-.288-1.035-.953.039-.578.454-.851,1.045-.849,1.536.006,3.071,0,4.607,0,.608,0,1.072.227,1.075.9,0,.692-.505.884-1.086.9-.752.021-1.5.005-2.256,0" transform="translate(-215.22 -31.701)" fill="#4e6644"/>
        <path id="Trazado_610691" data-name="Trazado 610691" d="M22.542,273.19c-.752,0-1.5-.007-2.255,0-.6.007-1.086-.166-1.131-.842-.046-.7.447-.935,1.032-.943q2.349-.034,4.7,0c.555.008,1.018.267,1,.888-.021.641-.457.907-1.087.9-.752-.013-1.5,0-2.255,0" transform="translate(-15.535 -220.128)" fill="#4e6644"/>
        <path id="Trazado_610692" data-name="Trazado 610692" d="M268.675,20.734c-.814,0-1.628.007-2.441,0a.8.8,0,0,1-.9-.863.833.833,0,0,1,.913-.865q2.441-.01,4.882,0a.823.823,0,0,1,.936.831c.026.629-.365.9-.952.9-.814.01-1.627,0-2.441,0v0" transform="translate(-215.216 -15.41)" fill="#4e6644"/>
        <path id="Trazado_610693" data-name="Trazado 610693" d="M312.615,40.045a.854.854,0,0,1-.875.916.777.777,0,0,1-.855-.792.8.8,0,0,1,.8-.943c.552-.039.833.322.934.82" transform="translate(-252.161 -31.814)" fill="#4e6644"/>
        <path id="Trazado_610694" data-name="Trazado 610694" d="M1.887,252.177a.8.8,0,0,1-.838.921.824.824,0,0,1-.883-.885.814.814,0,0,1,.806-.868.815.815,0,0,1,.914.831" transform="translate(-0.135 -203.868)" fill="#4e6644"/>
        <path id="Trazado_610695" data-name="Trazado 610695" d="M1.043,271.63c.476.054.827.261.848.809a.791.791,0,0,1-.833.922.812.812,0,0,1-.877-.9c0-.517.344-.78.862-.836" transform="translate(-0.147 -220.322)" fill="#4e6644"/>
        <path id="Trazado_610696" data-name="Trazado 610696" d="M311.709,19.011a.843.843,0,0,1,.9.89.856.856,0,0,1-1.712-.04.811.811,0,0,1,.809-.85" transform="translate(-252.174 -15.42)" fill="#4e6644"/>
      </g>
    </g>
    <g id="Grupo_1072969" data-name="Grupo 1072969" transform="translate(767.567 8031)">
      <g id="Grupo_1072968" data-name="Grupo 1072968" clip-path="url(#clip-path-9)">
        <path id="Trazado_610697" data-name="Trazado 610697" d="M32.4,64.857a41.84,41.84,0,0,1-5.009-.44c-1.284-.239-2.562-.5-3.821-.836a27.04,27.04,0,0,1-3.085-1.052,32.655,32.655,0,0,1-5.41-2.762A32.485,32.485,0,0,1,1.331,41.507,34.791,34.791,0,0,1,.4,37.385a30.672,30.672,0,0,1-.389-5.96,31.391,31.391,0,0,1,.83-6.253,32.326,32.326,0,0,1,2.978-7.94.654.654,0,0,0-.02-.775,25.58,25.58,0,0,1-1.95-3.777,8.484,8.484,0,0,1-.791-3.411A9.273,9.273,0,0,1,3.8,2.815,8.937,8.937,0,0,1,8.718.186a9.233,9.233,0,0,1,8.865,3.121c.137.15.23.2.431.1A33.272,33.272,0,0,1,22.43,1.6,32.692,32.692,0,0,1,26.444.556,32.3,32.3,0,0,1,35.237.119a28.8,28.8,0,0,1,3.459.5,32.431,32.431,0,0,1,14.7,7.1,30.247,30.247,0,0,1,3.089,3.006,3.117,3.117,0,0,0,1,.729,9.268,9.268,0,0,1,4.455,4.628,10.449,10.449,0,0,1,.825,3.434,4.192,4.192,0,0,1-.061.963,1.112,1.112,0,0,0,.073.559,34.33,34.33,0,0,1,1.678,6.345,29.558,29.558,0,0,1,.391,5.882,28.508,28.508,0,0,1-.418,4.311c-.242,1.275-.493,2.547-.855,3.791a32.52,32.52,0,0,1-22.245,22.2,37.651,37.651,0,0,1-4.052.879,43.012,43.012,0,0,1-4.874.408m.433-62.776a31.929,31.929,0,0,0-4.306.241,24.765,24.765,0,0,0-3.688.7A31.91,31.91,0,0,0,19.05,5.16c-.158.076-.147.146-.086.277A9.21,9.21,0,0,1,19.7,7.661a7.333,7.333,0,0,1,.165,2,11.967,11.967,0,0,1-1.128,3.811c-.458,1.018-1.015,1.983-1.565,2.952a.285.285,0,0,0,.059.409c.381.358.742.738,1.121,1.1a1.487,1.487,0,0,1,.485,1.14c0,.854-.008,1.709,0,2.563A1.47,1.47,0,0,1,18.3,22.9c-.087.068-.1.119-.015.206q.927.922,1.843,1.854a1.543,1.543,0,0,0,.633.4c.735.242,1.463.507,2.205.726A1.536,1.536,0,0,1,24.117,27.2c.225.776.508,1.535.761,2.3a2.012,2.012,0,0,1,.112,1.323,29.815,29.815,0,0,1-2,5.009,1.341,1.341,0,0,1-1.3.776c-.7-.005-1.4.018-2.092-.008a2.351,2.351,0,0,0-1.193.3q-1.94.993-3.9,1.952c-.2.1-.2.148-.053.294.6.592,1.192,1.2,1.8,1.788a1.5,1.5,0,0,1,.484,1.141c0,.514-.011,1.029,0,1.543a1.555,1.555,0,0,1-.5,1.216c-.543.529-1.077,1.068-1.611,1.607a3.194,3.194,0,0,1-.879.646c-.517.25-1.032.505-1.537.776a1.345,1.345,0,0,1-1.39.011c-.356-.2-.724-.379-1.081-.578a.134.134,0,0,0-.2.025c-.292.3-.589.594-.887.888a.181.181,0,0,0-.036.252c.172.312.328.633.5.948a2.379,2.379,0,0,1,.3,1.2c-.012.444,0,.889-.005,1.334a.651.651,0,0,0,.175.473,30.908,30.908,0,0,0,4.424,4.136,30.429,30.429,0,0,0,7.716,4.276,1,1,0,0,0,.872-.047c1.255-.643,2.518-1.268,3.775-1.906a2.621,2.621,0,0,1,1.252-.312c.723.013,1.447.007,2.17.01a1.053,1.053,0,0,0,.461-.068,5.737,5.737,0,0,0,2.272-1.485,1.691,1.691,0,0,1,.818-.539c.931-.313,1.867-.613,2.8-.932A1.183,1.183,0,0,1,37.5,55.9c.354.373.742.716,1.076,1.1a1.269,1.269,0,0,0,1.266.523,1.251,1.251,0,0,1,.339,0,.453.453,0,0,0,.389-.162c.819-.833,1.646-1.657,2.468-2.487a1.1,1.1,0,0,1,1.8,0q.775.778,1.548,1.558a2.241,2.241,0,0,0,.591.426c.568.284,1.143.555,1.706.849a.559.559,0,0,0,.645-.048,32.542,32.542,0,0,0,4.285-3.5,30.423,30.423,0,0,0,7.055-10.508.968.968,0,0,0-.082-1.06,9.5,9.5,0,0,0-1.146-1.612.594.594,0,0,0-.731-.14c-.439.211-.884.411-1.312.643-.9.49-1.226.449-1.947-.29-.03-.031-.063-.061-.091-.094a3.667,3.667,0,0,0-1.244-.887,4.967,4.967,0,0,1-1.99-1.3c-.086-.113-.2-.109-.329-.076-1.113.278-2.23.544-3.343.825a1.134,1.134,0,0,1-1.163-.344c-.471-.478-.949-.95-1.416-1.431a.389.389,0,0,0-.369-.13c-.484.065-.959.171-1.438.26-1.582.294-3.17.559-4.754.846-1.25.226-2.494.482-3.746.694a2.9,2.9,0,0,1-1.445.085q-1.558-.521-3.113-1.05a1.022,1.022,0,0,1-.579-.571c-.249-.5-.481-1.006-.757-1.489a3.074,3.074,0,0,1-.242-2.5c.272-.916.609-1.813.893-2.726a1.481,1.481,0,0,1,.863-.976,18.57,18.57,0,0,0,3.26-1.863c.382-.274.778-.528,1.174-.783a.469.469,0,0,0,.189-.269q.294-.864.593-1.727a3.411,3.411,0,0,0,.217-1.3c-.019-.374,0-.75,0-1.124a1.4,1.4,0,0,1,.485-1.137,4.122,4.122,0,0,0,1.213-1.644,1.553,1.553,0,0,1,.16-.3.523.523,0,0,0,.008-.609,23.436,23.436,0,0,1-1.744-4.461,1.343,1.343,0,0,1,.1-1.111c.165-.316.3-.651.5-.948a1.239,1.239,0,0,0,.078-1.21c-.259-.692-.487-1.4-.7-2.1a.977.977,0,0,1,.479-1.228c.691-.439,1.389-.866,2.083-1.3Q41.439,5.846,43.6,4.481c.066-.042.192-.061.17-.169-.018-.091-.132-.1-.211-.134-.406-.156-.807-.327-1.22-.46a35.543,35.543,0,0,0-4.724-1.2,45.823,45.823,0,0,0-4.782-.438M61.612,24.136a6.333,6.333,0,0,0-.6,1.037,64.169,64.169,0,0,1-6.843,9.954,1.018,1.018,0,0,1-1.679-.055c-1.606-2-3.157-4.034-4.562-6.179a34.814,34.814,0,0,1-3.274-5.964,8.1,8.1,0,0,1-.474-5.108,9.439,9.439,0,0,1,3.97-5.752A8.726,8.726,0,0,1,51.935,10.6c.461-.061.923-.113,1.419-.173-.215-.2-.4-.375-.6-.55A31.721,31.721,0,0,0,46.316,5.4a.336.336,0,0,0-.383.04c-.683.435-1.371.861-2.057,1.292q-2.4,1.506-4.8,3.009a.25.25,0,0,0-.121.36c.238.653.447,1.317.681,1.971a1.367,1.367,0,0,1-.109,1.155c-.191.361-.367.731-.567,1.088a.845.845,0,0,0-.073.772c.109.274.206.554.293.836a12.449,12.449,0,0,0,.967,2.445c.169.3.308.624.471.932a1.171,1.171,0,0,1,0,1.148c-.214.418-.446.829-.631,1.26a4.217,4.217,0,0,1-1.118,1.555.467.467,0,0,0-.158.39,7.017,7.017,0,0,1-.035,1.487,30.584,30.584,0,0,1-1.149,3.544.919.919,0,0,1-.392.442c-.459.3-.919.6-1.37.912a18.527,18.527,0,0,1-3.33,1.946.428.428,0,0,0-.246.284c-.245.725-.5,1.445-.729,2.176a1.629,1.629,0,0,0,.128,1.338,6.845,6.845,0,0,1,.366.75.552.552,0,0,0,.318.32c.667.278,1.368.458,2.048.7a1.291,1.291,0,0,0,.594.028c1.125-.133,2.22-.427,3.336-.612,1.321-.219,2.633-.489,3.95-.726,1.147-.207,2.3-.387,3.445-.6a1.3,1.3,0,0,1,1.277.4c.391.41.821.785,1.187,1.215a.674.674,0,0,0,.794.218c1.034-.272,2.074-.523,3.111-.782a1.084,1.084,0,0,1,1.079.3c.094.091.187.183.274.28a4.09,4.09,0,0,0,1.34.976,5.008,5.008,0,0,1,1.938,1.244c.066.082.127.051.2.01.313-.17.635-.325.944-.5a3.126,3.126,0,0,1,1.83-.282,1.832,1.832,0,0,1,1.165.729c.312.319.626.636.95,1.035a31.176,31.176,0,0,0-.122-16.34M6.286,47.863a3.131,3.131,0,0,1,.7-.867q.761-.755,1.516-1.516a1.127,1.127,0,0,1,1.564-.281c.43.21.852.436,1.28.651.074.038.15.1.244.048a7.715,7.715,0,0,0,1.586-.9c.454-.42.879-.871,1.317-1.308a.653.653,0,0,0,.165-.394,1.723,1.723,0,0,0-.76-1.818.3.3,0,0,1-.038-.036c-.66-.659-1.329-1.309-1.977-1.98a1.019,1.019,0,0,1,.267-1.7c.107-.058.216-.112.325-.167q2.8-1.4,5.6-2.806a2.466,2.466,0,0,1,1.155-.28c.645.008,1.29,0,1.935,0,.1,0,.2.027.262-.107.162-.356.353-.7.51-1.057.391-.894.643-1.837.963-2.756a.769.769,0,0,0,.009-.49c-.2-.619-.413-1.236-.62-1.854a.5.5,0,0,0-.34-.332c-.619-.2-1.237-.413-1.855-.618a2.338,2.338,0,0,1-.977-.474c-1.027-1.019-2.055-2.038-3.069-3.07a1.03,1.03,0,0,1,.012-1.519c.168-.177.348-.342.522-.513a.477.477,0,0,0,.164-.366c-.008-.654,0-1.307,0-1.961a.293.293,0,0,0-.07-.24c-.195-.187-.393-.372-.572-.573-.145-.162-.215-.12-.324.042q-2.073,3.065-4.406,5.938a1.052,1.052,0,0,1-1.816-.009c-1.314-1.639-2.591-3.3-3.782-5.035-.156-.227-.323-.447-.534-.738C.721,28.7,1.033,38.367,6.286,47.863M10.459,22.43a.486.486,0,0,0,.06-.054c1.035-1.336,2.05-2.686,3.007-4.081a36.914,36.914,0,0,0,3.552-6.108,7.052,7.052,0,0,0,.7-2.474,7.046,7.046,0,0,0-1.9-5.26,6.986,6.986,0,0,0-4.6-2.311A7.256,7.256,0,0,0,7.4,2.737a7.172,7.172,0,0,0-4,4.672,6.025,6.025,0,0,0-.167,2.919,12.168,12.168,0,0,0,1.14,2.989,43.276,43.276,0,0,0,3.275,5.339Q9,20.581,10.459,22.43m42.88,10.456c.025-.012.045-.015.054-.027,1.134-1.458,2.238-2.938,3.272-4.469a35.479,35.479,0,0,0,3.312-5.765A7.041,7.041,0,0,0,60.67,20.1a7.248,7.248,0,0,0-6.5-7.494,7.251,7.251,0,0,0-3.873.594,7.17,7.17,0,0,0-4,4.671,6.058,6.058,0,0,0-.168,2.919,11.754,11.754,0,0,0,1.128,2.966,59.013,59.013,0,0,0,6.083,9.133M32.731,62.766a41.015,41.015,0,0,0,4.5-.368,32.062,32.062,0,0,0,4.464-1.052A29.788,29.788,0,0,0,46.387,59.4c.146-.075.4-.121.395-.278s-.26-.2-.41-.281a4.686,4.686,0,0,1-1.125-.651c-.392-.383-.782-.771-1.159-1.169-.114-.121-.169-.118-.283,0-.708.722-1.427,1.432-2.135,2.153a1.471,1.471,0,0,1-1.1.452q-.824,0-1.647,0a1.4,1.4,0,0,1-1.053-.437c-.463-.474-.937-.936-1.4-1.41a.255.255,0,0,0-.322-.081c-.6.273-1.255.413-1.87.654a1.37,1.37,0,0,0-.5.322,4.142,4.142,0,0,1-1.159.961c-.536.25-1.058.529-1.587.793A2.236,2.236,0,0,1,30,60.67c-.706-.006-1.413.013-2.118-.008a1.992,1.992,0,0,0-1,.249c-.525.271-1.058.529-1.588.79-.052.025-.137.016-.133.1s.082.088.138.1c.335.092.668.2,1.009.265a36.178,36.178,0,0,0,6.419.6" transform="translate(0 0)" fill="#376460"/>
        <path id="Trazado_610698" data-name="Trazado 610698" d="M96.485,224.085c0,.453,0,.906,0,1.359a1.319,1.319,0,0,1-.366.95c-.322.331-.641.665-.977.982a1.017,1.017,0,0,1-1.035.27c-.717-.212-1.427-.446-2.122-.722-.148-.059-.206-.05-.275.091q-.273.563-.569,1.116a.973.973,0,0,1-1.239.549c-1.086-.314-2.148-.7-3.215-1.072a.891.891,0,0,1-.512-.46q-.513-1.013-1.024-2.026a1.3,1.3,0,0,1,.076-1.248c.519-1.015,1.027-2.035,1.539-3.053.133-.264.275-.525.394-.795a1.03,1.03,0,0,1,.906-.654,16.31,16.31,0,0,1,2.167,0,1.29,1.29,0,0,1,.84.433c.476.485.963.959,1.435,1.448a.6.6,0,0,0,.484.193c.723-.01,1.447-.006,2.17,0,.905,0,1.32.423,1.322,1.335,0,.436,0,.871,0,1.307m-2.094.3c0-.218-.01-.436,0-.653.011-.164-.047-.206-.206-.2-.54.009-1.08,0-1.62.005a1.479,1.479,0,0,1-1.145-.469c-.484-.5-.984-.986-1.476-1.48a.367.367,0,0,0-.288-.147c-.261.01-.523,0-.784,0a.192.192,0,0,0-.207.114q-.708,1.425-1.427,2.844a.365.365,0,0,0,.009.369,3.641,3.641,0,0,1,.3.606.846.846,0,0,0,.607.579,11.669,11.669,0,0,1,1.277.447c.208.094.266.043.346-.123q.261-.54.542-1.07a.976.976,0,0,1,1.238-.541c.769.217,1.523.484,2.276.754.338.121.539-.018.55-.38.007-.218,0-.435,0-.653" transform="translate(-67.19 -173.329)" fill="#376460"/>
        <path id="Trazado_610699" data-name="Trazado 610699" d="M38.2,30a3.112,3.112,0,0,1,3.077,3.177,3.11,3.11,0,1,1-6.218-.117A3.116,3.116,0,0,1,38.2,30m1.015,3.134a1.049,1.049,0,1,0-1.037,1.039,1,1,0,0,0,1.037-1.039" transform="translate(-27.705 -23.709)" fill="#376460"/>
        <path id="Trazado_610700" data-name="Trazado 610700" d="M242.71,79.9a3.112,3.112,0,1,1-3.173,2.99,3.106,3.106,0,0,1,3.173-2.99m.981,3.129a1.049,1.049,0,1,0-1.038,1.039,1.009,1.009,0,0,0,1.038-1.039" transform="translate(-189.289 -63.137)" fill="#376460"/>
      </g>
    </g>
    <g id="Grupo_1072971" data-name="Grupo 1072971" transform="translate(864.699 8119.362)">
      <g id="Grupo_1072970" data-name="Grupo 1072970" clip-path="url(#clip-path-10)">
        <path id="Trazado_610701" data-name="Trazado 610701" d="M50.882,48.6c.219.227.458.444.661.692a2.984,2.984,0,0,1,.8,1.858,2.266,2.266,0,0,1-.525,1.483,1.5,1.5,0,0,1-.274.294,2.858,2.858,0,0,0-1.056,2.386c-.029.707-.094,1.411-.134,2.118a2.8,2.8,0,0,1-2.088,2.429,9.389,9.389,0,0,1-4.194.153,25.4,25.4,0,0,0-4.757-.555,5.78,5.78,0,0,0-5.334,3.3,10.664,10.664,0,0,0-1.013,3.181,1.185,1.185,0,0,1-1.035,1.037,4.8,4.8,0,0,1-.59.023L4.56,67a2.1,2.1,0,0,1-.69-.077,1.084,1.084,0,0,1-.663-1.372c.211-.61.541-1.167.807-1.753a51.462,51.462,0,0,0,2.048-5.241c.345-1.052.638-2.121.892-3.2a32.927,32.927,0,0,0,.61-3.24,30.5,30.5,0,0,0,.244-5.33,8.824,8.824,0,0,0-2.18-5.552,23.008,23.008,0,0,1-4.214-7.489,27.988,27.988,0,0,1-.982-3.591,25.776,25.776,0,0,1-.4-6.307A23.384,23.384,0,0,1,1.6,16.425,25.393,25.393,0,0,1,16.253,1.714,23.99,23.99,0,0,1,20.836.431a22.441,22.441,0,0,1,6.04-.35,33.081,33.081,0,0,1,3.948.592A25.342,25.342,0,0,1,48.359,15.118a23.958,23.958,0,0,1,1.574,4.832,24.588,24.588,0,0,1,.589,4.948,30.7,30.7,0,0,1-.132,3.246,6.745,6.745,0,0,0,.681,3.7,21.088,21.088,0,0,0,3.3,4.75,7.434,7.434,0,0,1,.72.936,3.353,3.353,0,0,1,.481,2.318A3.026,3.026,0,0,1,54.541,41.6a5.97,5.97,0,0,1-1.486,1,1.01,1.01,0,0,0-.581.948,5.054,5.054,0,0,0,.314,1.9,1.908,1.908,0,0,1-.293,1.8A4.1,4.1,0,0,1,50.882,48.6M48.4,25.335a26.734,26.734,0,0,0-.382-4.024,22.554,22.554,0,0,0-1.621-5.321,22.991,22.991,0,0,0-8.008-9.685,22.341,22.341,0,0,0-6.7-3.177,24.4,24.4,0,0,0-4.392-.818,19.68,19.68,0,0,0-3.861-.01,25.475,25.475,0,0,0-3.1.447,24.655,24.655,0,0,0-4.5,1.474,22.426,22.426,0,0,0-4.9,2.964,22.947,22.947,0,0,0-7.215,9.747,22.342,22.342,0,0,0-1.5,6.7A23.744,23.744,0,0,0,2.6,29.988a22.474,22.474,0,0,0,1.284,4.2,23.349,23.349,0,0,0,3.2,5.472c.4.513.822,1.018,1.2,1.549a10.066,10.066,0,0,1,1.666,5.28A25.484,25.484,0,0,1,9.814,51.5,40.467,40.467,0,0,1,8.9,56.505a50.28,50.28,0,0,1-2.883,8.1c-.09.2-.057.245.153.237.411-.016.823-.02,1.235-.02q11.242,0,22.483,0c.277,0,.555.014.832.019a.277.277,0,0,0,.332-.252,11.985,11.985,0,0,1,.866-2.5,7.916,7.916,0,0,1,5.86-4.646,12.458,12.458,0,0,1,3.319-.089c1.233.083,2.426.429,3.655.555a6.506,6.506,0,0,0,2.918-.137c.4-.143.556-.287.547-.708a16.086,16.086,0,0,1,.156-2.3,4.779,4.779,0,0,1,1.71-3.4c.176-.138.172-.24.042-.412a5.539,5.539,0,0,0-1.729-1.465,2.614,2.614,0,0,1-.779-.563,1.008,1.008,0,0,1,.457-1.633,4.509,4.509,0,0,1,.647-.17,3.7,3.7,0,0,0,1.7-.755.546.546,0,0,0,.209-.61c-.1-.48-.209-.962-.278-1.449a3.543,3.543,0,0,1,.538-2.641,3.849,3.849,0,0,1,1.435-1.1,3.164,3.164,0,0,0,.888-.641.9.9,0,0,0,.133-1.114,3.461,3.461,0,0,0-.5-.7,27.241,27.241,0,0,1-3.065-4.136,9.794,9.794,0,0,1-1.556-5.761c.062-.983.121-1.966.177-2.879" transform="translate(0 0)" fill="#4e6644"/>
        <path id="Trazado_610702" data-name="Trazado 610702" d="M51.693,51.012c1.737,0,3.474,0,5.211,0a.447.447,0,0,0,.446-.239,2.382,2.382,0,1,1,1.421,3.67,2.17,2.17,0,0,1-1.5-1.126.253.253,0,0,0-.266-.159q-5.346,0-10.691,0c-.213,0-.256.055-.141.238a5.662,5.662,0,0,1,.667,1.913c.036.175.1.22.281.219,2.042-.009,4.083-.036,6.124,0a3.7,3.7,0,0,1,3.3,2.171,3.966,3.966,0,0,1,.435,1.944c-.006,1.228.023,2.456-.017,3.682a.843.843,0,0,0,.377.791,2.36,2.36,0,0,1,.865,2.46A2.529,2.529,0,0,1,55.98,68.4a2.458,2.458,0,0,1-2.439-1.975,2.358,2.358,0,0,1,1.065-2.459.394.394,0,0,0,.213-.364c-.039-1.344-.019-2.688,0-4.031a1.873,1.873,0,0,0-.668-1.52,1.5,1.5,0,0,0-1.01-.371c-2.006,0-4.011,0-6.017,0-.2,0-.25.056-.249.254.008,1.613.038,3.226,0,4.838a4.861,4.861,0,0,1-3.13,4.536,4.728,4.728,0,0,1-6.173-2.947c-.063-.187-.161-.217-.317-.166a3.613,3.613,0,0,1-2.092-.035,4.619,4.619,0,0,1-3.254-2.867,2.373,2.373,0,0,0-.972-1.248,4.562,4.562,0,0,1-2.2-4.5,4.818,4.818,0,0,1,1.608-3.187c.269-.247.266-.231.013-.469a4.827,4.827,0,0,1,.954-7.928.67.67,0,0,0,.366-.4,5.493,5.493,0,0,1,1.191-2.135,5.118,5.118,0,0,1,3.393-1.529,2.265,2.265,0,0,1,.948.152c.224.078.3.008.373-.208a4.708,4.708,0,0,1,4.032-3.212,4.916,4.916,0,0,1,5.269,4.882c0,1.792,0,3.584,0,5.376,0,.214.058.263.267.263q2.968,0,5.936.014a1.725,1.725,0,0,0,1.729-1.7c.034-1.388,0-2.777.009-4.166,0-.212-.147-.292-.285-.387a2.325,2.325,0,0,1-.992-1.537A2.408,2.408,0,0,1,54.679,36.9a2.377,2.377,0,0,1,2.639,3.945.772.772,0,0,0-.345.708c.018,1.218.006,2.437.008,3.656a4.062,4.062,0,0,1-4.173,4.176c-1.871.013-3.743,0-5.614,0-.465,0-.466,0-.587.441a3.525,3.525,0,0,1-.367.89c-.174.29-.168.295.161.295h5.292m-6.974,8.334c0-.923,0-1.845,0-2.768a6.036,6.036,0,0,0-.1-1.229,2.515,2.515,0,0,0-2.5-2.144,2.381,2.381,0,0,0-2.159,1.088,2.649,2.649,0,0,1-.482.608.937.937,0,0,1-1.273.04.976.976,0,0,1-.358-1.309c.035-.072.065-.148.1-.217.1-.179.061-.247-.152-.246-1.28.006-2.561-.014-3.84.011a3,3,0,0,0-2.6,1.255,2.751,2.751,0,0,0,.233,3.421c.213.221.224.217.353-.051a4.837,4.837,0,0,1,1.329-1.732,1.07,1.07,0,0,1,1.4.055.96.96,0,0,1,.108,1.433,3.82,3.82,0,0,1-.288.318,2.325,2.325,0,0,0-.514,2.821,2.464,2.464,0,0,0,1.734,1.356,5.681,5.681,0,0,0,1.552-.026c.135-.009.132-.111.154-.211a4.373,4.373,0,0,1,1.1-2.118A1.072,1.072,0,0,1,40,59.621a.936.936,0,0,1,.185,1.4c-.092.121-.178.247-.264.372a2.519,2.519,0,0,0-.449,1.572,2.549,2.549,0,0,0,1.913,2.382,2.581,2.581,0,0,0,2.83-1.044,3.373,3.373,0,0,0,.5-1.921c.011-1.012,0-2.024,0-3.037m-6.666-8.334c-.1-.193-.171-.335-.237-.48a.854.854,0,0,1-.1-.439,1.21,1.21,0,0,1,.868-.995,1,1,0,0,1,1.162.5c.078.12.154.242.236.359a2.637,2.637,0,0,0,3.585.609,2.845,2.845,0,0,0,1.144-2.456c.012-2.131-.006-4.263.006-6.395a3.207,3.207,0,0,0-.485-1.79,2.632,2.632,0,0,0-3.148-.951,2.665,2.665,0,0,0-1.588,2.716,2.86,2.86,0,0,0,.7,1.513,1.06,1.06,0,0,1-.811,1.67,1.159,1.159,0,0,1-.958-.447,4.6,4.6,0,0,1-.991-2c-.03-.136-.072-.211-.213-.22a8.877,8.877,0,0,0-1.1-.07,2.431,2.431,0,0,0-2.266,1.721,2.255,2.255,0,0,0,.578,2.418c.124.141.263.27.376.419a.952.952,0,0,1-.13,1.409,1.055,1.055,0,0,1-1.417.032,4.915,4.915,0,0,1-1.338-1.791c-.089-.2-.157-.157-.271-.036a2.667,2.667,0,0,0-.723,2.421,2.768,2.768,0,0,0,2.359,2.247c.725.041,1.449.028,2.173.034.849.007,1.7,0,2.592,0" transform="translate(-22.515 -28.683)" fill="#4e6644"/>
      </g>
    </g>
    <g id="Grupo_1072973" data-name="Grupo 1072973" transform="translate(768.586 8217)">
      <g id="Grupo_1072972" data-name="Grupo 1072972" clip-path="url(#clip-path-11)">
        <path id="Trazado_610703" data-name="Trazado 610703" d="M38.1,209.639c-2.472,0-4.944.01-7.416-.011-.346,0-1.012.242-.872-.473.107-.545-.667-1.5.585-1.606.406-.035.428-.253.427-.551,0-1.045,0-2.089,0-3.133,0-.2.027-.5-.258-.472-1.011.1-.738-.615-.788-1.157-.214-2.352.661-4.513,1.156-6.741.1-.443.347-.511.74-.51q6.475.015,12.951,0c.389,0,.638.059.746.5.569,2.357,1.4,4.672,1.147,7.159-.025.246.142.7-.251.675-1-.06-.783.612-.788,1.164-.008.7,0,1.393,0,2.089,0,.515-.095.907.726,1.041.712.116.2,1,.306,1.531s-.327.493-.676.493H38.1m-3-6.276c-2.177,0-2.177,0-2.177,2.131v.1c0,1.942,0,1.942,1.949,1.942,2.229,0,2.229,0,2.229-2.184,0-1.994,0-1.994-2-1.994m8.277,2.053c0-2.053,0-2.053-2.046-2.053h-.1c-2.028,0-2.028,0-2.028,2.072,0,2.106,0,2.106,2.1,2.106,2.08,0,2.08,0,2.08-2.124m-5.257-4.152a8.684,8.684,0,0,1,1.251.01c.922.136.972-.394.831-1.047-.191-.881-.42-1.754-.639-2.629a.631.631,0,0,0-.65-.525c-1.9-.182-1.966-.153-2.437,1.685-.017.067-.035.135-.053.2-.633,2.3-.633,2.3,1.7,2.3m-5.044-.062c.19-.1.908.428.883-.47a8.738,8.738,0,0,1,.437-2.336c.34-1.382.339-1.35-1.05-1.327a.747.747,0,0,0-.839.69c-.173.776-.369,1.548-.56,2.32-.2.817-.131,1.408,1.129,1.122m10.348.039c1,.227,1.137-.3.948-1.09-.2-.841-.376-1.69-.62-2.519-.3-1.026-1.175-.519-1.761-.5s-.21.579-.156.882a13.706,13.706,0,0,1,.465,2.225c.006.882.272,1.21,1.125,1" transform="translate(-23.466 -154.194)" fill="#376460"/>
        <path id="Trazado_610704" data-name="Trazado 610704" d="M16.444,29.365a16.053,16.053,0,0,1-8.88-1.853A14.638,14.638,0,1,1,29.329,14.638c.008.871-.019,1.743.006,2.614.028.965-.689.561-1.109.588s-1.014.28-1-.592a20.823,20.823,0,0,0-.41-5.708A12.53,12.53,0,1,0,14.338,27.253c1.951.049,3.905.064,5.854-.007.956-.035.766.543.767,1.069s.2,1.14-.763,1.069c-1.074-.079-2.159-.018-3.752-.018" transform="translate(0 -0.07)" fill="#376460"/>
        <path id="Trazado_610705" data-name="Trazado 610705" d="M173.534,159.861a14.468,14.468,0,0,1,10.892,3.616,14.618,14.618,0,0,1-6.181,25.23,14.584,14.584,0,0,1-18.067-14.04c0-.279,0-.557,0-.836,0-2.462,0-2.462,1.024-2.464,1.073,0,1.082,0,1.07,2.415a15.178,15.178,0,0,0,.454,4.031,12.539,12.539,0,1,0,12.21-15.849c-1.5-.023-3-.07-4.494.018-.969.057-.835-.5-.861-1.094-.029-.667,0-1.14.906-1.046.862.089,1.741.019,3.047.019" transform="translate(-126.668 -126.387)" fill="#376460"/>
        <path id="Trazado_610706" data-name="Trazado 610706" d="M173.386,29.3h-1.568c-1.415,0-1.383,0-1.362-1.41.008-.562.193-.693.724-.7a42.249,42.249,0,0,0,5.218-.133A12.536,12.536,0,1,0,162.123,14.19c-.032,1.01-.038,2.022-.006,3.031.019.593-.342.649-.73.553-.462-.115-1.285.446-1.351-.429-.4-5.417.878-10.238,5.19-13.9a14.641,14.641,0,1,1,9.518,25.85c-.453,0-.906,0-1.359,0" transform="translate(-126.502 0)" fill="#376460"/>
        <path id="Trazado_610707" data-name="Trazado 610707" d="M16.134,159.908c.627,0,1.255,0,1.882,0a1.253,1.253,0,0,1,1.052,1.885c-.176.33-.486.2-.741.208-1.773.064-3.546-.065-5.322.164a12.54,12.54,0,1,0,14.439,12.79c.029-.975.045-1.953,0-2.927-.029-.659.368-.7.791-.6.451.1,1.24-.438,1.3.487.4,5.891-1.176,10.975-6.162,14.578a14.647,14.647,0,1,1-11.3-26.325,15.911,15.911,0,0,1,4.059-.261" transform="translate(-0.225 -126.434)" fill="#376460"/>
        <path id="Trazado_610708" data-name="Trazado 610708" d="M38.51,46.243c-1.673,0-3.345.014-5.018,0a3.133,3.133,0,0,1-3.347-3.329q-.029-4.025,0-8.05a3.049,3.049,0,0,1,3.2-3.237c.892.009,1.042-.322.994-1.076-.021-.334-.243-.879.235-.994a3.026,3.026,0,0,1,1.648.021c.422.152.2.755.18,1.142-.037.655.131.946.853.892a16.684,16.684,0,0,1,2.507,0c.721.055.871-.236.85-.891a1.209,1.209,0,0,1,1.835-1.187c.461.221.252.684.231,1.018-.048.753.1,1.085.994,1.076a3.047,3.047,0,0,1,3.2,3.238q.038,4.077,0,8.154a3.1,3.1,0,0,1-3.24,3.221c-1.707.027-3.415.006-5.122.006m.045-8.367c-1.848,0-3.7.018-5.543-.011-.563-.009-.808.113-.788.741.045,1.393.027,2.789.01,4.183-.012.981.473,1.368,1.421,1.363q4.863-.024,9.726,0c.957,0,1.419-.407,1.406-1.379-.018-1.324-.044-2.651.012-3.973.03-.716-.155-.965-.911-.941-1.776.057-3.555.018-5.333.018m-.049-2.1c1.773,0,3.549-.067,5.317.026,1.034.054,1.057-.469.935-1.18-.133-.777-.7-.938-1.395-.936-3.232.01-6.465,0-9.7.008a2.088,2.088,0,0,0-.719.078c-.741.281-.738.928-.7,1.57.039.732.617.413.946.419,1.772.035,3.545.016,5.318.016" transform="translate(-23.826 -23.223)" fill="#376460"/>
        <path id="Trazado_610709" data-name="Trazado 610709" d="M101.24,108.43a2.155,2.155,0,0,0,.371.108c1.874.1,1.874.1,1.874,2.038,0,.209,0,.418,0,.627.017,1.222.313,1.511,1.56,1.527,1.578.019,1.578.019,1.578,1.6,0,1.011-.021,2.022,0,3.032.024.965-.691.559-1.111.586s-1.07.279-.993-.593c.015-.173-.013-.35,0-.522.105-1.127.127-2.018-1.387-2.408-1.265-.326-1.785-1.587-1.743-2.925.017-.559-.086-.806-.725-.948a2.024,2.024,0,0,1-1.344-3.027c.124-.249.279-.481.422-.721a14.343,14.343,0,0,0,1.945-4.645,9.278,9.278,0,0,1,10.019-7.172,9.488,9.488,0,0,1,8.513,9.069,9.819,9.819,0,0,1-3.239,8.143,2.593,2.593,0,0,0-.968,2.363c.08.828-.062,1.68.036,2.5.123,1.037-.512.867-1.145.918-.769.062-1.115-.164-.978-.967a2.256,2.256,0,0,0,0-.626,7.267,7.267,0,0,1,2.354-6.638c3.057-2.939,2.347-8.55-.992-11.152a7.3,7.3,0,0,0-10.444,1.519,5.523,5.523,0,0,0-1.206,2.958,7.079,7.079,0,0,1-1.384,3.631c-.355.545-.667,1.118-1.025,1.722" transform="translate(-78.338 -75.071)" fill="#376460"/>
        <path id="Trazado_610710" data-name="Trazado 610710" d="M189.406,193.839a4.807,4.807,0,0,1,3.443,1.283c.534.487.829.408,1.358-.02a5.425,5.425,0,0,1,8.765,2.758,5.161,5.161,0,0,1-1.31,5.218c-2.526,2.593-5.118,5.121-7.658,7.7-.4.411-.623.349-.994-.026-2.522-2.549-5.1-5.043-7.589-7.622a5.47,5.47,0,0,1,3.985-9.291m11.652,5.428a3.158,3.158,0,0,0-1.985-3.041,3.228,3.228,0,0,0-3.683.615c-.615.563-1.169,1.559-1.821,1.621-.769.073-1.259-1.049-1.9-1.615a3.381,3.381,0,0,0-4.715.064,3.3,3.3,0,0,0-.056,4.7c2.007,2.082,4.084,4.1,6.113,6.158.372.378.617.418,1.01.018,2.026-2.064,4.082-4.1,6.117-6.154a3.037,3.037,0,0,0,.926-2.367" transform="translate(-145.361 -153.271)" fill="#376460"/>
        <path id="Trazado_610711" data-name="Trazado 610711" d="M195.786,33.9a7.063,7.063,0,0,1,1.044.008,2.816,2.816,0,0,0,2.978-1.219c.5-.719.883-.352,1.282.113.354.413,1.074.767.226,1.352a3.254,3.254,0,0,0-1.257,3.076c.026,5.068.5,3.934-3.144,7.6-1.276,1.285-2.548,2.576-3.843,3.841a3.126,3.126,0,0,1-4.795.009c-1.024-1-2.038-2-3.028-3.031a3.082,3.082,0,0,1-.028-4.64c2.019-2.069,4.081-4.1,6.128-6.137a3.253,3.253,0,0,1,2.45-.976c.662.012,1.324,0,1.986,0m.606,2.42L196.185,36c-.792,0-1.584.012-2.376,0a1.46,1.46,0,0,0-1.1.5c-1.966,1.969-3.927,3.943-5.9,5.9a1.135,1.135,0,0,0,.028,1.873c.95.919,1.865,1.874,2.808,2.8.864.848,1.215.846,2.09-.022,1.654-1.641,3.195-3.416,4.974-4.907,1.525-1.279,1.333-2.773,1.208-4.719-.761.822-1.336,1.418-1.883,2.039-.58.657-.851.007-1.116-.3s-1.1-.536-.384-1.186c.615-.559,1.243-1.1,1.866-1.654" transform="translate(-145.652 -25.532)" fill="#376460"/>
        <path id="Trazado_610712" data-name="Trazado 610712" d="M56.114,79.88c.942-.255,1.054.221,1.089,1.039.04.93-.313,1.054-1.127,1.063-.832.009-1.046-.24-1.031-1.048s.1-1.32,1.069-1.054" transform="translate(-43.53 -63.113)" fill="#376460"/>
        <path id="Trazado_610713" data-name="Trazado 610713" d="M76.142,79.88c.991-.274,1.008.291,1.061,1.064.067.977-.383,1-1.15,1.037-.885.041-.993-.313-1.006-1.072-.014-.846.175-1.274,1.095-1.029" transform="translate(-59.347 -63.114)" fill="#376460"/>
      </g>
    </g>
  </g>
</svg>
