<svg xmlns="http://www.w3.org/2000/svg" xmlns:xlink="http://www.w3.org/1999/xlink" width="1030" height="495" viewBox="0 0 1030 495">
  <defs>
    <linearGradient id="linear-gradient" x1="0.5" x2="0.5" y2="1" gradientUnits="objectBoundingBox">
      <stop offset="0" stop-color="#c3fdf7"/>
      <stop offset="1" stop-color="#e5fffc"/>
    </linearGradient>
    <clipPath id="clip-path">
      <rect id="Rectángulo_378151" data-name="Rectángulo 378151" width="737" height="495" transform="translate(411 2049)" fill="#fff" stroke="#707070" stroke-width="1"/>
    </clipPath>
    <clipPath id="clip-path-2">
      <rect id="Rectángulo_378150" data-name="Rectángulo 378150" width="409.297" height="581.299" fill="none"/>
    </clipPath>
    <clipPath id="clip-path-3">
      <rect id="Rectángulo_378158" data-name="Rectángulo 378158" width="171.598" height="188.116" fill="none"/>
    </clipPath>
    <clipPath id="clip-path-4">
      <rect id="Rectángulo_378159" data-name="Rectángulo 378159" width="131.041" height="263.536" fill="none"/>
    </clipPath>
  </defs>
  <g id="Grupo_1072879" data-name="Grupo 1072879" transform="translate(-285 -2049)">
    <g id="Grupo_1072878" data-name="Grupo 1072878">
      <path id="Trazado_608309" data-name="Trazado 608309" d="M0,0H1030V495H0Z" transform="translate(1315 2544) rotate(180)" fill="url(#linear-gradient)"/>
      <g id="Enmascarar_grupo_154376" data-name="Enmascarar grupo 154376" transform="translate(28)" clip-path="url(#clip-path)">
        <path id="Trazado_610496" data-name="Trazado 610496" d="M447,2563.146s-30.817-104.6,35.744-174.327S581.108,2285.28,552,2190.192s135.71-175.384,181.141-57.053,156.386-83.467,258.859-5.283-33.818,233.494,17.951,307.45,105.423,89.8,87.049,153.2S447,2563.146,447,2563.146Z" fill="#cefcba"/>
        <g id="Grupo_1072858" data-name="Grupo 1072858" transform="translate(567.352 2066)">
          <g id="Grupo_1072857" data-name="Grupo 1072857" clip-path="url(#clip-path-2)">
            <path id="Trazado_610432" data-name="Trazado 610432" d="M379.05,331.515c0,22.968-84.853,41.588-189.525,41.588S0,354.483,0,331.515s84.853-41.588,189.525-41.588S379.05,308.548,379.05,331.515" transform="translate(0 208.195)" fill="#8fab75"/>
            <path id="Trazado_610433" data-name="Trazado 610433" d="M88.564,242.934,57.278,379.9a9.981,9.981,0,0,0,19.2,5.364l45.48-137.135Z" transform="translate(40.949 174.45)" fill="#222859"/>
            <path id="Trazado_610434" data-name="Trazado 610434" d="M209.211,233.43,240.5,370.4a9.981,9.981,0,0,1-19.2,5.364l-45.48-137.135Z" transform="translate(126.252 167.625)" fill="#222859"/>
            <path id="Trazado_610435" data-name="Trazado 610435" d="M173.645,228.967l26.9,117.774a8.582,8.582,0,0,1-16.513,4.613l-39.106-117.92Z" transform="translate(104.073 164.42)" fill="#222859"/>
            <path id="Trazado_610436" data-name="Trazado 610436" d="M68.86,217.948,38.765,349.7a9.6,9.6,0,0,0,18.471,5.159l43.748-131.912Z" transform="translate(27.663 156.508)" fill="#222859"/>
            <path id="Trazado_610437" data-name="Trazado 610437" d="M101.588,82.727c-38.075,11.181-67,35.3-74.048,128.737S28.95,339.508,84.663,362.35s138.223,18.686,194.64.691,97.322-54.678,69.817-78.9-90.267-34.606-118.476-47.064S191.151,56.426,101.588,82.727" transform="translate(18.252 57.405)" fill="#ed6c6b"/>
            <path id="Trazado_610438" data-name="Trazado 610438" d="M138,219.3s32.867,8.46,51.686,14.36c19.72,6.182,48.607,40.045,52.23,47.593s-3.677,9.657-6.431,8.018c0,0-3.093,3.251-6.931,2.077a11.456,11.456,0,0,1-6.22,1.644s-3.866,2.941-7.673,2.139c0,0-1.825.527-5.632-.275s-17.648-18.712-20.932-22.175-8.608-9-10.929-9.927-50.938-5.448-50.938-5.448Z" transform="translate(90.643 157.477)" fill="#c18f71"/>
            <path id="Trazado_610439" data-name="Trazado 610439" d="M132.01,253.05l15.313-26.613-16.3,1.677Z" transform="translate(94.085 162.604)" fill="#a36856"/>
            <path id="Trazado_610440" data-name="Trazado 610440" d="M94.043,13.99q-2.08,1.515-4.055,3.173c-7,5.871-11.432,12.126-12.331,21.474C77,45.5,79.1,53.524,75.383,59.776,68.607,71.162,50.947,82.5,61.609,99.168s4.349,9.953,4.314,20.617-13.4,30.886,31.407,42.367,87.473.522,100.062-13.24,5.805-29.876.49-38,11.546-16.241,2.806-30.07c-4.383-6.934-2.242-15.544-1.548-23.15.995-10.9-.476-20.339-7.189-29.285A71.415,71.415,0,0,0,139.674.108,70.811,70.811,0,0,0,94.043,13.99" transform="translate(41.841 0)" fill="#222859"/>
            <path id="Trazado_610441" data-name="Trazado 610441" d="M35.228,198.575c21.387-19.552,62.788-10.556,62.788-10.556l55.4-7,92.657,3.773s49.4-7.9,79.46-11.676l-15.492,46.328L184.543,259.638l-70.877-6.716Z" transform="translate(25.297 124.313)" fill="#ffce5e"/>
            <path id="Trazado_610442" data-name="Trazado 610442" d="M157.686,200.2s-73.533-16.263-95.875-15.138-31.374,4.878-31.64,28.457,54.745,59.721,82.165,65.647,91.724,5.766,91.724,5.766l7.47-42.5L129.1,211.572Z" transform="translate(21.665 132.85)" fill="#ffce5e"/>
            <path id="Trazado_610443" data-name="Trazado 610443" d="M166.313,214.178s-32.046,11.178-50.3,18.631c-19.133,7.81-45.086,43.97-48.067,51.794s4.47,9.315,7.079,7.453c0,0,3.354,2.981,7.08,1.491a11.466,11.466,0,0,0,6.335,1.117s4.1,2.608,7.826,1.491c0,0,1.862.373,5.589-.746s16.023-20.122,19-23.847,7.824-9.688,10.059-10.807,50.3-9.688,50.3-9.688Z" transform="translate(48.291 153.8)" fill="#c18f71"/>
            <path id="Trazado_610444" data-name="Trazado 610444" d="M110.442,81.247c-23.351,6.707-51.67,33.288-57.632,71.543s0,71.047,34.778,84.958c0,0,.247,13.166-.746,18.382,0,0,109.054,13.166,148.055-3.228l-1.988-12.918L256.758,206.7S237.382,120.744,226.7,103.108s-20.868-19.129-37.76-24.842c0,0-50.179,2.235-50.924,2.235s-27.574.746-27.574.746" transform="translate(36.469 56.203)" fill="#fff"/>
            <path id="Trazado_610445" data-name="Trazado 610445" d="M90.888,185.172l83.838-7.852-13.92,23.4Z" transform="translate(65.266 127.333)" fill="#697bae"/>
            <path id="Trazado_610446" data-name="Trazado 610446" d="M104.158,185.5l83.151-7.139L173.191,197.56Z" transform="translate(74.796 128.084)" fill="#222859"/>
            <path id="Trazado_610447" data-name="Trazado 610447" d="M104.388,67.122s1.988,8.943-.5,15.4-18.384,9.937-18.384,9.937,39.746,26.332,78.5-2.981c0,0-10.065-3.866-16.892-7.453s-6.458-19.377-6.458-19.377Z" transform="translate(61.403 44.989)" fill="#c18f71"/>
            <path id="Trazado_610448" data-name="Trazado 610448" d="M100.256,187.275l8.7-23.847s4.678,2.684,13.91,3.725c10.08,1.139,17.019,1.34,25.357,3.723s19.059,22.038,18.464,26.206-5.957,1.936-7,.6a4.781,4.781,0,0,1-6.4,1.49s-3.127,2.084-5.957.3-10.274-6.254-14-8.041-13.863,3.891-33.072-4.149" transform="translate(71.993 117.357)" fill="#c18f71"/>
            <path id="Trazado_610449" data-name="Trazado 610449" d="M161.428,199.446,90.955,185.394l-.067-3.5,68.47,13.118Z" transform="translate(65.267 130.615)" fill="#495e84"/>
            <path id="Trazado_610450" data-name="Trazado 610450" d="M139.4,80.283c-4.611-5.364-4.328-17.633-4.328-17.633L98.806,67.122s1.988,8.943-.5,15.4c-.74,1.926-2.679,3.586-5.027,4.969a25.182,25.182,0,0,0,7.891,3.751c9.372,2.534,19.463.151,28.23-4.024a31.377,31.377,0,0,0,10-6.936" transform="translate(66.985 44.989)" fill="#a36856"/>
            <path id="Trazado_610451" data-name="Trazado 610451" d="M84.886,66.088S71.684,67.16,75.62,78.25s16.794,8.108,16.794,8.108,14.868,27.445,48.454,25.622c29.343-1.593,39.587-48.186,25.1-77.165-5.79-11.583-16.215-15.638-26.639-11.583s-6.371,13.32-15.057,15.636S103.419,40.6,99.943,48.714,94.731,66.088,84.886,66.088" transform="translate(53.776 15.584)" fill="#c18f71"/>
            <path id="Trazado_610452" data-name="Trazado 610452" d="M86.647,55.468a8.274,8.274,0,0,0-2.809-3.1A7.563,7.563,0,0,0,81.9,51.322a4.591,4.591,0,0,0-2.455-.308,1.292,1.292,0,0,0-.567,2.146,4.269,4.269,0,0,0,.926.589c.249.125.493.261.73.411.253.161.512.313.763.478.1.065.2.134.292.2l-.027-.031c0,.007.029.027.046.043l.038.026c.139.1.058.05-.012,0,.055.043.12.089.132.1.186.156.364.325.534.5a2.686,2.686,0,0,0-1.55,2.5A3.068,3.068,0,0,0,85.424,60.4a3.679,3.679,0,0,0,1.563-2.179,4.242,4.242,0,0,0-.34-2.752" transform="translate(56.367 36.586)" fill="#a36856"/>
            <path id="Trazado_610453" data-name="Trazado 610453" d="M80.293,53.214a.525.525,0,0,0,.043.036l-.026-.024-.017-.012" transform="translate(57.658 38.213)" fill="#a36856"/>
            <path id="Trazado_610454" data-name="Trazado 610454" d="M159.569,31.074c-6.015-8.67-15.217-11.424-24.423-7.843-10.425,4.053-6.371,13.32-15.057,15.636S99.238,40.6,95.764,48.712,90.552,66.087,80.707,66.087c8.3.149,13.444-.108,16.528-8.848s13.624-13.513,21.079-13.183,12.339-3.527,14.91-9.7c2.017-4.842,15.745-9.2,26.345-3.287" transform="translate(57.955 15.585)" fill="#a36856"/>
            <path id="Trazado_610455" data-name="Trazado 610455" d="M117.744,218.54l17.966,34.192.309-.055L137.5,232.6l-7.443-18.421s-5.067,1.768-12.308,4.362" transform="translate(84.552 153.8)" fill="#a36856"/>
            <path id="Trazado_610456" data-name="Trazado 610456" d="M173.068,79.746q-1.258-.407-2.57-.837A50.623,50.623,0,0,1,161.617,87c-5.924,4.165-12.733,6.348-19.772,7.778-14.411,2.926-29.888,2.6-43.645-2.965a57.7,57.7,0,0,1-14.99-9.118q-1.049.425-2.1.9a55.281,55.281,0,0,0,13.92,9.255,65.756,65.756,0,0,0,20.478,5.934,82.1,82.1,0,0,0,24.17-.835c7.585-1.342,15.2-3.414,21.732-7.625a51.727,51.727,0,0,0,11.661-10.577" transform="translate(58.243 56.664)" fill="#697bae"/>
            <path id="Trazado_610457" data-name="Trazado 610457" d="M150.276,135.272c-.761-3.347-1.711-6.652-2.61-9.963-.929-3.433-1.837-6.871-2.8-10.293q-.722-2.567-1.464-5.129c-.435-1.484-.708-3.148-1.816-4.28a.073.073,0,0,0-.12.033,8.062,8.062,0,0,0,.347,3.893c.39,1.735.83,3.46,1.247,5.189.833,3.457,1.735,6.9,2.612,10.345.849,3.34,1.749,6.673,2.488,10.041.39,1.783.746,3.581.976,5.391a29.2,29.2,0,0,0,.61,4.5.789.789,0,0,0,1.51,0c.71-3.014-.311-6.778-.983-9.73" transform="translate(101.491 75.822)" fill="#697bae"/>
            <path id="Trazado_610458" data-name="Trazado 610458" d="M111.368,164.507a19.818,19.818,0,0,1-2.417-1.079l-8.694,23.849a60.93,60.93,0,0,0,8.762,2.928,237.092,237.092,0,0,0,2.349-25.7" transform="translate(71.994 117.357)" fill="#a36856"/>
            <path id="Trazado_610459" data-name="Trazado 610459" d="M132.318,198.764c-5.792-3.151-11.994-5.58-17.853-8.628q-8.5-4.425-16.552-9.633a106.042,106.042,0,0,1-13.9-10.348c-1.411-1.28-2.752-2.644-4.053-4.044,1.033-4.333,1.081-8.888,1.625-13.3.624-5.048,1.411-10.073,2.417-15.059.959-4.749,2.117-9.455,3.44-14.114.663-2.328,1.328-4.654,2.055-6.965.689-2.184,1.89-4.534,1.928-6.838A.841.841,0,0,0,90,109.241c-1.393,1.672-1.95,4.055-2.663,6.08-.845,2.4-1.656,4.814-2.38,7.252-1.441,4.874-2.639,9.827-3.651,14.808-.96,4.745-1.754,9.532-2.307,14.343a68.616,68.616,0,0,0-.782,12.465c-.07-.084-.153-.161-.223-.246-1.785-2.12-3.221-4.709-5.185-6.652a.086.086,0,0,0-.144.06c.247,2.608,1.869,5.263,3.3,7.386a42.582,42.582,0,0,0,5.312,6.39,86.9,86.9,0,0,0,14.052,10.979,204.8,204.8,0,0,0,17.781,10.346c5.46,2.826,11.2,5.809,17.121,7.64-2.179,5.022-4.3,10.084-6.18,15.226-.966,2.653-1.883,5.314-2.734,8a59.206,59.206,0,0,0-1.873,6.1,128.592,128.592,0,0,1-24.56-5.022A123.228,123.228,0,0,1,82.8,219.915c-1.9-.821-3.788-1.691-5.658-2.584-1.764-.844-3.548-2.031-5.474-2.445a.364.364,0,0,0-.35.6c1.356,1.419,3.333,2.254,5.051,3.158,1.936,1.019,3.907,1.96,5.9,2.85A127.2,127.2,0,0,0,94.4,226.183a124.777,124.777,0,0,0,24.943,5.493.519.519,0,0,0,.6.072c.955.1,1.258-.861.942-1.563.9-1.931,1.466-4.111,2.175-6.068q1.441-3.982,2.9-7.958c1.929-5.237,3.876-10.46,5.984-15.626a.962.962,0,0,0,.368-1.768" transform="translate(51.142 78.265)" fill="#697bae"/>
            <path id="Trazado_610460" data-name="Trazado 610460" d="M136.8,184.976c-.472-.46-.942-.923-1.441-1.352q-1.5-1.294-3.032-2.548c-1.005-.823-2.008-1.663-3.056-2.431-.529-.388-1.07-.761-1.608-1.134a2.321,2.321,0,0,0-1.476-.524.849.849,0,0,0-.225,1.66,4.361,4.361,0,0,1,1.027.809c.442.383.875.777,1.326,1.144q1.448,1.18,2.867,2.393c.919.785,1.825,1.586,2.728,2.388.44.39.9.756,1.354,1.13a3.6,3.6,0,0,0,1.711.978.747.747,0,0,0,.9-.905,3.383,3.383,0,0,0-1.079-1.608" transform="translate(90.032 127.092)" fill="#a36856"/>
            <path id="Trazado_610461" data-name="Trazado 610461" d="M137.581,181.02c-.95-.955-1.991-1.831-3.022-2.7q-1.518-1.268-3.125-2.416-.84-.6-1.7-1.173a6.43,6.43,0,0,0-.766-.481,3.377,3.377,0,0,0-1.022-.251.219.219,0,0,0-.244.318,3.866,3.866,0,0,0,.459.777,5.73,5.73,0,0,0,.684.622q.753.626,1.488,1.275,1.513,1.335,2.981,2.72c.959.9,1.866,1.849,2.8,2.768s1.811,2.051,3.084,2.46a.6.6,0,0,0,.727-.725c-.29-1.3-1.44-2.285-2.349-3.2" transform="translate(91.682 124.949)" fill="#a36856"/>
            <path id="Trazado_610462" data-name="Trazado 610462" d="M136.838,177.234c-.706-.727-1.457-1.412-2.192-2.11s-1.428-1.371-2.206-1.99a9.281,9.281,0,0,0-1.237-.873c-.1-.058-.7-.328-.771-.081-.132.438.112.761.34,1.122.253.4.538.766.826,1.139.6.777,1.3,1.478,1.96,2.2.636.691,1.261,1.392,1.924,2.057a6.311,6.311,0,0,0,2.388,1.856.693.693,0,0,0,.845-.845,6.524,6.524,0,0,0-1.878-2.474" transform="translate(93.636 123.569)" fill="#a36856"/>
            <path id="Trazado_610463" data-name="Trazado 610463" d="M129.381,237.75l4.407,1.357L286.4,236.19l26.225-109.529L159.128,129.6a4.9,4.9,0,0,0-4.67,3.757Z" transform="translate(92.908 90.955)" fill="#495e84"/>
            <path id="Trazado_610464" data-name="Trazado 610464" d="M131.945,239.109l157.28-3.007,25.23-105.376a3.3,3.3,0,0,0-3.273-4.068l-149.547,2.857a4.486,4.486,0,0,0-4.275,3.44Z" transform="translate(94.749 90.952)" fill="#697bae"/>
            <path id="Trazado_610465" data-name="Trazado 610465" d="M168.219,207.4s72.662-26.084,95.019-26.828,32.237,12.989,34.474,36.463-46.77,40.3-73.6,48.493-90.92,13.415-90.92,13.415l-11-41.733,79.562-37.637Z" transform="translate(87.746 129.649)" fill="#ffce5e"/>
            <path id="Trazado_610466" data-name="Trazado 610466" d="M207.459,168.748a14.909,14.909,0,1,1-14.9-14.532,14.722,14.722,0,0,1,14.9,14.532" transform="translate(127.57 110.742)" fill="#495e84"/>
            <path id="Trazado_610467" data-name="Trazado 610467" d="M285.391,186.372c-2.153.691-4.28,1.462-6.393,2.278a1.537,1.537,0,0,0-.277-.345,6.349,6.349,0,0,0-.852-.646q-.345-.222-.7-.414a2.534,2.534,0,0,0-1.225-.342,1.023,1.023,0,0,0-1,.88,1.006,1.006,0,0,0,.72,1.11c.186.1.363.227.545.333s.347.213.515.325c-5.309,2.137-10.546,4.5-15.856,6.592q-12.306,4.85-24.8,9.219c-16.346,5.709-33,10.338-49.67,14.982a99.737,99.737,0,0,0-12.319,4.12c-2.768,1.177-6.467,2.586-8.8,4.86a1.56,1.56,0,0,0-.545-.273c-27.632-7.52-53.091-20.22-79.283-31.5-3.034-1.307-6.075-2.606-9.144-3.83.172-.012.345,0,.519-.017a11.208,11.208,0,0,0,2.285-.423,5.312,5.312,0,0,0,1.916-1.163.534.534,0,0,0-.375-.9,10.41,10.41,0,0,0-2.094.062c-.624.1-1.251.21-1.878.282a16.814,16.814,0,0,1-2.038.107,7.991,7.991,0,0,0-2.1.124.745.745,0,0,0-.418.294c-.948-.357-1.9-.7-2.861-1.027-1.739-.584-3.587-1.445-5.448-1.273a.062.062,0,0,0-.043.1,11.749,11.749,0,0,0,3.886,2.294c1.684.792,3.383,1.541,5.082,2.3,3.2,1.426,6.4,2.826,9.594,4.264,6.5,2.928,12.932,6.008,19.408,8.991,12.827,5.905,25.667,11.889,38.9,16.851a215.445,215.445,0,0,0,22.552,7.273,19.237,19.237,0,0,0,.632,5.405q.554,3.147,1.222,6.271,1.289,6.064,2.857,12.061c1,3.828,2.072,7.64,3.319,11.4q.992,2.989,2.149,5.922c1.208,3.048,4.343,2.907,7.319,2.721a12.721,12.721,0,0,0-.524,2.034c-.285,1.462-.5,2.936-.672,4.417a38.493,38.493,0,0,0-5.129.325q-3.062.242-6.125.454c-4.3.292-8.6.589-12.9.746a96.667,96.667,0,0,1-12.381-.232c-1.938-.177-3.845-.546-5.776-.766-1.964-.222-2.728-.027-3.905,1.392a.1.1,0,0,0,.069.165c.606.036,1.23.337,1.854.4,1.014.1,2.005.2,3.012.375,1.825.309,3.651.577,5.494.753a100.659,100.659,0,0,0,12.386.3c4.053-.113,8.1-.349,12.149-.632q3.064-.214,6.125-.464a25.234,25.234,0,0,0,6.017-.728,1.2,1.2,0,0,0,.739-1.034,1.24,1.24,0,0,0,.658-1.027c.117-1.347.3-2.682.512-4.015.113-.7.282-1.44.323-2.148.007-.129.015-.27.021-.411,2.426-.079,4.85-.2,7.273-.344,5.149-.306,10.295-.687,15.428-1.173,4.881-.46,9.748-1.144,14.6-1.864,5.049-.747,10.314-1.34,15.078-3.225a.594.594,0,0,0-.156-1.161c-4.854-.07-9.712.967-14.513,1.642-5.242.737-10.5,1.311-15.758,1.907q-7.512.85-15.054,1.369c-2.512.17-5.027.316-7.542.457-1.689.1-3.9-.222-5.46.572-.282-.871-.766-1.737-1.064-2.526q-1.046-2.77-1.941-5.594c-1.2-3.773-2.282-7.591-3.294-11.42q-1.536-5.809-2.807-11.685-.637-2.935-1.235-5.878a25.665,25.665,0,0,0-1.131-4.72,1.517,1.517,0,0,0,.529-.545,30.139,30.139,0,0,0,3.7-1.919,51.114,51.114,0,0,1,5.606-2.637,104.681,104.681,0,0,1,10.927-3.594c8.125-2.264,16.269-4.415,24.354-6.819,16.657-4.952,33.121-10.723,49.3-17.076,8.9-3.5,18.2-6.8,26.483-11.6a.726.726,0,0,0-.557-1.321" transform="translate(45.784 133.807)" fill="#ff8f3d"/>
            <path id="Trazado_610468" data-name="Trazado 610468" d="M257.774,183.174c-6.929-3.747-14.968-3.976-22.614-2.933a250.276,250.276,0,0,0-26.046,5.469c-8.524,2.108-16.935,4.751-25.247,7.572-4.627,1.57-9.224,3.218-13.772,5-4.5,1.77-9.535,3.393-13.528,6.158a.485.485,0,0,0,.371.881c4-.773,7.9-2.6,11.724-4.008q5.662-2.1,11.372-4.062,11.595-4,23.428-7.252c7.888-2.168,15.77-4.342,23.778-6.032s16.671-3.093,24.686-.677a22.176,22.176,0,0,1,15.083,14.781c.285.866,1.7.768,1.656-.225-.273-6.458-5.494-11.757-10.891-14.676" transform="translate(112.267 129.045)" fill="#ff8f3d"/>
            <path id="Trazado_610469" data-name="Trazado 610469" d="M99.254,228.591c.057.091.04.033-.072-.215a2.071,2.071,0,0,0-.144-.18.312.312,0,0,0-.026-.04l.01.019c-.017-.021-.031-.043-.048-.062a1.485,1.485,0,0,0-.493-.344,2.341,2.341,0,0,0-1-.141,7.693,7.693,0,0,0-.885.112c.448-.074.168-.027.06-.015-.22.026-.442.05-.658.091a4.669,4.669,0,0,0-1.412.579,8.714,8.714,0,0,0-1.273.938,6.738,6.738,0,0,0-2.484,5.177,1.472,1.472,0,0,0,2.886.392c.1-.356.239-.7.366-1.051l.014-.029-.05.1c.04-.076.069-.155.107-.232.081-.165.168-.328.263-.486s.189-.32.29-.476q.07-.106.144-.211l.027-.036a5,5,0,0,1,.68-.718c.065-.057.129-.113.2-.17l.017-.014c.12-.094.249-.18.373-.259.3-.192.608-.371.919-.546.16-.089.309-.194.467-.285.029-.017.019-.015.034-.024l.206-.074c.16-.053.323-.108.483-.165a1.792,1.792,0,0,0,.933-.746.964.964,0,0,0,.072-.885" transform="translate(65.217 163.456)" fill="#a36856"/>
            <path id="Trazado_610470" data-name="Trazado 610470" d="M92.724,231.285c.113-.227.045-.107,0,0" transform="translate(66.585 165.992)" fill="#a36856"/>
            <path id="Trazado_610471" data-name="Trazado 610471" d="M174.7,236.829a3.156,3.156,0,0,0-1.584-1.393,9.751,9.751,0,0,0-1.122-.411c-.235-.07-.471-.143-.7-.227a2.466,2.466,0,0,1-.22-.12,1.226,1.226,0,0,0-.333-.222,1.123,1.123,0,0,0-1.259.227l-.01.012a1.177,1.177,0,0,0-.3,1.132,2.067,2.067,0,0,0,.57.875,3.091,3.091,0,0,0,1,.526c.363.131.732.247,1.094.385a3.472,3.472,0,0,1,.46.259c.041.038.081.079.119.12a3.529,3.529,0,0,1,.249.426c.007.024.015.05.021.074a1.517,1.517,0,0,0,.172.818,1.027,1.027,0,0,0,1.656.05,2.323,2.323,0,0,0,.189-2.531" transform="translate(121.443 168.293)" fill="#a36856"/>
            <path id="Trazado_610472" data-name="Trazado 610472" d="M103.475,40.779l-.029-.007c-.194-.033-.4.026.029.007" transform="translate(74.123 29.271)" fill="#222859"/>
            <path id="Trazado_610473" data-name="Trazado 610473" d="M102.317,40.769c-.163.034-.265.084,0,0" transform="translate(73.357 29.276)" fill="#222859"/>
            <path id="Trazado_610474" data-name="Trazado 610474" d="M112.248,40.77c-.337-2.074-2.593-2.481-4.331-2.666a11.759,11.759,0,0,0-7.438,1.864,7.493,7.493,0,0,0-2.539,3.558,1.382,1.382,0,0,0,2.014,1.548,8.343,8.343,0,0,1,1.265-.785c.107-.053.215-.1.321-.151a.224.224,0,0,0,.043-.014,6,6,0,0,0,1.048-.476c.225-.131.459-.246.691-.363l.045-.022c.1-.038.2-.079.3-.115a9.663,9.663,0,0,1,1.508-.4,2.639,2.639,0,0,0,.309-.052l-.088.027a.8.8,0,0,1,.108-.021c.258-.021.519-.033.778-.034s.521.01.78.031a2.717,2.717,0,0,0,.311.029l-.055,0c.505.091.979.261,1.474.381a4.019,4.019,0,0,0,1.454.151,3.18,3.18,0,0,0,1.172-.457,1.861,1.861,0,0,0,.828-2.034" transform="translate(70.276 27.324)" fill="#222859"/>
            <path id="Trazado_610475" data-name="Trazado 610475" d="M131.3,38.435a3.256,3.256,0,0,0-1.7-1.574,9.893,9.893,0,0,0-6.319-.689,10.935,10.935,0,0,0-3.606,1.385,6.038,6.038,0,0,0-1.768,1.5,5.5,5.5,0,0,0-.472.689,2.911,2.911,0,0,0-.263,1.318,1.3,1.3,0,0,0,1.617,1.232c.136-.022.119-.021.081-.015a2.423,2.423,0,0,0,.868-.23c.211-.107.411-.229.622-.33.455-.216.859-.522,1.307-.756.119-.062.239-.12.359-.177l.067-.029c.241-.088.479-.175.723-.247s.462-.129.7-.179c.132-.029.263-.05.4-.077l.024-.005a11.792,11.792,0,0,1,1.5-.052c.241.01.479.036.718.053.127.01.254.022.383.031l0,0a12.386,12.386,0,0,1,1.466.376l.235.086.11.045a1.233,1.233,0,0,0,.4.141,4.619,4.619,0,0,0,1.1.043,1.707,1.707,0,0,0,1.459-2.538" transform="translate(84.137 25.818)" fill="#222859"/>
            <path id="Trazado_610476" data-name="Trazado 610476" d="M107.465,47.139a3.05,3.05,0,0,0-.452-.591,3.241,3.241,0,0,0-2.031-.943,3.291,3.291,0,0,0-3.2.928,5.035,5.035,0,0,0-1.184,3.039c-.34,2.9.541,9.13,4.917,7.946a3.665,3.665,0,0,0,2.361-2.222,9.066,9.066,0,0,0,.555-2.684c.184-1.859.234-3.919-.969-5.474" transform="translate(72.194 32.685)" fill="#222859"/>
            <path id="Trazado_610477" data-name="Trazado 610477" d="M125.868,45.681a3.05,3.05,0,0,0-.452-.591,3.242,3.242,0,0,0-2.031-.943,3.291,3.291,0,0,0-3.2.928A5.035,5.035,0,0,0,119,48.114c-.34,2.9.541,9.13,4.917,7.946a3.665,3.665,0,0,0,2.361-2.221,9.066,9.066,0,0,0,.555-2.684c.184-1.859.234-3.919-.969-5.474" transform="translate(85.409 31.638)" fill="#222859"/>
            <path id="Trazado_610478" data-name="Trazado 610478" d="M113.324,52.7l.036-.017a.452.452,0,0,0-.065.027l.012,0,.017-.009" transform="translate(81.357 37.831)" fill="#a36856"/>
            <path id="Trazado_610479" data-name="Trazado 610479" d="M117.46,52.4a1.835,1.835,0,0,0-.643,0c-.213.041-.43.241-.641.261q.235-.1.1-.041c-.041.017-.084.033-.127.048-.137.055-.273.113-.407.177-.038.019-.089.045-.141.067.027-.009.022-.005-.036.015a.834.834,0,0,0-.077.036.408.408,0,0,1,.048-.026c-.294.1-.588.18-.89.253-.153.036-.3.069-.459.1l-.009,0c-.012,0,0,0-.017,0-.079.007-.158.014-.237.019a6.67,6.67,0,0,1-.926-.026l-.014,0c-.077-.015-.155-.029-.232-.046-.151-.031-.292-.045-.448-.069.158.024.115.015-.015-.009-.153-.027-.3-.067-.454-.1A3.115,3.115,0,0,0,111.5,53c.007,0-.067-.012-.117-.022-.46-.086-.972-.113-1.163.419-.163.454.213.864.478,1.184a3.187,3.187,0,0,0,.94.708,5.765,5.765,0,0,0,2.478.57,5.629,5.629,0,0,0,2.283-.383,4.608,4.608,0,0,0,1.313-.761,1.782,1.782,0,0,0,.66-1.39.945.945,0,0,0-.907-.928" transform="translate(79.118 37.606)" fill="#a36856"/>
            <path id="Trazado_610480" data-name="Trazado 610480" d="M114.415,52.386h0l.005,0-.007,0" transform="translate(82.161 37.618)" fill="#a36856"/>
            <path id="Trazado_610481" data-name="Trazado 610481" d="M114.442,52.389l-.022,0c.034,0,.062.007.022,0" transform="translate(82.165 37.619)" fill="#a36856"/>
            <path id="Trazado_610482" data-name="Trazado 610482" d="M114.459,52.392l-.026-.007c-.156-.015-.046,0,.026.007" transform="translate(82.117 37.612)" fill="#a36856"/>
            <path id="Trazado_610483" data-name="Trazado 610483" d="M106.437,58.243c1-1.3,20.052-2.314,22.364-.964s-.192,11.181-9.833,12.339-14.46-8.869-12.532-11.376" transform="translate(76.131 40.673)" fill="#222859"/>
            <path id="Trazado_610484" data-name="Trazado 610484" d="M126.126,62.4c-.35-.155-.7-.309-1.055-.457a17.7,17.7,0,0,0-6.106-1.677,18.045,18.045,0,0,0-5.888,1.07,30.451,30.451,0,0,0-5.326,2.07,11.489,11.489,0,0,0,9.974,3.613,12.2,12.2,0,0,0,8.4-4.62" transform="translate(77.376 43.271)" fill="#ed6c6b"/>
            <path id="Trazado_610485" data-name="Trazado 610485" d="M128.728,57.279c-2.314-1.349-21.366-.333-22.364.964a1.772,1.772,0,0,0-.242.476c.917.979,2.67,1.277,4.135,1.318q7.9.222,15.793-.235a5.386,5.386,0,0,0,2.362-.509,3.434,3.434,0,0,0,1-.905,1.683,1.683,0,0,0-.687-1.108" transform="translate(76.205 40.674)" fill="#fff"/>
            <path id="Trazado_610486" data-name="Trazado 610486" d="M104.708,45.245a1.709,1.709,0,0,0,0,3.416,1.709,1.709,0,0,0,0-3.416" transform="translate(74.005 32.49)" fill="#fff"/>
            <path id="Trazado_610487" data-name="Trazado 610487" d="M123.111,43.786a1.709,1.709,0,0,0,0,3.416,1.709,1.709,0,0,0,0-3.416" transform="translate(87.22 31.443)" fill="#fff"/>
            <path id="Trazado_610488" data-name="Trazado 610488" d="M107.676,56.335c.383,2.419-2.716,4.921-6.922,5.587s-7.927-.753-8.312-3.172,2.716-4.921,6.922-5.587,7.929.753,8.312,3.172" transform="translate(66.359 38.059)" fill="#ed6c6b"/>
            <path id="Trazado_610489" data-name="Trazado 610489" d="M136.162,52.875c.337,2.124-2.385,4.319-6.077,4.905s-6.96-.66-7.3-2.785,2.383-4.319,6.077-4.905,6.96.661,7.3,2.785" transform="translate(88.154 35.866)" fill="#ed6c6b"/>
            <path id="Trazado_610490" data-name="Trazado 610490" d="M273.725,144.461H177.993a7.253,7.253,0,0,1-7.252-7.252V89.045a7.253,7.253,0,0,1,7.252-7.252h95.732a7.253,7.253,0,0,1,7.252,7.252v48.163a7.252,7.252,0,0,1-7.252,7.252" transform="translate(122.608 58.735)" fill="#ffce5e"/>
            <path id="Trazado_610491" data-name="Trazado 610491" d="M194.414,102.855a6.76,6.76,0,1,1-6.759-6.759,6.761,6.761,0,0,1,6.759,6.759" transform="translate(129.899 69.006)" fill="#fff"/>
            <path id="Trazado_610492" data-name="Trazado 610492" d="M212.407,102.855a6.76,6.76,0,1,1-6.761-6.759,6.761,6.761,0,0,1,6.761,6.759" transform="translate(142.82 69.006)" fill="#fff"/>
            <path id="Trazado_610493" data-name="Trazado 610493" d="M230.4,102.855A6.76,6.76,0,1,1,223.64,96.1a6.761,6.761,0,0,1,6.761,6.759" transform="translate(155.741 69.006)" fill="#fff"/>
            <path id="Trazado_610494" data-name="Trazado 610494" d="M158.991,86.686h23.531v18.688Z" transform="translate(114.171 62.249)" fill="#ffce5e"/>
            <path id="Trazado_610495" data-name="Trazado 610495" d="M172.621,102.718V86.687h-4.5Z" transform="translate(120.728 62.249)" fill="#ff8f3d"/>
          </g>
        </g>
        <g id="Grupo_1072865" data-name="Grupo 1072865" transform="translate(964 2391.558)">
          <g id="Grupo_1072864" data-name="Grupo 1072864" clip-path="url(#clip-path-3)">
            <path id="Trazado_610514" data-name="Trazado 610514" d="M171.6,127.815c0,8.9-38.413,16.115-85.8,16.115S0,136.714,0,127.815,38.413,111.7,85.8,111.7s85.8,7.215,85.8,16.115" transform="translate(0 44.186)" fill="#8fab75"/>
            <path id="Trazado_610515" data-name="Trazado 610515" d="M29.9,15.881,4.466,164.17a4.138,4.138,0,0,0,8.118,1.6L45.715,17.147Z" transform="translate(1.743 6.282)" fill="#222859"/>
            <path id="Trazado_610516" data-name="Trazado 610516" d="M105.464,15.881l25.43,148.289a4.138,4.138,0,0,1-8.118,1.6L89.645,17.147Z" transform="translate(35.462 6.282)" fill="#222859"/>
            <path id="Trazado_610517" data-name="Trazado 610517" d="M73.19,16.217l6.727,144.152a3.97,3.97,0,0,1-7.917.565L57.984,15.557Z" transform="translate(22.937 6.154)" fill="#222859"/>
            <path id="Trazado_610518" data-name="Trazado 610518" d="M153.258,24.349H12.735a8.2,8.2,0,0,1-8.2-8.2V14.787a8.2,8.2,0,0,1,8.2-8.2H153.258a8.2,8.2,0,0,1,8.2,8.2v1.361a8.2,8.2,0,0,1-8.2,8.2" transform="translate(1.794 2.606)" fill="#ed6c6b"/>
            <rect id="Rectángulo_378157" data-name="Rectángulo 378157" width="105.338" height="5.801" transform="translate(31.709 3.391)" fill="#fff"/>
            <path id="Trazado_610519" data-name="Trazado 610519" d="M69.412,8.231a14.1,14.1,0,0,0,.38-2.452L62.881,2.43H22.72a215.552,215.552,0,0,1,24.451,5.8Z" transform="translate(8.988 0.961)" fill="#d5f2f9"/>
            <path id="Trazado_610520" data-name="Trazado 610520" d="M86.71,6.491l7.66,1.74h10.8V6.024C100.4,4.244,90.71,2.43,90.71,2.43l-10.118.793Z" transform="translate(31.881 0.961)" fill="#d5f2f9"/>
            <path id="Trazado_610521" data-name="Trazado 610521" d="M107.44,1.81c20.67,4.851,29.317,11.179,29.317,11.179L87.825,19.316C77.068,10.036,32.564,4.763,22.72,3.391c0,0,64.05-6.432,84.72-1.581" transform="translate(8.988 0)" fill="#fff"/>
            <line id="Línea_2944" data-name="Línea 2944" y1="3.164" x2="25.942" transform="translate(100.451 9.983)" fill="none" stroke="#d5f2f9" stroke-linecap="round" stroke-linejoin="round" stroke-width="0.75"/>
            <line id="Línea_2945" data-name="Línea 2945" y1="3.481" x2="32.429" transform="translate(90.169 6.503)" fill="none" stroke="#d5f2f9" stroke-linecap="round" stroke-linejoin="round" stroke-width="0.75"/>
            <line id="Línea_2946" data-name="Línea 2946" y1="3.084" x2="32.904" transform="translate(78.779 3.656)" fill="none" stroke="#d5f2f9" stroke-linecap="round" stroke-linejoin="round" stroke-width="0.75"/>
            <line id="Línea_2947" data-name="Línea 2947" y1="2.689" x2="29.265" transform="translate(66.599 1.916)" fill="none" stroke="#d5f2f9" stroke-linecap="round" stroke-linejoin="round" stroke-width="0.75"/>
          </g>
        </g>
        <g id="Grupo_1072867" data-name="Grupo 1072867" transform="translate(447 2296.5)">
          <g id="Grupo_1072866" data-name="Grupo 1072866" transform="translate(0 0)" clip-path="url(#clip-path-4)">
            <path id="Trazado_610522" data-name="Trazado 610522" d="M130.975,68.885c-.382-4.785-2.624-8.581-7.076-10.575-8.641-3.872-18.506.362-25.124,6.166a80.626,80.626,0,0,0-9.622,10.609Q84.444,80.99,80.129,87.2a140.537,140.537,0,0,0-14.659,26.3,116.115,116.115,0,0,0-7.618,29.952c-.036.286-.061.573-.094.859-.036-2-.092-4-.09-6,0-8.194.452-16.352,1.23-24.474a.745.745,0,0,0,.234-.551C59.824,88.839,78.407,71.3,93.468,54.154c7.409-8.432,14.564-17.4,19-27.806,2.024-4.747,3.886-10.137,3.793-15.365-.083-4.655-2.156-9.379-7.043-10.631C103.708-1.061,98.66,1.991,94.835,5.7a77.151,77.151,0,0,0-10.8,13.382C77.777,28.7,73.293,39.365,69.756,50.242a315.016,315.016,0,0,0-9.415,36.828A258.6,258.6,0,0,0,55.576,127c-.1,2.676-.128,5.349-.151,8.025a97.092,97.092,0,0,0-4.913-14.688A133,133,0,0,0,30.8,88.565q-2.924-3.582-6.042-7.007a43.367,43.367,0,0,0-6.825-6.478c-4.466-3.155-11.365-4.473-15.506,0-3.512,3.784-2.887,9.919-.2,13.971,3.627,5.473,10.117,8.414,15.63,11.578,6.9,3.962,13.971,7.731,20.663,12.037,18.987,12.217,16.6,35.892,18.295,55.653q.1,3.5.292,6.989c.157,2.777.364,5.554.6,8.333a113.722,113.722,0,0,0-7.151-17.645,162.312,162.312,0,0,0-9.217-16.048A137,137,0,0,0,30.911,135.3c-3.5-4.1-7.965-7.89-13.494-8.626-2.253-.3-4.927.25-5.781,2.642-.83,2.323-.085,5.318.695,7.558,1.812,5.194,5.783,9.341,9.766,12.977,4.884,4.459,9.964,8.7,14.877,13.13A103.137,103.137,0,0,1,50.1,176.661a46.86,46.86,0,0,1,5.073,8.127,53.332,53.332,0,0,1,3.171,9.008.621.621,0,0,0,.4.441c.036.184.076.369.112.553.4,3.368.836,6.732,1.336,10.081a95.978,95.978,0,0,0,.333,10.368c.047.517.9.459.913-.058.02-.821.056-1.642.083-2.462.119.614.2,1.232.331,1.846.085.421.661.277.634-.126-.009-.128-.025-.256-.034-.385.148.863.283,1.727.45,2.59.16.818,1.3.542,1.239-.247-.416-5.451-1.138-10.877-1.824-16.3a144.856,144.856,0,0,1,2.921-18.209c1.95-2.851,3.456-5.986,5.345-8.887a87.311,87.311,0,0,1,6.053-8.2,85.244,85.244,0,0,1,14.933-14.047C96.5,147.117,101.9,144.1,106.479,140c4.088-3.661,7.935-8.749,8.014-14.488.038-2.845-1.064-5.86-3.944-6.9-2.831-1.021-6.409-.263-9.165.67-5.907,2-10.658,6.366-14.573,11.088A103.47,103.47,0,0,0,75.5,147.787a130.13,130.13,0,0,0-8.509,19.66,133.462,133.462,0,0,0-5.727,23.811c-.531-4.587-1.041-9.177-1.489-13.773-.506-5.161-.913-10.33-1.257-15.5.02-3,.092-6.008.274-9.012a137.259,137.259,0,0,1,2.062-17.033c1.891-4.353,5.307-7.848,8.864-10.9,3.728-3.2,7.758-6.08,11.781-8.893q6.55-4.58,13.476-8.594c4.288-2.476,8.707-4.713,13.02-7.144,8.131-4.583,15.97-10.2,20.269-18.742a24.218,24.218,0,0,0,2.712-12.777" transform="translate(0 -0.001)" fill="#83baa8"/>
            <path id="Trazado_610523" data-name="Trazado 610523" d="M86.86,87.932H11.331l6.919,65.81H79.941Z" transform="translate(14.148 109.794)" fill="#ff8f3d"/>
            <path id="Trazado_610524" data-name="Trazado 610524" d="M13.126,93.354c-.414.009-.83.011-1.243.016l.283,2.705q11.293.216,22.583.306c16.431.121,32.864.056,49.3.043.189,0,.378,0,.567,0l.351-3.337q-11.269-.04-22.54-.063c-16.431-.011-32.866,0-49.3.333" transform="translate(14.837 116.145)" fill="#fff"/>
            <path id="Trazado_610525" data-name="Trazado 610525" d="M81.879,99.159c-.789-.942-1.567-2.127-2.811-2.5-2.611-.78-4.493,2.393-5.97,4.039q-2.068,2.3-4.133,4.6a52.347,52.347,0,0,0-6.8-8.992,1.689,1.689,0,0,0-2.35,0q-5.1,4.8-10.186,9.611a132.079,132.079,0,0,0-10.157-9.136,1.607,1.607,0,0,0-2.462.317c-2.294,3.051-4.706,6.011-7.193,8.9a54.37,54.37,0,0,0-11-10.3,1.324,1.324,0,0,0-1.594.2c-1.639,1.684-3.269,3.384-4.844,5.134l.349,3.312c1.781-1.968,3.582-3.915,5.5-5.75A59.8,59.8,0,0,1,28.515,109.1a1.528,1.528,0,0,0,2.368.3c2.68-2.993,5.228-6.1,7.69-9.269a123.269,123.269,0,0,1,9.9,9.179,1.654,1.654,0,0,0,2.3,0q5.073-4.705,10.108-9.451a48.678,48.678,0,0,1,6.343,9.12,1.694,1.694,0,0,0,2.64.34q2.321-2.57,4.643-5.14l2.251-2.494c.376-.416.749-.832,1.127-1.246.054-.061.223-.2.34-.324a.467.467,0,0,0,.07.049,20.322,20.322,0,0,0,2.132,2.559l2.2,2.644c.025.029.049.061.074.092l.5-4.731Z" transform="translate(15.468 119.277)" fill="#fff"/>
            <path id="Trazado_610526" data-name="Trazado 610526" d="M28.1,78.555A124.821,124.821,0,0,0,6.185,57.178c-.094-.07-.191-.142-.286-.214a3.73,3.73,0,0,0-.706,1.14c3.31,2.527,6.541,5.161,9.595,7.992,7.578,7.018,13.834,15.4,20.154,23.527,1.731,2.226,3.476,4.446,5.255,6.636a22.987,22.987,0,0,1,4.176,7.034.237.237,0,0,0,.456-.124c-.944-4.7-3.892-8.428-6.789-12.116q-4.931-6.277-9.941-12.5" transform="translate(6.484 71.126)" fill="#4d867e"/>
            <path id="Trazado_610527" data-name="Trazado 610527" d="M75.523,55.1c.333-.241.677-.47,1.012-.708a5.522,5.522,0,0,0-1.268-1.311A143.716,143.716,0,0,0,38.875,90.959q-2.82,4.28-5.3,8.765a46.025,46.025,0,0,0-4.212,9.057.2.2,0,0,0,.358.151c1.684-2.411,3-5.113,4.466-7.666q2.206-3.852,4.637-7.573A142.7,142.7,0,0,1,49.5,79.338,147.764,147.764,0,0,1,75.523,55.1" transform="translate(36.647 66.283)" fill="#4d867e"/>
            <path id="Trazado_610528" data-name="Trazado 610528" d="M90.873,26.685c-.342.209-.686.409-1.025.623A160.958,160.958,0,0,0,72.754,39.875C61.455,49.3,51.415,60.3,42.2,71.738q-3.862,4.79-7.533,9.725c-2.381,3.207-4.828,6.449-5.995,10.323a.332.332,0,0,0,.6.254c3.366-6.321,8.3-11.832,12.779-17.382,4.605-5.7,9.339-11.3,14.355-16.656C66.1,47.669,76.653,38.068,88.542,30.312c1.221-.8,2.458-1.565,3.7-2.321a10.948,10.948,0,0,0-1.369-1.306" transform="translate(35.78 33.319)" fill="#4d867e"/>
            <path id="Trazado_610529" data-name="Trazado 610529" d="M15.655,42.021c7.526,4.9,14.119,11.522,19.855,18.382,1.641,1.965,3.222,3.989,4.74,6.049,1.482,2.01,2.8,4.14,4.311,6.125a.365.365,0,0,0,.63-.369,61.451,61.451,0,0,0-7.427-11.167,101.215,101.215,0,0,0-9.143-10.114,92.385,92.385,0,0,0-10.479-8.855C14.072,39.165,9.545,37.2,5,35.16c-1.19-.535-2.386-1.052-3.58-1.576a8.485,8.485,0,0,0-.881,1.261c.648.283,1.293.569,1.943.848,4.479,1.932,9.062,3.656,13.17,6.328" transform="translate(0.677 41.934)" fill="#4d867e"/>
            <path id="Trazado_610530" data-name="Trazado 610530" d="M36.557,58.232a98.99,98.99,0,0,0-4.92,11.933A49.909,49.909,0,0,0,28.7,82.634c-.02.31.425.34.517.07,1.223-3.607,2.057-7.333,3.33-10.933,1.291-3.645,2.766-7.214,4.376-10.728a157.219,157.219,0,0,1,11.3-20.035c4.169-6.415,8.659-12.615,13.195-18.771C65.94,16.1,70.509,9.972,75.539,4.245c.684-.778,1.4-1.531,2.1-2.3A8.509,8.509,0,0,0,76.4.8c-.061.065-.124.126-.182.191-5.107,5.68-9.786,11.74-14.31,17.888C52.648,31.462,43.436,44.151,36.557,58.232" transform="translate(35.835 0.999)" fill="#4d867e"/>
          </g>
        </g>
      </g>
    </g>
    <g id="Trazado_611136" data-name="Trazado 611136" transform="translate(410 2152)" fill="#99fbf2">
      <path d="M 164 53.5 L 26 53.5 C 22.69185066223145 53.5 19.48347473144531 52.85242462158203 16.46394920349121 51.57527542114258 C 13.54669952392578 50.34137344360352 10.92640018463135 48.57462310791016 8.675874710083008 46.32412338256836 C 6.425374984741211 44.07360076904297 4.65862512588501 41.45330047607422 3.42472505569458 38.53604888916016 C 2.147574901580811 35.51652526855469 1.5 32.30815124511719 1.5 29 L 1.5 26 C 1.5 22.69185066223145 2.147574901580811 19.48347473144531 3.42472505569458 16.46394920349121 C 4.65862512588501 13.54669952392578 6.425374984741211 10.92640018463135 8.675874710083008 8.675874710083008 C 10.92640018463135 6.425374984741211 13.54669952392578 4.65862512588501 16.46394920349121 3.42472505569458 C 19.48347473144531 2.147574901580811 22.69185066223145 1.5 26 1.5 L 164 1.5 C 167.3081512451172 1.5 170.5165252685547 2.147574901580811 173.5360565185547 3.42472505569458 C 176.4532928466797 4.65862512588501 179.0735931396484 6.425374984741211 181.3241271972656 8.675874710083008 C 183.5746307373047 10.92640018463135 185.3413696289062 13.54669952392578 186.5752716064453 16.46394920349121 C 187.8524322509766 19.48347473144531 188.5 22.69185066223145 188.5 26 L 188.5 29 C 188.5 32.30815124511719 187.8524322509766 35.51652526855469 186.5752716064453 38.53604888916016 C 185.3413696289062 41.45330047607422 183.5746307373047 44.07360076904297 181.3241271972656 46.32412338256836 C 179.0735931396484 48.57462310791016 176.4532928466797 50.34137344360352 173.5360565185547 51.57527542114258 C 170.5165252685547 52.85242462158203 167.3081512451172 53.5 164 53.5 Z" stroke="none"/>
      <path d="M 26 3 C 22.8936767578125 3 19.88189697265625 3.607711791992188 17.04826354980469 4.806209564208984 C 14.309814453125 5.964500427246094 11.84979248046875 7.623291015625 9.736526489257812 9.736553192138672 C 7.623291015625 11.84978866577148 5.964492797851562 14.309814453125 4.80621337890625 17.04829025268555 C 3.607711791992188 19.88189315795898 3 22.89371109008789 3 26 L 3 29 C 3 32.10628890991211 3.607711791992188 35.11810302734375 4.80621337890625 37.95170974731445 C 5.964492797851562 40.690185546875 7.623291015625 43.15021133422852 9.736526489257812 45.26344680786133 C 11.84979248046875 47.376708984375 14.309814453125 49.03549957275391 17.04826354980469 50.19379043579102 C 19.88189697265625 51.39228820800781 22.8936767578125 52 26 52 L 164 52 C 167.1062927246094 52 170.1180725097656 51.39228820800781 172.9517059326172 50.19379043579102 C 175.690185546875 49.03549957275391 178.1502075195312 47.376708984375 180.2634429931641 45.26344680786133 C 182.376708984375 43.15021133422852 184.0355072021484 40.690185546875 185.1937866210938 37.95170974731445 C 186.3922882080078 35.11808013916016 187 32.10628890991211 187 29 L 187 26 C 187 22.89371109008789 186.3922882080078 19.88191986083984 185.1937866210938 17.04829025268555 C 184.0355072021484 14.309814453125 182.376708984375 11.84978866577148 180.2634429931641 9.736553192138672 C 178.1502075195312 7.623291015625 175.690185546875 5.964500427246094 172.9517059326172 4.806209564208984 C 170.1180725097656 3.607711791992188 167.1062927246094 3 164 3 L 26 3 M 26 0 L 164 0 C 178.3593902587891 0 190 11.64060592651367 190 26 L 190 29 C 190 43.35939407348633 178.3593902587891 55 164 55 L 26 55 C 11.64057922363281 55 0 43.35939407348633 0 29 L 0 26 C 0 11.64060592651367 11.64057922363281 0 26 0 Z" stroke="none" fill="#7be2d8"/>
    </g>
    <g id="Trazado_611137" data-name="Trazado 611137" transform="translate(1000 2152)" fill="#99fbf2">
      <path d="M 164 53.5 L 26 53.5 C 22.69185066223145 53.5 19.48347473144531 52.85242462158203 16.46394920349121 51.57527542114258 C 13.54669952392578 50.34137344360352 10.92640018463135 48.57462310791016 8.675874710083008 46.32412338256836 C 6.425374984741211 44.07360076904297 4.65862512588501 41.45330047607422 3.42472505569458 38.53604888916016 C 2.147574901580811 35.51652526855469 1.5 32.30815124511719 1.5 29 L 1.5 26 C 1.5 22.69185066223145 2.147574901580811 19.48347473144531 3.42472505569458 16.46394920349121 C 4.65862512588501 13.54669952392578 6.425374984741211 10.92640018463135 8.675874710083008 8.675874710083008 C 10.92640018463135 6.425374984741211 13.54669952392578 4.65862512588501 16.46394920349121 3.42472505569458 C 19.48347473144531 2.147574901580811 22.69185066223145 1.5 26 1.5 L 164 1.5 C 167.3081512451172 1.5 170.5165252685547 2.147574901580811 173.5360565185547 3.42472505569458 C 176.4532928466797 4.65862512588501 179.0735931396484 6.425374984741211 181.3241271972656 8.675874710083008 C 183.5746307373047 10.92640018463135 185.3413696289062 13.54669952392578 186.5752716064453 16.46394920349121 C 187.8524322509766 19.48347473144531 188.5 22.69185066223145 188.5 26 L 188.5 29 C 188.5 32.30815124511719 187.8524322509766 35.51652526855469 186.5752716064453 38.53604888916016 C 185.3413696289062 41.45330047607422 183.5746307373047 44.07360076904297 181.3241271972656 46.32412338256836 C 179.0735931396484 48.57462310791016 176.4532928466797 50.34137344360352 173.5360565185547 51.57527542114258 C 170.5165252685547 52.85242462158203 167.3081512451172 53.5 164 53.5 Z" stroke="none"/>
      <path d="M 26 3 C 22.8936767578125 3 19.88189697265625 3.607711791992188 17.04826354980469 4.806209564208984 C 14.309814453125 5.964500427246094 11.84979248046875 7.623291015625 9.736526489257812 9.736553192138672 C 7.623291015625 11.84978866577148 5.964492797851562 14.309814453125 4.80621337890625 17.04829025268555 C 3.607711791992188 19.88189315795898 3 22.89371109008789 3 26 L 3 29 C 3 32.10628890991211 3.607711791992188 35.11810302734375 4.80621337890625 37.95170974731445 C 5.964492797851562 40.690185546875 7.623291015625 43.15021133422852 9.736526489257812 45.26344680786133 C 11.84979248046875 47.376708984375 14.309814453125 49.03549957275391 17.04826354980469 50.19379043579102 C 19.88189697265625 51.39228820800781 22.8936767578125 52 26 52 L 164 52 C 167.1062927246094 52 170.1180725097656 51.39228820800781 172.9517059326172 50.19379043579102 C 175.690185546875 49.03549957275391 178.1502075195312 47.376708984375 180.2634429931641 45.26344680786133 C 182.376708984375 43.15021133422852 184.0355072021484 40.690185546875 185.1937866210938 37.95170974731445 C 186.3922882080078 35.11808013916016 187 32.10628890991211 187 29 L 187 26 C 187 22.89371109008789 186.3922882080078 19.88191986083984 185.1937866210938 17.04829025268555 C 184.0355072021484 14.309814453125 182.376708984375 11.84978866577148 180.2634429931641 9.736553192138672 C 178.1502075195312 7.623291015625 175.690185546875 5.964500427246094 172.9517059326172 4.806209564208984 C 170.1180725097656 3.607711791992188 167.1062927246094 3 164 3 L 26 3 M 26 0 L 164 0 C 178.3593902587891 0 190 11.64060592651367 190 26 L 190 29 C 190 43.35939407348633 178.3593902587891 55 164 55 L 26 55 C 11.64057922363281 55 0 43.35939407348633 0 29 L 0 26 C 0 11.64060592651367 11.64057922363281 0 26 0 Z" stroke="none" fill="#7be2d8"/>
    </g>
    <g id="Trazado_611138" data-name="Trazado 611138" transform="translate(384 2302)" fill="#99fbf2">
      <path d="M 164 53.5 L 26 53.5 C 22.69185066223145 53.5 19.48347473144531 52.85242462158203 16.46394920349121 51.57527542114258 C 13.54669952392578 50.34137344360352 10.92640018463135 48.57462310791016 8.675874710083008 46.32412338256836 C 6.425374984741211 44.07360076904297 4.65862512588501 41.45330047607422 3.42472505569458 38.53604888916016 C 2.147574901580811 35.51652526855469 1.5 32.30815124511719 1.5 29 L 1.5 26 C 1.5 22.69185066223145 2.147574901580811 19.48347473144531 3.42472505569458 16.46394920349121 C 4.65862512588501 13.54669952392578 6.425374984741211 10.92640018463135 8.675874710083008 8.675874710083008 C 10.92640018463135 6.425374984741211 13.54669952392578 4.65862512588501 16.46394920349121 3.42472505569458 C 19.48347473144531 2.147574901580811 22.69185066223145 1.5 26 1.5 L 164 1.5 C 167.3081512451172 1.5 170.5165252685547 2.147574901580811 173.5360565185547 3.42472505569458 C 176.4532928466797 4.65862512588501 179.0735931396484 6.425374984741211 181.3241271972656 8.675874710083008 C 183.5746307373047 10.92640018463135 185.3413696289062 13.54669952392578 186.5752716064453 16.46394920349121 C 187.8524322509766 19.48347473144531 188.5 22.69185066223145 188.5 26 L 188.5 29 C 188.5 32.30815124511719 187.8524322509766 35.51652526855469 186.5752716064453 38.53604888916016 C 185.3413696289062 41.45330047607422 183.5746307373047 44.07360076904297 181.3241271972656 46.32412338256836 C 179.0735931396484 48.57462310791016 176.4532928466797 50.34137344360352 173.5360565185547 51.57527542114258 C 170.5165252685547 52.85242462158203 167.3081512451172 53.5 164 53.5 Z" stroke="none"/>
      <path d="M 26 3 C 22.8936767578125 3 19.88189697265625 3.607711791992188 17.04826354980469 4.806209564208984 C 14.309814453125 5.964500427246094 11.84979248046875 7.623291015625 9.736526489257812 9.736553192138672 C 7.623291015625 11.84978866577148 5.964492797851562 14.309814453125 4.80621337890625 17.04829025268555 C 3.607711791992188 19.88189315795898 3 22.89371109008789 3 26 L 3 29 C 3 32.10628890991211 3.607711791992188 35.11810302734375 4.80621337890625 37.95170974731445 C 5.964492797851562 40.690185546875 7.623291015625 43.15021133422852 9.736526489257812 45.26344680786133 C 11.84979248046875 47.376708984375 14.309814453125 49.03549957275391 17.04826354980469 50.19379043579102 C 19.88189697265625 51.39228820800781 22.8936767578125 52 26 52 L 164 52 C 167.1062927246094 52 170.1180725097656 51.39228820800781 172.9517059326172 50.19379043579102 C 175.690185546875 49.03549957275391 178.1502075195312 47.376708984375 180.2634429931641 45.26344680786133 C 182.376708984375 43.15021133422852 184.0355072021484 40.690185546875 185.1937866210938 37.95170974731445 C 186.3922882080078 35.11808013916016 187 32.10628890991211 187 29 L 187 26 C 187 22.89371109008789 186.3922882080078 19.88191986083984 185.1937866210938 17.04829025268555 C 184.0355072021484 14.309814453125 182.376708984375 11.84978866577148 180.2634429931641 9.736553192138672 C 178.1502075195312 7.623291015625 175.690185546875 5.964500427246094 172.9517059326172 4.806209564208984 C 170.1180725097656 3.607711791992188 167.1062927246094 3 164 3 L 26 3 M 26 0 L 164 0 C 178.3593902587891 0 190 11.64060592651367 190 26 L 190 29 C 190 43.35939407348633 178.3593902587891 55 164 55 L 26 55 C 11.64057922363281 55 0 43.35939407348633 0 29 L 0 26 C 0 11.64060592651367 11.64057922363281 0 26 0 Z" stroke="none" fill="#7be2d8"/>
    </g>
    <g id="Trazado_611139" data-name="Trazado 611139" transform="translate(1034 2303)" fill="#99fbf2">
      <path d="M 164 53.5 L 26 53.5 C 22.69185066223145 53.5 19.48347473144531 52.85242462158203 16.46394920349121 51.57527542114258 C 13.54669952392578 50.34137344360352 10.92640018463135 48.57462310791016 8.675874710083008 46.32412338256836 C 6.425374984741211 44.07360076904297 4.65862512588501 41.45330047607422 3.42472505569458 38.53604888916016 C 2.147574901580811 35.51652526855469 1.5 32.30815124511719 1.5 29 L 1.5 26 C 1.5 22.69185066223145 2.147574901580811 19.48347473144531 3.42472505569458 16.46394920349121 C 4.65862512588501 13.54669952392578 6.425374984741211 10.92640018463135 8.675874710083008 8.675874710083008 C 10.92640018463135 6.425374984741211 13.54669952392578 4.65862512588501 16.46394920349121 3.42472505569458 C 19.48347473144531 2.147574901580811 22.69185066223145 1.5 26 1.5 L 164 1.5 C 167.3081512451172 1.5 170.5165252685547 2.147574901580811 173.5360565185547 3.42472505569458 C 176.4532928466797 4.65862512588501 179.0735931396484 6.425374984741211 181.3241271972656 8.675874710083008 C 183.5746307373047 10.92640018463135 185.3413696289062 13.54669952392578 186.5752716064453 16.46394920349121 C 187.8524322509766 19.48347473144531 188.5 22.69185066223145 188.5 26 L 188.5 29 C 188.5 32.30815124511719 187.8524322509766 35.51652526855469 186.5752716064453 38.53604888916016 C 185.3413696289062 41.45330047607422 183.5746307373047 44.07360076904297 181.3241271972656 46.32412338256836 C 179.0735931396484 48.57462310791016 176.4532928466797 50.34137344360352 173.5360565185547 51.57527542114258 C 170.5165252685547 52.85242462158203 167.3081512451172 53.5 164 53.5 Z" stroke="none"/>
      <path d="M 26 3 C 22.8936767578125 3 19.88189697265625 3.607711791992188 17.04826354980469 4.806209564208984 C 14.309814453125 5.964500427246094 11.84979248046875 7.623291015625 9.736526489257812 9.736553192138672 C 7.623291015625 11.84978866577148 5.964492797851562 14.309814453125 4.80621337890625 17.04829025268555 C 3.607711791992188 19.88189315795898 3 22.89371109008789 3 26 L 3 29 C 3 32.10628890991211 3.607711791992188 35.11810302734375 4.80621337890625 37.95170974731445 C 5.964492797851562 40.690185546875 7.623291015625 43.15021133422852 9.736526489257812 45.26344680786133 C 11.84979248046875 47.376708984375 14.309814453125 49.03549957275391 17.04826354980469 50.19379043579102 C 19.88189697265625 51.39228820800781 22.8936767578125 52 26 52 L 164 52 C 167.1062927246094 52 170.1180725097656 51.39228820800781 172.9517059326172 50.19379043579102 C 175.690185546875 49.03549957275391 178.1502075195312 47.376708984375 180.2634429931641 45.26344680786133 C 182.376708984375 43.15021133422852 184.0355072021484 40.690185546875 185.1937866210938 37.95170974731445 C 186.3922882080078 35.11808013916016 187 32.10628890991211 187 29 L 187 26 C 187 22.89371109008789 186.3922882080078 19.88191986083984 185.1937866210938 17.04829025268555 C 184.0355072021484 14.309814453125 182.376708984375 11.84978866577148 180.2634429931641 9.736553192138672 C 178.1502075195312 7.623291015625 175.690185546875 5.964500427246094 172.9517059326172 4.806209564208984 C 170.1180725097656 3.607711791992188 167.1062927246094 3 164 3 L 26 3 M 26 0 L 164 0 C 178.3593902587891 0 190 11.64060592651367 190 26 L 190 29 C 190 43.35939407348633 178.3593902587891 55 164 55 L 26 55 C 11.64057922363281 55 0 43.35939407348633 0 29 L 0 26 C 0 11.64060592651367 11.64057922363281 0 26 0 Z" stroke="none" fill="#7be2d8"/>
    </g>
    <path id="Trazado_611140" data-name="Trazado 611140" d="M8.842-5.546H3.779v3.428H9.721V0H1.143V-12.8H9.7v2.136H3.779v3.05H8.842Zm1.7.721a5.731,5.731,0,0,1,1-3.542,3.237,3.237,0,0,1,2.729-1.318,2.913,2.913,0,0,1,2.294,1.037V-13.5h2.549V0H16.813L16.69-1.011A2.989,2.989,0,0,1,14.247.176a3.228,3.228,0,0,1-2.694-1.323A5.916,5.916,0,0,1,10.538-4.825Zm2.54.189a3.754,3.754,0,0,0,.466,2.051,1.517,1.517,0,0,0,1.354.713,1.7,1.7,0,0,0,1.661-.995V-6.625a1.675,1.675,0,0,0-1.644-.995Q13.078-7.62,13.078-4.636ZM26.587,0a2.821,2.821,0,0,1-.255-.853,3.073,3.073,0,0,1-2.4,1.028,3.376,3.376,0,0,1-2.316-.809A2.6,2.6,0,0,1,20.7-2.672a2.687,2.687,0,0,1,1.121-2.32,5.529,5.529,0,0,1,3.239-.817h1.169v-.545a1.567,1.567,0,0,0-.338-1.055,1.331,1.331,0,0,0-1.068-.4,1.513,1.513,0,0,0-1.006.308,1.045,1.045,0,0,0-.365.844h-2.54a2.551,2.551,0,0,1,.51-1.529,3.37,3.37,0,0,1,1.441-1.1,5.253,5.253,0,0,1,2.092-.4,4.15,4.15,0,0,1,2.791.883,3.09,3.09,0,0,1,1.033,2.483V-2.2a4.546,4.546,0,0,0,.378,2.048V0Zm-2.1-1.767a2.188,2.188,0,0,0,1.037-.25,1.645,1.645,0,0,0,.7-.672V-4.324h-.949q-1.907,0-2.03,1.318l-.009.149a1.017,1.017,0,0,0,.334.782A1.3,1.3,0,0,0,24.486-1.767Zm5.845-3.059a5.731,5.731,0,0,1,1-3.542,3.237,3.237,0,0,1,2.729-1.318,2.913,2.913,0,0,1,2.294,1.037V-13.5H38.9V0H36.606l-.123-1.011A2.989,2.989,0,0,1,34.04.176a3.228,3.228,0,0,1-2.694-1.323A5.916,5.916,0,0,1,30.331-4.825Zm2.54.189a3.754,3.754,0,0,0,.466,2.051,1.517,1.517,0,0,0,1.354.713,1.7,1.7,0,0,0,1.661-.995V-6.625a1.675,1.675,0,0,0-1.644-.995Q32.871-7.62,32.871-4.636ZM48.9-3.595,50.66-9.51h2.725L49.562,1.477l-.211.5a2.9,2.9,0,0,1-2.812,1.863,4,4,0,0,1-1.125-.167V1.749l.387.009a2.09,2.09,0,0,0,1.077-.22,1.443,1.443,0,0,0,.558-.729l.3-.782L44.4-9.51h2.733Zm9.6-1.23A5.573,5.573,0,0,1,59.542-8.35,3.375,3.375,0,0,1,62.35-9.686a2.96,2.96,0,0,1,2.435,1.072l.105-.9h2.3V-.316a4.064,4.064,0,0,1-.567,2.171,3.641,3.641,0,0,1-1.6,1.406,5.608,5.608,0,0,1-2.408.483,5.215,5.215,0,0,1-2.039-.417,3.619,3.619,0,0,1-1.5-1.077L60.205.7a2.975,2.975,0,0,0,2.3,1.063,2.178,2.178,0,0,0,1.573-.541,2.027,2.027,0,0,0,.563-1.534v-.51a2.938,2.938,0,0,1-2.312.993,3.366,3.366,0,0,1-2.773-1.34A5.572,5.572,0,0,1,58.5-4.72Zm2.54.189a3.47,3.47,0,0,0,.519,2.029,1.65,1.65,0,0,0,1.424.735,1.764,1.764,0,0,0,1.661-.871V-6.749A1.76,1.76,0,0,0,63-7.62a1.66,1.66,0,0,0-1.437.748A3.911,3.911,0,0,0,61.04-4.636ZM73.521.176a4.668,4.668,0,0,1-3.406-1.283A4.561,4.561,0,0,1,68.8-4.526v-.246a5.745,5.745,0,0,1,.554-2.562,4.064,4.064,0,0,1,1.569-1.74,4.4,4.4,0,0,1,2.316-.611,3.947,3.947,0,0,1,3.072,1.23,5,5,0,0,1,1.121,3.489v1.037H71.376a2.36,2.36,0,0,0,.743,1.494,2.245,2.245,0,0,0,1.569.563,2.742,2.742,0,0,0,2.294-1.063l1.248,1.4A3.813,3.813,0,0,1,75.683-.277,5.075,5.075,0,0,1,73.521.176Zm-.29-7.813A1.587,1.587,0,0,0,72-7.126a2.651,2.651,0,0,0-.6,1.466h3.533v-.2a1.891,1.891,0,0,0-.457-1.311A1.638,1.638,0,0,0,73.23-7.638Zm.229-5.862h2.769l-2.435,2.725H71.728Zm7.752,3.99.079,1.1a3.32,3.32,0,0,1,2.733-1.274,2.759,2.759,0,0,1,2.25.888,4.142,4.142,0,0,1,.756,2.654V0h-2.54V-6.082a1.648,1.648,0,0,0-.352-1.173,1.574,1.574,0,0,0-1.169-.365,1.747,1.747,0,0,0-1.608.914V0H78.82V-9.51ZM93.331.176a4.668,4.668,0,0,1-3.406-1.283,4.561,4.561,0,0,1-1.314-3.419v-.246a5.745,5.745,0,0,1,.554-2.562,4.064,4.064,0,0,1,1.569-1.74,4.4,4.4,0,0,1,2.316-.611,3.947,3.947,0,0,1,3.072,1.23,5,5,0,0,1,1.121,3.489v1.037H91.187a2.36,2.36,0,0,0,.743,1.494,2.245,2.245,0,0,0,1.569.563,2.742,2.742,0,0,0,2.294-1.063l1.248,1.4A3.813,3.813,0,0,1,95.493-.277,5.075,5.075,0,0,1,93.331.176Zm-.29-7.813a1.587,1.587,0,0,0-1.226.512,2.651,2.651,0,0,0-.6,1.466h3.533v-.2a1.891,1.891,0,0,0-.457-1.311A1.638,1.638,0,0,0,93.041-7.638Zm10.986.51a6.9,6.9,0,0,0-.914-.07,1.86,1.86,0,0,0-1.89.976V0h-2.54V-9.51h2.4l.07,1.134a2.354,2.354,0,0,1,2.118-1.31,2.662,2.662,0,0,1,.791.114Zm.51,2.285a5.64,5.64,0,0,1,.545-2.522,3.989,3.989,0,0,1,1.569-1.714,4.577,4.577,0,0,1,2.377-.606,4.33,4.33,0,0,1,3.142,1.178,4.727,4.727,0,0,1,1.358,3.2l.018.65a4.97,4.97,0,0,1-1.222,3.511A4.247,4.247,0,0,1,109.046.176a4.268,4.268,0,0,1-3.283-1.318,5.058,5.058,0,0,1-1.226-3.586Zm2.54.18a3.555,3.555,0,0,0,.51,2.073,1.682,1.682,0,0,0,1.459.717,1.686,1.686,0,0,0,1.441-.709,3.89,3.89,0,0,0,.519-2.267,3.519,3.519,0,0,0-.519-2.06,1.686,1.686,0,0,0-1.459-.731,1.658,1.658,0,0,0-1.441.726A3.955,3.955,0,0,0,107.077-4.662Z" transform="translate(451 2186)" fill="#12263f"/>
    <path id="Trazado_611141" data-name="Trazado 611141" d="M3.946,0H1.31V-12.8H3.946ZM8.561-9.51l.079,1.1a3.32,3.32,0,0,1,2.733-1.274,2.759,2.759,0,0,1,2.25.888,4.142,4.142,0,0,1,.756,2.654V0h-2.54V-6.082a1.648,1.648,0,0,0-.352-1.173,1.574,1.574,0,0,0-1.169-.365,1.747,1.747,0,0,0-1.608.914V0H6.17V-9.51Zm10.784-2.338V-9.51h1.626v1.863H19.345V-2.9a1.133,1.133,0,0,0,.2.756,1.015,1.015,0,0,0,.773.229,4.051,4.051,0,0,0,.747-.062V-.053a5.229,5.229,0,0,1-1.538.229,2.425,2.425,0,0,1-2.725-2.7V-7.646H15.416V-9.51H16.8v-2.338ZM26.763.176a4.668,4.668,0,0,1-3.406-1.283,4.561,4.561,0,0,1-1.314-3.419v-.246A5.745,5.745,0,0,1,22.6-7.334a4.064,4.064,0,0,1,1.569-1.74,4.4,4.4,0,0,1,2.316-.611,3.947,3.947,0,0,1,3.072,1.23,5,5,0,0,1,1.121,3.489v1.037H24.618a2.36,2.36,0,0,0,.743,1.494,2.245,2.245,0,0,0,1.569.563,2.742,2.742,0,0,0,2.294-1.063l1.248,1.4A3.813,3.813,0,0,1,28.925-.277,5.075,5.075,0,0,1,26.763.176Zm-.29-7.813a1.587,1.587,0,0,0-1.226.512,2.651,2.651,0,0,0-.6,1.466h3.533v-.2a1.891,1.891,0,0,0-.457-1.311A1.638,1.638,0,0,0,26.473-7.638Zm10.986.51a6.9,6.9,0,0,0-.914-.07,1.86,1.86,0,0,0-1.89.976V0h-2.54V-9.51h2.4l.07,1.134A2.354,2.354,0,0,1,36.7-9.686a2.662,2.662,0,0,1,.791.114Zm5.432,7.3a4.668,4.668,0,0,1-3.406-1.283,4.561,4.561,0,0,1-1.314-3.419v-.246a5.745,5.745,0,0,1,.554-2.562,4.064,4.064,0,0,1,1.569-1.74,4.4,4.4,0,0,1,2.316-.611,3.947,3.947,0,0,1,3.072,1.23A5,5,0,0,1,46.8-4.966v1.037H40.746a2.36,2.36,0,0,0,.743,1.494,2.245,2.245,0,0,0,1.569.563,2.742,2.742,0,0,0,2.294-1.063l1.248,1.4A3.813,3.813,0,0,1,45.053-.277,5.075,5.075,0,0,1,42.891.176ZM42.6-7.638a1.587,1.587,0,0,0-1.226.512,2.651,2.651,0,0,0-.6,1.466h3.533v-.2a1.891,1.891,0,0,0-.457-1.311A1.638,1.638,0,0,0,42.6-7.638Zm10.793,5.01a.818.818,0,0,0-.461-.734,5.241,5.241,0,0,0-1.481-.479q-3.393-.712-3.393-2.883a2.613,2.613,0,0,1,1.05-2.114,4.237,4.237,0,0,1,2.747-.848,4.56,4.56,0,0,1,2.9.853,2.687,2.687,0,0,1,1.085,2.215H53.3a1.229,1.229,0,0,0-.352-.9,1.488,1.488,0,0,0-1.1-.356,1.52,1.52,0,0,0-.993.29.916.916,0,0,0-.352.738.783.783,0,0,0,.4.681,4.114,4.114,0,0,0,1.349.448,11.019,11.019,0,0,1,1.6.426,2.628,2.628,0,0,1,2.013,2.558,2.481,2.481,0,0,1-1.116,2.1,4.815,4.815,0,0,1-2.883.8A5.029,5.029,0,0,1,49.742-.25a3.561,3.561,0,0,1-1.455-1.169,2.716,2.716,0,0,1-.527-1.6h2.408a1.326,1.326,0,0,0,.5,1.037,1.987,1.987,0,0,0,1.248.36,1.839,1.839,0,0,0,1.1-.277A.861.861,0,0,0,53.394-2.628Zm8.481,2.8a4.668,4.668,0,0,1-3.406-1.283,4.561,4.561,0,0,1-1.314-3.419v-.246a5.745,5.745,0,0,1,.554-2.562,4.064,4.064,0,0,1,1.569-1.74,4.4,4.4,0,0,1,2.316-.611,3.947,3.947,0,0,1,3.072,1.23,5,5,0,0,1,1.121,3.489v1.037H59.73a2.36,2.36,0,0,0,.743,1.494,2.245,2.245,0,0,0,1.569.563,2.742,2.742,0,0,0,2.294-1.063l1.248,1.4A3.813,3.813,0,0,1,64.037-.277,5.075,5.075,0,0,1,61.875.176Zm-.29-7.813a1.587,1.587,0,0,0-1.226.512,2.651,2.651,0,0,0-.6,1.466H63.29v-.2a1.891,1.891,0,0,0-.457-1.311A1.638,1.638,0,0,0,61.585-7.638Zm10.793,5.01a.818.818,0,0,0-.461-.734,5.241,5.241,0,0,0-1.481-.479q-3.393-.712-3.393-2.883a2.613,2.613,0,0,1,1.05-2.114,4.237,4.237,0,0,1,2.747-.848,4.56,4.56,0,0,1,2.9.853,2.687,2.687,0,0,1,1.085,2.215h-2.54a1.229,1.229,0,0,0-.352-.9,1.488,1.488,0,0,0-1.1-.356,1.52,1.52,0,0,0-.993.29.916.916,0,0,0-.352.738.783.783,0,0,0,.4.681,4.114,4.114,0,0,0,1.349.448,11.019,11.019,0,0,1,1.6.426,2.628,2.628,0,0,1,2.013,2.558,2.481,2.481,0,0,1-1.116,2.1,4.815,4.815,0,0,1-2.883.8A5.029,5.029,0,0,1,68.726-.25a3.561,3.561,0,0,1-1.455-1.169,2.716,2.716,0,0,1-.527-1.6h2.408a1.326,1.326,0,0,0,.5,1.037,1.987,1.987,0,0,0,1.248.36A1.839,1.839,0,0,0,72-1.9.861.861,0,0,0,72.378-2.628Z" transform="translate(1057 2186)" fill="#12263f"/>
    <path id="Trazado_611142" data-name="Trazado 611142" d="M11.549,0H8.912L3.779-8.42V0H1.143V-12.8H3.779L8.921-4.359V-12.8h2.628Zm4.816,0H13.816V-9.51h2.549Zm-2.7-11.971a1.251,1.251,0,0,1,.382-.94,1.436,1.436,0,0,1,1.042-.369,1.44,1.44,0,0,1,1.037.369,1.244,1.244,0,0,1,.387.94,1.247,1.247,0,0,1-.391.949,1.443,1.443,0,0,1-1.033.369,1.443,1.443,0,0,1-1.033-.369A1.247,1.247,0,0,1,13.667-11.971ZM22.017-3.1,23.783-9.51h2.654L23.229,0H20.8L17.6-9.51H20.25Zm9.8,3.278a4.668,4.668,0,0,1-3.406-1.283A4.561,4.561,0,0,1,27.1-4.526v-.246a5.745,5.745,0,0,1,.554-2.562,4.064,4.064,0,0,1,1.569-1.74,4.4,4.4,0,0,1,2.316-.611,3.947,3.947,0,0,1,3.072,1.23,5,5,0,0,1,1.121,3.489v1.037H29.672a2.36,2.36,0,0,0,.743,1.494,2.245,2.245,0,0,0,1.569.563,2.742,2.742,0,0,0,2.294-1.063l1.248,1.4A3.813,3.813,0,0,1,33.979-.277,5.075,5.075,0,0,1,31.816.176Zm-.29-7.813a1.587,1.587,0,0,0-1.226.512,2.651,2.651,0,0,0-.6,1.466h3.533v-.2a1.891,1.891,0,0,0-.457-1.311A1.638,1.638,0,0,0,31.526-7.638ZM39.85,0H37.3V-13.5H39.85ZM50.8.176A4.668,4.668,0,0,1,47.4-1.107a4.561,4.561,0,0,1-1.314-3.419v-.246a5.745,5.745,0,0,1,.554-2.562A4.064,4.064,0,0,1,48.2-9.075a4.4,4.4,0,0,1,2.316-.611,3.947,3.947,0,0,1,3.072,1.23,5,5,0,0,1,1.121,3.489v1.037H48.656A2.36,2.36,0,0,0,49.4-2.435a2.245,2.245,0,0,0,1.569.563,2.742,2.742,0,0,0,2.294-1.063l1.248,1.4A3.813,3.813,0,0,1,52.963-.277,5.075,5.075,0,0,1,50.8.176Zm-.29-7.813a1.587,1.587,0,0,0-1.226.512,2.651,2.651,0,0,0-.6,1.466h3.533v-.2a1.891,1.891,0,0,0-.457-1.311A1.638,1.638,0,0,0,50.511-7.638Zm5.247,2.813a5.731,5.731,0,0,1,1-3.542,3.237,3.237,0,0,1,2.729-1.318,2.913,2.913,0,0,1,2.294,1.037V-13.5h2.549V0H62.033L61.91-1.011A2.989,2.989,0,0,1,59.467.176a3.228,3.228,0,0,1-2.694-1.323A5.916,5.916,0,0,1,55.758-4.825Zm2.54.189a3.754,3.754,0,0,0,.466,2.051,1.517,1.517,0,0,0,1.354.713,1.7,1.7,0,0,0,1.661-.995V-6.625a1.675,1.675,0,0,0-1.644-.995Q58.3-7.62,58.3-4.636ZM71.991-.967A3.185,3.185,0,0,1,69.39.176,3,3,0,0,1,67.056-.7a3.752,3.752,0,0,1-.822-2.575V-9.51h2.54v6.151q0,1.487,1.354,1.487a1.834,1.834,0,0,0,1.775-.9V-9.51h2.549V0H72.062Zm8.332-.905a1.666,1.666,0,0,0,1.143-.387,1.355,1.355,0,0,0,.457-1.028H84.3a3.258,3.258,0,0,1-.527,1.771A3.48,3.48,0,0,1,82.358-.268a4.442,4.442,0,0,1-1.991.444,4.129,4.129,0,0,1-3.217-1.3A5.13,5.13,0,0,1,75.973-4.7v-.167a5.071,5.071,0,0,1,1.169-3.507,4.08,4.08,0,0,1,3.208-1.31A4,4,0,0,1,83.21-8.67a3.594,3.594,0,0,1,1.094,2.7H81.923a1.745,1.745,0,0,0-.457-1.206,1.524,1.524,0,0,0-1.16-.464,1.53,1.53,0,0,0-1.34.647,3.749,3.749,0,0,0-.453,2.1v.264a3.8,3.8,0,0,0,.448,2.113A1.549,1.549,0,0,0,80.323-1.872ZM91.266,0a2.821,2.821,0,0,1-.255-.853,3.073,3.073,0,0,1-2.4,1.028A3.376,3.376,0,0,1,86.3-.633a2.6,2.6,0,0,1-.918-2.039A2.687,2.687,0,0,1,86.5-4.992a5.529,5.529,0,0,1,3.239-.817h1.169v-.545a1.567,1.567,0,0,0-.338-1.055A1.331,1.331,0,0,0,89.5-7.8a1.513,1.513,0,0,0-1.006.308,1.045,1.045,0,0,0-.365.844h-2.54a2.551,2.551,0,0,1,.51-1.529,3.37,3.37,0,0,1,1.441-1.1,5.253,5.253,0,0,1,2.092-.4,4.15,4.15,0,0,1,2.791.883,3.09,3.09,0,0,1,1.033,2.483V-2.2a4.546,4.546,0,0,0,.378,2.048V0Zm-2.1-1.767a2.188,2.188,0,0,0,1.037-.25,1.645,1.645,0,0,0,.7-.672V-4.324h-.949q-1.907,0-2.03,1.318l-.009.149a1.017,1.017,0,0,0,.334.782A1.3,1.3,0,0,0,89.165-1.767Zm9.281-10.081V-9.51h1.626v1.863H98.446V-2.9a1.133,1.133,0,0,0,.2.756,1.015,1.015,0,0,0,.773.229,4.051,4.051,0,0,0,.747-.062V-.053a5.229,5.229,0,0,1-1.538.229,2.425,2.425,0,0,1-2.725-2.7V-7.646H94.518V-9.51h1.389v-2.338ZM104.168,0h-2.549V-9.51h2.549Zm-2.7-11.971a1.251,1.251,0,0,1,.382-.94,1.436,1.436,0,0,1,1.042-.369,1.44,1.44,0,0,1,1.037.369,1.244,1.244,0,0,1,.387.94,1.247,1.247,0,0,1-.391.949,1.443,1.443,0,0,1-1.033.369,1.443,1.443,0,0,1-1.033-.369A1.247,1.247,0,0,1,101.47-11.971Zm8.35,8.868,1.767-6.407h2.654L111.032,0h-2.426L105.4-9.51h2.654Zm5.01-1.74a5.64,5.64,0,0,1,.545-2.522,3.989,3.989,0,0,1,1.569-1.714,4.577,4.577,0,0,1,2.377-.606,4.33,4.33,0,0,1,3.142,1.178,4.727,4.727,0,0,1,1.358,3.2l.018.65a4.97,4.97,0,0,1-1.222,3.511A4.247,4.247,0,0,1,119.338.176a4.268,4.268,0,0,1-3.283-1.318,5.058,5.058,0,0,1-1.226-3.586Zm2.54.18a3.555,3.555,0,0,0,.51,2.073,1.682,1.682,0,0,0,1.459.717,1.686,1.686,0,0,0,1.441-.709,3.89,3.89,0,0,0,.519-2.267,3.519,3.519,0,0,0-.519-2.06,1.686,1.686,0,0,0-1.459-.731,1.658,1.658,0,0,0-1.441.726A3.955,3.955,0,0,0,117.369-4.662Z" transform="translate(417 2337)" fill="#12263f"/>
    <path id="Trazado_611143" data-name="Trazado 611143" d="M11.188-4.263A4.528,4.528,0,0,1,9.664-1.011,5.355,5.355,0,0,1,6.038.176,4.816,4.816,0,0,1,2.167-1.481,6.793,6.793,0,0,1,.756-6.029v-.782a7.671,7.671,0,0,1,.65-3.252,4.874,4.874,0,0,1,1.859-2.158,5.207,5.207,0,0,1,2.808-.751,5.217,5.217,0,0,1,3.568,1.187,4.866,4.866,0,0,1,1.564,3.331H8.569a2.673,2.673,0,0,0-.69-1.8,2.555,2.555,0,0,0-1.806-.558A2.24,2.24,0,0,0,4.1-9.866a5.3,5.3,0,0,0-.672,2.931v.967a5.667,5.667,0,0,0,.628,3.032,2.2,2.2,0,0,0,1.982.958,2.6,2.6,0,0,0,1.824-.558,2.521,2.521,0,0,0,.69-1.727Zm1.169-.58A5.64,5.64,0,0,1,12.9-7.365a3.989,3.989,0,0,1,1.569-1.714,4.577,4.577,0,0,1,2.377-.606,4.33,4.33,0,0,1,3.142,1.178,4.727,4.727,0,0,1,1.358,3.2l.018.65a4.97,4.97,0,0,1-1.222,3.511A4.247,4.247,0,0,1,16.866.176a4.268,4.268,0,0,1-3.283-1.318,5.058,5.058,0,0,1-1.226-3.586Zm2.54.18a3.555,3.555,0,0,0,.51,2.073,1.682,1.682,0,0,0,1.459.717,1.686,1.686,0,0,0,1.441-.709,3.89,3.89,0,0,0,.519-2.267,3.519,3.519,0,0,0-.519-2.06,1.686,1.686,0,0,0-1.459-.731,1.658,1.658,0,0,0-1.441.726A3.955,3.955,0,0,0,14.9-4.662ZM25.269-9.51l.079,1.1a3.32,3.32,0,0,1,2.733-1.274,2.759,2.759,0,0,1,2.25.888,4.142,4.142,0,0,1,.756,2.654V0h-2.54V-6.082A1.648,1.648,0,0,0,28.2-7.255a1.574,1.574,0,0,0-1.169-.365,1.747,1.747,0,0,0-1.608.914V0h-2.54V-9.51Zm7.348,4.685a5.731,5.731,0,0,1,1-3.542,3.237,3.237,0,0,1,2.729-1.318,2.913,2.913,0,0,1,2.294,1.037V-13.5h2.549V0H38.892l-.123-1.011A2.989,2.989,0,0,1,36.325.176a3.228,3.228,0,0,1-2.694-1.323A5.916,5.916,0,0,1,32.616-4.825Zm2.54.189a3.754,3.754,0,0,0,.466,2.051,1.517,1.517,0,0,0,1.354.713,1.7,1.7,0,0,0,1.661-.995V-6.625a1.675,1.675,0,0,0-1.644-.995Q35.156-7.62,35.156-4.636ZM48.85-.967a3.185,3.185,0,0,1-2.6,1.143A3,3,0,0,1,43.915-.7a3.752,3.752,0,0,1-.822-2.575V-9.51h2.54v6.151q0,1.487,1.354,1.487a1.834,1.834,0,0,0,1.775-.9V-9.51h2.549V0H48.92Zm8.332-.905a1.666,1.666,0,0,0,1.143-.387,1.355,1.355,0,0,0,.457-1.028h2.382a3.258,3.258,0,0,1-.527,1.771A3.48,3.48,0,0,1,59.216-.268a4.442,4.442,0,0,1-1.991.444,4.129,4.129,0,0,1-3.217-1.3A5.13,5.13,0,0,1,52.831-4.7v-.167A5.071,5.071,0,0,1,54-8.376a4.08,4.08,0,0,1,3.208-1.31A4,4,0,0,1,60.069-8.67a3.594,3.594,0,0,1,1.094,2.7H58.781a1.745,1.745,0,0,0-.457-1.206,1.524,1.524,0,0,0-1.16-.464,1.53,1.53,0,0,0-1.34.647,3.749,3.749,0,0,0-.453,2.1v.264a3.8,3.8,0,0,0,.448,2.113A1.549,1.549,0,0,0,57.182-1.872Zm8.473-9.976V-9.51H67.28v1.863H65.654V-2.9a1.133,1.133,0,0,0,.2.756,1.015,1.015,0,0,0,.773.229,4.051,4.051,0,0,0,.747-.062V-.053a5.229,5.229,0,0,1-1.538.229,2.425,2.425,0,0,1-2.725-2.7V-7.646H61.726V-9.51h1.389v-2.338ZM74.206,0a2.821,2.821,0,0,1-.255-.853,3.073,3.073,0,0,1-2.4,1.028,3.376,3.376,0,0,1-2.316-.809,2.6,2.6,0,0,1-.918-2.039,2.687,2.687,0,0,1,1.121-2.32,5.529,5.529,0,0,1,3.239-.817h1.169v-.545a1.567,1.567,0,0,0-.338-1.055,1.331,1.331,0,0,0-1.068-.4,1.513,1.513,0,0,0-1.006.308,1.045,1.045,0,0,0-.365.844h-2.54a2.551,2.551,0,0,1,.51-1.529,3.37,3.37,0,0,1,1.441-1.1,5.253,5.253,0,0,1,2.092-.4,4.15,4.15,0,0,1,2.791.883,3.09,3.09,0,0,1,1.033,2.483V-2.2a4.546,4.546,0,0,0,.378,2.048V0Zm-2.1-1.767a2.188,2.188,0,0,0,1.037-.25,1.645,1.645,0,0,0,.7-.672V-4.324H72.9q-1.907,0-2.03,1.318l-.009.149a1.017,1.017,0,0,0,.334.782A1.3,1.3,0,0,0,72.105-1.767Z" transform="translate(1091 2337)" fill="#12263f"/>
  </g>
</svg>
