<svg xmlns="http://www.w3.org/2000/svg" xmlns:xlink="http://www.w3.org/1999/xlink" width="70" height="70" viewBox="0 0 70 70">
  <defs>
    <clipPath id="clip-path">
      <rect id="Rectángulo_378589" data-name="Rectángulo 378589" width="46.07" height="46.064" fill="#376460"/>
    </clipPath>
  </defs>
  <g id="Grupo_1073319" data-name="Grupo 1073319" transform="translate(-920 -1548)">
    <g id="Grupo_1073202" data-name="Grupo 1073202" transform="translate(651 590)">
      <circle id="Elipse_5614" data-name="Elipse 5614" cx="35" cy="35" r="35" transform="translate(269 958)" fill="#fff"/>
      <g id="Grupo_1073281" data-name="Grupo 1073281" transform="translate(280.965 969.968)">
        <g id="Grupo_1073280" data-name="Grupo 1073280" clip-path="url(#clip-path)">
          <path id="Trazado_610896" data-name="Trazado 610896" d="M23.156,84.579q-7.381,0-14.762,0a9.318,9.318,0,0,1-2.966-.617,8.224,8.224,0,0,1-2.857-1.787,10.078,10.078,0,0,1-.815-.962,6.945,6.945,0,0,1-1.18-2.155,9.082,9.082,0,0,1-.523-4.182c.108-1.03.13-2.076.325-3.089a13.516,13.516,0,0,1,.39-1.964c.14-.4.182-.838.292-1.256a21.416,21.416,0,0,1,1.974-4.859,35.322,35.322,0,0,1,2.123-3.314,34.586,34.586,0,0,1,2.353-2.858,21.287,21.287,0,0,1,2.768-2.542c1.075-.861,2.143-1.735,3.292-2.5,1.036-.689,2.051-1.407,3.129-2.037a2.512,2.512,0,0,1,1.351-.343q5.06.01,10.12.006a1.934,1.934,0,0,1,1.034.261,46.987,46.987,0,0,1,5.689,3.906,34.757,34.757,0,0,1,3.27,2.816,30.036,30.036,0,0,1,2.384,2.8,28.977,28.977,0,0,1,3.114,4.965,21.033,21.033,0,0,1,1.629,4.874c.1.489.159.985.272,1.467a29.422,29.422,0,0,1,.5,4.705,6.72,6.72,0,0,1-.338,2.443,8.8,8.8,0,0,1-3.329,4.722,8.274,8.274,0,0,1-2.8,1.233,13.118,13.118,0,0,1-3.289.253H23.156ZM21.233,76.3c0,.173-.009.346,0,.519a1.939,1.939,0,0,0,1.8,1.743,1.9,1.9,0,0,0,1.822-1.773c.008-.182-.005-.365,0-.548.017-.834-.092-.67.691-.929a5.645,5.645,0,0,0,2.52-1.534A5.076,5.076,0,0,0,29.2,70.586a.718.718,0,0,0-.025-.228,7.2,7.2,0,0,0-.415-1.571,4.022,4.022,0,0,0-1.337-1.715,11.914,11.914,0,0,0-2.6-1.275c-.973-.325-1.978-.55-2.93-.938a2.778,2.778,0,0,1-1.129-.539.632.632,0,0,1,.115-1.022,4.233,4.233,0,0,1,2.654-.568,11.588,11.588,0,0,1,2.259.426,1.635,1.635,0,0,0,1.124-.068,1.732,1.732,0,0,0,1.148-1.49,1.777,1.777,0,0,0-.918-1.813,4.941,4.941,0,0,0-1.511-.436c-.756-.178-.8-.023-.782-.984a2.338,2.338,0,0,0-.368-1.474A1.769,1.769,0,0,0,22,56.515a2.119,2.119,0,0,0-.771,1.915c.028.727.005.732-.682.954a6.045,6.045,0,0,0-2.425,1.455A4.339,4.339,0,0,0,19.233,67.7a21.59,21.59,0,0,0,4.109,1.558,7.105,7.105,0,0,1,1.645.677.9.9,0,0,1,.067,1.579,3.015,3.015,0,0,1-2.065.465,12.532,12.532,0,0,1-2.241-.52,12.231,12.231,0,0,0-1.553-.514A1.82,1.82,0,0,0,17,73.325a2.078,2.078,0,0,0,1.334,1.228,14.367,14.367,0,0,0,2.05.671c.944.232.841.154.854,1.071" transform="translate(0 -38.517)" fill="#376460"/>
          <path id="Trazado_610897" data-name="Trazado 610897" d="M65.724.014h8.361a3.365,3.365,0,0,1,.963.153A1.293,1.293,0,0,1,75.8,1.9a16.869,16.869,0,0,1-1.109,1.782C73.991,4.766,73.27,5.83,72.557,6.9c-.34.511-.7,1.01-1,1.543a.443.443,0,0,1-.422.2q-.634,0-1.269,0c-3.056,0-6.112,0-9.168.009a.991.991,0,0,1-1.04-.507c-.391-.7-.877-1.347-1.322-2.017-.534-.805-1.083-1.6-1.6-2.42a8.134,8.134,0,0,1-1.148-1.983A1.251,1.251,0,0,1,56.484.139,3.586,3.586,0,0,1,57.421,0q4.151.007,8.3,0V.014" transform="translate(-42.683 0)" fill="#376460"/>
        </g>
      </g>
    </g>
  </g>
</svg>
