<svg xmlns="http://www.w3.org/2000/svg" xmlns:xlink="http://www.w3.org/1999/xlink" width="148.416" height="146" viewBox="0 0 148.416 146">
  <defs>
    <clipPath id="clip-path">
      <rect id="Rectángulo_378583" data-name="Rectángulo 378583" width="75.859" height="76.777" fill="#376460"/>
    </clipPath>
  </defs>
  <g id="Grupo_1073316" data-name="Grupo 1073316" transform="translate(-1145.75 -962.361)">
    <g id="Grupo_1073193" data-name="Grupo 1073193" transform="translate(878 4.36)">
      <path id="Trazado_608969" data-name="Trazado 608969" d="M73,0A73,73,0,1,1,0,73,73,73,0,0,1,73,0Z" transform="translate(269 958)" fill="#e7ffdd"/>
    </g>
    <g id="Grupo_1073196" data-name="Grupo 1073196" transform="translate(1147 1093.157)">
      <line id="Línea_2906" data-name="Línea 2906" x1="30.608" transform="translate(13.308)" fill="none" stroke="#376460" stroke-linecap="round" stroke-linejoin="round" stroke-width="2.5"/>
      <line id="Línea_2907" data-name="Línea 2907" x2="29.277" transform="translate(0 5.323)" fill="none" stroke="#376460" stroke-linecap="round" stroke-linejoin="round" stroke-width="2.5"/>
      <line id="Línea_2908" data-name="Línea 2908" x2="1.33" transform="translate(33.935 5.323)" fill="none" stroke="#376460" stroke-linecap="round" stroke-linejoin="round" stroke-width="2.5"/>
    </g>
    <g id="Grupo_1073199" data-name="Grupo 1073199" transform="translate(1249 976.498)">
      <line id="Línea_2906-2" data-name="Línea 2906" x1="30.608" transform="translate(13.308 0)" fill="none" stroke="#376460" stroke-linecap="round" stroke-linejoin="round" stroke-width="2.5"/>
      <line id="Línea_2907-2" data-name="Línea 2907" x2="29.277" transform="translate(0 5.323)" fill="none" stroke="#376460" stroke-linecap="round" stroke-linejoin="round" stroke-width="2.5"/>
      <line id="Línea_2908-2" data-name="Línea 2908" x2="1.33" transform="translate(33.935 5.323)" fill="none" stroke="#376460" stroke-linecap="round" stroke-linejoin="round" stroke-width="2.5"/>
    </g>
    <g id="Grupo_1073270" data-name="Grupo 1073270" transform="translate(1182.07 996.973)">
      <g id="Grupo_1073269" data-name="Grupo 1073269" clip-path="url(#clip-path)">
        <path id="Trazado_610878" data-name="Trazado 610878" d="M2.2,44.215Q2.2,57.65,2.2,71.084a3.429,3.429,0,0,0,3.485,3.479c2.588-.03,5.177-.013,7.765-.013l41.733,0a3.262,3.262,0,0,0,3.354-2.669,18.767,18.767,0,0,0,.036-2.156,1.2,1.2,0,0,1,.876-1.119,1.093,1.093,0,0,1,1.335.858c.344,2.8-.359,5.673-3.69,6.977a5.547,5.547,0,0,1-2.03.33q-24.629.009-49.259,0A5.646,5.646,0,0,1,.38,73.19,6.393,6.393,0,0,1,0,70.718Q0,44.345,0,17.972a9.8,9.8,0,0,1,.129-1.939,5.5,5.5,0,0,1,1.57-2.84Q4.242,10.647,6.788,8.1c2.078-2.078,4.174-4.138,6.226-6.241A6.068,6.068,0,0,1,17.586,0q8.6.01,17.209,0Q44.869,0,54.943,0a5.66,5.66,0,0,1,4.693,2.165,5.756,5.756,0,0,1,1.207,3.685q0,6.627,0,13.255c0,.44.013.88.011,1.319a1.168,1.168,0,0,1-1.126,1.227A1.223,1.223,0,0,1,58.571,20.4c0-4.9-.055-9.8.026-14.694a3.448,3.448,0,0,0-3.56-3.518c-11.752.047-23.5.02-35.257.018-.939,0-1.879.006-2.817.032-.543.015-.541.036-.541.568,0,3.229.012,6.458-.013,9.686A3.835,3.835,0,0,1,14.5,15.887a3.9,3.9,0,0,1-1.879.546c-.767.043-1.538.028-2.307.028q-3.733,0-7.465,0c-.632,0-.638,0-.638.646q0,6.432,0,12.865V44.215M14.2,3.954,3.966,14.2a.859.859,0,0,0,.1.007c2.787,0,5.574-.032,8.359.017a1.774,1.774,0,0,0,1.785-1.78c-.041-2.537-.014-5.075-.014-7.612V3.954" transform="translate(0 0)" fill="#376460"/>
        <path id="Trazado_610879" data-name="Trazado 610879" d="M189.459,138.91c0-1.619,0-3.239.005-4.858,0-.23-.052-.288-.293-.344a4.486,4.486,0,0,1-2.978-2.227,4.023,4.023,0,0,1-.516-1.794,2.47,2.47,0,0,0-1.625-2.328,4.343,4.343,0,0,1-2.867-4.085,4.458,4.458,0,0,1,.749-2.578,2.282,2.282,0,0,0,.009-2.576,4.5,4.5,0,0,1,1.019-6.086,4.377,4.377,0,0,1,1.1-.6,2.338,2.338,0,0,0,1.605-2.27,4.506,4.506,0,0,1,3.686-4.123,3.807,3.807,0,0,1,1.927.1,2.149,2.149,0,0,0,2.47-.733,4.7,4.7,0,0,1,2.663-1.673A4.308,4.308,0,0,1,200.6,104.1a3.826,3.826,0,0,0,1.052.919,2.16,2.16,0,0,0,1.652.148,4.471,4.471,0,0,1,5.706,4.1,2.326,2.326,0,0,0,1.569,2.166,4.309,4.309,0,0,1,2.832,3.5,4.438,4.438,0,0,1-.691,3.176,2.208,2.208,0,0,0-.056,2.488,5.117,5.117,0,0,1,.8,2.505,4.394,4.394,0,0,1-2.7,4.188,2.521,2.521,0,0,0-1.775,2.345,4.366,4.366,0,0,1-2.991,3.932,1.885,1.885,0,0,1-.546.147c-.269.021-.3.146-.3.39.011,2.989.007,5.977.009,8.966a7.415,7.415,0,0,1-.1,1.52,2.341,2.341,0,0,1-3.483,1.463q-1.727-1.051-3.446-2.114c-.794-.49-.793-.495-1.6,0-1.079.665-2.173,1.308-3.232,2a2.394,2.394,0,0,1-3.775-1.64,3.312,3.312,0,0,1-.064-.715c.007-.159,0-.32,0-.48v-4.2m-6.1-15.789a2.35,2.35,0,0,0,1.546,2.241,4.264,4.264,0,0,1,2.885,3.9,2.493,2.493,0,0,0,.553,1.523,2.276,2.276,0,0,0,2.494.709,4.277,4.277,0,0,1,3.061.285,4.842,4.842,0,0,1,1.6,1.28,2.108,2.108,0,0,0,1.137.788,2.27,2.27,0,0,0,2.421-.7,5.176,5.176,0,0,1,1.627-1.344,4.578,4.578,0,0,1,3.321-.278,2.15,2.15,0,0,0,2.308-.757,2.641,2.641,0,0,0,.529-1.561,4.365,4.365,0,0,1,2.942-3.873,2.326,2.326,0,0,0,1.157-.952,2.236,2.236,0,0,0-.1-2.536,4.261,4.261,0,0,1,0-4.876,2.284,2.284,0,0,0,.114-2.541,2.784,2.784,0,0,0-1.425-1.083,4.292,4.292,0,0,1-2.644-3.379c-.046-.276-.058-.557-.1-.833a2.18,2.18,0,0,0-1.88-1.893,3.144,3.144,0,0,0-.982.079,4.787,4.787,0,0,1-3.506-.463,6.516,6.516,0,0,1-1.442-1.3,2.192,2.192,0,0,0-2.008-.692,2.292,2.292,0,0,0-1.5.9,4.468,4.468,0,0,1-2.628,1.606,5.724,5.724,0,0,1-2.23-.076,2.163,2.163,0,0,0-2.752,1.762c-.072.3-.051.619-.1.921a4.235,4.235,0,0,1-2.66,3.363,2.46,2.46,0,0,0-1.72,1.965,2.272,2.272,0,0,0,.377,1.566,4.762,4.762,0,0,1,.789,2.234,4.587,4.587,0,0,1-.768,2.78,2.1,2.1,0,0,0-.418,1.225m19.531,21.132V143.9q0-4.948,0-9.9c0-.08,0-.16,0-.24s-.018-.148-.129-.152a2.056,2.056,0,0,0-1.47.383,7.859,7.859,0,0,0-.73.752,4.4,4.4,0,0,1-4.777,1.137,4.581,4.581,0,0,1-1.938-1.414,2.175,2.175,0,0,0-1.842-.88c-.2.006-.3.053-.284.27s.006.46.006.69q0,4.648.01,9.3c0,.439.037.452.4.227,1.362-.834,2.716-1.683,4.09-2.5a2.073,2.073,0,0,1,2.2,0c.829.48,1.636,1,2.458,1.491.648.388,1.266.829,2,1.183" transform="translate(-137.605 -77.948)" fill="#376460"/>
        <path id="Trazado_610880" data-name="Trazado 610880" d="M110.462,32.239q5.592,0,11.183,0a2.8,2.8,0,0,1,1.857.542,2.552,2.552,0,0,1,1,2.053c.01,1.149-.045,2.3.016,3.448a2.625,2.625,0,0,1-2.139,2.587,4.539,4.539,0,0,1-.774.074q-7.6,0-15.2,0a1.547,1.547,0,0,1-.809-.173,1.107,1.107,0,0,1-.568-1.185,1.16,1.16,0,0,1,1.018-.884c.189-.016.379-.018.569-.018h14.511c.26,0,.52,0,.779.006.212,0,.327-.07.334-.313.032-1.19.013-2.379.009-3.568,0-.235-.105-.319-.328-.314-.32.007-.64,0-.959,0H99.643c-.23,0-.46.01-.69.006s-.347.092-.345.338c.007,1.139.012,2.279,0,3.418,0,.3.111.43.418.425.6-.01,1.2-.006,1.8.006A1.112,1.112,0,0,1,101,40.9a7.39,7.39,0,0,1-2.883-.151,2.267,2.267,0,0,1-1.662-2.093,27.284,27.284,0,0,1-.006-4.164,2.552,2.552,0,0,1,2.677-2.259c2.178.027,4.357.007,6.536.007h4.8" transform="translate(-73.196 -24.48)" fill="#376460"/>
        <path id="Trazado_610881" data-name="Trazado 610881" d="M50.847,181.091h-14a1.872,1.872,0,0,1-.982-.207,1.036,1.036,0,0,1-.5-1.125,1.086,1.086,0,0,1,.83-.884,2.771,2.771,0,0,1,.655-.055H64.156c.34,0,.68-.015,1.019,0a1.143,1.143,0,0,1,.968,1.751,1.124,1.124,0,0,1-1,.513c-.268.02-.539.006-.809.006H50.847Z" transform="translate(-26.849 -135.807)" fill="#376460"/>
        <path id="Trazado_610882" data-name="Trazado 610882" d="M50.81,148.189H36.843c-.15,0-.3,0-.449-.01a1.083,1.083,0,0,1-1.043-1.038,1.062,1.062,0,0,1,.935-1.165,3.409,3.409,0,0,1,.686-.053l27.214,0c.31,0,.62-.012.929,0a1.108,1.108,0,0,1,1.167,1.135,1.087,1.087,0,0,1-1.146,1.123c-.319.015-.639.007-.959.007H50.81Z" transform="translate(-26.847 -110.823)" fill="#376460"/>
        <path id="Trazado_610883" data-name="Trazado 610883" d="M50.867,211.76H64.924c.08,0,.16,0,.24,0a1.044,1.044,0,0,1,1.113.982,1.1,1.1,0,0,1-.935,1.228,2.773,2.773,0,0,1-.536.044q-13.892,0-27.784,0a3.039,3.039,0,0,1-.919-.1,1.029,1.029,0,0,1-.761-1.169,1.053,1.053,0,0,1,.931-.944,5.449,5.449,0,0,1,.867-.037H50.867Z" transform="translate(-26.836 -160.829)" fill="#376460"/>
        <path id="Trazado_610884" data-name="Trazado 610884" d="M50.762,115.442H36.8a4.474,4.474,0,0,1-.479-.013,1.1,1.1,0,0,1-1.012-1.4,1.064,1.064,0,0,1,1.068-.8c.229-.015.459,0,.689,0H64.634a2.293,2.293,0,0,1,1.026.154,1.086,1.086,0,0,1,.566,1.124,1.007,1.007,0,0,1-.813.884,3.565,3.565,0,0,1-.686.048H50.762" transform="translate(-26.79 -85.995)" fill="#376460"/>
        <path id="Trazado_610885" data-name="Trazado 610885" d="M43.59,262.154q-3.4,0-6.8,0a3.355,3.355,0,0,1-.448-.022,1.006,1.006,0,0,1-1-1.115,1.036,1.036,0,0,1,1.023-1.074,8.17,8.17,0,0,1,.837-.034q6.67,0,13.339,0c.753,0,1.105.2,1.305.724a1.086,1.086,0,0,1-.823,1.482,2.611,2.611,0,0,1-.477.04q-3.477,0-6.954,0Z" transform="translate(-26.84 -197.395)" fill="#376460"/>
        <path id="Trazado_610886" data-name="Trazado 610886" d="M218.643,152.076a9.414,9.414,0,1,1,9.4-9.607,9.438,9.438,0,0,1-9.4,9.607m-.02-2.265a7.121,7.121,0,0,0,7.211-7.331,7.19,7.19,0,1,0-14.333.976,7.082,7.082,0,0,0,7.122,6.355" transform="translate(-158.921 -101.2)" fill="#376460"/>
      </g>
    </g>
  </g>
</svg>
