<svg xmlns="http://www.w3.org/2000/svg" xmlns:xlink="http://www.w3.org/1999/xlink" width="148.416" height="146" viewBox="0 0 148.416 146">
  <defs>
    <clipPath id="clip-path">
      <rect id="Rectángulo_378581" data-name="Rectángulo 378581" width="80.477" height="79.431" fill="#376460"/>
    </clipPath>
  </defs>
  <g id="Grupo_1073314" data-name="Grupo 1073314" transform="translate(-305.75 -962.361)">
    <g id="Grupo_1073191" data-name="Grupo 1073191" transform="translate(38 4.36)">
      <path id="Trazado_608969" data-name="Trazado 608969" d="M73,0A73,73,0,1,1,0,73,73,73,0,0,1,73,0Z" transform="translate(269 958)" fill="#e7ffdd"/>
    </g>
    <g id="Grupo_1073194" data-name="Grupo 1073194" transform="translate(307 1093.157)">
      <line id="Línea_2906" data-name="Línea 2906" x1="30.608" transform="translate(13.308)" fill="none" stroke="#376460" stroke-linecap="round" stroke-linejoin="round" stroke-width="2.5"/>
      <line id="Línea_2907" data-name="Línea 2907" x2="29.277" transform="translate(0 5.323)" fill="none" stroke="#376460" stroke-linecap="round" stroke-linejoin="round" stroke-width="2.5"/>
      <line id="Línea_2908" data-name="Línea 2908" x2="1.33" transform="translate(33.935 5.323)" fill="none" stroke="#376460" stroke-linecap="round" stroke-linejoin="round" stroke-width="2.5"/>
    </g>
    <g id="Grupo_1073197" data-name="Grupo 1073197" transform="translate(409 976.498)">
      <line id="Línea_2906-2" data-name="Línea 2906" x1="30.608" transform="translate(13.308 0)" fill="none" stroke="#376460" stroke-linecap="round" stroke-linejoin="round" stroke-width="2.5"/>
      <line id="Línea_2907-2" data-name="Línea 2907" x2="29.277" transform="translate(0 5.323)" fill="none" stroke="#376460" stroke-linecap="round" stroke-linejoin="round" stroke-width="2.5"/>
      <line id="Línea_2908-2" data-name="Línea 2908" x2="1.33" transform="translate(33.935 5.323)" fill="none" stroke="#376460" stroke-linecap="round" stroke-linejoin="round" stroke-width="2.5"/>
    </g>
    <g id="Grupo_1073266" data-name="Grupo 1073266" transform="translate(339.762 996.131)">
      <g id="Grupo_1073265" data-name="Grupo 1073265" clip-path="url(#clip-path)">
        <path id="Trazado_610859" data-name="Trazado 610859" d="M10.316,194.458c0-3.718,0-7.436.007-11.154,0-.305-.083-.379-.382-.378q-3.709.016-7.417,0c-.226,0-.257.077-.256.269,0,1.11-.009,2.22,0,3.33,0,.272-.067.365-.353.349-.554-.03-1.11-.026-1.665-.016-.2,0-.249-.062-.248-.25.006-1.529,0-3.058.007-4.587a1.179,1.179,0,0,1,1.2-1.293c.1-.01.209-.009.314-.01l9.554,0a1.745,1.745,0,0,1,.88.182.92.92,0,0,1,.5.745,18.821,18.821,0,0,1,.028,2.1c0,.272.05.357.337.356,3.206-.009,6.412.01,9.617-.011a2.852,2.852,0,0,1,1.871.645q6.36,4.947,12.75,9.855a11.5,11.5,0,0,1,1.756,1.517A6.224,6.224,0,0,1,40.29,199.9c.025.39.017.377.38.2q2.82-1.374,5.646-2.737c1.882-.912,3.769-1.814,5.644-2.74a5.974,5.974,0,0,1,8.52,3.437,5.942,5.942,0,0,1-2.945,7.115l-6.915,3.423c-2.549,1.261-5.1,2.527-7.693,3.688a28.829,28.829,0,0,1-5.857,2.023,13.446,13.446,0,0,1-6.312-.179,38.188,38.188,0,0,1-6.725-2.658c-3.709-1.8-7.326-3.774-10.979-5.68-.169-.088-.357-.3-.521-.2s-.046.369-.053.564c-.012.335,0,.671-.027,1a1.032,1.032,0,0,1-.96.989,8.12,8.12,0,0,1-.848.026q-4.573,0-9.146,0a1.461,1.461,0,0,1-1.017-.231,1.411,1.411,0,0,1-.476-1.177q0-6.315,0-12.63c0-1.843.006-3.686-.007-5.53,0-.269.085-.344.336-.338.565.012,1.131.011,1.7,0,.175,0,.25.051.239.231s0,.335,0,.5q0,8.342-.007,16.684c0,.294.083.355.362.354q3.646-.017,7.292,0c.307,0,.407-.067.405-.4-.013-3.728-.008-7.457-.008-11.185m2.181.882c-.027,2.064.047,4.776-.033,7.488a.324.324,0,0,0,.2.345c1.1.566,2.184,1.149,3.279,1.719,3.413,1.777,6.782,3.642,10.281,5.251a26.064,26.064,0,0,0,5.472,1.974,12.86,12.86,0,0,0,6.478-.3,43.226,43.226,0,0,0,6.231-2.558c2.347-1.128,4.673-2.3,7.008-3.449,1.744-.86,3.5-1.694,5.228-2.591a3.48,3.48,0,0,0,1.93-2.966A3.65,3.65,0,0,0,57.54,197.2a3.848,3.848,0,0,0-4.656-.66q-5.007,2.434-10.018,4.86-1.65.8-3.293,1.618a.759.759,0,0,0-.338.271,5.39,5.39,0,0,1-2.549,2.155,5.266,5.266,0,0,1-2.552.562,6.577,6.577,0,0,1-3.582-1.372c-.868-.692-1.753-1.362-2.632-2.039q-3.533-2.723-7.07-5.441c-.229-.175-.25-.307-.068-.529.325-.4.631-.809.931-1.224.1-.141.164-.167.314-.051q4.482,3.473,8.973,6.932a13.367,13.367,0,0,0,1.423,1.031,3.838,3.838,0,0,0,5.362-1.748,3.915,3.915,0,0,0-1.262-4.718c-2.584-1.964-5.145-3.958-7.713-5.944Q25.9,188.66,23,186.4a.628.628,0,0,0-.412-.118c-.482,0-.964.012-1.445.012q-4.18,0-8.36,0c-.229,0-.3.046-.3.293.011,2.7.007,5.4.007,8.754" transform="translate(0 -135.165)" fill="#376460"/>
        <path id="Trazado_610860" data-name="Trazado 610860" d="M128.674,20.086c0,3.718,0,7.435-.007,11.153,0,.316.08.4.4.4,2.388-.015,4.777-.01,7.165-.011.487,0,.487,0,.487-.479q0-8.4,0-16.809c0-.405,0-.405.408-.4.534,0,1.069.015,1.6.008.189,0,.277.051.256.247a2,2,0,0,0,0,.22V32.322c0,1.11-.405,1.526-1.514,1.527q-4.746.007-9.491,0a2.827,2.827,0,0,1-.314-.013c-.818-.091-1.133-.408-1.165-1.227-.024-.606-.019-1.215,0-1.822.007-.248-.062-.32-.314-.32-2.273,0-4.546-.009-6.82-.013q-1.571,0-3.143.006a1.949,1.949,0,0,1-1.255-.411q-6.547-5.063-13.1-10.12c-.414-.32-.833-.637-1.22-.988A5.991,5.991,0,0,1,98.7,14.627c-.014-.28-.062-.317-.319-.192q-4.9,2.394-9.819,4.769a17.41,17.41,0,0,1-2.685,1.208,5.964,5.964,0,0,1-7.647-5.451A5.659,5.659,0,0,1,81.42,9.43c2.193-1.153,4.439-2.2,6.661-3.3,2.315-1.146,4.624-2.3,6.973-3.38A42.448,42.448,0,0,1,100.633.586a15.039,15.039,0,0,1,5.528-.53,15.63,15.63,0,0,1,3.6.839,42.322,42.322,0,0,1,5.476,2.335c3.6,1.764,7.12,3.67,10.665,5.535.18.095.4.316.549.224.189-.113.056-.405.066-.619.013-.3,0-.607.02-.91a1.061,1.061,0,0,1,.956-1.033,3.142,3.142,0,0,1,.439-.02c3.237,0,6.474.012,9.711-.015a1.237,1.237,0,0,1,1.343,1.342c0,1.518-.006,3.037,0,4.556,0,.228-.072.278-.284.272q-.864-.021-1.728,0c-.206,0-.264-.056-.262-.262.009-1.162,0-2.325.008-3.487,0-.191-.029-.27-.254-.269q-3.724.008-7.448-.013c-.265,0-.353.051-.352.34q.017,5.608.007,11.216m-2.178-.178h0c0-.482,0-.963,0-1.445.017-2.22-.04-4.44.035-6.659a.354.354,0,0,0-.2-.4c-1.69-.876-3.368-1.774-5.053-2.661-2.73-1.437-5.447-2.9-8.244-4.2a29.518,29.518,0,0,0-5.391-2.024,12.716,12.716,0,0,0-6.874.258,44.268,44.268,0,0,0-6.254,2.582c-2.119,1.021-4.223,2.074-6.333,3.114-1.951.961-3.917,1.893-5.848,2.893a3.855,3.855,0,0,0-1.489,5.195A3.9,3.9,0,0,0,86.1,18.042c2.667-1.329,5.357-2.612,8.038-3.914q2.526-1.226,5.053-2.447A1.409,1.409,0,0,0,99.8,11.2a5.864,5.864,0,0,1,7.4-2.043,14.476,14.476,0,0,1,2.391,1.665q4.294,3.3,8.585,6.612c.2.15.221.257.068.45-.345.435-.675.88-1.005,1.326-.077.1-.121.132-.24.037-.505-.407-1.021-.8-1.535-1.2q-4.151-3.207-8.3-6.414a3.83,3.83,0,0,0-2.311-.856,3.61,3.61,0,0,0-3.392,1.765,3.82,3.82,0,0,0-.1,3.918,4.644,4.644,0,0,0,1.419,1.487q6.566,5.065,13.127,10.135a.835.835,0,0,0,.544.2c.587-.007,1.173-.007,1.76-.008q3.991,0,7.982,0c.223,0,.307-.041.306-.292-.011-2.691-.007-5.382-.007-8.074" transform="translate(-58.511 0)" fill="#376460"/>
        <path id="Trazado_610861" data-name="Trazado 610861" d="M87.256,94.761a19.945,19.945,0,0,1,3.914.5,41.142,41.142,0,0,1,9.226,3.275,51.986,51.986,0,0,1,13.176,8.877,23.607,23.607,0,0,1,4.221,5.04,9.5,9.5,0,0,1,1.254,3.325,3.8,3.8,0,0,1-.509,2.538c-1.085,1.922-2.192,3.831-3.306,5.736a4.631,4.631,0,0,1-3.445,2.168,14.835,14.835,0,0,1-5.579-.223,38.686,38.686,0,0,1-6.3-1.885,53.651,53.651,0,0,1-7.84-3.87,50.084,50.084,0,0,1-8.219-6.021,23.5,23.5,0,0,1-4.97-5.952,7.792,7.792,0,0,1-1.043-3.418,3.634,3.634,0,0,1,.517-1.949Q80,99.975,81.7,97.079a4.758,4.758,0,0,1,3.364-2.143,10.239,10.239,0,0,1,2.188-.175M80.92,107.542a6.185,6.185,0,0,0,.625-1.024c.074-.16.144-.173.284-.088.483.292.966.586,1.459.861.2.109.179.212.081.375-.324.537-.633,1.084-.959,1.62a.287.287,0,0,0,.018.406,33.666,33.666,0,0,0,2.589,2.737c.149.144.228.136.327-.034.223-.379.465-.746.674-1.131.109-.2.214-.217.4-.108.44.263.881.525,1.333.766.231.123.224.249.1.446-.3.492-.579.994-.872,1.488-.063.107-.122.185.013.288,1,.763,1.98,1.546,3.028,2.241.144.1.207.072.287-.072.223-.4.473-.79.687-1.2.13-.246.278-.271.5-.14.432.256.863.515,1.3.755.185.1.2.2.1.371-.272.459-.519.933-.806,1.382-.114.179-.069.246.084.336,1.036.611,2.069,1.227,3.129,1.8.2.11.293.056.392-.125.242-.44.509-.866.743-1.309.115-.219.214-.25.431-.12a9.722,9.722,0,0,0,1.45.808c.172.067.075.17.032.25-.181.33-.384.649-.553.984-.1.2-.368.39-.306.581s.39.195.595.3a30.154,30.154,0,0,0,2.854,1.22.336.336,0,0,0,.5-.194c.231-.445.5-.872.739-1.312.132-.241.253-.341.532-.151a14.18,14.18,0,0,0,1.3.76c.194.1.194.2.093.368-.217.357-.409.73-.635,1.082-.149.232-.083.315.158.386a25.641,25.641,0,0,0,3.63.847.283.283,0,0,0,.329-.166c.3-.528.615-1.046.9-1.579.114-.211.227-.278.441-.152.459.271.922.537,1.384.8a.217.217,0,0,1,.087.358c-.143.218-.251.46-.4.672-.168.234-.072.272.154.277a5.4,5.4,0,0,0,2.325-.438,1.89,1.89,0,0,0,.889-.767c.421-.711.834-1.427,1.248-2.142.04-.069.123-.144.077-.224-.058-.1-.172-.048-.259-.037a10.729,10.729,0,0,1-1.629.076,21.569,21.569,0,0,1-4.949-.77,43.615,43.615,0,0,1-7.069-2.552,54.771,54.771,0,0,1-8.637-4.908,40.871,40.871,0,0,1-7.495-6.471,15.727,15.727,0,0,1-2.876-4.317c-.026-.063-.044-.144-.143-.166-.419.719-.838,1.443-1.263,2.162a2.5,2.5,0,0,0-.3,1.416,5.9,5.9,0,0,0,.853,2.478m6.448-10.583a9.61,9.61,0,0,0-1.692.055,6.643,6.643,0,0,0-1.141.339,1.7,1.7,0,0,0-1.184,1.707,4.266,4.266,0,0,0,.387,1.763,13.307,13.307,0,0,0,1.966,3.089,36.573,36.573,0,0,0,8.031,7.032,49.286,49.286,0,0,0,14.067,6.713,19.683,19.683,0,0,0,6.076.769,4.223,4.223,0,0,0,2.089-.476,1.64,1.64,0,0,0,.873-1.194,3.384,3.384,0,0,0-.063-1.246,8.228,8.228,0,0,0-1.493-2.981,29.146,29.146,0,0,0-5.944-5.966,52.652,52.652,0,0,0-10.4-6.345,34.083,34.083,0,0,0-8.867-2.944,15.044,15.044,0,0,0-2.706-.313" transform="translate(-58.219 -70.876)" fill="#376460"/>
        <path id="Trazado_610862" data-name="Trazado 610862" d="M37.488,110.5c0,.429.011.858,0,1.287-.008.217.078.264.275.263.806-.008,1.612,0,2.418,0,.419,0,.42,0,.425.431.006.481.006.963.014,1.444,0,.213-.052.316-.3.309-.847-.023-1.7-.011-2.543-.029-.218,0-.282.057-.289.279-.029.827.017,1.653.03,2.479,0,.238-.058.336-.317.326-.512-.019-1.026-.019-1.538,0-.274.009-.358-.076-.351-.357.02-.816,0-1.632.013-2.448,0-.226-.065-.275-.288-.269-.826.021-1.654.009-2.48.021-.243,0-.326-.074-.316-.328.022-.512.023-1.026,0-1.538-.012-.255.067-.331.312-.328.837.011,1.675,0,2.512.014.209,0,.271-.056.268-.263-.011-.847,0-1.7-.009-2.543,0-.239.044-.358.331-.342a13.469,13.469,0,0,0,1.506,0c.309-.017.369.1.354.377-.022.407-.006.816-.006,1.224Z" transform="translate(-24.106 -81.451)" fill="#376460"/>
        <path id="Trazado_610863" data-name="Trazado 610863" d="M256.841,152.084c0,.4.019.8-.006,1.193-.019.3.064.394.377.383.816-.027,1.634-.007,2.45-.023.238,0,.313.08.309.306-.008.534-.008,1.068,0,1.6,0,.211-.073.267-.275.264-.848-.012-1.7,0-2.545-.017-.239,0-.326.051-.321.31.018.816,0,1.634.012,2.45,0,.241-.073.3-.3.3-.513-.009-1.027,0-1.539.025-.262.012-.366-.046-.358-.341.022-.816,0-1.633.008-2.45,0-.218-.064-.283-.288-.279-.806.013-1.613-.005-2.419,0-.233,0-.333-.044-.325-.308.017-.523.011-1.048-.017-1.57-.014-.256.1-.3.308-.3.8,0,1.592-.012,2.388,0,.293.006.365-.1.359-.377-.018-.837,0-1.675-.012-2.513,0-.189.059-.232.231-.23.576.007,1.153.012,1.728,0,.207-.005.242.074.237.255-.011.44,0,.879,0,1.319" transform="translate(-188.188 -112.574)" fill="#376460"/>
        <path id="Trazado_610864" data-name="Trazado 610864" d="M109.425,107.269a16.871,16.871,0,0,1,2.986.564,54.073,54.073,0,0,1,14.221,6.776,44.784,44.784,0,0,1,6.486,4.945,14.609,14.609,0,0,1,2.677,3.149,4.857,4.857,0,0,1,.56,1.39,2.168,2.168,0,0,1-.959,2.277,4.066,4.066,0,0,1-2.581.449,17.32,17.32,0,0,1-4.412-1.044,60.147,60.147,0,0,1-17.119-9.583,20.884,20.884,0,0,1-4.314-4.406,6.2,6.2,0,0,1-.753-1.645,2.2,2.2,0,0,1,1.216-2.519,4.962,4.962,0,0,1,1.995-.353m-.292,2.2c-.148.012-.348.019-.544.048-.212.031-.309.131-.217.367a4.651,4.651,0,0,0,.589,1.032,15.412,15.412,0,0,0,2.243,2.409,47.609,47.609,0,0,0,6.954,5.1,51.341,51.341,0,0,0,12.258,5.745,12.136,12.136,0,0,0,3.146.537c.681.015.78-.131.481-.746a7.011,7.011,0,0,0-1.2-1.64,34.8,34.8,0,0,0-6.615-5.42,56.288,56.288,0,0,0-13.089-6.615,16,16,0,0,0-4-.814" transform="translate(-79.384 -80.232)" fill="#376460"/>
      </g>
    </g>
  </g>
</svg>
