<svg xmlns="http://www.w3.org/2000/svg" xmlns:xlink="http://www.w3.org/1999/xlink" width="148.416" height="146" viewBox="0 0 148.416 146">
  <defs>
    <clipPath id="clip-path">
      <rect id="Rectángulo_378562" data-name="Rectángulo 378562" width="87.754" height="85.32" fill="#376460"/>
    </clipPath>
  </defs>
  <g id="Grupo_1073346" data-name="Grupo 1073346" transform="translate(-1145.75 -2685)">
    <g id="Grupo_1073022" data-name="Grupo 1073022" transform="translate(878 1726.999)">
      <path id="Trazado_608969" data-name="Trazado 608969" d="M73,0A73,73,0,1,1,0,73,73,73,0,0,1,73,0Z" transform="translate(269 958)" fill="#e7ffdd"/>
    </g>
    <g id="Grupo_1073025" data-name="Grupo 1073025" transform="translate(1147 2815.796)">
      <line id="Línea_2906" data-name="Línea 2906" x1="30.608" transform="translate(13.308)" fill="none" stroke="#376460" stroke-linecap="round" stroke-linejoin="round" stroke-width="2.5"/>
      <line id="Línea_2907" data-name="Línea 2907" x2="29.277" transform="translate(0 5.323)" fill="none" stroke="#376460" stroke-linecap="round" stroke-linejoin="round" stroke-width="2.5"/>
      <line id="Línea_2908" data-name="Línea 2908" x2="1.33" transform="translate(33.935 5.323)" fill="none" stroke="#376460" stroke-linecap="round" stroke-linejoin="round" stroke-width="2.5"/>
    </g>
    <g id="Grupo_1073028" data-name="Grupo 1073028" transform="translate(1249 2699.137)">
      <line id="Línea_2906-2" data-name="Línea 2906" x1="30.608" transform="translate(13.308 0)" fill="none" stroke="#376460" stroke-linecap="round" stroke-linejoin="round" stroke-width="2.5"/>
      <line id="Línea_2907-2" data-name="Línea 2907" x2="29.277" transform="translate(0 5.323)" fill="none" stroke="#376460" stroke-linecap="round" stroke-linejoin="round" stroke-width="2.5"/>
      <line id="Línea_2908-2" data-name="Línea 2908" x2="1.33" transform="translate(33.935 5.323)" fill="none" stroke="#376460" stroke-linecap="round" stroke-linejoin="round" stroke-width="2.5"/>
    </g>
    <g id="Grupo_1073235" data-name="Grupo 1073235" transform="translate(1175.894 2715.34)">
      <g id="Grupo_1073234" data-name="Grupo 1073234" clip-path="url(#clip-path)">
        <path id="Trazado_610800" data-name="Trazado 610800" d="M71.225,71.6c-4.067,0-8.146.18-12.2-.083a3.671,3.671,0,0,0-3.578,1.756C48.018,82.508,38.364,86.539,26.577,85a30.947,30.947,0,0,1-1.865-60.948,28.57,28.57,0,0,1,7.76-.567c.929.063,1.161-.237,1.2-1.109a22.116,22.116,0,0,1,2.107-8.3c.587-1.258,1.47-1.709,2.455-1.286s1.238,1.4.671,2.7a20.47,20.47,0,0,0,1.048,19.171c1.2,2.145.6,4.455.248,6.691a10.878,10.878,0,0,1-.911,2.712c-.315.7-.078.853.553.943a14.881,14.881,0,0,0,8.146-1.255,4.225,4.225,0,0,1,3.281-.148C65.52,48.43,80.188,36.117,77.96,21.226A20.483,20.483,0,0,0,54.25,3.76a20.95,20.95,0,0,0-4.718,1.365c-1.453.593-2.331.345-2.759-.737-.4-1.011.055-1.8,1.385-2.4,12.89-5.82,28.742,1.677,32.5,15.369,3.792,13.817-4.28,27.1-18.408,30.238-.679.151-.887.361-.841,1.067.218,3.344.2,3.346,3.571,3.346q9.254,0,18.508,0c2.7,0,4.237,1.527,4.251,4.246q.028,5.552,0,11.1a3.916,3.916,0,0,1-4.174,4.228c-4.112.043-8.225.012-12.338.013M11.858,74.189A19.489,19.489,0,0,1,19.8,61.9c.838-.589.879-.895.285-1.751A13.284,13.284,0,0,1,35.841,40.2c.366.135.995.754,1.127-.213.2-1.477.488-2.924-.387-4.383a18.66,18.66,0,0,1-2.559-7.31c-.131-1.041-.536-1.383-1.54-1.425A27.568,27.568,0,0,0,3.918,59.533a26.564,26.564,0,0,0,7.94,14.655m19.769,7.729A27.023,27.023,0,0,0,45.943,77.54a1.663,1.663,0,0,0,.88-1.9A16.32,16.32,0,0,0,39.3,64.089a1.459,1.459,0,0,0-1.722-.033,12.908,12.908,0,0,1-13.16.037,1.56,1.56,0,0,0-1.842.035,16.229,16.229,0,0,0-7.465,11.578,1.569,1.569,0,0,0,.823,1.794,28.211,28.211,0,0,0,15.7,4.418M53.889,61.78a23.745,23.745,0,0,0,1.982,1.309c1.642.857,2.656,2.011,2.287,4.021-.185,1.005.517,1.067,1.28,1.066,7.851-.011,15.7-.023,23.554.012,1.042,0,1.338-.374,1.326-1.358-.04-3.332-.062-6.665.009-10,.027-1.251-.461-1.523-1.612-1.516-7.668.042-15.337.053-23.006-.009-1.325-.011-1.739.452-1.564,1.662a2.791,2.791,0,0,1-1.683,3.11c-.838.445-1.594,1.045-2.574,1.7M31.294,42.7a11.528,11.528,0,0,0-4.078.771,9.844,9.844,0,1,0,13.121,6.041c-.216-.656-.477-1.079-1.293-1.121a15.565,15.565,0,0,1-2.823-.5,1.74,1.74,0,0,1-1.431-2.429c.7-1.847.675-1.939-1.274-2.412-.836-.2-1.706-.27-2.222-.348M50.067,74.141a19.331,19.331,0,0,0,4.44-5.566,1.941,1.941,0,0,0-.8-2.8c-1.233-.683-2.381-1.525-3.545-2.328-1.537-1.06-1.522-2.289.037-3.356,1.13-.773,2.261-1.547,3.433-2.253A1.949,1.949,0,0,0,54.7,55.974a3.658,3.658,0,0,1,2.64-3.754c.929-.286,1.156-.649.923-1.51a11.913,11.913,0,0,1-.234-1.486A1.215,1.215,0,0,0,56.612,48a19.89,19.89,0,0,1-6.051-.983,1.739,1.739,0,0,0-1.314-.031,18.65,18.65,0,0,1-4.717,1.352c-.672.108-.878.254-.7,1.029a12.971,12.971,0,0,1-2.169,11.039c-.416.563-.45.839.174,1.266a19.706,19.706,0,0,1,8.235,12.467" transform="translate(0 0)" fill="#376460"/>
        <path id="Trazado_610801" data-name="Trazado 610801" d="M167.366,40.567a51.206,51.206,0,0,0,1.979-4.794,14.73,14.73,0,0,1,.83-1.719,3.8,3.8,0,0,1,4.154-1.948,4.3,4.3,0,0,1,3.506,3.716,6.114,6.114,0,0,1,.028.684c.011,1.05-.325,2.287.118,3.1.507.934,1.9.306,2.887.547a5.726,5.726,0,0,1,4.312,5.105,23.575,23.575,0,0,1-.157,6.413A7.565,7.565,0,0,1,177.94,58c-3.495.148-7.028.515-10.479-.5a.954.954,0,0,0-.906.09c-2.532,1.811-5.381.918-8.077.754-1.427-.087-2.146-1.505-2.158-2.955-.041-4.522-.072-9.045.015-13.565.039-2.043,1.306-3.083,3.4-3.116,1.1-.017,2.192,0,3.289,0,2.6,0,2.6,0,4.347,1.859m.069,8.531a31.514,31.514,0,0,1-.027,3.42c-.131,1.2.456,1.62,1.47,1.841a33.3,33.3,0,0,0,9.129.234,4.249,4.249,0,0,0,3.725-4.389q.04-2.121,0-4.244a2.308,2.308,0,0,0-2.559-2.522c-.821-.021-1.643,0-2.464-.007-1.757-.02-2.248-.514-2.268-2.313-.015-1.369.005-2.738-.009-4.107-.006-.578.121-1.313-.664-1.454-.812-.146-.892.667-1.1,1.161-.568,1.34-1.049,2.718-1.575,4.076-.4,1.033-.84,2.24-1.864,2.606-2.005.716-1.9,2.187-1.8,3.782.039.636.007,1.277.007,1.916m-7.668-.558v3.694c0,3.031,0,2.995,3.019,2.977.909-.005,1.165-.288,1.151-1.175-.048-2.963-.018-5.928-.018-8.892,0-3.19,0-3.163-3.159-3.085-.768.019-1.029.229-1.009,1.009.049,1.823.016,3.648.015,5.472" transform="translate(-113.422 -23.231)" fill="#376460"/>
        <path id="Trazado_610802" data-name="Trazado 610802" d="M148.808,26.747a1.688,1.688,0,0,1-1.677-1.783,1.614,1.614,0,0,1,1.707-1.6,1.638,1.638,0,0,1,1.672,1.765,1.7,1.7,0,0,1-1.7,1.621" transform="translate(-106.778 -16.954)" fill="#376460"/>
        <path id="Trazado_610803" data-name="Trazado 610803" d="M285.229,220.709a1.7,1.7,0,0,1-1.713,1.732,1.661,1.661,0,0,1-1.645-1.792,1.621,1.621,0,0,1,1.643-1.662,1.655,1.655,0,0,1,1.716,1.721" transform="translate(-204.572 -158.929)" fill="#376460"/>
        <path id="Trazado_610804" data-name="Trazado 610804" d="M229,220.693a1.668,1.668,0,0,1-1.721,1.724,1.726,1.726,0,0,1-.012-3.448A1.688,1.688,0,0,1,229,220.693" transform="translate(-163.759 -158.914)" fill="#376460"/>
        <path id="Trazado_610805" data-name="Trazado 610805" d="M255.252,222.449a1.625,1.625,0,0,1-1.457-1.844,1.583,1.583,0,0,1,1.68-1.6,1.65,1.65,0,0,1,1.656,1.777,1.716,1.716,0,0,1-1.879,1.67" transform="translate(-184.194 -158.942)" fill="#376460"/>
      </g>
    </g>
  </g>
</svg>
