<svg xmlns="http://www.w3.org/2000/svg" xmlns:xlink="http://www.w3.org/1999/xlink" width="118.533" height="116.604" viewBox="0 0 118.533 116.604">
  <defs>
    <clipPath id="clip-path">
      <rect id="Rectángulo_378565" data-name="Rectángulo 378565" width="71.568" height="66.964" fill="#fff"/>
    </clipPath>
  </defs>
  <g id="Grupo_1073302" data-name="Grupo 1073302" transform="translate(-1161 -1993.396)">
    <g id="Grupo_1073080" data-name="Grupo 1073080" transform="translate(420 -3696)">
      <g id="Grupo_1072769" data-name="Grupo 1072769" transform="translate(742 5689.396)">
        <g id="Grupo_1072753" data-name="Grupo 1072753" transform="translate(0 0)">
          <path id="Trazado_608385" data-name="Trazado 608385" d="M58.3,0A58.3,58.3,0,1,1,0,58.3,58.3,58.3,0,0,1,58.3,0Z" transform="translate(0 0)" fill="#ac064c"/>
        </g>
        <g id="Grupo_1072754" data-name="Grupo 1072754" transform="translate(0 105.438)">
          <line id="Línea_2906" data-name="Línea 2906" x1="30.507" transform="translate(13.264)" fill="none" stroke="#fff" stroke-linecap="round" stroke-linejoin="round" stroke-width="2"/>
          <line id="Línea_2907" data-name="Línea 2907" x2="29.18" transform="translate(0 5.305)" fill="none" stroke="#fff" stroke-linecap="round" stroke-linejoin="round" stroke-width="2"/>
          <line id="Línea_2908" data-name="Línea 2908" x2="1.326" transform="translate(33.823 5.305)" fill="none" stroke="#fff" stroke-linecap="round" stroke-linejoin="round" stroke-width="2"/>
        </g>
        <g id="Grupo_1072755" data-name="Grupo 1072755" transform="translate(72.762 13.088)">
          <line id="Línea_2906-2" data-name="Línea 2906" x1="30.507" transform="translate(13.264)" fill="none" stroke="#fff" stroke-linecap="round" stroke-linejoin="round" stroke-width="2"/>
          <line id="Línea_2907-2" data-name="Línea 2907" x2="29.18" transform="translate(0 5.305)" fill="none" stroke="#fff" stroke-linecap="round" stroke-linejoin="round" stroke-width="2"/>
          <line id="Línea_2908-2" data-name="Línea 2908" x2="1.326" transform="translate(33.823 5.305)" fill="none" stroke="#fff" stroke-linecap="round" stroke-linejoin="round" stroke-width="2"/>
        </g>
      </g>
    </g>
    <g id="Grupo_1073243" data-name="Grupo 1073243" transform="translate(1184.519 2018.217)">
      <g id="Grupo_1073242" data-name="Grupo 1073242" clip-path="url(#clip-path)">
        <path id="Trazado_610825" data-name="Trazado 610825" d="M120.212,109.714H102.638a2.185,2.185,0,0,1-.658-.06,1,1,0,0,1-.7-.988.927.927,0,0,1,.764-.918,2.308,2.308,0,0,1,.515-.052q17.488,0,34.976,0a2.638,2.638,0,0,0,.831-.03,1.52,1.52,0,0,0,1.094-1.58c-.052-3.577-.009-7.153-.022-10.73q-.011-3.043-.009-6.086c0-.175-.056-.2-.212-.21-1.664-.063-3.328-.024-4.992-.038-.211,0-.289.067-.284.283.012.538.016,1.077,0,1.615a1.974,1.974,0,0,1-1.955,2.014c-.97.037-1.943.036-2.912-.006a1.941,1.941,0,0,1-1.875-1.9c-.031-.576-.026-1.153-.027-1.73,0-.162-.023-.236-.217-.239-5.011-.077-10.023-.02-15.034-.027-.308,0-.615.027-.923.022-.2,0-.233.069-.234.256a9.4,9.4,0,0,1-.084,2.068,1.89,1.89,0,0,1-1.769,1.55,28.583,28.583,0,0,1-3.085,0,1.92,1.92,0,0,1-1.791-1.793c-.079-1.1-.027-2.211-.031-3.316,0-.9-.037-1.808.022-2.711a2.032,2.032,0,0,1,2-1.92c.279-.006.341-.082.34-.355q-.016-5.813,0-11.625c0-.274-.075-.329-.335-.328-3.088.009-6.175.006-9.263.006-.154,0-.308.009-.462.006s-.219.074-.219.23c0,.4-.011.808-.011,1.212q0,5.25,0,10.5c0,.154,0,.308-.009.461a1,1,0,0,1-.951.917,1.04,1.04,0,0,1-1-.8,2.892,2.892,0,0,1-.049-.573q0-5.582,0-11.164a4.883,4.883,0,0,1,.071-.976,2.175,2.175,0,0,1,2.293-1.815c1.972-.007,3.944,0,5.916,0,.413,0,.827-.016,1.24,0,.2.007.237-.065.236-.248-.008-1.308-.005-2.616-.006-3.923a9.15,9.15,0,0,1,.184-2.006,5.334,5.334,0,0,1,3.011-3.749,5.461,5.461,0,0,1,2.463-.512q9.48-.017,18.96,0a5.437,5.437,0,0,1,5.417,3.831,4.782,4.782,0,0,1,.252,1.615c0,1.558.005,3.115-.006,4.673,0,.246.046.326.312.325,2.241-.008,4.483,0,6.724.009a6.269,6.269,0,0,1,.921.05,2.163,2.163,0,0,1,1.806,2.264c.013.971,0,1.942,0,2.914q0,5.6,0,11.191a1.812,1.812,0,0,1-.412,1.2c-.563.695-1.079,1.43-1.678,2.091a1.425,1.425,0,0,0-.371,1.076q.024,7.6.016,15.2a15.92,15.92,0,0,1-.026,1.7,3.392,3.392,0,0,1-1.991,2.8,3.459,3.459,0,0,1-1.592.338q-8.8-.006-17.6,0Zm-1.233-38.832v-.007q-5.15,0-10.3-.006c-.255,0-.321.056-.32.314q.015,5.869,0,11.737c0,.231.083.265.285.268a1.965,1.965,0,0,1,2.051,1.689,7.793,7.793,0,0,1,.069,1.9c-.008.245.067.3.286.288.249-.015.5-.007.75-.007q7.545,0,15.089,0c.229,0,.3-.053.291-.287-.014-.509.015-1.019.009-1.528a2.055,2.055,0,0,1,2.026-2.046c.294.01.337-.1.337-.361q-.014-5.84,0-11.68c0-.208-.047-.28-.272-.279q-5.15.011-10.3.005m22.808,7.313c0-2.337,0-4.673.005-7.009,0-.232-.047-.307-.3-.306q-4.819.013-9.638,0c-.227,0-.238.091-.238.27q0,5.9-.009,11.8c0,.17.034.243.22.236a2.1,2.1,0,0,1,2.123,2.2c-.014.461.025.924,0,1.384-.012.235.043.286.274.286q3.03,0,6.059.024a.381.381,0,0,0,.338-.168c.24-.312.474-.632.737-.923a1.672,1.672,0,0,0,.436-1.246c-.036-2.182-.016-4.365-.016-6.548M119.015,60.447v-.006h-9.695a3.66,3.66,0,0,0-.972.106,3.41,3.41,0,0,0-2.483,3.207c.012,1.644,0,3.288-.005,4.932,0,.194.1.192.233.191,1.019,0,2.039,0,3.058,0,.2,0,.264-.045.262-.256-.008-.865,0-1.73.01-2.6a1.948,1.948,0,0,1,.181-.895,2.245,2.245,0,0,1,2.172-1.289c4.8,0,9.6.017,14.4-.009a2.3,2.3,0,0,1,2.4,2.123,17.992,17.992,0,0,1,.04,2.65c0,.224.058.271.272.269.981-.01,1.962-.011,2.943.006.224,0,.268-.058.267-.269-.009-1.5,0-3,0-4.5a4.169,4.169,0,0,0-.015-.863,3.5,3.5,0,0,0-3.394-2.817c-3.222.032-6.444.01-9.666.01m-.057,8.429c2.441.02,4.883-.03,7.324.037.222.006.275-.057.272-.271-.012-.788,0-1.576-.005-2.364,0-.416,0-.419-.428-.419q-7.21,0-14.42,0c-.264,0-.322.09-.318.334.015.8.022,1.6,0,2.392-.006.254.07.3.3.3,2.422-.008,4.845-.005,7.267-.005M108.723,88.053h0c0-.893,0-1.786,0-2.678,0-.114.012-.211-.152-.209q-1.2.013-2.391.015c-.138,0-.182.047-.182.183q0,2.693,0,5.386c0,.166.062.213.221.211q1.109-.012,2.218-.005c.205,0,.289-.064.287-.282-.01-.873,0-1.747,0-2.62m20.481,0H129.2c0,.884,0,1.768,0,2.653,0,.143-.015.263.2.259.769-.013,1.538-.014,2.307-.011.163,0,.217-.056.216-.218q-.008-2.682,0-5.363c0-.143-.037-.2-.2-.2-.75.01-1.5.015-2.249,0-.23,0-.267.082-.265.285.01.865,0,1.73,0,2.595" transform="translate(-72.302 -44.909)" fill="#fff"/>
        <path id="Trazado_610826" data-name="Trazado 610826" d="M33.266.07c1.568,0,3.135,0,4.7,0,.821,0,1.157.32,1.2,1.141.066,1.161.105,2.324.176,3.485.123,2.024.1,4.054.259,6.077a.974.974,0,0,1-.525,1.035.937.937,0,0,1-1.163-.179q-1.128-1.052-2.223-2.141c-.137-.136-.188-.146-.325-.01q-4.6,4.6-9.211,9.191a3.639,3.639,0,0,1-1.418.958,2.355,2.355,0,0,1-1.39,0q-2.432-.652-4.866-1.3c-1.67-.441-3.353-.834-5.005-1.333a.967.967,0,0,0-1.145.31c-2.167,2.2-4.363,4.369-6.534,6.563a1.922,1.922,0,0,1-1.917.559,1.771,1.771,0,0,1-.845-.528C2.219,23.084,1.4,22.274.6,21.443a1.76,1.76,0,0,1,.019-2.659q2-2.021,4.012-4.024C6.253,13.135,7.887,11.519,9.5,9.886a2.589,2.589,0,0,1,2.757-.728c1.892.537,3.8,1.016,5.7,1.535,1.481.4,2.959.817,4.448,1.192a.407.407,0,0,0,.453-.113q2.911-2.923,5.833-5.836c.5-.5.99-1,1.5-1.479.16-.152.035-.21-.048-.291q-1.027-.992-2.057-1.981a7.187,7.187,0,0,1-.525-.534A.851.851,0,0,1,27.331.7a1.034,1.034,0,0,1,.915-.688C28.629-.011,29.014,0,29.4,0h3.867V.07M30.88,2.146c.421.4.831.793,1.239,1.186.772.744.775,1.2.013,1.959Q30.539,6.88,28.945,8.468q-2.438,2.437-4.873,4.876a1.86,1.86,0,0,1-2.028.51c-.638-.206-1.29-.37-1.939-.542-1.678-.444-3.363-.863-5.035-1.33-1.127-.315-2.274-.557-3.385-.93a.649.649,0,0,0-.745.209c-.571.6-1.162,1.176-1.747,1.761q-3.457,3.457-6.918,6.91c-.162.161-.163.251,0,.409.659.632,1.312,1.271,1.951,1.923.165.169.249.123.386-.014Q6.937,19.921,9.267,17.6c.715-.713,1.433-1.422,2.145-2.138a1.866,1.866,0,0,1,1.969-.549c1,.29,2.017.55,3.029.812q3.608.934,7.2,1.919a1,1,0,0,0,1.1-.321c.974-1,1.959-1.984,2.945-2.97q2.886-2.885,5.779-5.764c.456-.454.9-.92,1.384-1.346a.983.983,0,0,1,1.4.046c.345.32.681.651,1.023.975.057.053.1.174.2.119.082-.045.059-.155.054-.241-.046-.892-.09-1.785-.142-2.676-.06-1.026-.139-2.051-.185-3.078-.011-.237-.063-.3-.3-.3-1.923.009-3.847,0-5.77.006a.25.25,0,0,0-.218.053" transform="translate(0.001 0.001)" fill="#fff"/>
        <path id="Trazado_610827" data-name="Trazado 610827" d="M19.977,162.773a1.615,1.615,0,0,1,1.08.344c.171.124.344.247.506.382a2.1,2.1,0,0,0,3.366-1.356,1.589,1.589,0,0,0,.021-.287,1.913,1.913,0,0,1,1.756-1.908,29.151,29.151,0,0,1,3.141,0,1.937,1.937,0,0,1,1.7,1.811,1.962,1.962,0,0,0,1.184,1.95,2,2,0,0,0,2.033-.095c.224-.148.427-.327.648-.481a1.711,1.711,0,0,1,2.295.1c.337.285.638.612.951.924.4.4.812.794,1.194,1.212a1.771,1.771,0,0,1,.135,2.415c-.084.117-.177.227-.271.337a2.1,2.1,0,0,0,1.371,3.455,2.418,2.418,0,0,1,1.4.438,1.76,1.76,0,0,1,.691,1.311c.045,1.008.039,2.018.009,3.027a1.884,1.884,0,0,1-.942,1.591,2.113,2.113,0,0,1-1.024.25,2.108,2.108,0,0,0-1.447,3.543,2.333,2.333,0,0,1,.586,1.106,1.8,1.8,0,0,1-.53,1.609c-.649.683-1.324,1.341-2,2a1.92,1.92,0,0,1-2.742-.036,2.056,2.056,0,0,0-3.011.132,1.819,1.819,0,0,0-.529,1.333,1.955,1.955,0,0,1-2.031,1.981c-.856.007-1.712.012-2.568,0a2.084,2.084,0,0,1-1.353-.493,1.888,1.888,0,0,1-.652-1.477,2.058,2.058,0,0,0-1.481-1.957,1.986,1.986,0,0,0-2.058.473,2.022,2.022,0,0,1-1.769.566,1.477,1.477,0,0,1-.772-.361,24.663,24.663,0,0,1-2.229-2.213,1.811,1.811,0,0,1-.016-2.536c.084-.1.168-.21.25-.317a1.934,1.934,0,0,0,.216-2.141,2.042,2.042,0,0,0-1.765-1.208,2.525,2.525,0,0,1-.978-.21,1.909,1.909,0,0,1-1.05-1.648,20.548,20.548,0,0,1-.006-2.882,1.974,1.974,0,0,1,1.014-1.645,1.917,1.917,0,0,1,.911-.223,2.131,2.131,0,0,0,2.076-1.816,2.009,2.009,0,0,0-.523-1.676,2.213,2.213,0,0,1-.625-1.237,1.718,1.718,0,0,1,.383-1.346A28.872,28.872,0,0,1,18.85,163.2a1.524,1.524,0,0,1,1.127-.423m16.524,22.2c.068-.057.13-.1.182-.153.5-.5.985-1,1.487-1.491.154-.15.155-.242.011-.417a3.819,3.819,0,0,1-.7-3.995,4.018,4.018,0,0,1,3.41-2.7c.262-.036.307-.128.3-.359-.009-.663-.01-1.327.015-1.989.009-.255-.069-.34-.316-.342a3.291,3.291,0,0,1-1.874-.664,4.05,4.05,0,0,1-.806-6.034c.125-.146.118-.226-.011-.353-.5-.492-1-.986-1.484-1.494a.261.261,0,0,0-.425-.03,4.107,4.107,0,0,1-6.727-2.86c-.011-.145-.063-.171-.192-.171-.74,0-1.481.006-2.221-.005-.2,0-.242.076-.249.254a2.9,2.9,0,0,1-.087.655,4.116,4.116,0,0,1-6.359,2.317c-.1-.075-.206-.142-.3-.22-.131-.1-.227-.083-.345.038-.482.5-.967.992-1.467,1.47-.171.163-.174.258-.022.443a3.816,3.816,0,0,1,.7,3.944,3.857,3.857,0,0,1-3.494,2.713c-.21.017-.269.1-.265.307.012.7.009,1.4,0,2.1,0,.186.057.264.241.266a3.338,3.338,0,0,1,1.484.423,4,4,0,0,1,2.2,2.871,3.876,3.876,0,0,1-.9,3.441c-.131.152-.119.235.022.37.458.439.9.894,1.35,1.342.319.318.326.327.673.06a4.082,4.082,0,0,1,6.574,2.918c.005.177.1.2.241.2.731-.006,1.462-.01,2.192-.007.151,0,.213-.027.227-.2a4.2,4.2,0,0,1,4.065-3.785,4.123,4.123,0,0,1,2.627.954c.075.058.152.112.238.175" transform="translate(-10.179 -122.908)" fill="#fff"/>
        <path id="Trazado_610828" data-name="Trazado 610828" d="M51.588,190.288a7.965,7.965,0,1,1-7.938,7.925,8,8,0,0,1,7.938-7.925m5.977,7.912c.259-2.651-2.192-5.868-5.829-5.943A5.978,5.978,0,0,0,51.2,204.2a5.94,5.94,0,0,0,4.469-1.549,5.592,5.592,0,0,0,1.892-4.449" transform="translate(-33.55 -146.257)" fill="#fff"/>
        <path id="Trazado_610829" data-name="Trazado 610829" d="M69.069,212.545a.892.892,0,0,1-.973-.938.364.364,0,0,0-.223-.356,3.966,3.966,0,0,1-1.023-.789.948.948,0,0,1-.067-1.236A.937.937,0,0,1,68.091,209a1.692,1.692,0,0,1,.3.224.91.91,0,0,0,.908.218.519.519,0,0,0,.436-.531.482.482,0,0,0-.387-.477,4.065,4.065,0,0,0-.8-.114,2.667,2.667,0,0,1-2.245-2.3,2.6,2.6,0,0,1,1.318-2.363.6.6,0,0,0,.425-.643.908.908,0,0,1,.957-.84.94.94,0,0,1,.979.861.6.6,0,0,0,.415.625,1.291,1.291,0,0,1,.8.812,1,1,0,0,1-.312,1.067,1.139,1.139,0,0,1-1.322-.068.78.78,0,0,0-1.028-.048.469.469,0,0,0-.226.493.462.462,0,0,0,.365.4,5,5,0,0,0,.6.081,2.674,2.674,0,0,1,2.465,2.338,2.337,2.337,0,0,1-.995,2.147.909.909,0,0,1-.19.129.8.8,0,0,0-.573.828c.007.4-.462.7-.914.7" transform="translate(-50.957 -155.394)" fill="#fff"/>
      </g>
    </g>
  </g>
</svg>
