<svg xmlns="http://www.w3.org/2000/svg" xmlns:xlink="http://www.w3.org/1999/xlink" width="148.416" height="146" viewBox="0 0 148.416 146">
  <defs>
    <clipPath id="clip-path">
      <rect id="Rectángulo_378572" data-name="Rectángulo 378572" width="87.65" height="87.445" fill="#376460"/>
    </clipPath>
  </defs>
  <g id="Grupo_1073305" data-name="Grupo 1073305" transform="translate(-725.75 -3347.004)">
    <g id="Grupo_1073093" data-name="Grupo 1073093" transform="translate(458 2389.004)">
      <path id="Trazado_608969" data-name="Trazado 608969" d="M73,0A73,73,0,1,1,0,73,73,73,0,0,1,73,0Z" transform="translate(269 958)" fill="#e7ffdd"/>
    </g>
    <g id="Grupo_1073096" data-name="Grupo 1073096" transform="translate(727 3477.801)">
      <line id="Línea_2906" data-name="Línea 2906" x1="30.608" transform="translate(13.308)" fill="none" stroke="#376460" stroke-linecap="round" stroke-linejoin="round" stroke-width="2.5"/>
      <line id="Línea_2907" data-name="Línea 2907" x2="29.277" transform="translate(0 5.323)" fill="none" stroke="#376460" stroke-linecap="round" stroke-linejoin="round" stroke-width="2.5"/>
      <line id="Línea_2908" data-name="Línea 2908" x2="1.33" transform="translate(33.935 5.323)" fill="none" stroke="#376460" stroke-linecap="round" stroke-linejoin="round" stroke-width="2.5"/>
    </g>
    <g id="Grupo_1073099" data-name="Grupo 1073099" transform="translate(829 3361.142)">
      <line id="Línea_2906-2" data-name="Línea 2906" x1="30.608" transform="translate(13.308 0)" fill="none" stroke="#376460" stroke-linecap="round" stroke-linejoin="round" stroke-width="2.5"/>
      <line id="Línea_2907-2" data-name="Línea 2907" x2="29.277" transform="translate(0 5.323)" fill="none" stroke="#376460" stroke-linecap="round" stroke-linejoin="round" stroke-width="2.5"/>
      <line id="Línea_2908-2" data-name="Línea 2908" x2="1.33" transform="translate(33.935 5.323)" fill="none" stroke="#376460" stroke-linecap="round" stroke-linejoin="round" stroke-width="2.5"/>
    </g>
    <g id="Grupo_1073253" data-name="Grupo 1073253" transform="translate(756.175 3376.281)">
      <g id="Grupo_1073252" data-name="Grupo 1073252" clip-path="url(#clip-path)">
        <path id="Trazado_610831" data-name="Trazado 610831" d="M43.865,80.06c-12.221,0-24.442-.029-36.662.039-1.443.008-1.679-.424-1.675-1.743q.072-21.136.016-42.272c0-.5.314-1.274-.305-1.449a6.375,6.375,0,0,0-2.3-.01c-.419.042-.313.5-.317.8-.015,1.14-.068,2.284.008,3.419s-.645.972-1.323.961C.7,39.793.025,39.99.06,38.921c.066-2.05.039-4.1.008-6.155-.01-.66.237-.879.877-.862,1.23.032,2.463-.025,3.693.019.716.026.953-.224.932-.939-.045-1.549.04-3.1-.033-4.65-.044-.95.252-1.247,1.215-1.241,5.061.032,10.123-.03,15.184.009,1.055.008,1.269-.3,1.417-1.354.286-2.028-.794-3.157-2.193-4.161a1.611,1.611,0,0,1-.594-2.356,60.957,60.957,0,0,0,2.357-5.667,1.344,1.344,0,0,1,1.71-1.062c.089.016.187-.014.273.009,2.556.707,4.051-.858,5.538-2.526.518-.581.341-1.194.323-1.8-.086-3-.1-3,2.67-4.146,1.47-.611,2.956-1.187,4.406-1.843.694-.314,1.2-.281,1.614.39.07.115.2.2.264.312,1.294,2.379,3.484,2.4,5.768,2.22.974-.077,1.3-.923,1.841-1.488C49.02-.153,49-.172,51.228.764c1.594.668,3.17,1.389,4.8,1.969a1.261,1.261,0,0,1,.995,1.618c-.025.133.018.281-.018.409-.72,2.583.967,4.026,2.6,5.49.713.64,1.576.266,2.361.264,2.362-.007,2.362-.037,3.275,2.149.7,1.679,1.388,3.364,2.117,5.031a1.056,1.056,0,0,1-.327,1.5c-.691.516-1.285,1.161-1.948,1.717a1.732,1.732,0,0,0-.648,1.414c-.066,2.763-.085,2.764,2.691,2.769,4.56.008,9.12.055,13.679-.006,1.176-.016,1.474.37,1.405,1.474-.091,1.453.018,2.918-.038,4.375-.03.8.268,1.027,1.022.99,1.046-.051,2.1.062,3.144-.032,1.1-.1,1.357.314,1.352,1.372-.04,9.257-.023,18.514-.023,27.77,0,2.782-.056,5.565.028,8.344.033,1.1-.486,1.11-1.308,1.128-.882.019-1.284-.135-1.28-1.168.036-11.081.023-22.162.022-33.242a1.754,1.754,0,0,0-2.648-1.508c-.438.23-.282.63-.284.962-.015,2.371-.008,4.742-.008,7.114,0,11.947-.018,23.894.027,35.842,0,1.215-.262,1.593-1.546,1.587-12.266-.053-24.533-.031-36.8-.031M79.637,52.712c0-7.891-.016-15.782.02-23.673,0-.98-.2-1.33-1.27-1.327-9.031.027-18.062-.023-27.093-.025-3.931,0-6.112,2.174-6.115,6.086-.011,14.14.006,28.28-.025,42.419,0,1.043.238,1.388,1.347,1.383q15.873-.065,31.746,0c1.177.005,1.42-.366,1.414-1.467-.045-7.8-.024-15.6-.024-23.4M8.1,52.576c0,7.845.021,15.691-.024,23.535-.007,1.1.238,1.472,1.414,1.467q15.8-.071,31.609,0c1.239.007,1.492-.354,1.489-1.525-.04-14-.023-28.005-.028-42.008,0-4.277-2.1-6.368-6.392-6.363-8.894.01-17.788.057-26.682.027-1.167,0-1.418.359-1.411,1.466.047,7.8.025,15.6.025,23.4M58.553,25.011v.058h.137c3.207.012,3.192.012,3.221-3.171.006-.69-.334-1.568.471-2,2.494-1.349,2.107-3.156.931-5.144a4.455,4.455,0,0,1-.351-.887c-.178-.54-.471-.868-1.1-.706-2.17.559-3.74-.328-5.05-2.006a18.456,18.456,0,0,0-2.022-2.035,1.751,1.751,0,0,1-.546-1.323c-.048-.986.647-2.183-.047-2.887-.678-.687-1.867-.868-2.831-1.273-.293-.123-.595-.233-.874-.383-.556-.3-1.048-.3-1.395.293-1.149,1.962-2.929,2.314-5.01,2.074a20.406,20.406,0,0,0-2.87-.011A1.49,1.49,0,0,1,40.025,5.1C37.961,3,37.952,3.005,35.141,4.15a4.206,4.206,0,0,1-.755.307c-.976.186-1.234.741-1.013,1.675a3.622,3.622,0,0,1-1.452,4.049,23.626,23.626,0,0,0-2.528,2.494c-.365.378-.749.726-1.3.573-2.655-.74-3.751.71-4.286,2.993a2.579,2.579,0,0,1-.312.753.945.945,0,0,0,.337,1.49,4.261,4.261,0,0,1,2.018,4.759c-.048.312.017.639-.01.956-.056.644.212.9.863.884q2.393-.045,4.787-.008c.65.011.886-.21.843-.874a11.207,11.207,0,0,1,.294-3.25,11.552,11.552,0,0,1,12.052-8.827,11.674,11.674,0,0,1,10.713,10.14c.1.914-.46,2.175.346,2.657.7.421,1.859.088,2.814.088M43.812,14.655a9.074,9.074,0,0,0-8.943,9.018c0,1.014.226,1.479,1.374,1.411a8.007,8.007,0,0,1,7.105,3.058c.38.475.634.516,1.034.014a8.15,8.15,0,0,1,7.237-3.08c.981.055,1.235-.328,1.254-1.249a9.071,9.071,0,0,0-9.061-9.172" transform="translate(-0.042 0)" fill="#376460"/>
        <path id="Trazado_610832" data-name="Trazado 610832" d="M.036,176.259c0-6.612.016-13.225-.017-19.837,0-.995.037-1.559,1.327-1.551,1.265.008,1.239.619,1.238,1.515-.015,12.359.016,24.717-.045,37.075-.007,1.416.388,1.728,1.749,1.721,11.218-.056,22.437-.017,33.655-.056a2.221,2.221,0,0,1,2.254,1.136,2.047,2.047,0,0,0,2.266,1.112,9.327,9.327,0,0,1,2.049,0c1.425.152,2.6-.128,3.292-1.536.371-.759,1.082-.689,1.775-.689,11.264.006,22.528-.02,33.792.036,1.361.007,1.834-.3,1.748-1.723-.132-2.181.031-4.379-.061-6.563-.048-1.139.4-1.306,1.4-1.351,1.2-.054,1.18.56,1.173,1.413-.028,3.146-.055,6.294.013,9.439.023,1.058-.248,1.37-1.342,1.366-11.72-.041-23.44-.01-35.16-.051a2.412,2.412,0,0,0-2.489,1.211,1.94,1.94,0,0,1-2.035,1c-1.867-.067-3.741-.074-5.607,0a1.971,1.971,0,0,1-2.025-1.027,2.362,2.362,0,0,0-2.364-1.189c-11.674.041-23.349.01-35.023.05-1.184,0-1.615-.213-1.6-1.529.076-6.657.035-13.316.035-19.974" transform="translate(0 -112.486)" fill="#376460"/>
        <path id="Trazado_610833" data-name="Trazado 610833" d="M194.2,141.232c-2.733,0-5.468.053-8.2-.025-1.152-.033-1.692.213-1.537,1.482.109.9-.016,1.821.031,2.73.038.728-.255.943-.952.931-1.958-.034-3.918-.04-5.875,0-.749.016-.916-.3-.912-.969q.03-5.466,0-10.932c0-.683.206-.981.936-.968q2.937.054,5.876,0c.737-.014.951.286.926.972-.037,1,.054,2.009-.026,3s.3,1.212,1.233,1.2c5.557-.041,11.114-.021,16.671-.02,1.378,0,1.946.86,1.456,2.153-.232.612-.743.423-1.156.426-2.824.018-5.648.009-8.473.01m-14.878-1.239c0,1,.043,2-.012,3-.059,1.085.694.839,1.281.84s1.322.236,1.3-.837c-.041-2-.007-4-.016-6,0-.345.05-.694-.458-.841-1.412-.408-2.094.063-2.1,1.52q0,1.158,0,2.317" transform="translate(-128.379 -96.951)" fill="#376460"/>
        <path id="Trazado_610834" data-name="Trazado 610834" d="M185.756,176.441c1.231,0,2.462-.021,3.692.008.645.015.9-.238.892-.88-.022-1.139.022-2.28-.01-3.419-.018-.656.239-.869.881-.86q3.008.043,6.017,0c.675-.01.885.273.842.9-.031.454,0,.911,0,1.367,0,2.888,0,2.888,2.954,2.888,1.641,0,3.286.066,4.922-.022,1.128-.06,1.111.557,1.116,1.356,0,.78-.057,1.269-1.078,1.234-2.277-.078-4.559.009-6.837-.042-.819-.018-1.15.188-1.094,1.058.071,1.089-.008,2.188.024,3.281.019.644-.218.885-.87.875-2.006-.028-4.012-.031-6.017,0-.68.011-.869-.278-.853-.9.026-1-.053-2.01.02-3.007s-.195-1.363-1.269-1.322c-2.276.088-4.559-.02-6.836.049-.96.029-1.154-.353-1.1-1.192.045-.738-.128-1.478,1.057-1.392s2.369.019,3.554.016m9.7,1.289c0-1-.052-2,.014-2.991.075-1.13-.678-.929-1.338-.94s-1.259-.113-1.224.913c.065,1.947.065,3.9,0,5.846-.034.993.527.98,1.2.943.633-.035,1.436.243,1.36-.917-.062-.948-.013-1.9-.012-2.855" transform="translate(-131.564 -124.412)" fill="#376460"/>
        <path id="Trazado_610835" data-name="Trazado 610835" d="M190.608,214.254c2.872,0,5.745-.026,8.617.016.807.012,1.229-.174,1.086-1.051a1.154,1.154,0,0,1,0-.273c.1-1.256-.569-2.971.279-3.646.792-.632,2.435-.223,3.7-.224,1.176,0,2.734-.383,3.431.213.816.7.247,2.307.267,3.518.044,2.689-.014,5.38.03,8.069.014.814-.189,1.124-1.06,1.094-1.867-.065-3.739-.063-5.606,0-.867.029-1.111-.273-1.058-1.1.063-1-.044-2.01.031-3.007.069-.918-.279-1.139-1.155-1.134-5.608.036-11.215.019-16.823.018-1.41,0-1.834-.625-1.459-2.028.186-.693.709-.453,1.1-.456,2.872-.022,5.744-.012,8.617-.012m14.847,1.372c0-1.045-.043-2.093.013-3.135.048-.91-.5-.957-1.132-.876-.579.074-1.494-.405-1.5.785q0,3.067,0,6.135c0,.379.034.683.516.812,1.46.392,2.1-.055,2.1-1.539q0-1.091,0-2.181" transform="translate(-131.289 -151.762)" fill="#376460"/>
        <path id="Trazado_610836" data-name="Trazado 610836" d="M57.872,153.207c-3.874,0-7.748-.026-11.621.02-.9.011-1.157-.263-1.141-1.154a15.039,15.039,0,0,1,5.342-11.658,1.182,1.182,0,0,0,.381-1.682,12.112,12.112,0,0,1-.238-8.8,7.693,7.693,0,0,1,8.885-4.9,7.809,7.809,0,0,1,6.166,7.391c.053,2.308.314,4.669-.962,6.8-.374.623.2.811.5,1.069a15.048,15.048,0,0,1,5.529,11.575c.036,1.073-.272,1.4-1.36,1.377-3.827-.065-7.656-.025-11.485-.025m.085-2.678c2.916,0,5.835-.076,8.746.034,1.306.05,1.374-.393,1.111-1.45a12.752,12.752,0,0,0-4.349-6.924,1.165,1.165,0,0,0-1.569-.121,7.43,7.43,0,0,1-8.017.032,1.22,1.22,0,0,0-1.672.157,12.965,12.965,0,0,0-4.256,7.135c-.22.964.084,1.166.985,1.153,3.006-.042,6.014-.016,9.021-.016m5.162-16.456c0-.58.038-1.129-.006-1.672a5.267,5.267,0,0,0-5.226-4.936,5.154,5.154,0,0,0-5.228,4.89,19.777,19.777,0,0,0,.059,3.815,5.166,5.166,0,0,0,7.544,3.878c2.42-1.282,3.031-3.471,2.857-5.974" transform="translate(-32.764 -90.708)" fill="#376460"/>
        <path id="Trazado_610837" data-name="Trazado 610837" d="M98.958,245.1c.287,1.181-.36,1.293-1.345,1.328-1.068.037-1.258-.357-1.292-1.332-.04-1.145.409-1.345,1.425-1.357,1.056-.013,1.426.349,1.212,1.362" transform="translate(-69.958 -177.029)" fill="#376460"/>
        <path id="Trazado_610838" data-name="Trazado 610838" d="M80.28,245.109c.216.994-.159,1.316-1.2,1.314s-1.381-.264-1.391-1.353c-.011-1.137.421-1.317,1.423-1.342,1.1-.028,1.346.437,1.172,1.382" transform="translate(-56.424 -177.024)" fill="#376460"/>
      </g>
    </g>
  </g>
</svg>
