<svg xmlns="http://www.w3.org/2000/svg" xmlns:xlink="http://www.w3.org/1999/xlink" width="118.533" height="116.604" viewBox="0 0 118.533 116.604">
  <defs>
    <clipPath id="clip-path">
      <rect id="Rectángulo_378564" data-name="Rectángulo 378564" width="61.783" height="61.764" fill="#fff"/>
    </clipPath>
  </defs>
  <g id="Grupo_1073301" data-name="Grupo 1073301" transform="translate(-741 -1993.396)">
    <g id="Grupo_1073077" data-name="Grupo 1073077" transform="translate(0 -3696)">
      <g id="Grupo_1072769" data-name="Grupo 1072769" transform="translate(742 5689.396)">
        <g id="Grupo_1072753" data-name="Grupo 1072753" transform="translate(0 0)">
          <path id="Trazado_608385" data-name="Trazado 608385" d="M58.3,0A58.3,58.3,0,1,1,0,58.3,58.3,58.3,0,0,1,58.3,0Z" transform="translate(0 0)" fill="#ac064c"/>
        </g>
        <g id="Grupo_1072754" data-name="Grupo 1072754" transform="translate(0 105.438)">
          <line id="Línea_2906" data-name="Línea 2906" x1="30.507" transform="translate(13.264)" fill="none" stroke="#fff" stroke-linecap="round" stroke-linejoin="round" stroke-width="2"/>
          <line id="Línea_2907" data-name="Línea 2907" x2="29.18" transform="translate(0 5.305)" fill="none" stroke="#fff" stroke-linecap="round" stroke-linejoin="round" stroke-width="2"/>
          <line id="Línea_2908" data-name="Línea 2908" x2="1.326" transform="translate(33.823 5.305)" fill="none" stroke="#fff" stroke-linecap="round" stroke-linejoin="round" stroke-width="2"/>
        </g>
        <g id="Grupo_1072755" data-name="Grupo 1072755" transform="translate(72.762 13.088)">
          <line id="Línea_2906-2" data-name="Línea 2906" x1="30.507" transform="translate(13.264)" fill="none" stroke="#fff" stroke-linecap="round" stroke-linejoin="round" stroke-width="2"/>
          <line id="Línea_2907-2" data-name="Línea 2907" x2="29.18" transform="translate(0 5.305)" fill="none" stroke="#fff" stroke-linecap="round" stroke-linejoin="round" stroke-width="2"/>
          <line id="Línea_2908-2" data-name="Línea 2908" x2="1.326" transform="translate(33.823 5.305)" fill="none" stroke="#fff" stroke-linecap="round" stroke-linejoin="round" stroke-width="2"/>
        </g>
      </g>
    </g>
    <g id="Grupo_1073240" data-name="Grupo 1073240" transform="translate(769.41 2023.816)">
      <g id="Grupo_1073239" data-name="Grupo 1073239" clip-path="url(#clip-path)">
        <path id="Trazado_610815" data-name="Trazado 610815" d="M61.783,30.881q0,14.78,0,29.561a2.264,2.264,0,0,1-.013.348,1.035,1.035,0,0,1-1.1.971c-.091,0-.183,0-.274,0H12.424a9.481,9.481,0,0,1-8.013-4.018A22.154,22.154,0,0,1,.591,49.5a20.925,20.925,0,0,1-.577-5.6,22.819,22.819,0,0,1,.46-3.722A21.883,21.883,0,0,1,5.3,30.3c1.15-1.359,2.475-2.547,3.714-3.818q.7-.722,1.428-1.424c.136-.131.106-.2-.01-.314-1.406-1.4-2.8-2.807-4.212-4.206a10.85,10.85,0,0,1-2.573-3.98A10.524,10.524,0,0,1,3,13.252c-.03-.9.383-1.3,1.277-1.3q7.672,0,15.343.006c.265,0,.319-.074.318-.326q-.013-5.18-.006-10.36C19.935.4,20.331,0,21.217,0H60.5a1.89,1.89,0,0,1,.346.028A1,1,0,0,1,61.78,1.1c.006.1,0,.2,0,.3q0,14.743,0,29.486M27.612,59.769h.361q15.767,0,31.533,0c.218,0,.289-.043.289-.279q-.009-28.613,0-57.227c0-.237-.072-.278-.289-.278q-18.656.007-37.312,0c-.224,0-.27.059-.269.273q.011,4.694,0,9.389c0,.251.059.311.31.31,2.466-.011,4.932-.007,7.4-.006.875,0,1.291.412,1.261,1.289a10.6,10.6,0,0,1-.348,2.356,11.2,11.2,0,0,1-3.173,5.253c-1.33,1.287-2.621,2.615-3.932,3.921-.1.1-.114.151-.008.256,1.083,1.076,2.152,2.167,3.243,3.236a25.124,25.124,0,0,1,3.857,4.673,22.48,22.48,0,0,1,2.71,6.46,18.947,18.947,0,0,1,.572,4.179c0,.212.079.259.278.257q1.295-.016,2.59,0a1.078,1.078,0,0,1,1.191,1.189c0,.066,0,.133,0,.2v9.164c0,.747,0,1.494,0,2.241a1.026,1.026,0,0,1-.957,1.13,2.009,2.009,0,0,1-.347.021c-1.718,0-3.437-.009-5.156.006a1.39,1.39,0,0,1-1.455-.674s-.015,0-.033-.009a11.517,11.517,0,0,1-2.31,2.668m-10.64,0c1.627,0,3.255.006,4.882,0a7.239,7.239,0,0,0,5.9-2.948,20.345,20.345,0,0,0,3.393-17.739,19.433,19.433,0,0,0-4.432-7.967C25.085,29.35,23.337,27.7,21.649,26a.338.338,0,0,0-.266-.1q-4.434,0-8.867,0a.362.362,0,0,0-.284.115Q10.07,28.185,7.9,30.347a19.756,19.756,0,0,0-5.774,12,23.281,23.281,0,0,0,.06,5.065,16.72,16.72,0,0,0,.56,2.62A19.976,19.976,0,0,0,6.219,56.91a7.431,7.431,0,0,0,3.4,2.455,7.646,7.646,0,0,0,2.568.4c1.594.022,3.188.006,4.782.006m-.026-45.821H5.364c-.067,0-.133,0-.2,0-.1,0-.123.046-.107.141.042.245.06.495.116.736A8.644,8.644,0,0,0,7.517,19.08q2.112,2.114,4.224,4.227c.606.608.6.611,1.458.6.017,0,.033,0,.05,0,.133.011.178-.016.113-.164a19.288,19.288,0,0,1-.941-2.9,19.511,19.511,0,0,1-.458-3.644c-.013-.194.023-.277.247-.269.514.019,1.029.012,1.544,0,.161,0,.214.041.208.207a12.632,12.632,0,0,0,.172,2.231,15.688,15.688,0,0,0,1.358,4.426.179.179,0,0,0,.193.114q1.27,0,2.541,0a.162.162,0,0,0,.176-.1,18.857,18.857,0,0,0,1.009-2.749,16.433,16.433,0,0,0,.521-3.934c0-.155.046-.2.2-.193.523.009,1.046.011,1.569,0,.182,0,.245.038.236.231a20.185,20.185,0,0,1-.389,3.305,17.128,17.128,0,0,1-1.019,3.292c-.064.144,0,.145.109.151.879.05.879.051,1.49-.576.081-.083.162-.167.244-.249,1.4-1.4,2.825-2.787,4.2-4.215a8.114,8.114,0,0,0,2.247-4.644c.035-.258-.049-.281-.264-.28q-5.8.008-11.607,0M35.877,50.8c0-1.585,0-3.17,0-4.756,0-.162-.025-.234-.211-.229q-.822.019-1.644,0c-.193,0-.242.072-.242.247a15.567,15.567,0,0,1-.487,3.39,19.4,19.4,0,0,1-1.225,3.749,1.919,1.919,0,0,0-.182.865c.016.489.013.979,0,1.469,0,.19.041.251.243.249q1.731-.016,3.462,0c.217,0,.292-.041.29-.278-.012-1.569-.006-3.137-.006-4.706" transform="translate(0 0)" fill="#fff"/>
        <path id="Trazado_610816" data-name="Trazado 610816" d="M177.669,69.813c0,1.27,0,2.539,0,3.809a1.015,1.015,0,0,1-.869,1.126.958.958,0,0,1-.854-.31q-.572-.555-1.122-1.131c-.1-.105-.15-.133-.269-.014q-2.768,2.778-5.544,5.547-1.232,1.233-2.458,2.472a1.028,1.028,0,0,1-1.66.008q-1.529-1.534-3.057-3.07c-.094-.095-.139-.067-.217.011q-3.014,3.024-6.032,6.045a1.029,1.029,0,0,1-1.66,0l-3.715-3.715a1.035,1.035,0,0,1,0-1.663q4.184-4.178,8.364-8.36c.44-.44.883-.878,1.32-1.32a1.033,1.033,0,0,1,1.648-.012c.859.855,1.711,1.715,2.567,2.573.164.165.337.321.492.494.093.1.147.085.236,0q2.16-2.17,4.328-4.332c.131-.13.112-.2-.008-.314-.371-.357-.734-.721-1.093-1.089a1,1,0,0,1-.324-.876,1.009,1.009,0,0,1,1.083-.86c.315-.009.631,0,.946,0h6.549a2.455,2.455,0,0,1,.323.01A1.039,1.039,0,0,1,177.667,66c.006,1.27,0,2.539,0,3.809m-6.546-2.961c.7.685.728,1.185.1,1.813q-2.865,2.875-5.738,5.742a.989.989,0,0,1-1.517.012q-1.566-1.55-3.112-3.12c-.106-.108-.157-.1-.252,0-.258.27-.527.53-.79.794q-3.767,3.77-7.535,7.537c-.094.094-.121.149-.012.256.7.687,1.388,1.381,2.081,2.073.129.128.251.342.394.358.175.02.276-.229.408-.36q2.84-2.83,5.671-5.667a1.074,1.074,0,0,1,1.8,0c.985.987,1.973,1.971,2.953,2.962.109.11.165.116.272,0,.254-.273.522-.534.786-.8l7.211-7.226a1.05,1.05,0,0,1,1.685.035c.034.037.052.113.141.073,0-1.449,0-2.9,0-4.354,0-.188-.1-.17-.218-.169h-4.184c-.047,0-.1-.019-.154.037" transform="translate(-119.872 -51.87)" fill="#fff"/>
        <path id="Trazado_610817" data-name="Trazado 610817" d="M257.406,172.547q0,5.814,0,11.628a2.088,2.088,0,0,1-.013.323,1.051,1.051,0,0,1-1.2.974q-2.59,0-5.18,0c-.158,0-.316.005-.473,0a1.066,1.066,0,0,1-1.109-1.122c0-.058,0-.116,0-.174q0-11.653,0-23.307a1.978,1.978,0,0,1,.011-.3,1.03,1.03,0,0,1,1.148-1q2.814-.011,5.628,0c.789,0,1.183.427,1.184,1.245q0,5.864,0,11.728m-1.994-.027q0-5.34,0-10.68c0-.2-.021-.285-.261-.282-1.17.015-2.34.011-3.511,0-.175,0-.22.046-.22.22q.007,10.742,0,21.484c0,.179.053.218.223.217,1.162-.007,2.324-.01,3.486,0,.227,0,.284-.057.284-.284q-.011-5.34-.005-10.68" transform="translate(-199.608 -127.694)" fill="#fff"/>
        <path id="Trazado_610818" data-name="Trazado 610818" d="M207.529,208.466q0,3.835,0,7.669c0,.868-.4,1.27-1.26,1.271q-2.727,0-5.454,0a1.1,1.1,0,0,1-1.258-1.249q0-7.719,0-15.438a1.093,1.093,0,0,1,1.235-1.245q2.739,0,5.479,0c.861,0,1.257.4,1.258,1.273q0,3.859,0,7.719m-5.978-.024q0,3.36,0,6.72c0,.181.026.257.237.255,1.178-.012,2.357-.009,3.535,0,.176,0,.22-.048.219-.221q-.007-6.758,0-13.516c0-.181-.057-.217-.225-.216-1.17.007-2.34.009-3.51,0-.209,0-.258.053-.258.259.008,2.24,0,4.48,0,6.72" transform="translate(-159.695 -159.628)" fill="#fff"/>
        <path id="Trazado_610819" data-name="Trazado 610819" d="M125.681,21.927c-1.9,0-3.8,0-5.7.005-.212,0-.262-.059-.256-.262.015-.514.01-1.029,0-1.543,0-.15.036-.2.193-.2q5.79.007,11.58,0c.158,0,.194.05.192.2-.008.523-.015,1.046,0,1.568.007.216-.081.235-.257.234q-2.876-.008-5.752,0" transform="translate(-95.808 -15.949)" fill="#fff"/>
        <path id="Trazado_610820" data-name="Trazado 610820" d="M125.707,41.866c-1.909,0-3.818,0-5.727.005-.209,0-.264-.054-.258-.26.016-.489.016-.979,0-1.469-.007-.212.04-.276.268-.276q4.98.013,9.961.006c.515,0,1.029.006,1.544,0,.156,0,.2.045.194.2-.009.514-.013,1.029,0,1.543.006.2-.042.264-.255.263-1.909-.009-3.818-.005-5.727-.005" transform="translate(-95.807 -31.903)" fill="#fff"/>
        <path id="Trazado_610821" data-name="Trazado 610821" d="M191.561,20.941c0,.274-.006.548,0,.821,0,.133-.042.169-.171.168q-.821-.009-1.643,0c-.135,0-.189-.029-.187-.177q.013-.821,0-1.642c0-.143.044-.182.184-.18.547.007,1.1.008,1.642,0,.152,0,.177.059.174.19-.008.273,0,.547,0,.821" transform="translate(-151.698 -15.949)" fill="#fff"/>
        <path id="Trazado_610822" data-name="Trazado 610822" d="M190.55,41.879c-.274,0-.548,0-.821,0-.116,0-.16-.032-.159-.153q.008-.846,0-1.692c0-.123.046-.153.16-.152.556,0,1.112.005,1.667,0,.127,0,.173.032.172.166q-.01.834,0,1.667c0,.136-.047.169-.173.165-.282-.008-.564,0-.846,0" transform="translate(-151.703 -31.916)" fill="#fff"/>
        <path id="Trazado_610823" data-name="Trazado 610823" d="M37.308,164.654a11.938,11.938,0,1,1-12.215,11.382,11.943,11.943,0,0,1,12.215-11.382m-.519,21.883a9.956,9.956,0,1,0-9.735-10.443,9.915,9.915,0,0,0,9.735,10.443" transform="translate(-20.067 -131.761)" fill="#fff"/>
        <path id="Trazado_610824" data-name="Trazado 610824" d="M69.845,189.974c0,.39.022.782-.008,1.17-.021.272.08.353.33.379a2.892,2.892,0,0,1,1.962,1.059,3.068,3.068,0,0,1,.691,1.854,6.235,6.235,0,0,1-.05,1.489,2.959,2.959,0,0,1-2.545,2.47.3.3,0,0,1-.05.005c-.27-.005-.353.116-.337.39.027.488,0,.979.01,1.468,0,.137-.032.188-.178.186q-.822-.012-1.643,0c-.147,0-.18-.05-.178-.186.007-.539,0-1.079,0-1.618,0-.123-.014-.18-.164-.2a3.565,3.565,0,0,1-1.232-.363,3.072,3.072,0,0,1-1.594-2.745c-.009-.24,0-.481,0-.722,0-.105.031-.146.141-.145.572,0,1.145.005,1.718,0,.14,0,.138.077.137.174,0,.3-.006.6,0,.9a.951.951,0,0,0,.79.924c.145.027.208,0,.206-.167q-.012-1.319,0-2.639c0-.137-.042-.171-.175-.194a3.6,3.6,0,0,1-1.231-.367,3.065,3.065,0,0,1-1.583-2.751,5.858,5.858,0,0,1,.077-1.388,2.954,2.954,0,0,1,2.5-2.4c.41-.067.41-.067.41-.467,0-.456.005-.913,0-1.369,0-.152.025-.219.2-.215.539.012,1.079.009,1.618,0,.142,0,.184.041.182.182-.008.489.018.98-.011,1.468-.016.278.078.368.339.4a2.887,2.887,0,0,1,1.975,1.083,3.126,3.126,0,0,1,.673,1.887c.016.273,0,.548.012.821,0,.1-.03.147-.14.146-.573,0-1.145-.005-1.718,0-.14,0-.135-.076-.138-.173a6.2,6.2,0,0,0-.034-1.042.908.908,0,0,0-.791-.781c-.139-.027-.173.013-.171.146.006.448,0,.9,0,1.344M67.851,190c0-.448-.008-.9,0-1.344,0-.177-.073-.191-.208-.166a.94.94,0,0,0-.79.948c0,.365-.005.73,0,1.1a.945.945,0,0,0,.777.934c.15.032.227.014.221-.174-.013-.431,0-.863,0-1.294m1.994,4.943c0,.44.01.88,0,1.319-.007.2.082.214.235.18a.933.933,0,0,0,.76-.9c.013-.356.014-.714,0-1.07a.943.943,0,0,0-.763-1c-.165-.046-.238-.027-.232.172.013.431,0,.863,0,1.294" transform="translate(-51.901 -147.642)" fill="#fff"/>
      </g>
    </g>
  </g>
</svg>
