<svg xmlns="http://www.w3.org/2000/svg" xmlns:xlink="http://www.w3.org/1999/xlink" width="148.416" height="146" viewBox="0 0 148.416 146">
  <defs>
    <clipPath id="clip-path">
      <rect id="Rectángulo_378573" data-name="Rectángulo 378573" width="74.769" height="82.064" fill="#376460"/>
    </clipPath>
  </defs>
  <g id="Grupo_1073306" data-name="Grupo 1073306" transform="translate(-1145.75 -3347.004)">
    <g id="Grupo_1073094" data-name="Grupo 1073094" transform="translate(878 2389.004)">
      <path id="Trazado_608969" data-name="Trazado 608969" d="M73,0A73,73,0,1,1,0,73,73,73,0,0,1,73,0Z" transform="translate(269 958)" fill="#e7ffdd"/>
    </g>
    <g id="Grupo_1073097" data-name="Grupo 1073097" transform="translate(1147 3477.801)">
      <line id="Línea_2906" data-name="Línea 2906" x1="30.608" transform="translate(13.308)" fill="none" stroke="#376460" stroke-linecap="round" stroke-linejoin="round" stroke-width="2.5"/>
      <line id="Línea_2907" data-name="Línea 2907" x2="29.277" transform="translate(0 5.323)" fill="none" stroke="#376460" stroke-linecap="round" stroke-linejoin="round" stroke-width="2.5"/>
      <line id="Línea_2908" data-name="Línea 2908" x2="1.33" transform="translate(33.935 5.323)" fill="none" stroke="#376460" stroke-linecap="round" stroke-linejoin="round" stroke-width="2.5"/>
    </g>
    <g id="Grupo_1073100" data-name="Grupo 1073100" transform="translate(1249 3361.142)">
      <line id="Línea_2906-2" data-name="Línea 2906" x1="30.608" transform="translate(13.308 0)" fill="none" stroke="#376460" stroke-linecap="round" stroke-linejoin="round" stroke-width="2.5"/>
      <line id="Línea_2907-2" data-name="Línea 2907" x2="29.277" transform="translate(0 5.323)" fill="none" stroke="#376460" stroke-linecap="round" stroke-linejoin="round" stroke-width="2.5"/>
      <line id="Línea_2908-2" data-name="Línea 2908" x2="1.33" transform="translate(33.935 5.323)" fill="none" stroke="#376460" stroke-linecap="round" stroke-linejoin="round" stroke-width="2.5"/>
    </g>
    <g id="Grupo_1073255" data-name="Grupo 1073255" transform="translate(1182.615 3378.972)">
      <g id="Grupo_1073254" data-name="Grupo 1073254" clip-path="url(#clip-path)">
        <path id="Trazado_610839" data-name="Trazado 610839" d="M.019,39.772c0-8.2.021-16.4-.019-24.594A4.908,4.908,0,0,1,1.558,11.4q5.01-4.912,9.924-9.921A4.619,4.619,0,0,1,15.017,0C25.49.039,35.963.019,46.436.023c2.84,0,4.132,1.3,4.133,4.181q.011,21.182-.019,42.364c0,1.2.133,1.67,1.564,1.637A22.071,22.071,0,0,1,74.4,66.439,21.708,21.708,0,0,1,72.006,81c-.638,1.177-1.229,1.34-2.4.674q-2.74-1.553-5.458-3.147c-1.387-.81-1.484-1.155-.784-2.577A12.232,12.232,0,0,0,52.706,58.114c-8.914-.264-15.051,9.406-11.141,17.554.88,1.833.827,2.007-.923,3.023-1.705.989-3.4,1.991-5.119,2.961-1.234.7-1.822.532-2.493-.729a21.355,21.355,0,0,1-2.643-10.862c.036-1.093-.291-1.362-1.351-1.357-8.026.041-16.053.022-24.079.022-3.787,0-4.939-1.138-4.939-4.874q0-12.04,0-24.079m35.29,16.461c-6.539,0-12.844,0-19.149,0a9.822,9.822,0,0,1-1.542-.033,1.219,1.219,0,0,1-1.137-1.326,1.186,1.186,0,0,1,1.239-1.215c.342-.019.686-.01,1.03-.01q10.556,0,21.112.012a2.711,2.711,0,0,0,1.862-.646,20.667,20.667,0,0,1,8.2-4.121,1.183,1.183,0,0,0,1.088-1.379q-.04-21.627,0-43.254c0-1.192-.367-1.679-1.63-1.675q-15.19.055-30.381,0c-.881,0-1.2.226-1.176,1.144.056,2.4.034,4.806.013,7.209-.022,2.53-1.3,3.811-3.794,3.828-2.36.016-4.724.082-7.079-.029-1.2-.057-1.38.364-1.378,1.44q.05,23.944.024,47.888c0,1.917.142,2.066,2.035,2.067q11.715,0,23.429,0c2.507,0,2.507,0,3.254-2.308a6.256,6.256,0,0,1,.377-1.092c.542-.99.083-1.1-.806-1.1-5.063.028-10.127.014-15.19.013a9.062,9.062,0,0,1-1.029-.021,1.2,1.2,0,0,1-1.193-1.267,1.223,1.223,0,0,1,1.2-1.271,7.394,7.394,0,0,1,1.028-.023q8.3,0,16.606-.008c.484,0,1.028.18,1.384-.4.466-.758.981-1.486,1.613-2.432m.083,12.857c2.276,0,2.332.011,2.713-2.045C38.3,66,39.393,64.91,38.756,64c-.581-.827-1.835-1.181-2.792-1.742a1.762,1.762,0,0,1-.226-.121c-.637-.513-.933-.23-1.2.427A19.087,19.087,0,0,0,33.3,66.595c-.422,2.492-.4,2.5,2.093,2.5m34.221,0a12.427,12.427,0,0,1,1.41.009c.952.11,1.138-.247.982-1.163a23.592,23.592,0,0,0-.817-3.61c-.916-2.721-.911-2.723-3.331-1.337-1.791,1.025-1.788,1.024-1.179,2.968.1.325.173.66.253.992.517,2.141.516,2.141,2.683,2.141M51.278,53.275c0-.557-.027-1.115.007-1.67.037-.6-.151-.879-.8-.79a21.168,21.168,0,0,0-6.033,1.664c-.3.139-.54.326-.331.684a14.235,14.235,0,0,0,2.164,3.451c.6.552,1.685-.467,2.6-.613.084-.013.168-.032.252-.051,2.143-.5,2.143-.5,2.142-2.675m3.332-2.457c-.657-.052-.721-.023-.74.775-.026,1.11.009,2.222-.013,3.333-.011.524.161.79.72.8.38.011.756.154,1.137.172,1.127.054,2.26,1.314,3.2.624.882-.651,1.234-2,1.871-3.012.355-.563.328-.85-.335-1.134a22.587,22.587,0,0,0-5.836-1.563m14.2,8.66a17.47,17.47,0,0,0-3.785-4.248c-1.52-1.293-1.532-1.277-2.548.487-.362.629-.736,1.25-1.089,1.883-.156.279-.458.584-.022.878,1.319.89,2.12,2.891,3.423,3.057,1.219.156,2.644-1.292,4.021-2.058M40.328,61.783A3.835,3.835,0,0,0,41.6,60.366c.616-.97,2.373-1.2,2.145-2.509-.192-1.106-1.151-2.067-1.7-3.127-.3-.572-.55-.625-1.052-.238a22.6,22.6,0,0,0-2.86,2.571c-2.083,2.265-2.081,2.268.513,3.766.555.321,1.116.632,1.683.953M35.4,71.638l0,.036a9.475,9.475,0,0,1-1.283-.009c-1.034-.143-1.229.28-1.043,1.231a21.783,21.783,0,0,0,1.207,4.574c.756,1.736.385,1.69,2.037.739.852-.491,2-.792,2.476-1.528.556-.861-.465-1.857-.644-2.838-.127-.7.054-1.691-.493-2.018-.581-.347-1.489-.147-2.255-.186m36.57,1.1c.38-.927-.108-1.162-1.05-1.075a6.8,6.8,0,0,1-1.792-.007C67.7,71.405,67,71.934,67,73.395c0,1.172-1.341,2.324-.669,3.292.618.889,2.008,1.22,3.008,1.872.655.427.966.242,1.215-.4a19.638,19.638,0,0,0,1.424-5.416M12.234,5.083,5.051,12.189c1.866,0,3.92-.008,5.974,0,.685,0,1.2-.161,1.207-.967.007-2.129,0-4.259,0-6.144" transform="translate(0 -0.001)" fill="#376460"/>
        <path id="Trazado_610840" data-name="Trazado 610840" d="M186.07,256.077a4.394,4.394,0,0,1,2.338-3.569,4.145,4.145,0,0,1,4.617.075,1.473,1.473,0,0,0,1.917,0c.858-.56,1.766-1.045,2.658-1.552a1.28,1.28,0,0,1,1.975.449c.442.811,0,1.377-.708,1.79-.406.237-.8.487-1.215.717-1.3.726-2.47,1.234-2.522,3.261a4.282,4.282,0,0,1-4.742,3.886,4.8,4.8,0,0,1-4.317-5.056m4.634-1.584a2.035,2.035,0,0,0-2.045,2.026,2.088,2.088,0,0,0,2.076,2.025,2.148,2.148,0,0,0,2-1.992,2.082,2.082,0,0,0-2.035-2.059" transform="translate(-138.147 -186.171)" fill="#376460"/>
        <path id="Trazado_610841" data-name="Trazado 610841" d="M55.416,45.315c-1.863,1.713-3.428,3.169-5.017,4.6a.965.965,0,0,0-.262,1.117A3.941,3.941,0,0,1,44.5,55.448a3.6,3.6,0,0,1-2.086-3.8,1.039,1.039,0,0,0-.586-1.132,21.19,21.19,0,0,1-1.811-1.224c-1.074-.825-2.133-1.568-3.511-.594a.784.784,0,0,1-.617.114c-1.525-.557-2.092.589-2.8,1.52-1.3,1.706-2.595,3.413-3.929,5.091a1.785,1.785,0,0,0-.389,2.035,3.664,3.664,0,0,1-1.249,4.26,3.954,3.954,0,0,1-6.4-3.331A3.806,3.806,0,0,1,25.3,54.774a1.81,1.81,0,0,0,1.8-.857c1.529-2.068,3.115-4.094,4.7-6.118a1.307,1.307,0,0,0,.244-1.5A3.931,3.931,0,0,1,37.3,41.257a3.67,3.67,0,0,1,2.3,3.692,1.475,1.475,0,0,0,.843,1.54,15.309,15.309,0,0,1,1.71,1.143c.97.748,1.875,1.374,3.173.524a2.142,2.142,0,0,1,1.749-.041c1.016.447,1.577-.041,2.221-.659,1.5-1.442,3.046-2.845,4.657-4.343a2.1,2.1,0,0,0-.489-.16c-.941.027-1.857-.156-1.828-1.287.029-1.164.95-1.38,1.955-1.305,1.2.09,2.4.154,3.594.245,1.151.088,1.589.654,1.393,1.785-.19,1.1-.422,2.187-.583,3.288-.136.936-.281,1.9-1.489,1.862-1.174-.041-1.239-.973-1.087-2.226M35.673,43.442c-.75.172-1.356.547-1.335,1.418a1.341,1.341,0,0,0,2.682.04c.032-.873-.537-1.273-1.347-1.458M24.955,57.321A1.326,1.326,0,0,0,25,59.97a1.229,1.229,0,0,0,1.394-1.324c.008-.754-.438-1.277-1.438-1.324M46.37,53.262a1.194,1.194,0,0,0,1.264-1.268,1.233,1.233,0,0,0-1.35-1.36,1.315,1.315,0,1,0,.086,2.628" transform="translate(-15.675 -29.955)" fill="#376460"/>
        <path id="Trazado_610842" data-name="Trazado 610842" d="M151.893,85.3q0,6.43,0,12.861c0,1.6-.38,2-1.95,2.015-1.672.021-3.344.03-5.016-.005-1.352-.028-1.759-.447-1.761-1.809q-.016-12.99,0-25.98c0-1.436.481-1.9,1.947-1.916,1.586-.019,3.173-.016,4.759,0s2.02.468,2.023,2.1q.009,6.366,0,12.732m-2.584.2V75.347c0-2.316,0-2.251-2.28-2.327-1.124-.037-1.317.374-1.311,1.392.043,6.938.022,13.877.022,20.816,0,2.428,0,2.382,2.473,2.388.942,0,1.122-.344,1.113-1.2-.041-3.64-.018-7.281-.018-10.922" transform="translate(-106.285 -52.308)" fill="#376460"/>
        <path id="Trazado_610843" data-name="Trazado 610843" d="M69.513,101.635c0,3.562-.028,7.124.015,10.685.015,1.217-.516,1.739-1.678,1.738-1.759,0-3.519,0-5.278,0-1.16,0-1.678-.534-1.673-1.747.03-7.124.011-14.247.018-21.371,0-1.414.343-1.763,1.732-1.778q2.575-.029,5.15,0c1.393.016,1.708.348,1.712,1.789.01,3.562,0,7.124,0,10.686m-6.015-.086v7.838c0,2.1,0,2.039,2.117,2.111,1.1.037,1.346-.335,1.336-1.378-.05-5.4-.023-10.793-.023-16.19,0-2.217,0-2.163-2.248-2.216-.98-.023-1.224.279-1.2,1.226.061,2.868.022,5.739.022,8.608" transform="translate(-45.214 -66.186)" fill="#376460"/>
        <path id="Trazado_610844" data-name="Trazado 610844" d="M102.125,118.488c0-2.7-.01-5.407,0-8.11.007-1.346.41-1.752,1.776-1.771,1.716-.024,3.433,0,5.149-.006a1.532,1.532,0,0,1,1.754,1.725q0,8.239,0,16.477a1.474,1.474,0,0,1-1.636,1.691c-1.845.006-3.69.016-5.535-.007-1.043-.013-1.535-.552-1.523-1.631.029-2.789.01-5.578.01-8.367m6.1.083c0-1.67.022-3.34-.005-5.009-.044-2.722.487-2.29-2.358-2.4-1.03-.039-1.183.368-1.172,1.267.045,3.724.019,7.449.019,11.174,0,2.368,0,2.324,2.4,2.328.931,0,1.154-.336,1.132-1.2-.052-2.054-.017-4.11-.016-6.165" transform="translate(-75.815 -80.626)" fill="#376460"/>
        <path id="Trazado_610845" data-name="Trazado 610845" d="M28.2,141.362c0,1.586.01,3.173,0,4.759-.011,1.377-.353,1.737-1.759,1.761-1.714.029-3.43,0-5.144.009-1.155.006-1.75-.515-1.746-1.707q.018-4.887,0-9.774c0-1.188.578-1.712,1.745-1.7,1.715.019,3.43-.015,5.144.01,1.421.021,1.748.359,1.758,1.754.013,1.629,0,3.258,0,4.887m-2.582-.061v-1.669c0-2.389,0-2.342-2.367-2.353-.939,0-1.161.343-1.127,1.2.056,1.453.015,2.91.015,4.365,0,2.647,0,2.617,2.656,2.474.71-.038.856-.31.833-.936-.038-1.026-.01-2.054-.01-3.081" transform="translate(-14.511 -100.015)" fill="#376460"/>
        <path id="Trazado_610846" data-name="Trazado 610846" d="M24.063,210.878a10.521,10.521,0,0,1-1.285-.009,1.256,1.256,0,0,1-1.222-1.386,1.2,1.2,0,0,1,1.288-1.173c.815,0,1.629-.01,2.443,0a1.159,1.159,0,0,1,1.318,1.238,1.214,1.214,0,0,1-1.257,1.326,12.02,12.02,0,0,1-1.285.006" transform="translate(-16.001 -154.655)" fill="#376460"/>
        <path id="Trazado_610847" data-name="Trazado 610847" d="M24.03,231.911c-.385,0-.771.014-1.155,0a1.281,1.281,0,1,1,.021-2.561c.727-.026,1.455-.016,2.182-.009.868.009,1.54.291,1.533,1.3s-.685,1.278-1.554,1.275H24.03v-.007" transform="translate(-16.011 -170.265)" fill="#376460"/>
      </g>
    </g>
  </g>
</svg>
