<svg xmlns="http://www.w3.org/2000/svg" xmlns:xlink="http://www.w3.org/1999/xlink" width="148.416" height="146" viewBox="0 0 148.416 146">
  <defs>
    <clipPath id="clip-path">
      <rect id="Rectángulo_378571" data-name="Rectángulo 378571" width="86.988" height="87.004" fill="#376460"/>
    </clipPath>
  </defs>
  <g id="Grupo_1073304" data-name="Grupo 1073304" transform="translate(-305.75 -3347.004)">
    <g id="Grupo_1073092" data-name="Grupo 1073092" transform="translate(38 2389.004)">
      <path id="Trazado_608969" data-name="Trazado 608969" d="M73,0A73,73,0,1,1,0,73,73,73,0,0,1,73,0Z" transform="translate(269 958)" fill="#e7ffdd"/>
    </g>
    <g id="Grupo_1073095" data-name="Grupo 1073095" transform="translate(307 3477.801)">
      <line id="Línea_2906" data-name="Línea 2906" x1="30.608" transform="translate(13.308)" fill="none" stroke="#376460" stroke-linecap="round" stroke-linejoin="round" stroke-width="2.5"/>
      <line id="Línea_2907" data-name="Línea 2907" x2="29.277" transform="translate(0 5.323)" fill="none" stroke="#376460" stroke-linecap="round" stroke-linejoin="round" stroke-width="2.5"/>
      <line id="Línea_2908" data-name="Línea 2908" x2="1.33" transform="translate(33.935 5.323)" fill="none" stroke="#376460" stroke-linecap="round" stroke-linejoin="round" stroke-width="2.5"/>
    </g>
    <g id="Grupo_1073098" data-name="Grupo 1073098" transform="translate(409 3361.142)">
      <line id="Línea_2906-2" data-name="Línea 2906" x1="30.608" transform="translate(13.308 0)" fill="none" stroke="#376460" stroke-linecap="round" stroke-linejoin="round" stroke-width="2.5"/>
      <line id="Línea_2907-2" data-name="Línea 2907" x2="29.277" transform="translate(0 5.323)" fill="none" stroke="#376460" stroke-linecap="round" stroke-linejoin="round" stroke-width="2.5"/>
      <line id="Línea_2908-2" data-name="Línea 2908" x2="1.33" transform="translate(33.935 5.323)" fill="none" stroke="#376460" stroke-linecap="round" stroke-linejoin="round" stroke-width="2.5"/>
    </g>
    <g id="Grupo_1073251" data-name="Grupo 1073251" transform="translate(336.506 3376.988)">
      <g id="Grupo_1073250" data-name="Grupo 1073250" clip-path="url(#clip-path)">
        <path id="Trazado_610830" data-name="Trazado 610830" d="M33.419,69.692A16.652,16.652,0,0,1,37.36,58.567c.568-.682.534-1.057-.056-1.67-1.476-1.531-2.9-3.115-4.3-4.719-.482-.553-.817-.61-1.451-.187a16.791,16.791,0,0,1-16.018,1.864c-.677-.254-1.045-.2-1.378.5a25.342,25.342,0,0,1-1.715,3.076c-.45.681-.27,1.063.22,1.615a6.985,6.985,0,0,1,.8,8.431,7.313,7.313,0,0,1-7.691,3.388,7.31,7.31,0,0,1-5.7-6.476,7.2,7.2,0,0,1,4.276-7.22A5.958,5.958,0,0,1,8.578,56.7c.633.2,1.053.054,1.279-.585A1.675,1.675,0,0,1,10,55.886c.636-1.147,1.711-2.265,1.789-3.449.086-1.3-1.661-1.775-2.542-2.673a17.373,17.373,0,0,1,2.559-26.255c1-.682,1.156-1.177.589-2.226-1.008-1.867-1.907-3.8-2.743-5.748a1.628,1.628,0,0,0-1.918-1.147A6.721,6.721,0,0,1,.857,10.5a6.83,6.83,0,0,1,.794-7.765A7.177,7.177,0,0,1,11.933,1.715,7.122,7.122,0,0,1,12.549,12.1a1.557,1.557,0,0,0-.334,2.175c1.056,2,2.008,4.049,2.925,6.114.336.758.635.969,1.5.726,8.077-2.27,15.447.545,19.956,7.608.434.68.756.78,1.48.468q7.03-3.033,14.1-5.973c.648-.271.867-.531.659-1.3A15.446,15.446,0,0,1,52.7,13.61c.153-.553.043-.979-.6-1.132a3.961,3.961,0,0,1-.891-.323c-1.733-.888-3.085-1.085-4.727.662-2.12,2.257-5.975,2.158-8.537.374a7.24,7.24,0,1,1,11.189-7.54c.03.132.032.27.065.4.2.766-.408,1.862.323,2.278A20.238,20.238,0,0,0,53.56,9.875c.6.186.616-.537.818-.878a17.381,17.381,0,1,1,12.834,25.59c-2.166-.3-2.18-.3-2.925,1.757-1.964,5.437-3.9,10.886-5.89,16.312-.316.859-.187,1.278.646,1.69a14.084,14.084,0,0,1,4.64,3.69,1.109,1.109,0,0,0,1.784.26c2.126-1.457,4.3-2.854,6.487-4.212a1.447,1.447,0,0,0,.765-1.849,7.2,7.2,0,1,1,14.2-2.265,6.842,6.842,0,0,1-3.409,6.9,7.04,7.04,0,0,1-8.025-.356,1.331,1.331,0,0,0-1.876-.088q-3.254,2.212-6.6,4.295c-.7.439-.851.8-.5,1.6A17.35,17.35,0,1,1,34.7,76.145c-.35-.863-.638-1.2-1.63-.89a43.159,43.159,0,0,1-4.615,1.082c-.714.139-.932.46-.993,1.169a7.14,7.14,0,0,1-8.151,6.47A7.246,7.246,0,0,1,21,69.587a6.81,6.81,0,0,1,5.269,3.194,1.385,1.385,0,0,0,1.871.687c1.3-.377,2.628-.668,3.959-.922,1.028-.2,1.664-.569,1.334-1.772a4.229,4.229,0,0,1-.014-1.082M54.456,52.6c.944.37.991-.3,1.17-.8,2.128-5.9,4.236-11.814,6.4-17.7.264-.718.16-1.01-.506-1.355A16.67,16.67,0,0,1,54.709,26.3c-.385-.653-.7-.739-1.378-.448Q46.3,28.881,39.239,31.83c-.7.293-.967.533-.694,1.379a13.238,13.238,0,0,1,.622,3.735,17.376,17.376,0,0,1-4.024,11.794c-.352.43-.732.741-.156,1.345,1.591,1.671,3.125,3.4,4.66,5.12.357.4.633.528,1.129.18A16.861,16.861,0,0,1,54.456,52.6m4.225-25.929a10.462,10.462,0,0,1,4.549-5.059c.869-.45,1.086-.716.433-1.636a7.063,7.063,0,0,1,.757-9.073,7.221,7.221,0,0,1,12.012,7.376c-.317,1.012-1.582,1.918-1.275,2.684.336.84,1.75,1.122,2.569,1.856a12.6,12.6,0,0,1,2.822,3.9A14.427,14.427,0,0,0,59.139,7.385c-5.118,5.429-5.369,14.511-.457,19.284M27.03,41.314a10.792,10.792,0,0,1,5.65,5.729c5.051-5.411,4.6-14.5-.855-19.776a14.474,14.474,0,0,0-20.307.2c-5.271,5.32-5.63,14.52-.7,19.5a10.444,10.444,0,0,1,4.647-5.129c.781-.4,1.034-.6.384-1.5a7.142,7.142,0,0,1,1.674-9.988,7.238,7.238,0,0,1,10.034,1.59c1.988,2.659,1.83,5.832-.528,9.367M39.805,78.932a10.264,10.264,0,0,1,4.7-5.245c.793-.412.95-.6.365-1.407A7.119,7.119,0,0,1,45.937,62.7a7.209,7.209,0,0,1,10.6,9.662c-.452.626-.508.882.255,1.252a9.178,9.178,0,0,1,4.35,4.317c.493,1.018.773.96,1.36.1a14.9,14.9,0,0,0,2.517-11.073C63.9,59.513,55.745,53.735,48.39,55.287c-8.216,1.734-12.9,8.2-11.9,16.556a12.764,12.764,0,0,0,3.318,7.088m10.929-3.568c-3.639-.2-6.522,1.005-8.124,4.546-.391.865-.373,1.451.569,1.985a14.284,14.284,0,0,0,15.063.037c1.016-.579,1-1.16.582-2.072-1.6-3.475-4.433-4.677-8.09-4.5M69.669,31.856a14.535,14.535,0,0,0,7.581-2.185,1.126,1.126,0,0,0,.578-1.639,7.077,7.077,0,0,0-4.347-4.368,13.485,13.485,0,0,0-6.307-.336,6.945,6.945,0,0,0-5.792,4.692,1.13,1.13,0,0,0,.565,1.65,14.6,14.6,0,0,0,7.721,2.186m-47.8,20.338A14.83,14.83,0,0,0,29.474,49.9c.572-.368.829-.706.559-1.42a7.063,7.063,0,0,0-5.149-4.744,14.736,14.736,0,0,0-5.93-.073,7.035,7.035,0,0,0-5.381,4.475,1.265,1.265,0,0,0,.613,1.88,15.705,15.705,0,0,0,7.679,2.176M42.05,2.942a4.192,4.192,0,0,0-4.265,4.279,4.275,4.275,0,0,0,4.229,4.354,4.437,4.437,0,0,0,4.412-4.388A4.344,4.344,0,0,0,42.05,2.942M21.774,40.523a4.315,4.315,0,0,0,4.309-4.292,4.388,4.388,0,0,0-4.3-4.337,4.317,4.317,0,0,0-4.348,4.4,4.253,4.253,0,0,0,4.342,4.23M2.979,63.756A4.345,4.345,0,0,0,7.226,68.13a4.436,4.436,0,0,0,4.386-4.414,4.274,4.274,0,0,0-4.355-4.227,4.192,4.192,0,0,0-4.277,4.267m0-56.579a4.3,4.3,0,0,0,4.2,4.4,4.382,4.382,0,0,0,4.432-4.342A4.3,4.3,0,0,0,7.3,2.941,4.226,4.226,0,0,0,2.979,7.177M84.044,50.77a4.225,4.225,0,0,0-4.212-4.345,4.3,4.3,0,0,0-4.419,4.314,4.383,4.383,0,0,0,4.321,4.318,4.3,4.3,0,0,0,4.311-4.287M69.638,11.624a4.313,4.313,0,1,0,4.314,4.311,4.387,4.387,0,0,0-4.314-4.311M16.047,76.838a4.328,4.328,0,0,0,4.263,4.346,4.519,4.519,0,0,0,4.372-4.324,4.357,4.357,0,0,0-4.412-4.341,4.167,4.167,0,0,0-4.222,4.318M50.673,63.8a4.224,4.224,0,0,0-4.226,4.334,4.3,4.3,0,0,0,4.273,4.323,4.372,4.372,0,0,0,4.325-4.439A4.281,4.281,0,0,0,50.673,63.8" transform="translate(0 0)" fill="#376460"/>
      </g>
    </g>
  </g>
</svg>
