<svg xmlns="http://www.w3.org/2000/svg" xmlns:xlink="http://www.w3.org/1999/xlink" width="118.533" height="116.604" viewBox="0 0 118.533 116.604">
  <defs>
    <clipPath id="clip-path">
      <rect id="Rectángulo_378563" data-name="Rectángulo 378563" width="64.607" height="64.522" fill="#fff"/>
    </clipPath>
  </defs>
  <g id="Grupo_1073303" data-name="Grupo 1073303" transform="translate(-321 -1993.396)">
    <g id="Grupo_1073076" data-name="Grupo 1073076" transform="translate(0 -3696)">
      <g id="Grupo_1072767" data-name="Grupo 1072767" transform="translate(322 5689.396)">
        <g id="Grupo_1072753" data-name="Grupo 1072753" transform="translate(0 0)">
          <path id="Trazado_608385" data-name="Trazado 608385" d="M58.3,0A58.3,58.3,0,1,1,0,58.3,58.3,58.3,0,0,1,58.3,0Z" transform="translate(0 0)" fill="#ac064c"/>
        </g>
        <g id="Grupo_1072754" data-name="Grupo 1072754" transform="translate(0 105.438)">
          <line id="Línea_2906" data-name="Línea 2906" x1="30.507" transform="translate(13.264)" fill="none" stroke="#fff" stroke-linecap="round" stroke-linejoin="round" stroke-width="2"/>
          <line id="Línea_2907" data-name="Línea 2907" x2="29.18" transform="translate(0 5.305)" fill="none" stroke="#fff" stroke-linecap="round" stroke-linejoin="round" stroke-width="2"/>
          <line id="Línea_2908" data-name="Línea 2908" x2="1.326" transform="translate(33.823 5.305)" fill="none" stroke="#fff" stroke-linecap="round" stroke-linejoin="round" stroke-width="2"/>
        </g>
        <g id="Grupo_1072755" data-name="Grupo 1072755" transform="translate(72.762 13.088)">
          <line id="Línea_2906-2" data-name="Línea 2906" x1="30.507" transform="translate(13.264)" fill="none" stroke="#fff" stroke-linecap="round" stroke-linejoin="round" stroke-width="2"/>
          <line id="Línea_2907-2" data-name="Línea 2907" x2="29.18" transform="translate(0 5.305)" fill="none" stroke="#fff" stroke-linecap="round" stroke-linejoin="round" stroke-width="2"/>
          <line id="Línea_2908-2" data-name="Línea 2908" x2="1.326" transform="translate(33.823 5.305)" fill="none" stroke="#fff" stroke-linecap="round" stroke-linejoin="round" stroke-width="2"/>
        </g>
      </g>
    </g>
    <g id="Grupo_1073237" data-name="Grupo 1073237" transform="translate(347.696 2019.438)">
      <g id="Grupo_1073236" data-name="Grupo 1073236" clip-path="url(#clip-path)">
        <path id="Trazado_610806" data-name="Trazado 610806" d="M79.382,93.38v.351q0,11.719,0,23.437a2.04,2.04,0,0,1-.119.736,1.109,1.109,0,0,1-1,.682,1.077,1.077,0,0,1-1.005-.706,1.848,1.848,0,0,1-.113-.626q0-13.513.009-27.027a2.979,2.979,0,0,0-.208-1.136,13.843,13.843,0,0,1-.865-3.8,13.413,13.413,0,0,1,.234-4.067A14.117,14.117,0,0,1,78.7,75.756c.124-.173.243-.349.365-.524-.062-.1-.155-.054-.229-.054-.863,0-1.726.007-2.589-.006a1.208,1.208,0,0,1-1.109-.515,1.1,1.1,0,0,1,.955-1.7c.1-.01.2-.007.306-.007,1.522,0,3.044,0,4.566,0a.851.851,0,0,0,.581-.2A14.272,14.272,0,0,1,86.413,70.2a13.823,13.823,0,0,1,4.5-.592,14.426,14.426,0,0,1,3.4.508A14.2,14.2,0,0,1,99.5,72.764a.779.779,0,0,0,.528.188c1.55-.006,3.1,0,4.649,0a2.075,2.075,0,0,1,.71.113,1.069,1.069,0,0,1,.017,2,1.892,1.892,0,0,1-.681.119q-1.239,0-2.478,0a.471.471,0,0,0-.286.036,18.676,18.676,0,0,1,1.145,1.736,14.726,14.726,0,0,1,1.368,3.3,13.838,13.838,0,0,1,.519,4.286,12.977,12.977,0,0,1-.43,3.047,16.449,16.449,0,0,1-.53,1.665,2.363,2.363,0,0,0-.151.9q.007,13.514.006,27.027a2.019,2.019,0,0,1-.12.736,1.11,1.11,0,0,1-1,.678,1.082,1.082,0,0,1-.994-.684,2,2,0,0,1-.12-.708q0-11.746,0-23.492v-.324a14.581,14.581,0,0,1-22.273,0M93.769,85.2c-.64,0-1.281,0-1.921,0-.139,0-.221.009-.218.188.01.677.008,1.355,0,2.032,0,.151.037.19.192.152a3.743,3.743,0,0,1,1.653-.035,3.41,3.41,0,0,1,2.6,3.3,3.364,3.364,0,0,1-4.239,3.131c-.16-.044-.207-.032-.2.146.009.631.011,1.262,0,1.892,0,.21.075.238.261.228a9.363,9.363,0,0,0,1.908-.348,11.834,11.834,0,0,0,2.74-1.132,11.965,11.965,0,0,0,4.45-4.3,11.384,11.384,0,0,0,1.676-4.926c.022-.247-.029-.333-.3-.329-1.2.016-2.394.012-3.592.005a1.074,1.074,0,0,1-1.133-1.264,1.318,1.318,0,0,1,.238-.616,2.774,2.774,0,0,0,.425-1.222,1.1,1.1,0,0,0-.505-1.2,1.136,1.136,0,0,0-1.688,1.284,3.721,3.721,0,0,0,.472,1.237A1.12,1.12,0,0,1,95.523,85.2H93.769m-2.135-4.365c0,.64,0,1.28,0,1.92,0,.136,0,.223.186.22.677-.01,1.355-.009,2.032,0,.177,0,.194-.057.155-.213a3.268,3.268,0,0,1-.094-1.32A3.224,3.224,0,0,1,95.956,78.8a3.106,3.106,0,0,1,3.34.512,3.265,3.265,0,0,1,1.117,3.426c-.026.117-.1.237.118.236.668,0,1.336,0,2,0,.114,0,.166-.028.147-.163-.048-.339-.048-.687-.12-1.021a12.178,12.178,0,0,0-1.686-4.233,11.967,11.967,0,0,0-9.022-5.618c-.207-.023-.225.034-.225.2q.007,1.837,0,3.674a1.07,1.07,0,0,1-1.02,1.168,1.192,1.192,0,0,1-.838-.238,2.933,2.933,0,0,0-1.217-.44,1.129,1.129,0,0,0-1.257.551,1.155,1.155,0,0,0,.1,1.261,1.122,1.122,0,0,0,1.152.386,3.529,3.529,0,0,0,1.267-.461,1.123,1.123,0,0,1,1.808,1.04q0,.876,0,1.753M89.4,80.558c-.056.009-.093.012-.127.022a3.317,3.317,0,1,1-1.654-6.416,3.866,3.866,0,0,1,1.6.043c.09.019.185.066.184-.1,0-.731,0-1.462,0-2.2-.118.016-.209.035-.3.04a10.029,10.029,0,0,0-3.448.9A12,12,0,0,0,80.393,77.2a11.544,11.544,0,0,0-2.023,5.49c-.022.246.043.289.272.287,1.206-.011,2.412-.009,3.618,0A1.067,1.067,0,0,1,83.414,84a1.221,1.221,0,0,1-.244.838,2.764,2.764,0,0,0-.434,1.274,1.083,1.083,0,0,0,1.02,1.313,1.07,1.07,0,0,0,1.191-1.206,2.771,2.771,0,0,0-.433-1.361,1.254,1.254,0,0,1-.086-1.393,1.2,1.2,0,0,1,1.163-.5q1.781.005,3.562,0c.1,0,.254.066.252-.147,0-.75,0-1.5,0-2.263m0,6.774c0-.64-.006-1.28,0-1.92,0-.174-.05-.219-.219-.216-.659.009-1.318.008-1.976,0-.176,0-.224.035-.178.22A3.327,3.327,0,0,1,85.024,89.4a3.106,3.106,0,0,1-3.35-.6,3.259,3.259,0,0,1-1.051-3.371c.045-.2,0-.237-.187-.234-.612.008-1.225.01-1.837,0-.2,0-.246.049-.234.251a10.054,10.054,0,0,0,.728,3.038,12.049,12.049,0,0,0,5.56,6.35,11.135,11.135,0,0,0,4.445,1.4c.244.021.315-.026.312-.283-.015-1.2-.008-2.393-.005-3.59a1.082,1.082,0,0,1,.773-1.124,1.308,1.308,0,0,1,1.133.218,2.818,2.818,0,0,0,1.419.43,1.115,1.115,0,1,0-.006-2.23,2.8,2.8,0,0,0-1.441.445,1.227,1.227,0,0,1-1.365.087,1.142,1.142,0,0,1-.514-1.1V87.331" transform="translate(-58.215 -54.064)" fill="#fff"/>
        <path id="Trazado_610807" data-name="Trazado 610807" d="M225.753,116.864q0,5.971,0,11.942a1.178,1.178,0,0,1-.8,1.289,1.059,1.059,0,0,1-1.316-.63,2.081,2.081,0,0,1-.118-.737q0-11.9,0-23.8c0-.365,0-.365-.369-.365-1.448,0-2.9.008-4.343,0a4.09,4.09,0,0,1-2.587-.785,3.753,3.753,0,0,1-1.572-3.327,3.812,3.812,0,0,1,2.409-3.369,4.44,4.44,0,0,1,1.854-.31c1.439-.006,2.877-.009,4.315.005.256,0,.305-.074.3-.309-.017-.584-.019-1.169,0-1.753a1.2,1.2,0,0,1,.494-1.065,1.053,1.053,0,0,1,1.66.683,8.576,8.576,0,0,1-.025,2.906A2.23,2.23,0,0,1,223.305,99c-1.578,0-3.156.021-4.733-.005a1.674,1.674,0,0,0-1.619,2.318,1.588,1.588,0,0,0,1.457,1.026c.77.012,1.54,0,2.311,0,2.014,0,4.028-.021,6.042.015a2.281,2.281,0,0,0,2.341-2.342c-.042-2.56,0-5.122-.015-7.683a5.5,5.5,0,0,0-5.565-5.579,6.334,6.334,0,0,1-1.3-.051,1.086,1.086,0,0,1-.9-1.08,1.059,1.059,0,0,1,.91-1.042,6.582,6.582,0,0,1,1.969.012,7.643,7.643,0,0,1,5.858,3.54,8,8,0,0,1,1.268,4.566c0,2.4.013,4.807,0,7.21a4.5,4.5,0,0,1-2.026,3.9,5.921,5.921,0,0,1-3.274.754c-.232-.023-.269.073-.269.28q.008,6.013,0,12.025" transform="translate(-166.719 -65.635)" fill="#fff"/>
        <path id="Trazado_610808" data-name="Trazado 610808" d="M7.8,116.877q0,5.971,0,11.942a1.175,1.175,0,0,1-.767,1.282,1.051,1.051,0,0,1-1.353-.638,2.075,2.075,0,0,1-.111-.71q0-11.914.008-23.828c0-.271-.05-.372-.342-.35a6.377,6.377,0,0,1-1.5-.09,4.441,4.441,0,0,1-3.688-3.974C.016,100.076,0,99.641,0,99.206c0-2.208-.013-4.417,0-6.625a7.87,7.87,0,0,1,1.218-4.357,7.651,7.651,0,0,1,5.567-3.578,7.574,7.574,0,0,1,2.272-.055A1.044,1.044,0,0,1,10,85.658a1.07,1.07,0,0,1-.923,1.06,6.136,6.136,0,0,1-1.221.046,5.81,5.81,0,0,0-2.326.465A5.531,5.531,0,0,0,2.681,90.1a5.374,5.374,0,0,0-.446,2.245q0,3.883,0,7.766a2.164,2.164,0,0,0,2.271,2.247c2.71,0,5.42-.017,8.13.011a1.668,1.668,0,0,0,1.851-1.743,1.6,1.6,0,0,0-1.641-1.608c-1.606-.006-3.211,0-4.817,0a2.448,2.448,0,0,1-1.671-.575,2.352,2.352,0,0,1-.779-1.781c-.023-.649-.023-1.3,0-1.948a1.15,1.15,0,0,1,.584-1.1A1.109,1.109,0,0,1,7.8,94.7c.019.612.015,1.225,0,1.837-.006.217.065.257.266.256,1.485-.008,2.97-.014,4.455,0a4.149,4.149,0,0,1,2.587.785,3.77,3.77,0,0,1,1.585,3.079,3.876,3.876,0,0,1-3.47,3.878c-.37.035-.739.053-1.111.052-1.346,0-2.692,0-4.037-.006-.22,0-.275.058-.274.275q.01,6.013,0,12.025" transform="translate(0 -65.653)" fill="#fff"/>
        <path id="Trazado_610809" data-name="Trazado 610809" d="M43.395,26.549a6.68,6.68,0,0,1-6.7,6.639,6.656,6.656,0,0,1-.019-13.313,6.689,6.689,0,0,1,6.719,6.674m-2.227.017a4.462,4.462,0,0,0-8.92-.2,4.462,4.462,0,1,0,8.92.2" transform="translate(-23.341 -15.437)" fill="#fff"/>
        <path id="Trazado_610810" data-name="Trazado 610810" d="M212.992,26.526a6.68,6.68,0,0,1-6.676,6.661,6.656,6.656,0,0,1-.037-13.313,6.688,6.688,0,0,1,6.713,6.651m-11.137,0a4.46,4.46,0,1,0,4.465-4.454,4.442,4.442,0,0,0-4.465,4.454" transform="translate(-155.072 -15.437)" fill="#fff"/>
        <path id="Trazado_610811" data-name="Trazado 610811" d="M124.958,7.75l-3.435-4.8c-.249.343-.487.668-.722,1q-1.287,1.8-2.571,3.6c-.037.051-.112.1-.088.162.033.089.129.044.2.047a7.5,7.5,0,0,1,1,.029,1.111,1.111,0,0,1,1.059,1.21c.02,1.038.017,2.078,0,3.116a1.117,1.117,0,0,1-.857,1.157,1.06,1.06,0,0,1-1.246-.633,1.786,1.786,0,0,1-.123-.652c0-.594,0-1.187,0-1.781,0-.169-.041-.223-.216-.22q-.932.016-1.865,0A1.144,1.144,0,0,1,114.869,9,1.324,1.324,0,0,1,115.22,8c.421-.588.849-1.171,1.27-1.759q2.045-2.862,4.087-5.727a1.138,1.138,0,0,1,1.342-.451.965.965,0,0,1,.5.377q2.7,3.782,5.4,7.56a1.39,1.39,0,0,1,.349.942A1.142,1.142,0,0,1,126.9,9.977c-.575.008-1.151.013-1.725,0-.241-.007-.336.041-.325.31.023.583.012,1.168.006,1.753a1.15,1.15,0,0,1-.878,1.227,1.063,1.063,0,0,1-1.225-.628,1.848,1.848,0,0,1-.126-.679c0-.946,0-1.892,0-2.838a1.22,1.22,0,0,1,1.376-1.368c.3,0,.593,0,.952,0" transform="translate(-89.213 0)" fill="#fff"/>
        <path id="Trazado_610812" data-name="Trazado 610812" d="M120.431,212.149c0,.482,0,.965,0,1.447a1.2,1.2,0,0,1-1.289,1.315c-.26.007-.52,0-.779,0-.062,0-.144-.03-.182.029-.05.08.037.134.077.189q1.074,1.506,2.154,3.007c.335.467.673.932,1,1.4.093.134.133.194.259.015,1.038-1.468,2.088-2.929,3.133-4.393.046-.065.139-.133.1-.214s-.151-.031-.23-.036a6.55,6.55,0,0,1-1-.035,1.118,1.118,0,0,1-1.009-1.2c-.018-1.03-.014-2.059,0-3.089a1.116,1.116,0,1,1,2.222.021q.022.9,0,1.809c-.007.23.072.274.281.269q.89-.019,1.781,0a1.138,1.138,0,0,1,1.249,1.016,1.216,1.216,0,0,1-.278.852c-.6.847-1.207,1.69-1.811,2.535q-1.8,2.522-3.611,5.044a1.087,1.087,0,0,1-1.4.44,1.284,1.284,0,0,1-.508-.46q-2.438-3.42-4.879-6.838c-.178-.249-.367-.49-.539-.742a1.138,1.138,0,0,1-.136-1.253,1.169,1.169,0,0,1,1.094-.588c.612-.023,1.225-.013,1.837,0,.19,0,.255-.042.25-.243-.013-.6-.01-1.206,0-1.809a1.159,1.159,0,0,1,.844-1.227,1.119,1.119,0,0,1,1.379,1.182c.018.519,0,1.039,0,1.558Z" transform="translate(-89.241 -162.621)" fill="#fff"/>
        <path id="Trazado_610813" data-name="Trazado 610813" d="M57.116,200.532q0,4.9,0,9.8a1.155,1.155,0,0,1-.905,1.287,1.058,1.058,0,0,1-1.2-.631,1.793,1.793,0,0,1-.126-.651q0-9.8,0-19.595a1.169,1.169,0,0,1,.877-1.285,1.11,1.11,0,0,1,1.344,1.113c.011.11.007.222.007.334q0,4.815,0,9.631" transform="translate(-42.631 -147.129)" fill="#fff"/>
        <path id="Trazado_610814" data-name="Trazado 610814" d="M226.713,200.531q0,4.9,0,9.8a1.155,1.155,0,0,1-.905,1.287,1.058,1.058,0,0,1-1.2-.631,1.791,1.791,0,0,1-.126-.651q0-9.8,0-19.595a1.169,1.169,0,0,1,.878-1.285,1.11,1.11,0,0,1,1.344,1.113c.011.11.007.222.007.334q0,4.815,0,9.631" transform="translate(-174.362 -147.128)" fill="#fff"/>
      </g>
    </g>
  </g>
</svg>
