<svg id="Grupo_1073313" data-name="Grupo 1073313" xmlns="http://www.w3.org/2000/svg" xmlns:xlink="http://www.w3.org/1999/xlink" width="295.001" height="286.302" viewBox="0 0 295.001 286.302">
  <defs>
    <clipPath id="clip-path">
      <rect id="Rectángulo_378615" data-name="Rectángulo 378615" width="295.001" height="286.302" fill="none"/>
    </clipPath>
  </defs>
  <g id="Grupo_1073312" data-name="Grupo 1073312" clip-path="url(#clip-path)">
    <path id="Trazado_610898" data-name="Trazado 610898" d="M264.965,403.735H6.074c-3.354,0-6.074-4.385-6.074-9.793s2.719-9.793,6.074-9.793H264.965c3.354,0,6.074,4.384,6.074,9.793s-2.719,9.793-6.074,9.793" transform="translate(0 -119.353)" fill="#7be2d8"/>
    <path id="Trazado_610899" data-name="Trazado 610899" d="M270.144,168.479c-.11-.066-.22-.131-.332-.2-7.855-4.573-17.112-6.334-26.038-8.536-8.29-2.045-17.6-4.794-23.968-10.837-7.739-7.344-6.66-17.461-3.684-26.659,3.123-9.652,6.072-19.371,4.69-29.62a57.256,57.256,0,0,0-15.185-31.71c-12.963-13.595-33.045-20.8-52.284-18.762C127.527,44.9,106.324,62.7,90.228,81.976c-10.562,12.652-16.8,27.018-28.845,39.032-11.909,11.875-25.288,22.577-35.312,36.033C12.727,174.953,6.231,197.8,10.562,219.318s20.152,41.166,41.819,48.934c13.8,4.948,28.933,5.049,43.691,5.088,30.652.08,61.346.158,91.9-2.166,20.108-1.53,40.482-4.194,58.8-12.18s34.535-22.006,40.541-40.214c5.968-18.09-.242-40.208-17.169-50.3" transform="translate(-2.931 -13.28)" fill="#e7ffdd"/>
    <path id="Trazado_610900" data-name="Trazado 610900" d="M21.057,161.39a10.225,10.225,0,0,0-2.633-4.517l-2.071-1.6a10.188,10.188,0,0,0-5.167-1.4H10.68a7.71,7.71,0,0,0-3.944.881,7.668,7.668,0,0,0-3.294,2.117,7.675,7.675,0,0,0-2.117,3.294,7.711,7.711,0,0,0-.882,3.944q.183,1.36.366,2.721a10.228,10.228,0,0,0,2.633,4.517l2.072,1.6a10.191,10.191,0,0,0,5.166,1.4h.506a7.718,7.718,0,0,0,3.944-.882,7.667,7.667,0,0,0,3.294-2.117,7.671,7.671,0,0,0,2.117-3.294,7.71,7.71,0,0,0,.882-3.944q-.183-1.361-.366-2.722" transform="translate(-0.139 -48.864)" fill="#99fbf2"/>
    <path id="Trazado_610901" data-name="Trazado 610901" d="M411.694,139.423a22.119,22.119,0,1,1-22.119-22.118,22.118,22.118,0,0,1,22.119,22.118" transform="translate(-116.693 -37.253)" fill="#99fbf2"/>
    <path id="Trazado_610902" data-name="Trazado 610902" d="M273.094.154a14.759,14.759,0,0,0-2.75.826,2.46,2.46,0,0,1,.158.2,2.454,2.454,0,0,1-4.161,2.6,2.527,2.527,0,0,1-.124-.252,14.933,14.933,0,0,0-1.978,2.1,2.369,2.369,0,0,1,.255.1,2.454,2.454,0,0,1-2.3,4.335,2.524,2.524,0,0,1-.259-.173,14.778,14.778,0,0,0-.672,2.826,2.493,2.493,0,0,1,.3-.042,2.455,2.455,0,1,1-.175,4.883,14.746,14.746,0,0,0,.836,2.811,2.454,2.454,0,1,1,2.539,4.115,14.929,14.929,0,0,0,2.146,2.028,2.45,2.45,0,1,1,4.477,1.956,2.522,2.522,0,0,1-.224.334,14.746,14.746,0,0,0,2.888.677A2.372,2.372,0,0,1,274,29.1a2.454,2.454,0,0,1,4.905-.174,2.409,2.409,0,0,1-.027.405,14.8,14.8,0,0,0,2.84-.861,2.45,2.45,0,1,1,3.923-2.91,2.524,2.524,0,0,1,.173.35,14.935,14.935,0,0,0,2.013-2.161,2.391,2.391,0,0,1-.338-.138,2.455,2.455,0,1,1,2.6-4.133,14.807,14.807,0,0,0,.654-2.858,2.369,2.369,0,0,1-.329.044,2.454,2.454,0,1,1-.173-4.9,2.415,2.415,0,0,1,.323.021A14.767,14.767,0,0,0,289.714,9a2.683,2.683,0,0,1-.235.182,2.457,2.457,0,1,1-2.341-4.29,14.908,14.908,0,0,0-2.109-1.966,2.248,2.248,0,0,1-.1.246,2.454,2.454,0,1,1-4.335-2.3,2.483,2.483,0,0,1,.152-.227,14.737,14.737,0,0,0-2.8-.648,2.426,2.426,0,0,1,.034.248,2.454,2.454,0,1,1-4.905.173,2.471,2.471,0,0,1,.017-.267m2.588,6.061a8.534,8.534,0,1,1-8.226,8.83,8.533,8.533,0,0,1,8.226-8.83" transform="translate(-82.968)" fill="#daecfe"/>
    <path id="Trazado_610903" data-name="Trazado 610903" d="M62.4,80.076c0-14-12.37-25.352-27.627-25.352S7.146,66.074,7.146,80.076s12.37,25.352,27.628,25.352S62.4,94.078,62.4,80.076" transform="translate(-2.269 -17.379)" fill="#cefcba"/>
    <path id="Trazado_610904" data-name="Trazado 610904" d="M36.05,89.238,14.5,82.341a19.39,19.39,0,0,0-1.273,6.9c0,11.488,10.3,20.941,22.82,20.941a24.387,24.387,0,0,0,11.742-2.985Z" transform="translate(-4.201 -26.149)" fill="#628aec"/>
    <path id="Trazado_610905" data-name="Trazado 610905" d="M48.4,91.874,60.3,109.746a21.876,21.876,0,0,0,8.009-7.625,19.615,19.615,0,0,0,2.919-10.247Z" transform="translate(-15.371 -29.176)" fill="#bfd2ff"/>
    <path id="Trazado_610906" data-name="Trazado 610906" d="M48.594,83.222l22.818-.289a19.507,19.507,0,0,0-1.987-8.262,21.116,21.116,0,0,0-5.388-6.866Z" transform="translate(-15.432 -21.533)" fill="#fefeff"/>
    <rect id="Rectángulo_378594" data-name="Rectángulo 378594" width="8.261" height="19.859" transform="translate(90.404 37.901)" fill="#628aec"/>
    <rect id="Rectángulo_378595" data-name="Rectángulo 378595" width="8.261" height="29.576" transform="translate(103.176 28.182)" fill="#628aec"/>
    <rect id="Rectángulo_378596" data-name="Rectángulo 378596" width="8.261" height="42.989" transform="translate(115.948 14.771)" fill="#628aec"/>
    <rect id="Rectángulo_378597" data-name="Rectángulo 378597" width="8.261" height="24.187" transform="translate(128.72 33.572)" fill="#628aec"/>
    <path id="Trazado_610907" data-name="Trazado 610907" d="M125.987,22.251V64.643h56.461" transform="translate(-40.01 -7.066)" fill="none" stroke="#628aec" stroke-miterlimit="10" stroke-width="0.876"/>
    <path id="Trazado_610908" data-name="Trazado 610908" d="M301.1,40.811a29.02,29.02,0,0,0-5.408,1.624,4.75,4.75,0,0,1,.311.4,4.83,4.83,0,1,1-8.426,4.623,29.4,29.4,0,0,0-3.89,4.121,4.679,4.679,0,0,1,.5.2,4.825,4.825,0,0,1-4.526,8.523,4.73,4.73,0,0,1-.51-.341,28.979,28.979,0,0,0-1.321,5.557,4.667,4.667,0,0,1,.6-.082,4.825,4.825,0,1,1,.341,9.644,4.733,4.733,0,0,1-.684-.045,29.054,29.054,0,0,0,1.643,5.528,4.824,4.824,0,1,1,4.993,8.091,29.445,29.445,0,0,0,4.219,3.986,4.743,4.743,0,0,1,.278-.681,4.825,4.825,0,0,1,8.523,4.527,4.9,4.9,0,0,1-.439.657,29,29,0,0,0,5.677,1.331,4.817,4.817,0,1,1,9.54-1.1,4.794,4.794,0,0,1-.052.8,29.074,29.074,0,0,0,5.582-1.693,4.826,4.826,0,1,1,8.053-5.033,29.415,29.415,0,0,0,3.958-4.247,4.892,4.892,0,0,1-.663-.271,4.827,4.827,0,1,1,5.12-8.127,28.99,28.99,0,0,0,1.285-5.619,4.674,4.674,0,0,1-.646.088,4.828,4.828,0,1,1,.295-9.6,29.012,29.012,0,0,0-1.675-5.462,4.707,4.707,0,0,1-.462.358,4.825,4.825,0,0,1-5.118-8.181,4.939,4.939,0,0,1,.515-.255,29.348,29.348,0,0,0-4.148-3.865,4.541,4.541,0,0,1-.2.485,4.825,4.825,0,1,1-8.523-4.527,4.738,4.738,0,0,1,.3-.445,29.025,29.025,0,0,0-5.5-1.274,4.572,4.572,0,0,1,.066.487,4.825,4.825,0,0,1-9.643.342,4.61,4.61,0,0,1,.034-.525m4.985,9.033a19.663,19.663,0,1,1-18.955,20.347,19.663,19.663,0,0,1,18.955-20.347" transform="translate(-88.229 -12.864)" fill="#7be2d8"/>
    <path id="Trazado_610909" data-name="Trazado 610909" d="M262.375,71.018c-.593-.433-1.33-.8-1.559-1.5-.369-1.125.836-2.294.538-3.44-.25-.962-1.392-1.351-2.375-1.5s-2.111-.283-2.672-1.1a5.369,5.369,0,0,1-.467-2.406,4.41,4.41,0,0,0-3.094-3.575c-1.708-.485-3.2,1.064-4.622,1.686a4.91,4.91,0,0,0-2.855,3.684,11.759,11.759,0,0,0,.256,4.875,35.05,35.05,0,0,1,.936,4.825,14.166,14.166,0,0,1-.772,5.148A5.381,5.381,0,0,0,245.9,81.6a4.9,4.9,0,0,0,3.051,1.9,16.666,16.666,0,0,0,7.06.662,9.507,9.507,0,0,0,5.848-3.094,7.661,7.661,0,0,0,2.326-3.2,6.044,6.044,0,0,0-1.81-6.839" transform="translate(-77.84 -18.23)" fill="#485070"/>
    <path id="Trazado_610910" data-name="Trazado 610910" d="M251.876,64.285a3.879,3.879,0,0,1-.358,2.989c-.169.293-.437.594-.775.57-.389-.027-.606-.454-.729-.824a13.329,13.329,0,0,1-.639-3.152c-.052-.656.071-1.842,1-1.615.723.176,1.312,1.4,1.5,2.032" transform="translate(-79.191 -19.761)" fill="#ff6ea1"/>
    <path id="Trazado_610911" data-name="Trazado 610911" d="M244.472,87.093c-.687,2.4-4.585,3.555-6.828.792-.275-.339-.53-.7-.778-1.056-2.419.476-6.016,1.529-7.632,3.491a6.158,6.158,0,0,0-1.008,2.228,88.738,88.738,0,0,0-2.1,8.721,1.979,1.979,0,0,0-.01,1.013,2.256,2.256,0,0,0,.837.919c3.342,2.635,4.22,6.89,5.32,10.737,1.669,5.838,2.439,13.913,4.108,19.751,5.469.42,28.251-4.748,30.993-7.148-3.931-7.078-7.112-19.848-8.359-28.732a46.247,46.247,0,0,0-3.446-10.875c-.337-.825-.641-2.73-1.266-3.264-.832-.711-8.771.491-9.612.519q.045.7.064,1.407a4.834,4.834,0,0,1-.286,1.5" transform="translate(-71.788 -26.5)" fill="#ffe49a"/>
    <path id="Trazado_610912" data-name="Trazado 610912" d="M240.643,80.4a10.528,10.528,0,0,0-1.074-2.358,6.739,6.739,0,0,0,3.738-1.271,11.412,11.412,0,0,0,1.5-1.325c.167-.17.42-.6.687-.913-.36.42.527,2.785.7,3.268a8.67,8.67,0,0,0,1.617,2.815c.718.8,1.188.931,1.314,2.057a8.268,8.268,0,0,1-.521,3.609,3.442,3.442,0,0,1-1.245,1.793,3.184,3.184,0,0,1-2.509.222c-1.413-.37-3.351-1.548-3.857-3.025-.265-.774.033-1.17.1-1.963a7.662,7.662,0,0,0-.463-2.911" transform="translate(-76.08 -23.67)" fill="#ffc1a6"/>
    <path id="Trazado_610913" data-name="Trazado 610913" d="M241.119,82.925c0-.078,0-.158-.007-.239a10.964,10.964,0,0,0-1.544-4.642,6.739,6.739,0,0,0,3.739-1.271,11.454,11.454,0,0,0,1.5-1.325c.167-.17.42-.6.687-.913.04.439.1.873.179,1.3a9.168,9.168,0,0,1-4.559,7.088" transform="translate(-76.08 -23.67)" fill="#e3856d"/>
    <path id="Trazado_610914" data-name="Trazado 610914" d="M228.482,68.794a10.47,10.47,0,0,0,3.59,5.625,4.373,4.373,0,0,0,1.609.888,2.046,2.046,0,0,0,1.762-.3A3.181,3.181,0,0,0,236.3,72.6a20.232,20.232,0,0,0-.156-4.919,7.808,7.808,0,0,0-2.209-4.32c-.988-.913-3.7-2.239-4.892-.98-1.3,1.368-.962,4.777-.559,6.413" transform="translate(-72.445 -19.646)" fill="#485070"/>
    <path id="Trazado_610915" data-name="Trazado 610915" d="M230.7,65.405c.232-1.546,1.982-.4,3.4-1.054a6.729,6.729,0,0,1,3.561-.966A5.1,5.1,0,0,1,241,64.866c.233.245.447.5.646.748a17.661,17.661,0,0,1,1.439,2.848l.014.067A9.6,9.6,0,0,1,241.818,74a5.015,5.015,0,0,1-4.351,2.629,4.287,4.287,0,0,1-2.769-1.076,9.527,9.527,0,0,1-2.036-2.689c-.833-1.507-2.215-5.757-1.959-7.46" transform="translate(-73.254 -20.125)" fill="#ffc1a6"/>
    <path id="Trazado_610916" data-name="Trazado 610916" d="M236.941,65.817a22.918,22.918,0,0,1-4.976-1.409,5.6,5.6,0,0,1-2.679-2.655,2.889,2.889,0,0,1,.523-3.067,7.432,7.432,0,0,1,4.252-3.013c1.714-.451,3.858.214,5.5.785a6.7,6.7,0,0,1,3,1.953c1.338,1.617,1.793,4.4,1.688,6.446a11.069,11.069,0,0,1-.516,2.486c-.194.68-.541,1.453-1.333,1.551-.543.068-1.63-1.481-2.185-1.826a10.17,10.17,0,0,0-2.854-1.147q-.212-.054-.424-.1" transform="translate(-72.736 -17.633)" fill="#485070"/>
    <path id="Trazado_610917" data-name="Trazado 610917" d="M236.821,73.071a.495.495,0,1,0,.442-.543.5.5,0,0,0-.442.543" transform="translate(-75.206 -23.032)" fill="#485070"/>
    <path id="Trazado_610918" data-name="Trazado 610918" d="M237.442,71.234a1.526,1.526,0,0,0-.988.13" transform="translate(-75.091 -22.612)" fill="none" stroke="#485070" stroke-linecap="round" stroke-miterlimit="10" stroke-width="0.75"/>
    <path id="Trazado_610919" data-name="Trazado 610919" d="M232.334,74.279a.495.495,0,1,0,.442-.543.5.5,0,0,0-.442.543" transform="translate(-73.781 -23.416)" fill="#485070"/>
    <path id="Trazado_610920" data-name="Trazado 610920" d="M232.955,72.441a1.526,1.526,0,0,0-.988.13" transform="translate(-73.666 -22.995)" fill="none" stroke="#485070" stroke-linecap="round" stroke-miterlimit="10" stroke-width="0.75"/>
    <path id="Trazado_610921" data-name="Trazado 610921" d="M234.813,74.616a1.72,1.72,0,0,1-.2,1.267.505.505,0,0,0-.113.315.3.3,0,0,0,.261.222.855.855,0,0,0,.361-.054" transform="translate(-74.47 -23.696)" fill="none" stroke="#485070" stroke-linecap="round" stroke-miterlimit="10" stroke-width="0.75"/>
    <path id="Trazado_610922" data-name="Trazado 610922" d="M237.846,78.242a1.982,1.982,0,0,1-1.659.611" transform="translate(-75.006 -24.847)" fill="none" stroke="#485070" stroke-linecap="round" stroke-miterlimit="10" stroke-width="0.75"/>
    <path id="Trazado_610923" data-name="Trazado 610923" d="M247.365,70a1.816,1.816,0,1,1-1.992-1.622A1.817,1.817,0,0,1,247.365,70" transform="translate(-77.405 -21.71)" fill="#ffc1a6"/>
    <path id="Trazado_610924" data-name="Trazado 610924" d="M246.43,69.839a.78.78,0,0,0-.727,1.112.533.533,0,0,1,.931.345" transform="translate(-78.005 -22.179)" fill="none" stroke="#485070" stroke-linecap="round" stroke-linejoin="round" stroke-width="0.75"/>
    <path id="Trazado_610925" data-name="Trazado 610925" d="M241.012,336.483H97.052a5.964,5.964,0,0,1-5.964-5.964V249.745a5.964,5.964,0,0,1,5.964-5.964h143.96a5.964,5.964,0,0,1,5.964,5.964v80.773a5.964,5.964,0,0,1-5.964,5.964" transform="translate(-28.927 -77.418)" fill="#dce4ff"/>
    <rect id="Rectángulo_378598" data-name="Rectángulo 378598" width="155.889" height="92.702" rx="8.74" transform="translate(62.161 166.363)" fill="none" stroke="#485070" stroke-miterlimit="10" stroke-width="0.75"/>
    <path id="Trazado_610926" data-name="Trazado 610926" d="M253.147,379.794H74.178a7.441,7.441,0,0,0,7.441,7.441H245.705a7.441,7.441,0,0,0,7.441-7.441" transform="translate(-23.557 -120.611)" fill="#bac5ef"/>
    <path id="Trazado_610927" data-name="Trazado 610927" d="M253.147,379.794H74.178a7.441,7.441,0,0,0,7.441,7.441H245.705A7.441,7.441,0,0,0,253.147,379.794Z" transform="translate(-23.557 -120.611)" fill="none" stroke="#485070" stroke-miterlimit="10" stroke-width="0.75"/>
    <path id="Trazado_610928" data-name="Trazado 610928" d="M240.316,335.266H101.23a4.661,4.661,0,0,1-4.66-4.661V253.776a4.661,4.661,0,0,1,4.66-4.661H240.316a4.661,4.661,0,0,1,4.661,4.661v76.829a4.661,4.661,0,0,1-4.661,4.661" transform="translate(-30.668 -79.112)" fill="#545d78"/>
    <path id="Trazado_610929" data-name="Trazado 610929" d="M207.267,245.8a1.156,1.156,0,1,1-1.155-1.155,1.155,1.155,0,0,1,1.155,1.155" transform="translate(-65.088 -77.691)" fill="#333"/>
    <rect id="Rectángulo_378599" data-name="Rectángulo 378599" width="117.803" height="173.089" transform="translate(81.204 82.566)" fill="#fefeff"/>
    <path id="Trazado_610930" data-name="Trazado 610930" d="M202.018,342.724l-15.676-19.53L172.71,340.661l-11.817-12.769,1.544-1.43,10.136,10.952L186.319,319.8l15.267,19.021,8.861-18.092,18.706-3.308.366,2.073-17.652,3.121Z" transform="translate(-51.095 -100.804)" fill="#e6edff"/>
    <path id="Trazado_610931" data-name="Trazado 610931" d="M262.63,317.684a2.7,2.7,0,1,0-2.7,2.7,2.7,2.7,0,0,0,2.7-2.7" transform="translate(-81.688 -100.029)" fill="#ff6ea1"/>
    <path id="Trazado_610932" data-name="Trazado 610932" d="M222.448,350.383a2.7,2.7,0,1,0-2.7,2.7,2.7,2.7,0,0,0,2.7-2.7" transform="translate(-68.927 -110.413)" fill="#628aec"/>
    <path id="Trazado_610933" data-name="Trazado 610933" d="M235.529,322.395a2.7,2.7,0,1,0-2.7,2.7,2.7,2.7,0,0,0,2.7-2.7" transform="translate(-73.081 -101.525)" fill="#ffb861"/>
    <path id="Trazado_610934" data-name="Trazado 610934" d="M199.461,322.395a2.7,2.7,0,1,0-2.7,2.7,2.7,2.7,0,0,0,2.7-2.7" transform="translate(-61.627 -101.525)" fill="#ffb861"/>
    <path id="Trazado_610935" data-name="Trazado 610935" d="M180.025,347.368a2.7,2.7,0,1,0-2.7,2.7,2.7,2.7,0,0,0,2.7-2.7" transform="translate(-55.455 -109.456)" fill="#ff6ea1"/>
    <path id="Trazado_610936" data-name="Trazado 610936" d="M164.327,331.211a2.7,2.7,0,1,0-2.7,2.7,2.7,2.7,0,0,0,2.7-2.7" transform="translate(-50.47 -104.325)" fill="#3fd4c7"/>
    <path id="Trazado_610937" data-name="Trazado 610937" d="M145.463,307.455V344.3h82.218" transform="translate(-46.195 -97.639)" fill="none" stroke="#485070" stroke-miterlimit="10" stroke-width="0.75"/>
    <rect id="Rectángulo_378600" data-name="Rectángulo 378600" width="12.548" height="29.148" transform="translate(105.81 151.001)" fill="#afe599"/>
    <rect id="Rectángulo_378601" data-name="Rectángulo 378601" width="12.549" height="43.413" transform="translate(125.208 136.736)" fill="#376460"/>
    <path id="Trazado_610938" data-name="Trazado 610938" d="M151.619,195.288a115.683,115.683,0,0,0,39.443-29.53" transform="translate(-48.15 -52.64)" fill="none" stroke="#485070" stroke-linecap="round" stroke-miterlimit="10" stroke-width="0.75"/>
    <path id="Trazado_610939" data-name="Trazado 610939" d="M209.974,163.781l-.893,2.543-.37-1.12-1.156-.233Z" transform="translate(-65.914 -52.012)" fill="#485070"/>
    <rect id="Rectángulo_378602" data-name="Rectángulo 378602" width="12.548" height="63.098" transform="translate(144.608 117.051)" fill="#3fd4c7"/>
    <rect id="Rectángulo_378603" data-name="Rectángulo 378603" width="12.548" height="35.501" transform="translate(164.006 144.648)" fill="#628aec"/>
    <path id="Trazado_610940" data-name="Trazado 610940" d="M144.227,173.244v62.017h83.84" transform="translate(-45.802 -55.017)" fill="none" stroke="#485070" stroke-miterlimit="10" stroke-width="0.75"/>
    <rect id="Rectángulo_378604" data-name="Rectángulo 378604" width="84.191" height="4.24" transform="translate(97.946 186.231)" fill="#e6edff"/>
    <rect id="Rectángulo_378605" data-name="Rectángulo 378605" width="50.595" height="4.24" transform="translate(114.643 102.302)" fill="#e6edff"/>
    <rect id="Rectángulo_378606" data-name="Rectángulo 378606" width="84.191" height="4.24" transform="translate(97.846 94.897)" fill="#e6edff"/>
    <rect id="Rectángulo_378607" data-name="Rectángulo 378607" width="84.191" height="4.24" transform="translate(97.946 194.004)" fill="#e6edff"/>
    <rect id="Rectángulo_378608" data-name="Rectángulo 378608" width="84.191" height="4.24" transform="translate(97.946 201.777)" fill="#e6edff"/>
    <path id="Trazado_610941" data-name="Trazado 610941" d="M260.418,83.76c-.981.231-1.955.5-2.923.778a1.147,1.147,0,0,0-.46.207,1.1,1.1,0,0,0-.287.627,12.644,12.644,0,0,0,2.215,9.644c.6.749,1.312,1.4,1.962,2.108s1.495,1.326,2.069,2.058a10.328,10.328,0,0,1,1.26,3.251,31.739,31.739,0,0,1,1.31,7.2c.1,1.621.18,3.465,1.424,4.51a3.669,3.669,0,0,0,4.458-.214,8.567,8.567,0,0,0,2.535-4.031,32.293,32.293,0,0,0,1.976-12.357c-.186-3.814-1.353-8.408-3.818-11.425a9.121,9.121,0,0,0-6.974-2.962,19.42,19.42,0,0,0-4.748.6" transform="translate(-81.471 -26.407)" fill="#ffe49a"/>
    <path id="Trazado_610942" data-name="Trazado 610942" d="M265.64,110.69q1.358-7.35,2.717-14.7" transform="translate(-84.359 -30.484)" fill="none" stroke="#485070" stroke-miterlimit="10" stroke-width="0.75"/>
    <path id="Trazado_610943" data-name="Trazado 610943" d="M267.027,97.34l.94,2.4" transform="translate(-84.8 -30.912)" fill="none" stroke="#485070" stroke-miterlimit="10" stroke-width="0.75"/>
    <path id="Trazado_610944" data-name="Trazado 610944" d="M235.505,128a3.433,3.433,0,0,1,1.085-.2c3.31-.072,6.544-.414,9.884-.749,2.236-.225,4.474-.354,6.7-.386,1.8-.026,3.878.365,5.628-.129,1.853-.523,3.113-1.043,4.04-2.575a24.071,24.071,0,0,0,1.212-2.268,2.3,2.3,0,0,0,.314-1.39c-.144-.673-.888-1.082-1.617-1.35-1.553-.571-2.512-1.459-4.294-1.642a18.327,18.327,0,0,0-5.54.434c-3.55.745-7.1,1.052-10.587,2.089a93.5,93.5,0,0,0-11.422,4.473,11.924,11.924,0,0,0-3.755,2.269,3.927,3.927,0,0,0-.386,5.329,1.784,1.784,0,0,0,1.6.676c.653-.116,1.089-.974.541-1.23,3.585,1.381,3.68-2.3,6.592-3.349" transform="translate(-71.739 -37.232)" fill="#ffc1a6"/>
    <path id="Trazado_610945" data-name="Trazado 610945" d="M223.488,133.732l.025-.219-.164.4.14-.185" transform="translate(-70.929 -42.4)" fill="#ff6ea1"/>
    <path id="Trazado_610946" data-name="Trazado 610946" d="M228.912,92.682a2.371,2.371,0,0,0-.912-.949c-1.157-.676-3.588.364-4.63.937a6.987,6.987,0,0,0-.652.4,16.937,16.937,0,0,0-3.316,2.934c-.334.366-.659.738-.982,1.11-4.814,5.559-7.923,11.683-7.144,19.128.167,1.594.485,3.313,1.672,4.389a4.239,4.239,0,0,0,3.57.916,6.419,6.419,0,0,0,3.158-1.679l-.035.3.177-.435c1.9-1.842,2.343-4.391,2.8-6.871l0-.017,4.527-11.111c.721-1.77,3.049-6.637,1.761-9.059" transform="translate(-67.057 -29.061)" fill="#ffe49a"/>
    <path id="Trazado_610947" data-name="Trazado 610947" d="M221.388,158.04c2.077-3.394-1.709-3.955-2.26-6.987a3.258,3.258,0,0,1-.012-1.106c.528-3.3.762-6.566,1.022-9.933q.262-3.382.82-6.721a41.19,41.19,0,0,0,.906-4.725c-.038-.5-.093-1-.174-1.482a5.175,5.175,0,0,0-3.117-2.546,5.95,5.95,0,0,0-5.457,1.086,14.955,14.955,0,0,0-1.011,1.815,18.857,18.857,0,0,0-.4,4.977c.124,3.628-.2,7.2.233,10.8a87.669,87.669,0,0,0,2.543,11.936,11.131,11.131,0,0,0,1.66,4.026,4.136,4.136,0,0,0,5.432,1.06,1.892,1.892,0,0,0,.989-1.509c0-.665-.808-1.208-1.171-.695" transform="translate(-67.225 -39.469)" fill="#ffc1a6"/>
    <path id="Trazado_610948" data-name="Trazado 610948" d="M226.329,122.7a38.744,38.744,0,0,1,5.184-12.552" transform="translate(-71.875 -34.98)" fill="none" stroke="#485070" stroke-miterlimit="10" stroke-width="0.75"/>
    <path id="Trazado_610949" data-name="Trazado 610949" d="M231.372,113.61l1.776-1.145" transform="translate(-73.477 -35.716)" fill="none" stroke="#485070" stroke-miterlimit="10" stroke-width="0.75"/>
    <path id="Trazado_610950" data-name="Trazado 610950" d="M71.792,236.9c2.54,2.9,3.581,6.817,4.445,10.484L79.584,261.6a16.88,16.88,0,0,1,.558,3.376,24.755,24.755,0,0,1-.9,5.932c-.552,2.266-1.908,2.126-3.927,1.926-3.192-.317-7.535-1.283-9.69-3.886a9.575,9.575,0,0,1-1.649-4.47q-.608-3.257-1.217-6.514c-1.658-8.872-3.316-18.022-1.44-26.851A16.836,16.836,0,0,1,71.792,236.9" transform="translate(-19.208 -73.394)" fill="#fff"/>
    <path id="Trazado_610951" data-name="Trazado 610951" d="M78.985,280.117c1.411.669,2.762,1.531,4.121,2.349,2.158,1.3,4.41,2.212,6.62,3.42a6.584,6.584,0,0,0,1.955.8c1.183.209,2.431-.236,3.622-.077a4.694,4.694,0,0,1,3.527,3.51c.972,3.16-1.3,1.984-2.812,1.707l-3.528-.648a105.138,105.138,0,0,0-13.8-1.5c-2.574-.133-7.108-.074-9.033-2.418-.936-1.14-1.971-6.112-.739-7.346a1.89,1.89,0,0,1,.79-.428,11.982,11.982,0,0,1,7.394-.115,14.182,14.182,0,0,1,1.88.744" transform="translate(-21.708 -88.552)" fill="#9c5240"/>
    <path id="Trazado_610952" data-name="Trazado 610952" d="M59.225,331.781H14.087a2.683,2.683,0,0,1,0-5.367H59.225a2.683,2.683,0,0,1,0,5.367" transform="translate(-3.622 -103.659)" fill="#485070"/>
    <path id="Trazado_610953" data-name="Trazado 610953" d="M8.355,273.019V257.178a4.323,4.323,0,0,1,4.323-4.323h35.3a4.323,4.323,0,0,1,4.323,4.323v15.841a4.323,4.323,0,0,1-4.323,4.323h-35.3a4.323,4.323,0,0,1-4.323-4.323" transform="translate(-2.653 -80.299)" fill="#485070"/>
    <rect id="Rectángulo_378609" data-name="Rectángulo 378609" width="2.73" height="32.579" transform="translate(11.328 193.062)" fill="#485070"/>
    <rect id="Rectángulo_378610" data-name="Rectángulo 378610" width="2.73" height="32.579" transform="translate(40.774 193.062)" fill="#485070"/>
    <rect id="Rectángulo_378611" data-name="Rectángulo 378611" width="2.73" height="39.573" transform="translate(30.256 226.772)" fill="#485070"/>
    <rect id="Rectángulo_378612" data-name="Rectángulo 378612" width="2.73" height="39.573" transform="translate(9.738 226.772)" fill="#485070"/>
    <rect id="Rectángulo_378613" data-name="Rectángulo 378613" width="2.73" height="39.573" transform="translate(53.493 226.772)" fill="#485070"/>
    <rect id="Rectángulo_378614" data-name="Rectángulo 378614" width="2.73" height="39.573" transform="translate(39.487 226.772)" fill="#485070"/>
    <path id="Trazado_610954" data-name="Trazado 610954" d="M116.614,352.653c-1.548.325-2.611.4-4.439.661-2.659.375-5.326.686-8,.916.7,4.81,1.332,9.04,1.494,9.891.7,3.684.313,12.917,1.958,16.42a25.857,25.857,0,0,0,5.606-.234c.994-9.235,1.81-18.5,3.382-27.654" transform="translate(-33.083 -111.992)" fill="#cf9378"/>
    <path id="Trazado_610955" data-name="Trazado 610955" d="M82.949,342.1a11.6,11.6,0,0,0,.173,2.258,12.4,12.4,0,0,0,8.339,3.537,14.363,14.363,0,0,0,5.135-.716q.294-5.406.642-10.808c.3-4.688.543-9.373,1.126-14.036a67.719,67.719,0,0,0,.068-12.6C97.237,305.151,94.2,303.9,94.2,303.9a120.648,120.648,0,0,0-15.016-4.795c-7.994-1.754-16.12-3.057-24.159-4.808-3.864-.841-10.329-.686-12.323,3.539-2.308,4.888,2.293,11.385,6,14.207,3.835,2.919,8.567,4.4,13.276,5.423a86.275,86.275,0,0,0,20.317,1.954c-.218,0,.651,20.984.661,22.674" transform="translate(-13.362 -93.331)" fill="#66a3f2"/>
    <path id="Trazado_610956" data-name="Trazado 610956" d="M82.278,319.46c.013-.013.027-.024.04-.037-1.485-1.475-2.888-3.037-4.373-4.512-2.211-2.194-4.358-4.456-6.554-6.666-4.363-4.391-8.748-8.76-13.015-13.243q-1.68-.343-3.355-.7c-3.864-.842-10.329-.686-12.323,3.538-2.308,4.888,2.293,11.385,6,14.207,3.834,2.92,8.567,4.4,13.275,5.424a86.236,86.236,0,0,0,20.317,1.954s-.007.023-.011.039" transform="translate(-13.362 -93.331)" fill="#485070"/>
    <path id="Trazado_610957" data-name="Trazado 610957" d="M101.076,330.062c.006-2.136.3-4.745.3-6.881" transform="translate(-32.099 -102.633)" fill="none" stroke="#485070" stroke-miterlimit="10" stroke-width="0.398"/>
    <path id="Trazado_610958" data-name="Trazado 610958" d="M100.122,303.36a99.814,99.814,0,0,0-19.328-4.675" transform="translate(-25.658 -94.853)" fill="none" stroke="#485070" stroke-miterlimit="10" stroke-width="0.75"/>
    <path id="Trazado_610959" data-name="Trazado 610959" d="M126.1,399.339H108.449a.656.656,0,0,1-.656-.657v-1.325h18.3Z" transform="translate(-34.232 -126.189)" fill="#b3b3b3"/>
    <path id="Trazado_610960" data-name="Trazado 610960" d="M125.7,394.877a1.933,1.933,0,0,0,.173-.291,2.509,2.509,0,0,0-.927-2.844,8.226,8.226,0,0,0-3.036-1.314,50.648,50.648,0,0,0-6.878-1.584c-.624-.085-7.288-.7-7.259-1l-.309,5.041a5.3,5.3,0,0,0-.008,1.989Z" transform="translate(-34.093 -123.169)" fill="#485070"/>
    <path id="Trazado_610961" data-name="Trazado 610961" d="M111.91,385.516a3.166,3.166,0,0,1,3.684-.1,3.938,3.938,0,0,1,1.625,3.415.933.933,0,0,1-.235.672,1.04,1.04,0,0,1-.695.177l-3.154.037c-.656.008-1.492.16-1.948-.43-.8-1.04-.058-2.989.723-3.77" transform="translate(-35.2 -122.225)" fill="#485070"/>
    <path id="Trazado_610962" data-name="Trazado 610962" d="M121.883,390.012a1.449,1.449,0,0,0-1.467.912" transform="translate(-38.241 -123.854)" fill="none" stroke="#b3b3b3" stroke-linecap="round" stroke-miterlimit="10" stroke-width="0.75"/>
    <path id="Trazado_610963" data-name="Trazado 610963" d="M123.124,391.948a1.88,1.88,0,0,1,1.553-.888" transform="translate(-39.101 -124.189)" fill="none" stroke="#b3b3b3" stroke-linecap="round" stroke-miterlimit="10" stroke-width="0.75"/>
    <path id="Trazado_610964" data-name="Trazado 610964" d="M126.515,392.421a1.066,1.066,0,0,1,.967-.66" transform="translate(-40.177 -124.412)" fill="none" stroke="#b3b3b3" stroke-linecap="round" stroke-miterlimit="10" stroke-width="0.75"/>
    <path id="Trazado_610965" data-name="Trazado 610965" d="M74.676,348.6q-3.515.5-7.049.82c1.78,8.758,2.6,17.676,4.054,26.49,2-.008,3.823-.431,5.949-.384.4-2.669,1.219-18.516,2.473-27.811a44.71,44.71,0,0,1-5.427.885" transform="translate(-21.476 -110.423)" fill="#cf9378"/>
    <path id="Trazado_610966" data-name="Trazado 610966" d="M56.759,343.354c.485,1.973,1.049,3.182,2.992,3.954a11.242,11.242,0,0,0,5.33.749,8.919,8.919,0,0,0,4.4-2.037s2.508-37.392-.612-42.183c-3.818-5.862-12.175-7.065-18.686-8.494-5.7-1.253-11.476-2.276-17.235-3.4-1.405,5.332-.39,11.6,1.647,16.518l.031.076a11.324,11.324,0,0,0,9.491,6.83,85.4,85.4,0,0,0,9.175.287c-.04,0,1.733,20.635,3.467,27.7" transform="translate(-10.256 -92.714)" fill="#66a3f2"/>
    <path id="Trazado_610967" data-name="Trazado 610967" d="M63.135,325.451c.007-2.136.3-4.744.3-6.881" transform="translate(-20.05 -101.168)" fill="none" stroke="#485070" stroke-miterlimit="10" stroke-width="0.398"/>
    <path id="Trazado_610968" data-name="Trazado 610968" d="M91.175,398.919H73.528a.656.656,0,0,1-.656-.656v-1.325h18.3Z" transform="translate(-23.142 -126.056)" fill="#b3b3b3"/>
    <path id="Trazado_610969" data-name="Trazado 610969" d="M90.778,394.457a1.936,1.936,0,0,0,.173-.291,2.509,2.509,0,0,0-.927-2.844,8.223,8.223,0,0,0-3.037-1.314,50.614,50.614,0,0,0-6.878-1.584c-.624-.085-7.288-.7-7.259-1l-.309,5.041a5.3,5.3,0,0,0-.008,1.989Z" transform="translate(-23.003 -123.035)" fill="#485070"/>
    <path id="Trazado_610970" data-name="Trazado 610970" d="M76.988,385.1a3.166,3.166,0,0,1,3.684-.1A3.938,3.938,0,0,1,82.3,388.41a.933.933,0,0,1-.235.671,1.039,1.039,0,0,1-.695.177l-3.154.038c-.656.007-1.492.16-1.948-.43-.8-1.04-.058-2.989.723-3.77" transform="translate(-24.109 -122.091)" fill="#485070"/>
    <path id="Trazado_610971" data-name="Trazado 610971" d="M86.962,389.593a1.449,1.449,0,0,0-1.467.912" transform="translate(-27.151 -123.721)" fill="none" stroke="#b3b3b3" stroke-linecap="round" stroke-miterlimit="10" stroke-width="0.75"/>
    <path id="Trazado_610972" data-name="Trazado 610972" d="M88.2,391.528a1.882,1.882,0,0,1,1.553-.888" transform="translate(-28.01 -124.056)" fill="none" stroke="#b3b3b3" stroke-linecap="round" stroke-miterlimit="10" stroke-width="0.75"/>
    <path id="Trazado_610973" data-name="Trazado 610973" d="M91.594,392a1.066,1.066,0,0,1,.967-.66" transform="translate(-29.088 -124.278)" fill="none" stroke="#b3b3b3" stroke-linecap="round" stroke-miterlimit="10" stroke-width="0.75"/>
    <path id="Trazado_610974" data-name="Trazado 610974" d="M30.749,279.5q.242,1.29.484,2.58c2.969-1.561,6.521-1.235,9.877-1.241a45.513,45.513,0,0,0,21.158-5.285,28.414,28.414,0,0,1-.79-5.421c-.01-1.869-.783-3.68-.783-5.555-.123-2.532-.025-5.068.1-7.6.236-4.791.56-9.637-.335-14.35a21.063,21.063,0,0,0-3.583-8.588,11.178,11.178,0,0,0-3.345-3.318c-1.387-.7-3.469-.47-5.03-.607a13.378,13.378,0,0,0-3.429-.008,11.48,11.48,0,0,0-3.885,1.639c-6.463,3.877-7.247,10.129-9.193,16.858-.972,3.361-2.494,6.542-3.469,9.9a19.093,19.093,0,0,0-.722,5.786c.043,1.765.721,3.34,1.046,5.075q.95,5.065,1.9,10.131" transform="translate(-8.828 -73.041)" fill="#fff"/>
    <path id="Trazado_610975" data-name="Trazado 610975" d="M58.911,238.962a6.221,6.221,0,0,0,4.354,1.457,2.727,2.727,0,0,0,1.533-.481,1.314,1.314,0,0,0,.491-1.441" transform="translate(-18.708 -75.74)" fill="none" stroke="#485070" stroke-linecap="round" stroke-miterlimit="10" stroke-width="0.398"/>
    <path id="Trazado_610976" data-name="Trazado 610976" d="M56.735,259.833A15.661,15.661,0,0,0,66.3,269.9" transform="translate(-18.017 -82.515)" fill="none" stroke="#485070" stroke-linecap="round" stroke-miterlimit="10" stroke-width="0.398"/>
    <path id="Trazado_610977" data-name="Trazado 610977" d="M62.872,265.059a7.256,7.256,0,0,0,4.717,2.536" transform="translate(-19.966 -84.175)" fill="none" stroke="#485070" stroke-linecap="round" stroke-miterlimit="10" stroke-width="0.398"/>
    <path id="Trazado_610978" data-name="Trazado 610978" d="M50.778,264.649a33.54,33.54,0,0,0,8.588,13.9" transform="translate(-16.126 -84.045)" fill="none" stroke="#485070" stroke-linecap="round" stroke-miterlimit="10" stroke-width="0.398"/>
    <path id="Trazado_610979" data-name="Trazado 610979" d="M72.575,238.8c1.856,3.194,1.879,5.012,2.3,7.83a59.672,59.672,0,0,1,.639,9.528c-.07,5.344-1.25,10.239-.057,15.54" transform="translate(-23.048 -75.836)" fill="none" stroke="#485070" stroke-miterlimit="10" stroke-width="0.398"/>
    <path id="Trazado_610980" data-name="Trazado 610980" d="M62.485,225.78a11.313,11.313,0,0,1,1.153-2.53,7.233,7.233,0,0,1-4.011-1.364,12.274,12.274,0,0,1-1.614-1.421c-.179-.182-.451-.646-.737-.98-.3,3.214-1.493,6.235-4.234,8.07a10.686,10.686,0,0,0,4.14,3.925c1.429.828,4.99,2.429,5.069-.465.026-.947-.35-1.823-.269-2.785a11.323,11.323,0,0,1,.5-2.451" transform="translate(-16.845 -69.702)" fill="#cf9378"/>
    <path id="Trazado_610981" data-name="Trazado 610981" d="M63.855,228.488c0-.085,0-.171.008-.257a11.76,11.76,0,0,1,1.657-4.98,7.232,7.232,0,0,1-4.012-1.364,12.326,12.326,0,0,1-1.614-1.421c-.179-.182-.451-.646-.737-.98-.043.471-.109.937-.192,1.4a9.84,9.84,0,0,0,4.891,7.606" transform="translate(-18.725 -69.702)" fill="#9c5240"/>
    <path id="Trazado_610982" data-name="Trazado 610982" d="M31.356,236.9c-2.54,2.9-3.581,6.817-4.445,10.484L23.564,261.6c-.387,1.642-1.007,3.887-.644,5.564a7.226,7.226,0,0,0,3.294,4.46,7.028,7.028,0,0,0,6.106.614c1.815-.843,3.891-1.7,5.208-3.291a9.582,9.582,0,0,0,1.649-4.47q.608-3.257,1.217-6.514c1.658-8.872,3.316-18.022,1.44-26.851A16.836,16.836,0,0,0,31.356,236.9" transform="translate(-7.244 -73.394)" fill="#fff"/>
    <path id="Trazado_610983" data-name="Trazado 610983" d="M47.957,252.5c-3.69.961-3.36,5.683-3.693,8.6A85.614,85.614,0,0,1,41.81,273.84" transform="translate(-13.278 -80.187)" fill="none" stroke="#485070" stroke-miterlimit="10" stroke-width="0.398"/>
    <path id="Trazado_610984" data-name="Trazado 610984" d="M46.757,254.523A7.04,7.04,0,0,1,49,251.231" transform="translate(-14.849 -79.784)" fill="none" stroke="#485070" stroke-miterlimit="10" stroke-width="0.398"/>
    <path id="Trazado_610985" data-name="Trazado 610985" d="M37.265,281.714c1.979.433,3.921,1.065,5.863,1.653,3.085.933,6.209,1.471,9.343,2.305a11.063,11.063,0,0,0,2.715.476c1.584.015,3.113-.626,4.7-.661a6.385,6.385,0,0,1,5.337,2.894c1.938,2.962-1.274,2.169-3.3,2.139l-4.73-.069a182.264,182.264,0,0,0-18.275.747c-3.377.284-9.265,1.075-12.27-.929-1.46-.973-3.866-5.713-2.526-7.129a2.536,2.536,0,0,1,.937-.55,20.214,20.214,0,0,1,9.6-1.308,23.782,23.782,0,0,1,2.6.431" transform="translate(-7.537 -89.291)" fill="#cf9378"/>
    <line id="Línea_2957" data-name="Línea 2957" x1="0.113" transform="translate(74.85 194.756)" fill="#dc8b77"/>
    <path id="Trazado_610986" data-name="Trazado 610986" d="M100.234,306.553H59.286a.827.827,0,0,1-.827-.827v-.282a.827.827,0,0,1,.827-.828h40.948a.827.827,0,0,1,.827.828v.282a.827.827,0,0,1-.827.827" transform="translate(-18.565 -96.737)" fill="#485070"/>
    <path id="Trazado_610987" data-name="Trazado 610987" d="M110.255,297.129H73.849l3.168-20.919a1.477,1.477,0,0,1,1.443-1.269h33.52a1.418,1.418,0,0,1,1.384,1.658Z" transform="translate(-23.452 -87.313)" fill="#757e96"/>
    <path id="Trazado_610988" data-name="Trazado 610988" d="M106.221,289.442a2.42,2.42,0,1,1-2.42-2.419,2.42,2.42,0,0,1,2.42,2.419" transform="translate(-32.196 -91.15)" fill="#fff"/>
    <path id="Trazado_610989" data-name="Trazado 610989" d="M71.451,208.51c-.417-1.624-2.159-.209-3.744-.754a7.234,7.234,0,0,0-3.906-.643,5.47,5.47,0,0,0-3.4,1.945c-.222.287-.423.578-.607.869a19,19,0,0,0-1.225,3.2c0,.025,0,.049-.008.073a10.307,10.307,0,0,0,1.965,5.7,5.38,5.38,0,0,0,4.931,2.331,4.6,4.6,0,0,0,2.839-1.45,10.226,10.226,0,0,0,1.879-3.093c.725-1.7,1.737-6.386,1.278-8.176" transform="translate(-18.597 -65.749)" fill="#cf9378"/>
    <path id="Trazado_610990" data-name="Trazado 610990" d="M62.829,207.35c.016-.072.027-.153.046-.244q.215-1.016.428-2.032c1.713,1.28,3.571,3.1,5.788,3.839a4.219,4.219,0,0,0,4.632-1.46,5.121,5.121,0,0,0,.48-.8,5.937,5.937,0,0,1,.3-.716,1.548,1.548,0,0,1-1.928-.422,6.407,6.407,0,0,1-.966-1.916,8.861,8.861,0,0,0-3.093-3.935,7.091,7.091,0,0,0-4.8-1.252,6.1,6.1,0,0,0-2.928,1.174,5.275,5.275,0,0,0-1.118,1.121c-.143.2-.745,1.286-.5,1.5a1.228,1.228,0,0,0-1.391-.038,2.874,2.874,0,0,0-.965,1.107,9.5,9.5,0,0,0-1.1,6.1,11.823,11.823,0,0,0,.822,2.6c.281.7.736,1.492,1.592,1.51,1.183.026,1.052-1.958,1.387-2.982.132-.4.1-.906.582-1.026s1.269.8,1.643.045a1.4,1.4,0,0,0,.009-.893,1.2,1.2,0,0,1,.057-.884c.016-.025.626,0,.719-.03a.415.415,0,0,0,.315-.355" transform="translate(-17.655 -62.995)" fill="#485070"/>
    <path id="Trazado_610991" data-name="Trazado 610991" d="M61.522,199.482a4.418,4.418,0,0,0-.48,4.378" transform="translate(-19.267 -63.35)" fill="none" stroke="#485070" stroke-linecap="round" stroke-miterlimit="10" stroke-width="0.75"/>
    <path id="Trazado_610992" data-name="Trazado 610992" d="M57.14,203.246a1.93,1.93,0,0,1,2.411.381" transform="translate(-18.146 -64.461)" fill="none" stroke="#485070" stroke-linecap="round" stroke-miterlimit="10" stroke-width="0.75"/>
    <path id="Trazado_610993" data-name="Trazado 610993" d="M71.2,217.059a.531.531,0,1,1-.531-.531.531.531,0,0,1,.531.531" transform="translate(-22.274 -68.763)" fill="#485070"/>
    <path id="Trazado_610994" data-name="Trazado 610994" d="M70.314,215.171a1.635,1.635,0,0,1,1.069.031" transform="translate(-22.33 -68.308)" fill="none" stroke="#485070" stroke-linecap="round" stroke-miterlimit="10" stroke-width="0.75"/>
    <path id="Trazado_610995" data-name="Trazado 610995" d="M76.121,217.858a.531.531,0,1,1-.531-.531.531.531,0,0,1,.531.531" transform="translate(-23.837 -69.017)" fill="#485070"/>
    <path id="Trazado_610996" data-name="Trazado 610996" d="M75.236,215.97A1.635,1.635,0,0,1,76.3,216" transform="translate(-23.893 -68.562)" fill="none" stroke="#485070" stroke-linecap="round" stroke-miterlimit="10" stroke-width="0.75"/>
    <path id="Trazado_610997" data-name="Trazado 610997" d="M73.758,218.48a1.85,1.85,0,0,0,.349,1.331.537.537,0,0,1,.154.323.318.318,0,0,1-.255.265.937.937,0,0,1-.391-.018" transform="translate(-23.378 -69.383)" fill="none" stroke="#485070" stroke-linecap="round" stroke-miterlimit="10" stroke-width="0.75"/>
    <path id="Trazado_610998" data-name="Trazado 610998" d="M70.313,222.749a2.129,2.129,0,0,0,1.838.472" transform="translate(-22.329 -70.738)" fill="none" stroke="#485070" stroke-linecap="round" stroke-miterlimit="10" stroke-width="0.75"/>
    <path id="Trazado_610999" data-name="Trazado 610999" d="M58.361,214.989a1.949,1.949,0,1,0,1.949-1.949,1.949,1.949,0,0,0-1.949,1.949" transform="translate(-18.534 -67.655)" fill="#cf9378"/>
    <path id="Trazado_611000" data-name="Trazado 611000" d="M60.633,214.671a.838.838,0,0,1,.9,1.108.572.572,0,0,0-.956.469" transform="translate(-19.236 -68.171)" fill="none" stroke="#485070" stroke-linecap="round" stroke-linejoin="round" stroke-width="0.75"/>
    <path id="Trazado_611001" data-name="Trazado 611001" d="M370.114,379.37c-.056-.246-7.025.973-7.8,1.093l-.085.073c-2.41,2.048-5.466,3.162-8.457,4.245a2.86,2.86,0,0,0-1.262.721c-1.358,1.594,1.525,2.279,2.547,2.364a19.31,19.31,0,0,0,4.951-.482c3.356-.59,6.781-.4,10.1-1.22a.579.579,0,0,0,.351-.18.593.593,0,0,0,.084-.306,20.626,20.626,0,0,0-.437-6.307" transform="translate(-111.835 -120.466)" fill="#485070"/>
    <path id="Trazado_611002" data-name="Trazado 611002" d="M354.166,281.9c1.682,16.772,4.752,33.986,6.673,50.743a28.618,28.618,0,0,0,9.171-.566c2.5-18.228,3.562-27.026,1.3-45.517-.231-1.9-.032-17.618-.1-19.637-.4-12.019,1.206-25.739-6.013-35.888-1.823-2.563-4.81-4.53-7.846-4.292a7.087,7.087,0,0,0-5.21,3.116c-3.729,5.061-1.649,18.813-.985,24.817.88,7.96,2.2,19.23,3,27.223" transform="translate(-111.144 -72.001)" fill="#757e96"/>
    <path id="Trazado_611003" data-name="Trazado 611003" d="M355.35,292.337c.681-2.909,1.514-5.785,2.335-8.657,2.871-10.049,4.056-20.378,5.491-30.707a47.272,47.272,0,0,0,.64-7.379c-.046-2.509-.375-5.032-.576-7.533a65.35,65.35,0,0,0-1.415-10.163,7.636,7.636,0,0,0-4.469-1.152,7.084,7.084,0,0,0-5.21,3.116c-3.729,5.062-1.649,18.814-.985,24.817.88,7.96,2.2,19.23,3,27.224.343,3.423.746,6.911,1.183,10.435" transform="translate(-111.144 -72.001)" fill="#545d78"/>
    <path id="Trazado_611004" data-name="Trazado 611004" d="M329.81,382.764a1.393,1.393,0,0,0-.207.013,27.055,27.055,0,0,1-6.731-.035,2.422,2.422,0,0,0-.856-.014,2.449,2.449,0,0,0-.7.336,20.139,20.139,0,0,1-6.807,2.6,8.633,8.633,0,0,0-3.968,1.277c-.513.411-.914,1.174-.522,1.7a1.362,1.362,0,0,0,.538.388c2.1.985,5.259.6,7.512.477,3.637-.2,7.241.018,10.827-.712a.917.917,0,0,0,.415-.162.966.966,0,0,0,.268-.556,27.35,27.35,0,0,0,.542-3.013c.046-.4.271-1.841,0-2.179a.394.394,0,0,0-.309-.122" transform="translate(-98.403 -121.532)" fill="#485070"/>
    <path id="Trazado_611005" data-name="Trazado 611005" d="M343.847,230.126c-8.272-.133-10.8,8.5-11.788,15.141q-3.12,21.036-4.377,42.292c-.416,7.039-.968,12.987-1.2,20.036-.247,7.237-.637,19.759-.323,26.958a.666.666,0,0,0,.113.413.658.658,0,0,0,.448.168,49.706,49.706,0,0,0,9.136.129.776.776,0,0,0,.408-.11c.132-.1-1.038-.553-.988-.708,2.328-7.186,3.919-20.032,4.649-27.541a162.96,162.96,0,0,1,10.645-45.485c5.855-13.7,9.164-31.038-6.723-31.293" transform="translate(-103.541 -73.081)" fill="#757e96"/>
    <path id="Trazado_611006" data-name="Trazado 611006" d="M357.1,277.147a218.689,218.689,0,0,0,8.532-24.308" transform="translate(-113.406 -80.294)" fill="none" stroke="#485070" stroke-miterlimit="10" stroke-width="0.75"/>
    <path id="Trazado_611007" data-name="Trazado 611007" d="M348.338,247.165l.08.012q1.134.185,2.273.33c.557.07,1.116.128,1.677.179l.551.049q.7.057,1.4.1c.265.015.53.026.794.038.207.008.414.02.622.026v-.005a52.194,52.194,0,0,0,10.666-.75c-.528-6.337-1.911-12.445-5.594-17.624-1.823-2.563-4.81-4.53-7.846-4.292a7.08,7.08,0,0,0-5.21,3.116,7.393,7.393,0,0,0-.732,1.279c-7.187-.162-10.356,7.078-11.958,13.185a27.32,27.32,0,0,0,5.148,2.342,48.478,48.478,0,0,0,8.125,2.017" transform="translate(-106.407 -71.519)" fill="#545d78"/>
    <path id="Trazado_611008" data-name="Trazado 611008" d="M358.974,162.164a11.269,11.269,0,0,0-.2-2.773,7.237,7.237,0,0,0,4.235.122,12.339,12.339,0,0,0,2.009-.768c.231-.108.648-.448,1.032-.661-.844,3.115-.777,6.364,1.151,9.041a10.678,10.678,0,0,1-5.249,2.233c-1.628.278-5.524.536-4.588-2.2.306-.9.964-1.586,1.224-2.516a11.311,11.311,0,0,0,.384-2.472" transform="translate(-113.443 -50.203)" fill="#f7b699"/>
    <path id="Trazado_611009" data-name="Trazado 611009" d="M363.344,160.183a7.215,7.215,0,0,1-3.969-.184,11.768,11.768,0,0,1-.186,5.245c-.024.084-.053.163-.083.244.16-.02.321-.048.482-.078a9.681,9.681,0,0,0,3.756-5.227" transform="translate(-114.041 -50.811)" fill="#c46e58"/>
    <path id="Trazado_611010" data-name="Trazado 611010" d="M355.921,141.857c.957-1.377,2.1.558,3.772.6a7.22,7.22,0,0,1,3.884.762,5.468,5.468,0,0,1,2.509,3.01c.108.347.194.689.266,1.026a19,19,0,0,1,.031,3.423l-.018.072a10.3,10.3,0,0,1-3.832,4.657,5.379,5.379,0,0,1-5.434.463,4.6,4.6,0,0,1-2.154-2.35,10.23,10.23,0,0,1-.682-3.554c-.087-1.846.6-6.591,1.657-8.108" transform="translate(-112.501 -44.893)" fill="#f7b699"/>
    <path id="Trazado_611011" data-name="Trazado 611011" d="M356.817,142.844c-1.31.189-2.376.4-3.578-.306a4.259,4.259,0,0,1-1.917-2.422,5.03,5.03,0,0,1-.169-.922,6.089,6.089,0,0,0-.028-.774,1.548,1.548,0,0,0,1.954.277,6.389,6.389,0,0,0,1.574-1.458,8.865,8.865,0,0,1,4.272-2.608,7.09,7.09,0,0,1,4.939.5,6.106,6.106,0,0,1,2.334,2.122,5.264,5.264,0,0,1,.656,1.441c.064.235.249,1.465-.053,1.576a1.227,1.227,0,0,1,1.317.45,2.869,2.869,0,0,1,.519,1.374,9.253,9.253,0,0,1-.605,4.9,37.03,37.03,0,0,1-1.658,3.4,5.5,5.5,0,0,1-2.249,2.225,8.065,8.065,0,0,1-3.976.474,2.777,2.777,0,0,1-2.7-1.706,5.592,5.592,0,0,1-.345-1.782c-.016-.252-.133-2.006.073-2.111a2.172,2.172,0,0,1-.8.285.739.739,0,0,1-.727-.352,1.094,1.094,0,0,1,.033-.786l1.135-3.805" transform="translate(-111.507 -42.683)" fill="#485070"/>
    <path id="Trazado_611012" data-name="Trazado 611012" d="M374.139,138.406a4.416,4.416,0,0,1-1.078,4.271" transform="translate(-118.473 -43.954)" fill="none" stroke="#485070" stroke-linecap="round" stroke-miterlimit="10" stroke-width="0.75"/>
    <path id="Trazado_611013" data-name="Trazado 611013" d="M376.649,143.387a1.931,1.931,0,0,0-2.393-.485" transform="translate(-118.853 -45.311)" fill="none" stroke="#485070" stroke-linecap="round" stroke-miterlimit="10" stroke-width="0.75"/>
    <path id="Trazado_611014" data-name="Trazado 611014" d="M362.249,153.805A1.949,1.949,0,1,1,361.1,151.3a1.949,1.949,0,0,1,1.146,2.507" transform="translate(-113.84 -48.009)" fill="#f7b699"/>
    <path id="Trazado_611015" data-name="Trazado 611015" d="M361.706,153.037a.838.838,0,0,0-1.228.725.572.572,0,0,1,.732.774" transform="translate(-114.477 -48.57)" fill="none" stroke="#485070" stroke-linecap="round" stroke-linejoin="round" stroke-width="0.75"/>
    <path id="Trazado_611016" data-name="Trazado 611016" d="M323.659,184.748a1.8,1.8,0,0,1,1.152-1.34c.6-.21,1.619-.211,1.82-.816.1-.3.2-.416-.043-.622a1.5,1.5,0,0,0-.887-.31,2.644,2.644,0,0,0-2.432,1.351c-.143.265-.35.611-.639.527a.491.491,0,0,1-.281-.3,2.778,2.778,0,0,1,.586-2.425,4.1,4.1,0,0,1,1.333-1.52,3.956,3.956,0,0,1,2.239-.3,8.511,8.511,0,0,1,4.456,1.139c.341.24.652.52.993.762a10.947,10.947,0,0,0,2.921,1.305l-.951,3.3a.181.181,0,0,1-.27.154c-1.869-.457-4.027-.838-5.9-1.132a14.049,14.049,0,0,0-4.1.229" transform="translate(-102.332 -56.833)" fill="#f7b699"/>
    <path id="Trazado_611017" data-name="Trazado 611017" d="M338.2,180.113a11.814,11.814,0,0,0-2.546,7.671l3.6,1.437,1.24-5.707c.124-.572.633-1.789.307-2.262-.347-.5-2.025-.888-2.6-1.139" transform="translate(-106.593 -57.199)" fill="#fff"/>
    <path id="Trazado_611018" data-name="Trazado 611018" d="M351.269,184.648a26.094,26.094,0,0,0-3.1-1.629c-1.852-.832-3.8-1.514-5.661-2.158a18.269,18.269,0,0,0-2.174-.669c-2.025,2.161-2.737,5.831-2.493,8.906,2.135,1.872,5.262,2.981,7.617,4.452a25.331,25.331,0,0,0,4.074,2.256,7.186,7.186,0,0,0,4.564.392,2.9,2.9,0,0,0,1.892-1.417,3.314,3.314,0,0,0,.228-1.488,10.694,10.694,0,0,0-4.945-8.646" transform="translate(-107.273 -57.224)" fill="#545d78"/>
    <path id="Trazado_611019" data-name="Trazado 611019" d="M305.635,201.474a5.642,5.642,0,0,1-.4-4.729,2.066,2.066,0,0,1,1.161-1.312,1.818,1.818,0,0,1,1.889.779,8.7,8.7,0,0,1,.924,1.966,9.138,9.138,0,0,0,1.175,2.034,5.177,5.177,0,0,1,1.241,2.076,2.039,2.039,0,0,1-.566,1.778c-1.713,1.688-4.6-1.118-5.425-2.592" transform="translate(-96.824 -62.045)" fill="#f7b699"/>
    <path id="Trazado_611020" data-name="Trazado 611020" d="M323.077,197.006l-10.355,5.019-13.7-12.434,10.355-5.019Z" transform="translate(-94.961 -58.615)" fill="#f4ae2d"/>
    <path id="Trazado_611021" data-name="Trazado 611021" d="M322.144,197.033l-8.893,4.311L301.414,190.6l8.893-4.311Z" transform="translate(-95.72 -59.16)" fill="#fff"/>
    <path id="Trazado_611022" data-name="Trazado 611022" d="M312.652,189.315l-7.391,3.583-.721-.654,7.391-3.583Z" transform="translate(-96.713 -59.913)" fill="#c8ddf7"/>
    <path id="Trazado_611023" data-name="Trazado 611023" d="M318.185,194.338l-7.391,3.583-.721-.654,7.391-3.583Z" transform="translate(-98.47 -61.508)" fill="#c8ddf7"/>
    <path id="Trazado_611024" data-name="Trazado 611024" d="M320.018,196l-7.391,3.583-.721-.654,7.391-3.583Z" transform="translate(-99.052 -62.036)" fill="#c8ddf7"/>
    <path id="Trazado_611025" data-name="Trazado 611025" d="M321.851,197.665l-7.391,3.583-.721-.654,7.391-3.583Z" transform="translate(-99.634 -62.565)" fill="#c8ddf7"/>
    <path id="Trazado_611026" data-name="Trazado 611026" d="M323.684,199.329l-7.391,3.583-.721-.654,7.391-3.583Z" transform="translate(-100.216 -63.093)" fill="#c8ddf7"/>
    <path id="Trazado_611027" data-name="Trazado 611027" d="M325.517,200.993l-7.391,3.583-.721-.654,7.391-3.583Z" transform="translate(-100.798 -63.622)" fill="#c8ddf7"/>
    <path id="Trazado_611028" data-name="Trazado 611028" d="M309.678,186.655l-6.214,3.012-2.643-2.4,6.213-3.012Z" transform="translate(-95.532 -58.514)" fill="#485070"/>
    <path id="Trazado_611029" data-name="Trazado 611029" d="M307.321,200.532a3.061,3.061,0,0,0-.283.384c-.783,1.258.733,2.426,1.7,3.1a24.552,24.552,0,0,0,7.4,3.018c1.434.418,5.585-.605,4.439-2.857-.783-1.538-3.1-2.423-4.622-2.834a4.168,4.168,0,0,1-3.525-2.557c-.263-.712-.37-1.473-.6-2.2a1.072,1.072,0,0,0-.264-.486.414.414,0,0,0-.513-.057.572.572,0,0,0-.161.268c-.444,1.237.352,2.152-1.171,2.878-.506.241-1.06.374-1.551.645a3.108,3.108,0,0,0-.85.691" transform="translate(-97.437 -62.239)" fill="#f7b699"/>
    <path id="Trazado_611030" data-name="Trazado 611030" d="M317.885,200.681a11.811,11.811,0,0,0-1.706,7.9l3.737,1.041q.31-2.9.619-5.807c.061-.582.437-1.847.062-2.282-.4-.464-2.109-.664-2.712-.852" transform="translate(-100.374 -63.73)" fill="#fff"/>
    <path id="Trazado_611031" data-name="Trazado 611031" d="M355.745,166.906a4.68,4.68,0,0,1,2.767-.871l7.59-.707q.716,2.538,1.434,5.076c-.021-.071-8.206.254-8.986.229-.821-.025-3.484.242-3.828-.528-.381-.853.4-2.637,1.023-3.2" transform="translate(-112.617 -52.503)" fill="#fff"/>
    <path id="Trazado_611032" data-name="Trazado 611032" d="M365.684,210.319c.008-2.695.159-5.386.33-8.075.223-3.5.487-7,.532-10.512a71.031,71.031,0,0,0-.867-13.044c-.187-1.07-.41-2.128-.675-3.169-.055-.214-.113-.441-.175-.673-.806-1.934-2.336-4.5-4.376-5.64a7.851,7.851,0,0,0-1.022.018q-3.513.235-7,.774a5.853,5.853,0,0,0-3.9,1.673c-3,3.12-5.81,10.111-6.592,14.407-.748,4.1-.455,4.339-.882,8.478q-.762,7.391-2.152,14.7c-.781,4.1-1.95,8.558-5.358,10.975,5.649,2.372,11.367,4.763,17.42,5.709s12.572.313,17.721-3.008c-2.43-3.747-3.019-8.141-3.006-12.613" transform="translate(-105.925 -53.732)" fill="#757e96"/>
    <path id="Trazado_611033" data-name="Trazado 611033" d="M346.809,188.07a3.013,3.013,0,0,0-.943-1.177,2.6,2.6,0,0,0-1.557-.358c-2.369.106-4.244,2.039-5.509,4.045s-2.241,4.271-4.045,5.81c-3.149,2.686-10.727.493-14.249-.29-2.683,2.623-2.969,5.657-1.576,9.193,4.722,2.075,14.656,7,19.811,4.542a10.76,10.76,0,0,0,4.238-4.028,33.223,33.223,0,0,0,1.722-3.038,29.506,29.506,0,0,0,2.842-7.16,11.346,11.346,0,0,0-.733-7.539" transform="translate(-101.022 -59.237)" fill="#757e96"/>
    <path id="Trazado_611034" data-name="Trazado 611034" d="M356.538,175.626a4.99,4.99,0,0,0-6.169-.662c-1.11.7-1.674,2.135-2.247,3.276a31.739,31.739,0,0,0-1.79,4.332c-.505,1.537-.892,3.11-1.366,4.657-.777,2.535-1.788,5-2.369,7.588a13.428,13.428,0,0,0,.264,7.829c1.39,3.521,6.024,1.651,8.09-.308,1.778-1.688,2.631-4.1,3.423-6.424s1.591-4.661,2.386-6.991a27.52,27.52,0,0,0,1.581-7.09,8.14,8.14,0,0,0-1.8-6.206" transform="translate(-108.655 -55.32)" fill="#757e96"/>
    <path id="Trazado_611035" data-name="Trazado 611035" d="M344.843,190.888a49.393,49.393,0,0,1,5.721-14.7" transform="translate(-109.512 -55.953)" fill="none" stroke="#485070" stroke-miterlimit="10" stroke-width="0.75"/>
    <path id="Trazado_611036" data-name="Trazado 611036" d="M358.132,191.25l-3.051,8.21c-.731,1.965-1.424,4.477-2.809,6.1a32.388,32.388,0,0,1-4.357,4.708,8.318,8.318,0,0,1-5.8,1.965" transform="translate(-108.647 -60.735)" fill="none" stroke="#485070" stroke-miterlimit="10" stroke-width="0.75"/>
    <path id="Trazado_611037" data-name="Trazado 611037" d="M366.188,192.315A5.748,5.748,0,0,0,364,194.542" transform="translate(-115.597 -61.074)" fill="none" stroke="#485070" stroke-miterlimit="10" stroke-width="0.75"/>
    <path id="Trazado_611038" data-name="Trazado 611038" d="M319.921,186.685l-1.22.663.619-1.243,7.361-7.623a.418.418,0,1,1,.6.581Z" transform="translate(-101.21 -56.64)" fill="#485070"/>
  </g>
</svg>
