<svg xmlns="http://www.w3.org/2000/svg" xmlns:xlink="http://www.w3.org/1999/xlink" width="62.504" height="62.504" viewBox="0 0 62.504 62.504">
  <defs>
    <clipPath id="clip-path">
      <rect id="Rectángulo_378559" data-name="Rectángulo 378559" width="39.651" height="39.629" fill="#fff"/>
    </clipPath>
  </defs>
  <g id="Grupo_1073004" data-name="Grupo 1073004" transform="translate(-279.816 -1198.717)">
    <g id="Grupo_1072053" data-name="Grupo 1072053" transform="translate(279.816 1198.717)">
      <circle id="Elipse_4742" data-name="Elipse 4742" cx="31.252" cy="31.252" r="31.252" transform="translate(0)" fill="#ac064c"/>
    </g>
    <g id="Grupo_1073229" data-name="Grupo 1073229" transform="translate(291.243 1210.154)">
      <g id="Grupo_1073228" data-name="Grupo 1073228" clip-path="url(#clip-path)">
        <path id="Trazado_610787" data-name="Trazado 610787" d="M33.6,39.672c-.489-.041-1.02.018-1.546-.049-1.134-.146-2.272-.257-3.4-.437a31.44,31.44,0,0,1-7-1.993,34.884,34.884,0,0,1-6.917-3.828,42.467,42.467,0,0,1-3.36-2.7,32.111,32.111,0,0,1-4.735-5.287,34.027,34.027,0,0,1-4.4-8.057A35.627,35.627,0,0,1,.674,11.809,34.711,34.711,0,0,1,0,5.195a3.145,3.145,0,0,1,1.978-3.05,13.464,13.464,0,0,1,2.272-.669C5.923,1.029,7.581.532,9.264.122A3.138,3.138,0,0,1,12.6,1.68c.394.891.751,1.8,1.13,2.691q1.008,2.381,1.99,4.772a3.607,3.607,0,0,1,.364,1.354,3.118,3.118,0,0,1-.885,2.167A33.1,33.1,0,0,1,12.11,15.3c-.265.223-.541.434-.822.636-.146.1-.116.216-.067.346a9.282,9.282,0,0,0,.756,1.446,30.776,30.776,0,0,0,1.787,2.765,24.672,24.672,0,0,0,4.795,4.946A31.124,31.124,0,0,0,22.671,28.1c.218.117.451.2.668.322a.315.315,0,0,0,.451-.094c.468-.578.946-1.147,1.41-1.727a19.942,19.942,0,0,1,1.944-2.213,2.783,2.783,0,0,1,2.056-.768,3.258,3.258,0,0,1,1.085.231c1.293.52,2.589,1.033,3.866,1.59,1.2.525,2.448.945,3.625,1.525A3.192,3.192,0,0,1,39.5,30.879c-.387,1.39-.751,2.786-1.143,4.174-.231.817-.423,1.646-.7,2.448a3.142,3.142,0,0,1-3.049,2.173c-.322-.013-.644,0-1.005,0" transform="translate(0 -0.048)" fill="#fff"/>
        <path id="Trazado_610788" data-name="Trazado 610788" d="M119.445,17.7a2.013,2.013,0,0,1-1.21,1.978,1.821,1.821,0,0,1-2.457-1.578,19.983,19.983,0,0,0-.719-4.507,12.82,12.82,0,0,0-3.211-5.361,18.715,18.715,0,0,0-2.487-2.154A11.353,11.353,0,0,0,105.6,4.356c-.534-.135-1.059-.314-1.6-.42-.419-.083-.854-.076-1.281-.125a12.014,12.014,0,0,1-1.645-.188A1.89,1.89,0,0,1,99.62,1.894,1.788,1.788,0,0,1,100.9.145a3.659,3.659,0,0,1,1.64-.1,25.849,25.849,0,0,1,3.3.5A16.955,16.955,0,0,1,111.5,3.085a18,18,0,0,1,5.589,6.039,19.5,19.5,0,0,1,1.655,3.965,17.493,17.493,0,0,1,.646,3.9c.014.239.035.478.052.717" transform="translate(-79.795 0)" fill="#fff"/>
        <path id="Trazado_610789" data-name="Trazado 610789" d="M111.984,47.559a2.081,2.081,0,0,1-.791,2.017,1.81,1.81,0,0,1-2.745-.926,7.675,7.675,0,0,1-.233-1.539A6.087,6.087,0,0,0,106.59,43.6a6.661,6.661,0,0,0-2.28-1.712,8.738,8.738,0,0,0-2.8-.65A1.861,1.861,0,0,1,99.636,39.4a1.765,1.765,0,0,1,1.423-1.755,6.8,6.8,0,0,1,2.1.052,9.423,9.423,0,0,1,2.7.771,9.9,9.9,0,0,1,2.639,1.772,10.176,10.176,0,0,1,2.4,3.09,9.913,9.913,0,0,1,1.02,3.471c.022.287.059.574.068.761" transform="translate(-79.803 -30.101)" fill="#fff"/>
        <path id="Trazado_610790" data-name="Trazado 610790" d="M104.5,77.16a2.4,2.4,0,0,1-2.192,2.509,2.476,2.476,0,1,1-.331-4.937A2.4,2.4,0,0,1,104.5,77.16" transform="translate(-79.756 -59.859)" fill="#fff"/>
      </g>
    </g>
  </g>
</svg>
