<svg xmlns="http://www.w3.org/2000/svg" xmlns:xlink="http://www.w3.org/1999/xlink" width="62.504" height="62.504" viewBox="0 0 62.504 62.504">
  <defs>
    <clipPath id="clip-path">
      <rect id="Rectángulo_378558" data-name="Rectángulo 378558" width="39.875" height="35.476" fill="#fff"/>
    </clipPath>
  </defs>
  <g id="Grupo_1073003" data-name="Grupo 1073003" transform="translate(-279.816 -1198.717)">
    <g id="Grupo_1072053" data-name="Grupo 1072053" transform="translate(279.816 1198.717)">
      <circle id="Elipse_4742" data-name="Elipse 4742" cx="31.252" cy="31.252" r="31.252" transform="translate(0)" fill="#ac064c"/>
    </g>
    <g id="Grupo_1073227" data-name="Grupo 1073227" transform="translate(291.131 1212.119)">
      <g id="Grupo_1073226" data-name="Grupo 1073226" clip-path="url(#clip-path)">
        <path id="Trazado_610786" data-name="Trazado 610786" d="M19.959.008c5.115,0,10.23-.025,15.344.013a4.406,4.406,0,0,1,4.24,2.787,4.1,4.1,0,0,1,.33,1.6c0,6.682.01,13.365-.01,20.047a4.337,4.337,0,0,1-3.09,4.156,4.627,4.627,0,0,1-1.327.213c-3.938-.013-7.876-.008-11.814-.008-.323,0-.381.059-.284.364.188.591.394,1.176.594,1.763.04.116.137.143.249.145.429.005.858.019,1.287.019,1.11,0,2.22,0,3.331-.007A2.168,2.168,0,0,1,31,33.566a2.08,2.08,0,0,1-2.111,1.9q-8.983-.024-17.965.007A2.3,2.3,0,0,1,8.984,34.1a2.19,2.19,0,0,1-.065-.614,2.064,2.064,0,0,1,2.131-2.377c1.316-.035,2.635,0,3.952,0,.237,0,.473-.012.71-.023a.271.271,0,0,0,.27-.215c.2-.595.4-1.189.617-1.776.06-.16.019-.224-.12-.257a1.152,1.152,0,0,0-.264-.023c-3.938,0-7.876.024-11.814-.011a4.3,4.3,0,0,1-3.255-1.428,4.5,4.5,0,0,1-1-1.944A8.472,8.472,0,0,1,0,23.313Q-.006,13.868,0,4.424A4.168,4.168,0,0,1,.46,2.55,4.358,4.358,0,0,1,3.888.086,7.778,7.778,0,0,1,5.081.008q7.439,0,14.878,0Zm0,20.021v.009H21.51l13.591-.01c.424,0,.426,0,.427-.418q0-1.032,0-2.064,0-6.348-.007-12.7c0-.4-.034-.427-.431-.427H17.6q-6.361,0-12.722,0c-.533,0-.535,0-.535.543q0,7.259,0,14.519c0,.54,0,.541.538.541H19.956" transform="translate(0 0)" fill="#fff"/>
      </g>
    </g>
  </g>
</svg>
