<svg xmlns="http://www.w3.org/2000/svg" xmlns:xlink="http://www.w3.org/1999/xlink" width="107" height="107" viewBox="0 0 107 107">
  <defs>
    <clipPath id="clip-path">
      <rect id="Rectángulo_378246" data-name="Rectángulo 378246" width="71.569" height="70.772" fill="#fff"/>
    </clipPath>
  </defs>
  <g id="Grupo_156312" data-name="Grupo 156312" transform="translate(-288.668 -4448)">
    <path id="Elipse_5845" data-name="Elipse 5845" d="M53.5,0A53.5,53.5,0,1,1,0,53.5,53.5,53.5,0,0,1,53.5,0Z" transform="translate(288.668 4448)" fill="#376460"/>
    <g id="Grupo_1072935" data-name="Grupo 1072935" transform="translate(306.384 4466.114)">
      <g id="Grupo_1072934" data-name="Grupo 1072934" clip-path="url(#clip-path)">
        <path id="Trazado_610664" data-name="Trazado 610664" d="M36.108,70.764q-7.543,0-15.087,0c-4.593-.008-7.17-2.6-7.18-7.21,0-1.72,0-1.72-1.712-1.83a12.982,12.982,0,0,1,.3-25.924c1.465-.059,1.422-.059,1.428-1.446,0-.658-.257-.81-.838-.846A12.99,12.99,0,0,1,2.7,13.7c.288-.452.564-.9,1.188-.862a.991.991,0,0,1,.854.624c.288.582-.087.994-.341,1.435a10.914,10.914,0,1,0,7.318-5.067,10.765,10.765,0,0,0-3.53,1.319c-.676.4-1.374.624-1.83-.2-.427-.771.122-1.214.758-1.584a11.671,11.671,0,0,1,5.695-1.743c.814-.015,1.046-.278,1.062-1.107A6.288,6.288,0,0,1,20.277.042q15.869-.085,31.739,0c3.624.019,6.121,2.507,6.4,6.257.074,1,.377,1.287,1.35,1.344A12.966,12.966,0,0,1,61.3,33.229a7.847,7.847,0,0,1-1.876.246c-1.162-.02-.884.775-.944,1.445-.074.819.4.868,1.025.911a12.967,12.967,0,0,1,2.81,25.356,10.857,10.857,0,0,1-3.067.532c-.584,0-.78.214-.767.787a18.866,18.866,0,0,1-.079,2.342,6.318,6.318,0,0,1-6.42,5.891c-5.289.065-10.579.017-15.869.017Zm0-6.182H49.295c3,0,2.962,0,3.021-3.007A2.227,2.227,0,0,0,51.2,59.415a12.845,12.845,0,0,1-5.315-13.593c.15-.69.476-1.217,1.287-1.058s.92.748.744,1.457c-.053.215-.052.443-.087.664A10.8,10.8,0,0,0,59.94,59.529a10.317,10.317,0,0,0,8.941-7.388,10.184,10.184,0,0,0-2.658-11.088,10.881,10.881,0,0,0-16.172.85c-.448.548-1,.863-1.624.327s-.44-1.129.038-1.667c.42-.472.778-1.107,1.31-1.355,2.666-1.241,2.78-3.493,2.519-5.936a.838.838,0,0,1,0-.223,1.542,1.542,0,0,0-.885-1.694,12.907,12.907,0,0,1-5.086-15.206,12.384,12.384,0,0,1,5.292-6.568c1.118-.684.669-1.638.6-2.474-.071-.82-.832-.928-1.552-.916-.819.015-1.642.045-2.458-.01-.611-.041-.827.224-.986.767A2.729,2.729,0,0,1,44.4,9.182q-8.27.036-16.541,0a2.4,2.4,0,0,1-2.546-1.64C24.984,6.1,24.139,6.1,23.057,6.189c-.444.037-.894.006-1.341.006-.686,0-1.509-.02-1.584.844s-.507,1.842.613,2.586a12.917,12.917,0,0,1-.025,21.844,1.308,1.308,0,0,0-.686,1.26c.032,1.3.059,2.61-.008,3.91a1.982,1.982,0,0,0,.892,1.865,12.773,12.773,0,0,1,1.011,19.555,5.067,5.067,0,0,0-1.913,4.653c.14,1.641.245,1.867,1.9,1.868q7.1.005,14.194,0M58.551,31.433A10.9,10.9,0,1,0,47.619,20.508,10.95,10.95,0,0,0,58.551,31.433m-45.6,6.406a10.928,10.928,0,1,0,10.978,10.9,10.97,10.97,0,0,0-10.978-10.9M36.167,2.07c-5.25,0-10.5-.014-15.75.006A4.574,4.574,0,0,0,15.88,7.17c.137,1.048,1.09.721,1.675.877.626.168.356-.493.39-.786a3.116,3.116,0,0,1,3.033-3.116,38.094,38.094,0,0,1,3.907,0A2.052,2.052,0,0,1,27,6.058a1.077,1.077,0,0,0,1.256,1.077q7.875.006,15.75.007a1.155,1.155,0,0,0,1.31-1.172,2.009,2.009,0,0,1,2.069-1.825,34.974,34.974,0,0,1,4.019.01,3.1,3.1,0,0,1,2.934,2.973c.03.317-.4,1.1.435.917.6-.134,1.585.163,1.63-1.052a4.544,4.544,0,0,0-4.709-4.922q-7.763-.015-15.526,0M54.319,61.208c0,.533,0,1.088,0,1.643,0,2.666-1.131,3.8-3.793,3.806q-5.751.007-11.5,0c-5.844,0-11.687.009-17.531-.005-2.3-.006-3.5-1.221-3.544-3.514-.005-.26,0-.521,0-.782-.008-1.925.083-1.5-1.532-1.078-.409.106-.555.275-.545.673.016.6,0,1.191,0,1.787.009,3.134,1.852,4.968,5.007,4.969,10.087,0,20.174-.07,30.26.045,3.019.034,5.492-1.943,5.269-5.312C56.283,61.5,56.39,61.5,54.5,61.162c-.032-.006-.068.016-.181.046m-36.37-24.57c0-.988.023-1.907-.014-2.825-.012-.3.24-.914-.376-.813-.571.094-1.431,0-1.623.664a4.557,4.557,0,0,0,.013,2.2c.131.562.9.363,1.34.612a2.936,2.936,0,0,0,.66.159M54.319,34.6c0,1.983.011,1.989,1.573,1.422.9-.326.435-1.07.474-1.618.07-.993-.417-1.45-1.578-1.414-.985.031-.236.869-.462,1.279-.047.086-.007.219-.007.331" transform="translate(0 0)" fill="#fff"/>
        <path id="Trazado_610665" data-name="Trazado 610665" d="M36.186,73.736c-1.379,0-2.758.024-4.136-.006a3.029,3.029,0,0,1-3.063-3.043q-.049-4.191,0-8.383a3.058,3.058,0,0,1,3.041-3.085q4.191-.068,8.383,0A3.121,3.121,0,0,1,43.5,62.392q.045,4.08,0,8.16a3.1,3.1,0,0,1-3.179,3.181c-1.378.023-2.757,0-4.136,0m5.225-7.212v-3.91a1.149,1.149,0,0,0-1.3-1.306q-3.854,0-7.707,0a1.2,1.2,0,0,0-1.384,1.355q0,3.8,0,7.6A1.265,1.265,0,0,0,32.45,71.7q3.8,0,7.6,0a1.209,1.209,0,0,0,1.368-1.376c0-1.266,0-2.532,0-3.8" transform="translate(-22.488 -45.953)" fill="#fff"/>
        <path id="Trazado_610666" data-name="Trazado 610666" d="M126.163,135.01a8.761,8.761,0,0,1-4.516-1.457,1.682,1.682,0,0,0-1.831-.2,8.07,8.07,0,0,1-1.262.438c-1.171.316-2.406-.7-1.94-1.78.968-2.247.66-4.5.676-6.819a9.343,9.343,0,0,1,18.582-1,9.515,9.515,0,0,1-9.708,10.819m-7.066-3.671c1.988-.541,1.972-.513,3.7.489a7.325,7.325,0,0,0,10.98-7.67,7.3,7.3,0,1,0-14.218,3.324,3.662,3.662,0,0,1-.079,2.39,3.057,3.057,0,0,0-.382,1.467" transform="translate(-90.465 -90.219)" fill="#fff"/>
        <path id="Trazado_610667" data-name="Trazado 610667" d="M244.052,199.138c0-1.266-.011-2.533,0-3.8.018-1.609,1.053-2.253,2.424-1.479q3.4,1.918,6.764,3.9c1.3.77,1.287,2.02-.02,2.79q-3.364,1.983-6.765,3.9c-1.307.738-2.376.1-2.4-1.407-.022-1.3,0-2.607,0-3.911m2.074,3.107,5.351-3.092c-1.67-.973-3.174-1.846-4.675-2.724-.405-.237-.684-.286-.68.338.012,1.739,0,3.478,0,5.478" transform="translate(-189.486 -150.266)" fill="#fff"/>
        <path id="Trazado_610668" data-name="Trazado 610668" d="M243.8,69.951c0-.893-.03-1.787.011-2.679.027-.58-.164-.837-.753-.754a1.647,1.647,0,0,1-.223,0c-.822,0-1.712-.056-1.68-1.13.03-1.014.916-1.049,1.678-.981.8.071,1.009-.232.989-1a8.692,8.692,0,0,1,.152-2.88,2.829,2.829,0,0,1,2.318-2.151,17.014,17.014,0,0,1,3.225-.075.924.924,0,0,1,.909,1.065.941.941,0,0,1-1.027.949c-.744.006-1.488,0-2.233.011a1.133,1.133,0,0,0-1.254,1.243c-.008.372-.007.744-.007,1.116,0,1.568,0,1.577,1.514,1.712.679.061,1.161.31,1.144,1.074a.977.977,0,0,1-1.2,1.015c-1.478-.241-1.518.575-1.476,1.662.059,1.523.007,3.051.016,4.576,0,.759-.213,1.4-1.084,1.359-.772-.033-1.022-.632-1.021-1.344q0-1.4,0-2.791" transform="translate(-187.243 -45.236)" fill="#fff"/>
        <path id="Trazado_610669" data-name="Trazado 610669" d="M26.085,198.034a6.418,6.418,0,0,1-2.075-6.774c.348-1.607,1.468-1.913,2.666-.813a7.63,7.63,0,0,0,1.128.905c1.273.782,1.548.7,2.235-.575a3.6,3.6,0,0,1,4.982-1.484,2.18,2.18,0,0,0,1.965.252A1.606,1.606,0,0,1,39.13,191.3a3.57,3.57,0,0,1-.521,1.69,21.962,21.962,0,0,0-1.722,3.838c-1.92,4.627-7.627,5.794-10.892,4.692a2.145,2.145,0,0,1-1.678-1.994c-.036-1.035.79-1.315,1.768-1.49m10.864-6.086c-.941-.225-1.747.148-2.367-.424a1.658,1.658,0,0,0-2.023-.42,1.7,1.7,0,0,0-.883,1.778c.039.9-.439,1.269-1.306,1.252a5.774,5.774,0,0,1-2.185-.34c-.762-.324-1.507-.69-2.324-1.068a4.286,4.286,0,0,0,2.522,4.295c1.218.654,1.219,1.46.055,2.231-.158.1-.44.105-.44.4a6.652,6.652,0,0,0,6.665-3.028c.871-1.491.874-3.358,2.285-4.673" transform="translate(-18.47 -146.604)" fill="#fff"/>
        <path id="Trazado_610670" data-name="Trazado 610670" d="M158.167,15.976a.937.937,0,0,1,.986.956.932.932,0,0,1-.973,1.09.952.952,0,0,1-1.015-1.065.962.962,0,0,1,1-.98" transform="translate(-122.028 -12.404)" fill="#fff"/>
        <path id="Trazado_610671" data-name="Trazado 610671" d="M50.7,77.988a3.1,3.1,0,1,1-3.11,3.116,3.081,3.081,0,0,1,3.11-3.116m.026,4.094a1,1,0,1,0-.1-1.988.9.9,0,0,0-.915,1.034c.019.629.393.925,1.019.954" transform="translate(-36.951 -60.552)" fill="#fff"/>
        <path id="Trazado_610672" data-name="Trazado 610672" d="M150.268,148.712a6.217,6.217,0,0,1-3.831-2.429c-.835-1.209-.476-2.478.2-3.669a1.024,1.024,0,0,1,1.833.9c-.517,1.725-.479,1.682.971,2.644a1.483,1.483,0,0,0,2.361-.377c.393-.556.926-.792,1.523-.346.647.484.525,1.079.086,1.653a3.667,3.667,0,0,1-3.142,1.62" transform="translate(-113.322 -110.323)" fill="#fff"/>
      </g>
    </g>
  </g>
</svg>
