<svg xmlns="http://www.w3.org/2000/svg" xmlns:xlink="http://www.w3.org/1999/xlink" width="70" height="70" viewBox="0 0 70 70">
  <defs>
    <clipPath id="clip-path">
      <rect id="Rectángulo_378553" data-name="Rectángulo 378553" width="46.634" height="46.564" fill="#376460"/>
    </clipPath>
  </defs>
  <g id="Grupo_1072982" data-name="Grupo 1072982" transform="translate(-269 -958)">
    <circle id="Elipse_5614" data-name="Elipse 5614" cx="35" cy="35" r="35" transform="translate(269 958)" fill="#fff"/>
    <g id="Grupo_1073217" data-name="Grupo 1073217" transform="translate(280.683 969.718)">
      <g id="Grupo_1073216" data-name="Grupo 1073216" clip-path="url(#clip-path)">
        <path id="Trazado_610776" data-name="Trazado 610776" d="M12.545,11.711c2.227,0,4.456.036,6.682-.013a22.891,22.891,0,0,0,4.242-.552,20.911,20.911,0,0,0,4.739-1.653,24.549,24.549,0,0,0,4.056-2.444,27.632,27.632,0,0,0,3.255-2.9c1.1-1.134,2.165-2.309,3.342-3.366a2.832,2.832,0,0,1,4.339.53A2.7,2.7,0,0,1,43.665,2.9q.02,6.429,0,12.858a.884.884,0,0,0,.5.9,4.4,4.4,0,0,1,1.593,1.779,7.093,7.093,0,0,1,.869,3.751,9.576,9.576,0,0,1-.229,1.341,7.177,7.177,0,0,1-.8,1.954,4.016,4.016,0,0,1-1.617,1.632.529.529,0,0,0-.314.522c.008,4.315,0,8.631.011,12.946a3.183,3.183,0,0,1-.751,2.171,2.883,2.883,0,0,1-3.841.364,7.039,7.039,0,0,1-1.337-1.283c-.7-.8-1.524-1.493-2.24-2.279a30.467,30.467,0,0,0-2.821-2.546,14.742,14.742,0,0,0-1.919-1.365,27.592,27.592,0,0,0-4.788-2.312,22.6,22.6,0,0,0-3.906-1,21.611,21.611,0,0,0-3.627-.285c-.242,0-.484-.043-.726-.043-.183,0-.278.074-.277.3q.015,5.6.007,11.2a3.262,3.262,0,0,1-.723,2.136,2.388,2.388,0,0,1-1.876.916q-3.239.023-6.478.006a2.689,2.689,0,0,1-2.412-1.987,8.075,8.075,0,0,1-.133-1.8q-.011-5-.008-10c0-.058,0-.117,0-.175.01-.6-.064-.676-.679-.71a5.179,5.179,0,0,1-3.417-1.607A5.741,5.741,0,0,1,.01,26.062C0,23.195,0,20.328,0,17.46a7.274,7.274,0,0,1,.187-1.082A5.061,5.061,0,0,1,.6,15.055a5.492,5.492,0,0,1,2.836-2.831,6.163,6.163,0,0,1,2.714-.52c2.129.037,4.26.011,6.39.011Zm25.4,4.116h-.008c0-.505,0-1.011,0-1.516-.009-1.341.022-2.682-.028-4.023-.009-.25-.093-.269-.27-.149a4.184,4.184,0,0,0-.394.3,27.743,27.743,0,0,1-4.333,3.044,34.625,34.625,0,0,1-5.548,2.477,29.81,29.81,0,0,1-4.483,1.1c-.589.114-1.194.144-1.79.225a24.2,24.2,0,0,1-3.375.174c-.2,0-.264.049-.263.264q.012,4.009,0,8.017c0,.546-.008.536.551.547a27.256,27.256,0,0,1,6.3.643c1.061.273,2.134.489,3.168.866a33.2,33.2,0,0,1,5.515,2.482,29.268,29.268,0,0,1,3.247,2.208c.5.39,1,.771,1.5,1.157.174.134.263.081.279-.126s.039-.387.037-.58c-.056-3.934.092-7.868-.09-11.8-.082-1.765-.014-3.537-.014-5.305" transform="translate(0 0)" fill="#376460"/>
      </g>
    </g>
  </g>
</svg>
