<svg xmlns="http://www.w3.org/2000/svg" xmlns:xlink="http://www.w3.org/1999/xlink" width="70" height="70" viewBox="0 0 70 70">
  <defs>
    <clipPath id="clip-path">
      <rect id="Rectángulo_378554" data-name="Rectángulo 378554" width="43.199" height="43.218" fill="#376460"/>
    </clipPath>
  </defs>
  <g id="Grupo_1072983" data-name="Grupo 1072983" transform="translate(-269 -958)">
    <circle id="Elipse_5614" data-name="Elipse 5614" cx="35" cy="35" r="35" transform="translate(269 958)" fill="#fff"/>
    <g id="Grupo_1073219" data-name="Grupo 1073219" transform="translate(282.401 971.391)">
      <g id="Grupo_1073218" data-name="Grupo 1073218" clip-path="url(#clip-path)">
        <path id="Trazado_610777" data-name="Trazado 610777" d="M21.567,140.64q-9.576,0-19.151,0a2.351,2.351,0,0,1-1.829-.932,2.881,2.881,0,0,1-.547-2.36,16.02,16.02,0,0,0,.209-1.629A7.107,7.107,0,0,1,.62,134.2a11.032,11.032,0,0,1,1.073-2.64,12.2,12.2,0,0,1,1.671-2.409,12.947,12.947,0,0,1,2.167-2.006,14.787,14.787,0,0,1,2.645-1.5,14.169,14.169,0,0,1,3.694-.977,16.525,16.525,0,0,1,2.232-.194c4.995,0,9.99-.017,14.984.012a16.513,16.513,0,0,1,4.792.728,12.511,12.511,0,0,1,5.177,3.119,13.3,13.3,0,0,1,2.41,3.1,11.175,11.175,0,0,1,1.022,2.465c.117.443.26.879.385,1.319a4.69,4.69,0,0,1,.143.879c.051.6.161,1.188.182,1.79a2.656,2.656,0,0,1-.612,1.878,2.266,2.266,0,0,1-1.759.863c-1.452.011-2.9,0-4.355,0h-14.9Z" transform="translate(0 -97.422)" fill="#376460"/>
        <path id="Trazado_610778" data-name="Trazado 610778" d="M55.729,24.224a8.911,8.911,0,0,1-2.919-.269,16.5,16.5,0,0,1-3.482-1.472,12.52,12.52,0,0,1-3.15-2.8,10.144,10.144,0,0,1-1.171-1.8,10.334,10.334,0,0,1-.9-2.272,8.6,8.6,0,0,1-.4-2.034c-.005-.26-.051-.52-.076-.78A10.21,10.21,0,0,1,43.8,9.966a11.828,11.828,0,0,1,1.242-3.578,12.26,12.26,0,0,1,2.958-3.6,12.133,12.133,0,0,1,3.408-2,14.329,14.329,0,0,1,3.071-.7,10.143,10.143,0,0,1,3.037.073,11.757,11.757,0,0,1,4.324,1.513,12.448,12.448,0,0,1,3.93,3.687,11.625,11.625,0,0,1,1.683,3.809,15.494,15.494,0,0,1,.315,1.938,8.828,8.828,0,0,1,.067,1.477,11.738,11.738,0,0,1-.2,1.877,12.952,12.952,0,0,1-1.979,4.661,11.678,11.678,0,0,1-4.109,3.708,13.289,13.289,0,0,1-2.209.918,9.031,9.031,0,0,1-.934.259,5.54,5.54,0,0,1-1.328.223c-.45-.014-.9,0-1.352,0" transform="translate(-34.12 0)" fill="#376460"/>
      </g>
    </g>
  </g>
</svg>
