<svg xmlns="http://www.w3.org/2000/svg" xmlns:xlink="http://www.w3.org/1999/xlink" width="148.416" height="146" viewBox="0 0 148.416 146">
  <defs>
    <clipPath id="clip-path">
      <rect id="Rectángulo_378560" data-name="Rectángulo 378560" width="76.447" height="74.332" fill="#376460"/>
    </clipPath>
  </defs>
  <g id="Grupo_1073345" data-name="Grupo 1073345" transform="translate(-305.75 -2685)">
    <g id="Grupo_1073020" data-name="Grupo 1073020" transform="translate(38 1726.999)">
      <path id="Trazado_608969" data-name="Trazado 608969" d="M73,0A73,73,0,1,1,0,73,73,73,0,0,1,73,0Z" transform="translate(269 958)" fill="#e7ffdd"/>
    </g>
    <g id="Grupo_1073023" data-name="Grupo 1073023" transform="translate(307 2815.796)">
      <line id="Línea_2906" data-name="Línea 2906" x1="30.608" transform="translate(13.308)" fill="none" stroke="#376460" stroke-linecap="round" stroke-linejoin="round" stroke-width="2.5"/>
      <line id="Línea_2907" data-name="Línea 2907" x2="29.277" transform="translate(0 5.323)" fill="none" stroke="#376460" stroke-linecap="round" stroke-linejoin="round" stroke-width="2.5"/>
      <line id="Línea_2908" data-name="Línea 2908" x2="1.33" transform="translate(33.935 5.323)" fill="none" stroke="#376460" stroke-linecap="round" stroke-linejoin="round" stroke-width="2.5"/>
    </g>
    <g id="Grupo_1073026" data-name="Grupo 1073026" transform="translate(409 2699.137)">
      <line id="Línea_2906-2" data-name="Línea 2906" x1="30.608" transform="translate(13.308 0)" fill="none" stroke="#376460" stroke-linecap="round" stroke-linejoin="round" stroke-width="2.5"/>
      <line id="Línea_2907-2" data-name="Línea 2907" x2="29.277" transform="translate(0 5.323)" fill="none" stroke="#376460" stroke-linecap="round" stroke-linejoin="round" stroke-width="2.5"/>
      <line id="Línea_2908-2" data-name="Línea 2908" x2="1.33" transform="translate(33.935 5.323)" fill="none" stroke="#376460" stroke-linecap="round" stroke-linejoin="round" stroke-width="2.5"/>
    </g>
    <g id="Grupo_1073231" data-name="Grupo 1073231" transform="translate(341.777 2720.834)">
      <g id="Grupo_1073230" data-name="Grupo 1073230" clip-path="url(#clip-path)">
        <path id="Trazado_610791" data-name="Trazado 610791" d="M38.232,138.746H2.155a7.186,7.186,0,0,1-1.01-.044,1.207,1.207,0,0,1-1.1-1.06A2.946,2.946,0,0,1,0,137.153Q0,135.6,0,134.055A1.287,1.287,0,0,1,1.28,132.6a18.326,18.326,0,0,1,1.9-.029c.46-.008.921-.021,1.38,0,.241.009.313-.078.28-.3a1.024,1.024,0,0,1,0-.153q0-22.638-.013-45.276a1.341,1.341,0,0,1,1.389-1.4c3.16.012,6.32,0,9.479.005a1.354,1.354,0,0,1,1.418,1.463q0,22.623,0,45.245c0,.475-.049.409.4.409q2.531,0,5.062,0c.409,0,.409,0,.409-.428q0-5.153,0-10.306,0-12.806.008-25.612a1.581,1.581,0,0,1,.059-.576,1.2,1.2,0,0,1,1.091-.888c.2-.013.408-.031.612-.031q4.463,0,8.927,0a1.477,1.477,0,0,1,1.194.355,1.087,1.087,0,0,1,.337.732c.011.429.032.858.032,1.287q0,17.348,0,34.7c0,.775,0,.777.779.777,1.636,0,3.272-.005,4.909,0,.165,0,.258-.011.255-.226-.062-4.856-.019-9.713-.028-14.569q-.009-5.275,0-10.551a8.715,8.715,0,0,1,.049-1.133,1.148,1.148,0,0,1,1.176-1.067c3.252-.007,6.5,0,9.755,0a1.352,1.352,0,0,1,1.3,1.464q-.021,11.886-.011,23.773c0,.685.011,1.37,0,2.055,0,.22.07.276.28.274,1.748-.011,3.5-.019,5.246-.009.289,0,.372-.064.371-.366q-.016-7.884-.008-15.767a1.433,1.433,0,0,1,1.606-1.608h9.2a1.572,1.572,0,0,1,.807.136,1.2,1.2,0,0,1,.662,1.12c-.009,5.368,0,10.736-.013,16.1,0,.308.069.4.384.388.91-.023,1.82-.01,2.73-.006a3.562,3.562,0,0,1,.488.036,1.271,1.271,0,0,1,1.225,1.3c.028,1.205.06,2.413-.022,3.618a1.175,1.175,0,0,1-1.167,1.191,7.285,7.285,0,0,1-.826.037q-18.084,0-36.169,0M7.295,110.226q0,10.995-.006,21.989c0,.281.071.358.353.356q3.328-.02,6.656-.006c.273,0,.365-.063.365-.354q-.011-22,0-44.009c0-.235-.051-.31-.3-.309-2.229.008-4.458.007-6.686-.014-.322,0-.381.087-.381.388q.013,10.98.006,21.959m18.162,4.652q0,8.678,0,17.357c0,.191-.029.34.269.338,2.2-.016,4.4-.011,6.594-.013.454,0,.454,0,.456-.466v-.03q0-17.018,0-34.037c0-.264.083-.616-.052-.768-.156-.176-.518-.062-.789-.063-2.044-.006-4.089.005-6.134-.016-.3,0-.349.07-.349.342q.011,8.678.005,17.357m25.523,5.141q0-6.1.006-12.205c0-.267-.05-.359-.343-.357-2.2.014-4.4.006-6.594.008-.44,0-.411-.07-.411.409q0,11.132.006,22.264c0,.715.011,1.431,0,2.146,0,.238.08.29.3.289,2.239-.01,4.477-.017,6.716-.007.284,0,.329-.086.329-.343q-.012-6.1-.006-12.205m18.162,4.873q0-3.649,0-7.3c0-.221-.028-.316-.292-.314q-3.389.016-6.778,0c-.252,0-.3.085-.3.316q.009,7.344,0,14.689c0,.231.064.292.292.291q3.373-.016,6.747-.006c.28,0,.334-.082.333-.344-.01-2.443-.006-4.886-.006-7.329M38.193,136.271H73.314c.653,0,.653,0,.644-.609-.009-.632-.009-.633-.7-.633q-34.922,0-69.844,0c-.312,0-.744-.155-.9.063s-.048.627-.062.952c-.008.184.062.252.252.245.5-.017,1-.02,1.5-.02H38.193" transform="translate(0 -64.414)" fill="#376460"/>
        <path id="Trazado_610792" data-name="Trazado 610792" d="M98.594,55.936a3.167,3.167,0,0,1-3.119-3.8c.058-.213-.062-.244-.213-.279-.943-.219-1.89-.425-2.829-.663-1.157-.293-2.312-.6-3.458-.926-1.116-.322-2.223-.68-3.33-1.033-1.526-.486-3.033-1.026-4.529-1.6q-2.517-.962-4.975-2.063a92.073,92.073,0,0,1-9.9-5.168,90.982,90.982,0,0,1-11.284-8.015A93.491,93.491,0,0,1,42.487,19.83a3.25,3.25,0,0,1-.861-2.142,3.32,3.32,0,0,1,1.947-2.859,3.127,3.127,0,0,1,3.648.925c.746.881,1.484,1.77,2.25,2.635A85.713,85.713,0,0,0,61.926,29.945a85.631,85.631,0,0,0,14.619,8.925,88.944,88.944,0,0,0,11.86,4.685c2.3.723,4.623,1.341,6.962,1.91.406.1.819.17,1.226.265.157.037.194-.014.2-.163a3.153,3.153,0,0,1,3.4-2.819,2.972,2.972,0,0,1,2.117,1.168c1.1,1.509,2.221,3.012,3.234,4.582a3.038,3.038,0,0,1-.738,3.973c-.523.412-1.107.733-1.665,1.091q-1.471.942-2.946,1.877a3.684,3.684,0,0,1-1.6.5m1.193-8.608A1.2,1.2,0,0,1,98.4,48.572c-1.386-.3-2.777-.573-4.157-.9-1.826-.436-3.64-.916-5.435-1.461q-4.056-1.233-7.989-2.821a89.857,89.857,0,0,1-11.193-5.456,87.032,87.032,0,0,1-13.683-9.752,87.83,87.83,0,0,1-8.712-8.71c-.6-.695-1.194-1.4-1.8-2.1-.5-.577-.813-.429-1.125-.174-.38.31-.358.623.051,1.135.032.04.065.079.1.119q1.4,1.69,2.87,3.315a88.361,88.361,0,0,0,10.3,9.71A88.37,88.37,0,0,0,68.8,39.125a90.593,90.593,0,0,0,10.248,5.094q2.737,1.152,5.542,2.128,2.892,1,5.841,1.824c1.366.38,2.739.73,4.123,1.037,1.115.248,2.231.492,3.344.753a1.179,1.179,0,0,1,.916,1.272,1.43,1.43,0,0,1-.663.95.709.709,0,0,0-.2,1,.683.683,0,0,0,.991.183c1.433-.849,2.823-1.765,4.22-2.67a.7.7,0,0,0,.271-1.032,2.693,2.693,0,0,0-.238-.392c-.6-.852-1.206-1.7-1.807-2.551a16.348,16.348,0,0,0-.986-1.329.6.6,0,0,0-.94-.075.716.716,0,0,0-.086,1.06,1.784,1.784,0,0,1,.413.95" transform="translate(-31.382 -10.989)" fill="#376460"/>
        <path id="Trazado_610793" data-name="Trazado 610793" d="M188.055,14.286A14.315,14.315,0,1,1,173.7,0a14.313,14.313,0,0,1,14.351,14.286m-24.037,6.78c.1-.2.2-.38.29-.563s.174-.392.274-.581a10.365,10.365,0,0,1,4.754-4.574c.391-.191.385-.2.092-.506a2.468,2.468,0,0,1-.184-.206,5.623,5.623,0,0,1-.693-6.295,5.723,5.723,0,0,1,8.406-2.227,5.635,5.635,0,0,1,2.58,5.24A5.688,5.688,0,0,1,178,14.9c-.237.268-.251.251.069.406a10.41,10.41,0,0,1,5.115,5.2,2.656,2.656,0,0,0,.3.561,11.855,11.855,0,0,0-1.769-15.592,12.037,12.037,0,0,0-16.716.765,11.837,11.837,0,0,0-.975,14.826m9.75-4.235a6.83,6.83,0,0,0-4.138,1.1A7.92,7.92,0,0,0,166,22.859a.534.534,0,0,0,.219.668,11.74,11.74,0,0,0,5.822,2.517,12.689,12.689,0,0,0,5.151-.363A11.976,11.976,0,0,0,181.3,23.5c.21-.164.317-.312.191-.587a6.171,6.171,0,0,1-.25-.754,7.755,7.755,0,0,0-7.474-5.326m3.3-5.931A3.275,3.275,0,0,0,173.7,7.512a3.368,3.368,0,0,0-3.329,3.473,3.367,3.367,0,0,0,3.348,3.391,3.281,3.281,0,0,0,3.349-3.476" transform="translate(-120.194 0)" fill="#376460"/>
      </g>
    </g>
  </g>
</svg>
