<svg xmlns="http://www.w3.org/2000/svg" xmlns:xlink="http://www.w3.org/1999/xlink" width="148.416" height="146" viewBox="0 0 148.416 146">
  <defs>
    <clipPath id="clip-path">
      <rect id="Rectángulo_378561" data-name="Rectángulo 378561" width="79.539" height="81.668" fill="#376460"/>
    </clipPath>
  </defs>
  <g id="Grupo_1073345" data-name="Grupo 1073345" transform="translate(-725.75 -2685)">
    <g id="Grupo_1073021" data-name="Grupo 1073021" transform="translate(458 1726.999)">
      <path id="Trazado_608969" data-name="Trazado 608969" d="M73,0A73,73,0,1,1,0,73,73,73,0,0,1,73,0Z" transform="translate(269 958)" fill="#e7ffdd"/>
    </g>
    <g id="Grupo_1073024" data-name="Grupo 1073024" transform="translate(727 2815.796)">
      <line id="Línea_2906" data-name="Línea 2906" x1="30.608" transform="translate(13.308)" fill="none" stroke="#376460" stroke-linecap="round" stroke-linejoin="round" stroke-width="2.5"/>
      <line id="Línea_2907" data-name="Línea 2907" x2="29.277" transform="translate(0 5.323)" fill="none" stroke="#376460" stroke-linecap="round" stroke-linejoin="round" stroke-width="2.5"/>
      <line id="Línea_2908" data-name="Línea 2908" x2="1.33" transform="translate(33.935 5.323)" fill="none" stroke="#376460" stroke-linecap="round" stroke-linejoin="round" stroke-width="2.5"/>
    </g>
    <g id="Grupo_1073027" data-name="Grupo 1073027" transform="translate(829 2699.137)">
      <line id="Línea_2906-2" data-name="Línea 2906" x1="30.608" transform="translate(13.308 0)" fill="none" stroke="#376460" stroke-linecap="round" stroke-linejoin="round" stroke-width="2.5"/>
      <line id="Línea_2907-2" data-name="Línea 2907" x2="29.277" transform="translate(0 5.323)" fill="none" stroke="#376460" stroke-linecap="round" stroke-linejoin="round" stroke-width="2.5"/>
      <line id="Línea_2908-2" data-name="Línea 2908" x2="1.33" transform="translate(33.935 5.323)" fill="none" stroke="#376460" stroke-linecap="round" stroke-linejoin="round" stroke-width="2.5"/>
    </g>
    <g id="Grupo_1073233" data-name="Grupo 1073233" transform="translate(760.23 2717.166)">
      <g id="Grupo_1073232" data-name="Grupo 1073232" clip-path="url(#clip-path)">
        <path id="Trazado_610794" data-name="Trazado 610794" d="M10.647,140.449a39.1,39.1,0,0,1-6.12-8.479A31.435,31.435,0,0,1,1.1,119.55C.679,113.323.295,107.091,0,100.856A4.5,4.5,0,0,1,4.82,96.231a4.406,4.406,0,0,1,3.754,2.275,1.36,1.36,0,0,0,1.4.769,4.5,4.5,0,0,1,4.584,4.346c.277,3.769.522,7.54.76,11.311a1.447,1.447,0,0,0,.561,1.181c3.032,2.461,6.014,4.985,9.047,7.444s3.914,5.812,4.118,9.494c.122,2.2.363,4.4.487,6.6.04.715.283.908.986.927,2.192.06,3.094,1.05,3.1,3.284q.011,3.123,0,6.246c-.011,2.183-1.032,3.224-3.176,3.235-2.252.011-4.5,0-6.755.006-.856,0-1.578-.195-1.577-1.214,0-1.058.773-1.157,1.607-1.151,2.082.014,4.165-.027,6.245.019.843.019,1.23-.174,1.2-1.118-.064-1.952-.051-3.909,0-5.862.02-.808-.2-1.118-1.063-1.114q-9.623.047-19.247,0c-.813,0-1.138.221-1.117,1.075.049,2,.042,3.994,0,5.99-.015.79.291,1.035,1.05,1.023,2.124-.034,4.249,0,6.373-.016.874-.006,1.708.071,1.688,1.2-.018,1.025-.789,1.166-1.625,1.163-2.294-.009-4.589.014-6.883-.008a2.707,2.707,0,0,1-2.978-3.016c-.016-2.082-.006-4.164,0-6.246,0-2.47.687-3.267,3.3-3.632m9.881.112c1.911,0,3.822-.008,5.733,0,.565,0,.974,0,.893-.8-.306-3.039-.514-6.087-.827-9.126a7.179,7.179,0,0,0-2.543-4.843q-4.407-3.759-8.885-7.437a2.818,2.818,0,0,0-3.926-.046c-.908.986-.7,2.324.586,3.722.172.188.355.365.533.548q2.933,3.009,5.867,6.019c.589.6.964,1.256.218,1.973-.685.658-1.318.341-1.879-.235-2.251-2.312-4.512-4.614-6.739-6.948a5.267,5.267,0,0,1-1.53-3.411q-.443-7.88-.9-15.759c-.06-1.016-.185-2.029-.243-3.045-.093-1.624-.991-2.57-2.415-2.5a2.342,2.342,0,0,0-2.147,2.759c.25,4.109.444,8.223.793,12.324A89.514,89.514,0,0,0,3.965,123c1.261,6.618,4.653,12.026,9.336,16.733a2.622,2.622,0,0,0,2.131.845c1.7-.062,3.4-.018,5.1-.018M10.236,115.669a18.752,18.752,0,0,1,2.02-.5c.561-.074.665-.3.629-.831-.234-3.461-.425-6.925-.65-10.387a2.265,2.265,0,0,0-1.521-2.141c-.8-.294-1.4-.308-1.314.876.3,4.3.558,8.6.836,12.983" transform="translate(0 -71.687)" fill="#376460"/>
        <path id="Trazado_610795" data-name="Trazado 610795" d="M203.225,140.438c2.468.371,3.14,1.153,3.143,3.611,0,2.125.017,4.249-.006,6.374a2.667,2.667,0,0,1-2.841,2.892c-2.379.034-4.759.005-7.139.011-.809,0-1.486-.22-1.506-1.156-.022-1.029.7-1.215,1.558-1.208,2.167.017,4.334-.017,6.5.016.754.011,1.071-.223,1.056-1.017-.039-2.039-.033-4.079,0-6.119.011-.728-.276-.95-.979-.948q-9.752.027-19.5,0c-.747,0-.942.285-.932.979.032,2.039.043,4.08,0,6.118-.019.821.327,1,1.062.989,2.124-.033,4.249,0,6.374-.016.832-.006,1.61.082,1.62,1.138.009,1.01-.7,1.233-1.564,1.229-2.337-.011-4.675.016-7.011-.01a2.734,2.734,0,0,1-2.939-2.954q-.046-3.441,0-6.884a2.672,2.672,0,0,1,2.947-2.914c.933.007,1.087-.358,1.159-1.168.28-3.169.351-6.354.864-9.506a10.058,10.058,0,0,1,3.62-6.247q4.531-3.815,9.135-7.541a1.552,1.552,0,0,0,.569-1.3c.243-3.772.488-7.543.764-11.313a4.471,4.471,0,0,1,4.432-4.223,1.712,1.712,0,0,0,1.668-.979,4.479,4.479,0,0,1,4.987-1.922c2.031.6,3.524,2.179,3.446,4.071-.318,7.677-.485,15.378-1.639,22.983-.943,6.213-4.008,11.478-8.187,16.114-.2.22-.392.443-.583.669-.025.029-.025.079-.069.237m-10.117.1c1.868,0,3.737-.005,5.605,0a1.635,1.635,0,0,0,1.27-.425c5.853-5.649,9.617-12.33,10.209-20.583.243-3.386.454-6.775.679-10.163q.262-3.938.521-7.875c.108-1.667-.766-2.8-2.186-2.848s-2.281.9-2.371,2.545c-.069,1.271-.191,2.538-.269,3.809q-.462,7.56-.909,15.121a4.085,4.085,0,0,1-.843,2.362,105.6,105.6,0,0,1-7.72,8.1.991.991,0,0,1-1.39.085,1.1,1.1,0,0,1-.537-1.192,2.637,2.637,0,0,1,.811-1.118c2.159-2.222,4.338-4.427,6.454-6.689a2.422,2.422,0,0,0,.374-3.336,2.776,2.776,0,0,0-3.506-.351,6.194,6.194,0,0,0-.813.609q-4.109,3.421-8.213,6.85A7.57,7.57,0,0,0,187.5,129.9c-.609,3.3-.6,6.674-.942,10.007-.07.681.381.631.813.631h5.732m7.852-28.229c-.076,2.707-.07,2.684,1.874,3.209.532.144.655.033.686-.487.246-4.027.525-8.052.763-12.08.025-.419.3-1.009-.268-1.25a1.569,1.569,0,0,0-1.442.3,2.326,2.326,0,0,0-1.093,1.913c-.185,2.84-.353,5.681-.52,8.4" transform="translate(-134.166 -71.665)" fill="#376460"/>
        <path id="Trazado_610796" data-name="Trazado 610796" d="M107.2,67.609A16.736,16.736,0,1,1,90.286,84.242,16.81,16.81,0,0,1,107.2,67.609M96.489,93.879a10.305,10.305,0,0,1,3.433-5.5c.909-.707,1.026-1.173.467-2.218a7.439,7.439,0,0,1,5.593-10.8,7.146,7.146,0,0,1,7.261,3.241,7.3,7.3,0,0,1,.3,7.954c-.19.363-.752.709-.117,1.174a11.493,11.493,0,0,1,4.2,6.156c5.192-5.256,4.893-14.455-.536-19.777a14.354,14.354,0,0,0-20.375.3c-5.163,5.356-5.311,14.645-.217,19.465m11.4,4.777a14.338,14.338,0,0,0,6.7-2.126,1.367,1.367,0,0,0,.725-1.759,8.833,8.833,0,0,0-3.418-5.187,1.267,1.267,0,0,0-1.5-.113,7.227,7.227,0,0,1-6.717-.005,1.265,1.265,0,0,0-1.5.125,8.8,8.8,0,0,0-3.439,5.314,1.245,1.245,0,0,0,.66,1.555,15.578,15.578,0,0,0,8.495,2.195m-.795-20.949a5.044,5.044,0,0,0-5.159,4.993,5.1,5.1,0,1,0,10.208.108,5.043,5.043,0,0,0-5.049-5.1" transform="translate(-67.263 -50.368)" fill="#376460"/>
        <path id="Trazado_610797" data-name="Trazado 610797" d="M208.37,33.962a6.215,6.215,0,0,1-1.057-.3,6.391,6.391,0,0,0-5.147-.026c-2.021.761-2.676.322-2.523-1.754a7.369,7.369,0,0,0-1.79-5.233c-1.146-1.5-.966-2.16.828-2.63a7.787,7.787,0,0,0,4.744-3.5c.91-1.39,1.729-1.4,2.607-.012a7.929,7.929,0,0,0,4.87,3.526c1.615.447,1.87,1.21.8,2.493a7.338,7.338,0,0,0-1.867,5.838c.112.912-.187,1.611-1.467,1.594m-.785-2.686a5.634,5.634,0,0,1,1.255-4.816c.555-.6-.154-.709-.485-.785a4.6,4.6,0,0,1-3.08-2.252c-.282-.481-.626-.743-1.009-.086a4.94,4.94,0,0,1-3.282,2.392c-.46.108-.755.32-.341.758a5.707,5.707,0,0,1,1.283,4.816,5.966,5.966,0,0,1,5.659-.027" transform="translate(-146.864 -14.508)" fill="#376460"/>
        <path id="Trazado_610798" data-name="Trazado 610798" d="M66.411,33.958a5.106,5.106,0,0,1-.922-.267,6.638,6.638,0,0,0-5.393-.012c-1.865.7-2.53.248-2.374-1.689a7.316,7.316,0,0,0-1.809-5.353c-1.149-1.459-.948-2.149.852-2.619a7.793,7.793,0,0,0,4.74-3.505c.9-1.381,1.719-1.391,2.609.01a7.861,7.861,0,0,0,4.873,3.525c1.619.433,1.857,1.183.772,2.5a7.369,7.369,0,0,0-1.844,5.847c.114.926-.228,1.595-1.506,1.566m-3.6-3.553c.711.2,1.413.368,2.091.6.505.175.743.059.679-.477a4.864,4.864,0,0,1,1.273-3.976c.312-.352.357-.673-.229-.807A4.981,4.981,0,0,1,63.242,23.3c-.244-.428-.568-.527-.851-.033a4.948,4.948,0,0,1-3.369,2.475c-.527.115-.657.36-.3.773A4.824,4.824,0,0,1,60,30.484c-.083.612.2.719.748.525.676-.238,1.377-.4,2.071-.6" transform="translate(-41.123 -14.509)" fill="#376460"/>
        <path id="Trazado_610799" data-name="Trazado 610799" d="M137.6,14.566c-.128-.046-.21-.069-.287-.1a8.339,8.339,0,0,0-6.973-.029c-.973.392-1.511-.192-1.633-1.169a2.9,2.9,0,0,1-.016-.635,7.006,7.006,0,0,0-1.705-5.381c-1.22-1.481-.964-2.274.841-2.733a7.5,7.5,0,0,0,4.643-3.41c.953-1.464,1.771-1.478,2.7-.008a7.7,7.7,0,0,0,4.885,3.487c1.453.373,1.76,1.208.829,2.335A7.873,7.873,0,0,0,138.936,13a1.273,1.273,0,0,1-1.339,1.568m-6.028-2.914c1.507-.93,3.013-.616,4.524-.074.421.151.546-.114.5-.459A4.895,4.895,0,0,1,137.9,7.048c.38-.422.22-.691-.258-.795a4.769,4.769,0,0,1-3.375-2.425c-.294-.537-.635-.489-.917.016A4.691,4.691,0,0,1,130.1,6.228c-.488.106-.81.317-.345.838a4.755,4.755,0,0,1,1.3,3.95c-.045.335-.033.732.523.637" transform="translate(-94.044 0)" fill="#376460"/>
      </g>
    </g>
  </g>
</svg>
