<svg xmlns="http://www.w3.org/2000/svg" xmlns:xlink="http://www.w3.org/1999/xlink" width="148.416" height="146" viewBox="0 0 148.416 146">
  <defs>
    <clipPath id="clip-path">
      <rect id="Rectángulo_378582" data-name="Rectángulo 378582" width="79.732" height="83.973" fill="#376460"/>
    </clipPath>
  </defs>
  <g id="Grupo_1073315" data-name="Grupo 1073315" transform="translate(-725.75 -962.361)">
    <g id="Grupo_1073192" data-name="Grupo 1073192" transform="translate(458 4.36)">
      <path id="Trazado_608969" data-name="Trazado 608969" d="M73,0A73,73,0,1,1,0,73,73,73,0,0,1,73,0Z" transform="translate(269 958)" fill="#e7ffdd"/>
    </g>
    <g id="Grupo_1073195" data-name="Grupo 1073195" transform="translate(727 1093.157)">
      <line id="Línea_2906" data-name="Línea 2906" x1="30.608" transform="translate(13.308)" fill="none" stroke="#376460" stroke-linecap="round" stroke-linejoin="round" stroke-width="2.5"/>
      <line id="Línea_2907" data-name="Línea 2907" x2="29.277" transform="translate(0 5.323)" fill="none" stroke="#376460" stroke-linecap="round" stroke-linejoin="round" stroke-width="2.5"/>
      <line id="Línea_2908" data-name="Línea 2908" x2="1.33" transform="translate(33.935 5.323)" fill="none" stroke="#376460" stroke-linecap="round" stroke-linejoin="round" stroke-width="2.5"/>
    </g>
    <g id="Grupo_1073198" data-name="Grupo 1073198" transform="translate(829 976.498)">
      <line id="Línea_2906-2" data-name="Línea 2906" x1="30.608" transform="translate(13.308 0)" fill="none" stroke="#376460" stroke-linecap="round" stroke-linejoin="round" stroke-width="2.5"/>
      <line id="Línea_2907-2" data-name="Línea 2907" x2="29.277" transform="translate(0 5.323)" fill="none" stroke="#376460" stroke-linecap="round" stroke-linejoin="round" stroke-width="2.5"/>
      <line id="Línea_2908-2" data-name="Línea 2908" x2="1.33" transform="translate(33.935 5.323)" fill="none" stroke="#376460" stroke-linecap="round" stroke-linejoin="round" stroke-width="2.5"/>
    </g>
    <g id="Grupo_1073268" data-name="Grupo 1073268" transform="translate(760.133 993.86)">
      <g id="Grupo_1073267" data-name="Grupo 1073267" clip-path="url(#clip-path)">
        <path id="Trazado_610865" data-name="Trazado 610865" d="M0,41.114Q0,23.342,0,5.57C0,1.649,1.656,0,5.585,0H55.819c3.822,0,5.5,1.685,5.506,5.518,0,10.843.016,21.685-.024,32.527a1.865,1.865,0,0,0,1.285,2.039c5.118,2.232,10.189,4.571,15.3,6.811a2.635,2.635,0,0,1,1.794,2.727c-.021.83.007,1.661-.006,2.492-.028,1.741-.464,2.362-2.182,2.7-.873.171-.593.742-.594,1.185-.019,5.377-.013,10.755-.013,16.132,0,.743.018,1.487,0,2.23-.033,1.08-.25,2.194,1.43,2.261A1.421,1.421,0,0,1,79.5,77.884a11.366,11.366,0,0,1,.011,4.543,1.9,1.9,0,0,1-2.023,1.527c-.83.031-1.661.01-2.492.01q-19.018,0-38.036.008c-1.319,0-2.552-.013-3.129-1.534-.23-.606-.85-.3-1.279-.3Q18.976,82.11,5.4,82.124c-3.754,0-5.4-1.663-5.4-5.466Q0,58.886,0,41.114m2.516,4.054q0,15.938,0,31.875c0,1.906.728,2.682,2.564,2.684,9.226.012,18.452,0,27.677.02.763,0,1.126-.145,1.055-1a2.009,2.009,0,0,1,1.937-2.34c.693-.091.723-.416.722-.941q-.012-9.838,0-19.676c0-.577-.044-.911-.8-1A2,2,0,0,1,33.8,52.521c.021-1.093.029-2.187,0-3.279a2.2,2.2,0,0,1,1.482-2.234q10.1-4.507,20.19-9.031a2.474,2.474,0,0,1,2.271-.079c1.127.618,1.077-.03,1.076-.832-.012-7.914-.028-15.828.017-23.742.006-1.06-.325-1.292-1.331-1.291q-26.824.043-53.649,0c-1.115,0-1.361.331-1.357,1.4.039,10.581.024,21.163.024,31.744M36.03,9.554c7.122,0,14.244-.03,21.366.029,1.185.01,1.534-.339,1.43-1.475-.095-1.04-.008-2.1-.023-3.144-.025-1.775-.766-2.511-2.58-2.532-1.748-.021-3.5-.005-5.243-.005H15.063c-1.66,0-1.66,0-1.661,1.719,0,1.355.073,2.714-.023,4.062-.081,1.135.363,1.374,1.415,1.368,7.078-.041,14.157-.021,21.235-.021M56.78,52.311q9.566,0,19.131-.009c.405,0,.908.2,1.192-.282a2.76,2.76,0,0,0-1.118-3.259C70.5,46.3,64.958,43.947,59.545,41.33a5.859,5.859,0,0,0-5.682.013c-5.5,2.64-11.1,5.064-16.7,7.488-1.554.673-.917,1.887-.932,2.89-.014.978.912.569,1.418.571,6.377.029,12.754.019,19.131.019m-.208,29.227c6.428,0,12.856-.021,19.283.022,1.02.007,1.365-.259,1.34-1.309-.022-.958-.181-1.355-1.28-1.352Q56.7,78.96,37.48,78.9c-1,0-1.336.233-1.336,1.292,0,1.1.333,1.374,1.408,1.366,6.34-.05,12.681-.025,19.021-.025M47.454,65.586c0-3.142-.053-6.286.028-9.426.029-1.131-.345-1.493-1.4-1.325a1.963,1.963,0,0,1-.653,0c-1.184-.219-1.438.3-1.427,1.428.057,5.979.027,11.958.027,17.937,0,2.189,0,2.132,2.221,2.19,1,.026,1.244-.277,1.226-1.245-.061-3.185-.023-6.372-.023-9.558m7.557-.134v8.767c0,2.158,0,2.087,2.108,2.173,1.147.047,1.344-.372,1.335-1.41-.047-5.975-.023-11.95-.023-17.925,0-2.237,0-2.188-2.183-2.239-.948-.022-1.284.2-1.262,1.215.067,3.139.025,6.28.024,9.42m14.375.139c0-3.233-.018-6.466.013-9.7.007-.761-.174-1.168-1.017-1.059a3.85,3.85,0,0,1-1.046,0c-1.078-.162-1.408.243-1.4,1.351.054,5.985.025,11.971.025,17.956,0,2.246,0,2.194,2.184,2.248.966.024,1.282-.226,1.263-1.228-.063-3.188-.023-6.378-.024-9.567M6.737,9.551c1.135,0,2.271-.021,3.406.009.606.016.855-.181.844-.823-.033-1.833-.022-3.668-.006-5.5,0-.514-.1-.822-.712-.813-1.921.026-3.845-.044-5.762.044A1.99,1.99,0,0,0,2.53,4.638c-.036,1.309.019,2.621-.023,3.929-.023.718.2,1.03.957,1,1.089-.048,2.183-.012,3.274-.013M38.962,65.73c0,3.188.042,6.378-.024,9.565-.022,1.036.454,1.126,1.26,1.08.736-.041,1.422.152,1.412-1.067q-.085-9.7,0-19.392c.007-1.026-.452-1.129-1.264-1.088-.747.038-1.434-.131-1.406,1.076.077,3.274.027,6.551.027,9.827m10.929-.135c0,3.233.041,6.466-.024,9.7-.02,1.035.457,1.127,1.263,1.082.733-.041,1.419.161,1.408-1.062-.058-6.465-.049-12.931-.005-19.4.007-1.017-.435-1.141-1.254-1.089-.735.047-1.445-.155-1.415,1.069.08,3.231.027,6.465.027,9.7m13.593.132c0-3.279-.044-6.559.025-9.837.023-1.067-.493-1.093-1.273-1.061-.747.031-1.41-.134-1.4,1.078q.09,9.706,0,19.412c-.012,1.242.694,1.008,1.416,1.054.8.051,1.279-.024,1.255-1.072-.071-3.19-.025-6.383-.026-9.575m11-.169c0-3.229-.047-6.459.026-9.686.025-1.089-.523-1.067-1.281-1.041-.74.025-1.4-.147-1.392,1.069q.092,9.751,0,19.5c-.01,1.189.689.946,1.35.96.691.014,1.346.164,1.319-.988-.077-3.271-.027-6.544-.027-9.817" transform="translate(0 0)" fill="#376460"/>
        <path id="Trazado_610866" data-name="Trazado 610866" d="M55.953,71.061a12.981,12.981,0,1,1-13-13.025,13.037,13.037,0,0,1,13,13.025m-23.445-.078a10.15,10.15,0,0,0,1.717,5.806c1.173,1.8,1.18,1.8,2.783.387a1.7,1.7,0,0,1,.3-.247c.9-.475,1.039-.885.293-1.8a6.653,6.653,0,0,1,.51-8.846,6.8,6.8,0,0,1,10.913,7.865c-.36.682-1.312,1.382-1.2,1.9.143.654,1.206,1.053,1.679,1.7.7.963,1.088.553,1.633-.116a10.493,10.493,0,1,0-18.633-6.652m14.793.1a4.306,4.306,0,0,0-4.23-4.4,4.341,4.341,0,1,0-.113,8.68A4.285,4.285,0,0,0,47.3,71.086M42.591,81.51a10.483,10.483,0,0,0,4.866-.995c.343-.161.98-.34.433-.906-1.071-1.1-2.2-2.141-3.936-1.865A3.758,3.758,0,0,1,42.4,77.8c-1.774-.459-2.978.527-4.157,1.608-.6.551-.332.851.258,1.111a10.438,10.438,0,0,0,4.091.988" transform="translate(-22.123 -42.809)" fill="#376460"/>
        <path id="Trazado_610867" data-name="Trazado 610867" d="M32.483,187.61c-.009,1.14.434,1.635,1.7,1.672,1.091.033,2.185-.012,3.276.016a3.754,3.754,0,0,1,3.813,3.683c.162,2.737-1.022,4.464-3.385,4.723-.8.087-1.049.319-1.027,1.089.023.8-.353,1.36-1.251,1.33a1.128,1.128,0,0,1-1.159-1.3c.054-.9-.326-1.036-1.118-1.121a3.765,3.765,0,0,1-3.308-3.379c-.087-.777.152-1.416,1-1.578a1.1,1.1,0,0,1,1.411,1.012c.177,1.3.971,1.627,2.123,1.58.872-.036,1.748.018,2.621-.015,1.208-.047,1.692-.609,1.7-1.833a1.5,1.5,0,0,0-1.657-1.73c-1.136-.015-2.273.022-3.407-.017a3.892,3.892,0,0,1-3.838-3.993c-.1-2.337,1.232-4.164,3.382-4.4.821-.092,1.135-.274,1.1-1.134a1.13,1.13,0,0,1,1.171-1.294c.9-.024,1.266.548,1.239,1.342s.236,1,1.031,1.077a3.673,3.673,0,0,1,3.381,3.681c-.022.693-.265,1.2-1.011,1.3a1.075,1.075,0,0,1-1.336-.947c-.163-1.367-.99-1.708-2.194-1.656-.829.036-1.66.009-2.49.008-1.182,0-1.783.568-1.752,1.9" transform="translate(-22.1 -133.448)" fill="#376460"/>
        <path id="Trazado_610868" data-name="Trazado 610868" d="M42.093,268.988c3.322,0,6.645.01,9.968-.007.913,0,1.75.105,1.738,1.249-.012,1.07-.831,1.181-1.681,1.18q-10.1-.006-20.2,0c-.871,0-1.69-.178-1.69-1.189,0-1.074.828-1.255,1.764-1.248,3.366.027,6.733.01,10.1.01" transform="translate(-22.299 -198.406)" fill="#376460"/>
        <path id="Trazado_610869" data-name="Trazado 610869" d="M147.324,121.8q-3.338,0-6.675,0c-.919,0-1.722-.221-1.7-1.326.02-1.035.81-1.225,1.666-1.225,4.494,0,8.987.006,13.481-.006.923,0,1.777.216,1.786,1.26.008,1.027-.809,1.31-1.75,1.3-2.269-.019-4.537-.006-6.806-.007" transform="translate(-102.492 -87.956)" fill="#376460"/>
        <path id="Trazado_610870" data-name="Trazado 610870" d="M147.339,74.41c-2.273,0-4.546-.008-6.819,0-.876,0-1.631-.162-1.6-1.239.025-.978.726-1.168,1.557-1.166q6.884.012,13.768,0c.912,0,1.636.274,1.622,1.259-.013.92-.724,1.163-1.576,1.154-2.316-.025-4.633-.008-6.949-.008" transform="translate(-102.469 -53.113)" fill="#376460"/>
        <path id="Trazado_610871" data-name="Trazado 610871" d="M86.741,226.763c-1.135,0-2.269,0-3.4,0-.881,0-1.6-.29-1.6-1.3,0-.941.689-1.246,1.518-1.25q3.535-.018,7.07,0c.837.006,1.488.353,1.468,1.3s-.68,1.245-1.515,1.252c-1.178.011-2.357,0-3.535,0" transform="translate(-60.291 -165.376)" fill="#376460"/>
        <path id="Trazado_610872" data-name="Trazado 610872" d="M86.692,246.718c-1.134,0-2.269.014-3.4,0-.881-.014-1.6-.332-1.557-1.347.039-.934.729-1.2,1.562-1.2q3.469,0,6.938,0c.835,0,1.519.263,1.554,1.2.038,1.018-.677,1.33-1.559,1.341-1.178.015-2.356,0-3.534,0" transform="translate(-60.287 -180.108)" fill="#376460"/>
        <path id="Trazado_610873" data-name="Trazado 610873" d="M86.747,206.85c-1.134,0-2.268-.006-3.4,0-.887.006-1.606-.261-1.613-1.276-.006-.947.69-1.25,1.51-1.256q3.533-.026,7.067,0c.83.006,1.5.335,1.481,1.283-.018.93-.658,1.249-1.509,1.247q-1.767,0-3.534,0" transform="translate(-60.287 -150.703)" fill="#376460"/>
        <path id="Trazado_610874" data-name="Trazado 610874" d="M86.769,187.052c-1.22,0-2.44,0-3.66,0-.811,0-1.372-.368-1.4-1.215-.029-.87.551-1.251,1.348-1.258q3.725-.028,7.451.007a1.132,1.132,0,0,1,1.266,1.2,1.189,1.189,0,0,1-1.344,1.264c-1.22.012-2.44,0-3.66,0" transform="translate(-60.271 -136.142)" fill="#376460"/>
        <path id="Trazado_610875" data-name="Trazado 610875" d="M171.651,98.225c-1.137,0-2.274.011-3.41,0-.819-.01-1.366-.4-1.34-1.262.023-.782.527-1.154,1.3-1.154,2.317,0,4.634.009,6.952,0,.865,0,1.37.452,1.354,1.249a1.18,1.18,0,0,1-1.316,1.173c-1.18,0-2.361,0-3.541,0" transform="translate(-123.111 -70.665)" fill="#376460"/>
        <path id="Trazado_610876" data-name="Trazado 610876" d="M141.742,98.233c-.524,0-1.05.016-1.573,0-.762-.029-1.262-.4-1.267-1.2a1.106,1.106,0,0,1,1.235-1.211c1.093-.011,2.186-.007,3.278,0a1.117,1.117,0,0,1,1.218,1.107,1.156,1.156,0,0,1-1.188,1.286c-.563.054-1.135.01-1.7.01v.008" transform="translate(-102.459 -70.675)" fill="#376460"/>
        <path id="Trazado_610877" data-name="Trazado 610877" d="M208.858,166.815a3.855,3.855,0,0,1-3.932,3.973,3.934,3.934,0,0,1-4.008-3.934,3.99,3.99,0,0,1,3.968-3.995,3.923,3.923,0,0,1,3.972,3.956m-2.438.013a1.445,1.445,0,0,0-1.467-1.482,1.351,1.351,0,0,0-1.5,1.431,1.392,1.392,0,0,0,1.493,1.579,1.468,1.468,0,0,0,1.474-1.527" transform="translate(-148.204 -120.13)" fill="#376460"/>
      </g>
    </g>
  </g>
</svg>
