<svg xmlns="http://www.w3.org/2000/svg" xmlns:xlink="http://www.w3.org/1999/xlink" width="70" height="70" viewBox="0 0 70 70">
  <defs>
    <clipPath id="clip-path">
      <rect id="Rectángulo_378588" data-name="Rectángulo 378588" width="47.305" height="36.708" fill="#376460"/>
    </clipPath>
  </defs>
  <g id="Grupo_1073320" data-name="Grupo 1073320" transform="translate(-1230 -1548)">
    <g id="Grupo_1073203" data-name="Grupo 1073203" transform="translate(961 590)">
      <circle id="Elipse_5614" data-name="Elipse 5614" cx="35" cy="35" r="35" transform="translate(269 958)" fill="#fff"/>
      <g id="Grupo_1073279" data-name="Grupo 1073279" transform="translate(280.347 974.646)">
        <g id="Grupo_1073278" data-name="Grupo 1073278" clip-path="url(#clip-path)">
          <path id="Trazado_610894" data-name="Trazado 610894" d="M23.645,74.386H46.676c.622,0,.622,0,.622.612,0,4.972-.008,9.944.006,14.916a5.567,5.567,0,0,1-.835,3.047,4.922,4.922,0,0,1-3.057,2.246,5.969,5.969,0,0,1-1.456.166q-18.215-.007-36.429,0a5.705,5.705,0,0,1-3.34-1A4.707,4.707,0,0,1,.811,92.876,5.846,5.846,0,0,1,.03,89.815q0-7.3-.006-14.6c0-.2-.01-.4-.023-.6-.012-.18.055-.239.243-.239q8.41.012,16.82.012h6.58Zm1.367,13.22c1.675,0,3.349-.008,5.024.005a1.783,1.783,0,0,0,1.078-.345,1.323,1.323,0,0,0-.3-2.251,3.549,3.549,0,0,0-1.06-.165q-4.735,0-9.47,0a4.022,4.022,0,0,0-.911.11,1.074,1.074,0,0,0-.862.692,1.348,1.348,0,0,0,.858,1.878,1.924,1.924,0,0,0,.649.075h5m-13.145-2.7c-.824,0-1.648,0-2.472,0a2.694,2.694,0,0,0-.444.038,1.271,1.271,0,0,0-.982,1.809,1.4,1.4,0,0,0,1.415.845c1.639.015,3.278,0,4.917.011a1.691,1.691,0,0,0,.758-.173,1.321,1.321,0,0,0-.589-2.528c-.868-.011-1.735,0-2.6,0" transform="translate(0 -58.665)" fill="#376460"/>
          <path id="Trazado_610895" data-name="Trazado 610895" d="M23.649,7.8Q12.215,7.8.781,7.8c-.9,0-.713-.01-.708-.721,0-.57.009-1.14,0-1.709A5.425,5.425,0,0,1,.766,2.656,5.384,5.384,0,0,1,2.881.6,5.688,5.688,0,0,1,5.8,0Q12.67,0,19.54,0,30.477,0,41.413,0a12.371,12.371,0,0,1,1.731.107,4.807,4.807,0,0,1,2.132.964,5.106,5.106,0,0,1,1.689,2.235,4.553,4.553,0,0,1,.371,1.737c.006.815,0,1.631.01,2.446,0,.19-.067.26-.252.285a4.877,4.877,0,0,1-.656.023q-11.4,0-22.79,0Z" transform="translate(-0.042 -0.001)" fill="#376460"/>
        </g>
      </g>
    </g>
  </g>
</svg>
