<svg xmlns="http://www.w3.org/2000/svg" xmlns:xlink="http://www.w3.org/1999/xlink" width="70" height="70" viewBox="0 0 70 70">
  <defs>
    <clipPath id="clip-path">
      <rect id="Rectángulo_378586" data-name="Rectángulo 378586" width="46.754" height="37.376" fill="#376460"/>
    </clipPath>
  </defs>
  <g id="Grupo_1073318" data-name="Grupo 1073318" transform="translate(-610 -1548)">
    <g id="Grupo_1073201" data-name="Grupo 1073201" transform="translate(341 590)">
      <circle id="Elipse_5614" data-name="Elipse 5614" cx="35" cy="35" r="35" transform="translate(269 958)" fill="#fff"/>
      <g id="Grupo_1073275" data-name="Grupo 1073275" transform="translate(280.623 974.312)">
        <g id="Grupo_1073274" data-name="Grupo 1073274" clip-path="url(#clip-path)">
          <path id="Trazado_610889" data-name="Trazado 610889" d="M28.061,14.987q0,5.38.006,10.759c0,.362-.082.717-.054,1.079.007.085-.073.113-.132.148a8.585,8.585,0,0,0-2.768,2.536,10.632,10.632,0,0,0-1.147,2.043,11.066,11.066,0,0,0-.57,2.368,5.452,5.452,0,0,0-.029,1.606,6.1,6.1,0,0,0,.316,1.114,4.393,4.393,0,0,0,.246.528c.064.131.024.192-.119.192l-.562,0c-1.834,0-3.668-.024-5.5.018-.2,0-.165-.111-.165-.222,0-1.341.006-2.682,0-4.023,0-.631.006-1.262-.014-1.894a2.831,2.831,0,0,0-.3-1.044,5.275,5.275,0,0,0-.484-.848,3.08,3.08,0,0,0-1.234-.969,3.324,3.324,0,0,0-2.282-.25,3.394,3.394,0,0,0-2.378,1.827,4.065,4.065,0,0,0-.407,1.871c0,1.731,0,3.461,0,5.192,0,.312-.042.348-.35.348-2.232,0-4.464.02-6.7-.016A3.259,3.259,0,0,1,.7,35.946,3.965,3.965,0,0,1,0,33.592q.015-9.309,0-18.618c0-3.844-.022-7.687.007-11.531A3.488,3.488,0,0,1,3.05.082,8.464,8.464,0,0,1,4.706.005C11.23,0,17.753-.009,24.277.012a3.6,3.6,0,0,1,3.044,1.42,3.852,3.852,0,0,1,.646,1.636,9.8,9.8,0,0,1,.094,1.815q0,5.052,0,10.1ZM16.44,9.293h-.017c0-.381,0-.763,0-1.144a1.2,1.2,0,0,0-.952-1.112A10.064,10.064,0,0,0,12.955,7c-.984.1-1.231.381-1.3,1.372a11.661,11.661,0,0,0,.021,2.217,1.145,1.145,0,0,0,1.105,1.122,13.771,13.771,0,0,0,2.453.011,1.206,1.206,0,0,0,1.206-1.326c0-.366,0-.732,0-1.1m-2.454,7.043v.009c-.413,0-.828-.017-1.24,0a1.06,1.06,0,0,0-1.025.891,9.221,9.221,0,0,0-.029,2.747,1.027,1.027,0,0,0,1.015,1.042,10.34,10.34,0,0,0,2.66,0,1.161,1.161,0,0,0,1.062-1.189c.041-.779.027-1.559,0-2.337a1.151,1.151,0,0,0-1.151-1.171c-.429-.006-.858,0-1.287,0M9.37,18.7H9.36c0-.4.015-.81,0-1.214a1.062,1.062,0,0,0-1.051-1.148,16.358,16.358,0,0,0-2.523-.008A1.2,1.2,0,0,0,4.6,17.622a20.281,20.281,0,0,0,0,2.195,1.188,1.188,0,0,0,1.135,1.231,12.328,12.328,0,0,0,2.543-.007A1.117,1.117,0,0,0,9.37,19.8q0-.549,0-1.1m-2.4-11.7c-.359,0-.718,0-1.077,0A1.136,1.136,0,0,0,4.616,8.174a12.155,12.155,0,0,0,0,2.428,1.147,1.147,0,0,0,1.023,1.106A14.838,14.838,0,0,0,8.329,11.7a1.074,1.074,0,0,0,.927-.649,1.771,1.771,0,0,0,.111-.779c0-.647-.026-1.294-.006-1.939A1.161,1.161,0,0,0,8.14,7.009c-.39-.009-.78,0-1.17,0M18.691,18.722h0c0,.4-.008.794,0,1.191a1.064,1.064,0,0,0,.9,1.093,7.693,7.693,0,0,0,1.723.094,4.867,4.867,0,0,0,1.231-.1.973.973,0,0,0,.857-.989c.026-.863.028-1.729,0-2.592a1.126,1.126,0,0,0-1.052-1.078,17.876,17.876,0,0,0-2.43-.014,1.188,1.188,0,0,0-1.225,1.367c.011.342,0,.685,0,1.028m0-9.362h0c0,.429-.014.858,0,1.285a1.087,1.087,0,0,0,.977,1.049,14.718,14.718,0,0,0,2.523.029,1.187,1.187,0,0,0,.543-.118,1.149,1.149,0,0,0,.66-1.068c0-.8.013-1.6.011-2.407a1.114,1.114,0,0,0-.172-.6,1.171,1.171,0,0,0-1.062-.521q-1.123-.013-2.246,0a1.116,1.116,0,0,0-1.239,1.229c-.006.374,0,.748,0,1.122" transform="translate(0 0)" fill="#376460"/>
          <path id="Trazado_610890" data-name="Trazado 610890" d="M147.961,158.975q-4.026,0-8.053,0a2.359,2.359,0,0,1-2.1-1.2,2.986,2.986,0,0,1-.284-1.789,6.263,6.263,0,0,1,.933-3.046,5.949,5.949,0,0,1,1.64-1.824,6.6,6.6,0,0,1,3.889-1.385c2.684.012,5.368,0,8.053.015a6.313,6.313,0,0,1,3.555,1.208,6.426,6.426,0,0,1,2.611,3.8,6.875,6.875,0,0,1,.238,1.613,2.4,2.4,0,0,1-2.426,2.6h-8.053Z" transform="translate(-111.686 -121.614)" fill="#376460"/>
          <path id="Trazado_610891" data-name="Trazado 610891" d="M162.479,80.632a4.028,4.028,0,0,1,.2-1.774,5.536,5.536,0,0,1,1.817-2.653,6.249,6.249,0,0,1,1.334-.853,5.3,5.3,0,0,1,3.454-.44c.424.1.829.253,1.242.385a3.261,3.261,0,0,1,.949.543,6.266,6.266,0,0,1,1.784,1.886,6.563,6.563,0,0,1,.575,1.471,5.272,5.272,0,0,1,.128,2.174,5.606,5.606,0,0,1-2.346,3.935A6.253,6.253,0,0,1,169,86.346a5.4,5.4,0,0,1-2.036-.081,5.462,5.462,0,0,1-2.017-.874,5.59,5.59,0,0,1-1.609-1.633,4.545,4.545,0,0,1-.864-2.8c.008-.109,0-.218,0-.327" transform="translate(-131.948 -60.741)" fill="#376460"/>
        </g>
      </g>
    </g>
  </g>
</svg>
