<svg xmlns="http://www.w3.org/2000/svg" xmlns:xlink="http://www.w3.org/1999/xlink" width="148.416" height="146" viewBox="0 0 148.416 146">
  <defs>
    <clipPath id="clip-path">
      <rect id="Rectángulo_378177" data-name="Rectángulo 378177" width="80.359" height="80.347" fill="#376460"/>
    </clipPath>
  </defs>
  <g id="Grupo_1073288" data-name="Grupo 1073288" transform="translate(-1145.75 -1549)">
    <g id="Grupo_1072844" data-name="Grupo 1072844" transform="translate(878 591)">
      <path id="Trazado_608969" data-name="Trazado 608969" d="M73,0A73,73,0,1,1,0,73,73,73,0,0,1,73,0Z" transform="translate(269 958)" fill="#e7ffdd"/>
    </g>
    <g id="Grupo_1072847" data-name="Grupo 1072847" transform="translate(1147 1679.797)">
      <line id="Línea_2906" data-name="Línea 2906" x1="30.608" transform="translate(13.308)" fill="none" stroke="#376460" stroke-linecap="round" stroke-linejoin="round" stroke-width="2.5"/>
      <line id="Línea_2907" data-name="Línea 2907" x2="29.277" transform="translate(0 5.323)" fill="none" stroke="#376460" stroke-linecap="round" stroke-linejoin="round" stroke-width="2.5"/>
      <line id="Línea_2908" data-name="Línea 2908" x2="1.33" transform="translate(33.935 5.323)" fill="none" stroke="#376460" stroke-linecap="round" stroke-linejoin="round" stroke-width="2.5"/>
    </g>
    <g id="Grupo_1072850" data-name="Grupo 1072850" transform="translate(1249 1563.138)">
      <line id="Línea_2906-2" data-name="Línea 2906" x1="30.608" transform="translate(13.308 0)" fill="none" stroke="#376460" stroke-linecap="round" stroke-linejoin="round" stroke-width="2.5"/>
      <line id="Línea_2907-2" data-name="Línea 2907" x2="29.277" transform="translate(0 5.323)" fill="none" stroke="#376460" stroke-linecap="round" stroke-linejoin="round" stroke-width="2.5"/>
      <line id="Línea_2908-2" data-name="Línea 2908" x2="1.33" transform="translate(33.935 5.323)" fill="none" stroke="#376460" stroke-linecap="round" stroke-linejoin="round" stroke-width="2.5"/>
    </g>
    <g id="Grupo_1072888" data-name="Grupo 1072888" transform="translate(1179.82 1582.313)">
      <g id="Grupo_1072887" data-name="Grupo 1072887" clip-path="url(#clip-path)">
        <path id="Trazado_610619" data-name="Trazado 610619" d="M9.322,39.385,7.341,43.692Q5.5,47.7,3.656,51.706a10.766,10.766,0,0,0-.96,4.509q-.021,11.848,0,23.7c0,.346-.081.452-.432.434-.612-.031-1.228-.027-1.84,0C.1,80.358,0,80.288,0,79.935c.015-4.139.01-8.278.01-12.417,0-3.447.027-6.895-.009-10.342a16.7,16.7,0,0,1,1.634-7.368c1.839-3.922,3.635-7.864,5.444-11.8a5.5,5.5,0,0,1,1.494-2.223,1.707,1.707,0,0,1,.436-.3c.342-.118.379-.349.379-.667q-.011-12.283,0-24.567a11.256,11.256,0,0,1,.573-3.981,9.47,9.47,0,0,1,4.419-5.124A10.347,10.347,0,0,1,19.546.009C28.115,0,36.685-.011,45.254.014a9.358,9.358,0,0,1,7.995,4.111c.39.548.382.554-.187.881-.521.3-1.048.592-1.559.908-.2.122-.228-.021-.292-.129a6.189,6.189,0,0,0-2-2.036,6.427,6.427,0,0,0-3.6-1.061q-13.473-.005-26.947,0a6.587,6.587,0,0,0-6.1,4.086,6.389,6.389,0,0,0-.5,2.538q-.009,24.2,0,48.4v.632a.5.5,0,0,0,.259-.281q1.553-2.673,3.1-5.349c.493-.848.953-1.718,1.5-2.53a5.306,5.306,0,0,1,8.983.333,5.519,5.519,0,0,1,.553,3.948,2.054,2.054,0,0,1-.131.377.529.529,0,0,0-.066.388,6.137,6.137,0,0,1,.891-.876,3.564,3.564,0,0,1,1.913-.723,46.184,46.184,0,0,1,6.219.009,3.961,3.961,0,0,1-.079,7.884,45.812,45.812,0,0,1-6.185-.005,3.979,3.979,0,0,1-3.506-3.389,3.658,3.658,0,0,1,.136-1.676c-.229.105-.253.291-.332.427q-2.052,3.524-4.093,7.055c-.192.333-.19.335.2.335q12.067,0,24.135,0a6.658,6.658,0,0,0,6.406-4.716,6.286,6.286,0,0,0,.262-1.915c0-2.142,0-4.284,0-6.426,0-.248.043-.348.322-.34.7.022,1.406.016,2.109,0,.212,0,.262.064.259.265-.037,2.309.084,4.62-.07,6.926a9.163,9.163,0,0,1-4.952,7.753,10.019,10.019,0,0,1-5.064,1.126q-11.632.011-23.265,0c-.078,0-.156,0-.234,0-.234-.017-.236.056-.121.238.652,1.025,1.3,2.056,1.863,3.131a8.614,8.614,0,0,1,.973,3.482c.141,2.1.039,4.194.074,6.29,0,.221-.081.254-.272.252-.7-.009-1.406-.016-2.109,0-.258.007-.311-.074-.31-.318.01-1.863.006-3.726.006-5.589a6.308,6.308,0,0,0-.872-3.287c-.866-1.455-1.715-2.923-2.633-4.346a2,2,0,0,1-.013-2.377c1.288-2.124,2.5-4.294,3.743-6.446.679-1.177,1.4-2.332,2.021-3.541a2.7,2.7,0,0,0-4.793-2.506q-2.881,5-5.76,9.991a1.54,1.54,0,0,1-1.358.984,1.524,1.524,0,0,1-1.311-1.044,10.11,10.11,0,0,1-1.078-4.575q.015-8.434.012-16.869,0-.515,0-1.029l-.07-.006M32.174,56.239c-.925,0-1.85-.011-2.774,0a1.241,1.241,0,0,0-1.271,1.271,1.262,1.262,0,0,0,1.221,1.393c1.86.02,3.721.014,5.582,0a1.113,1.113,0,0,0,.935-.44A1.452,1.452,0,0,0,36,56.892a1.229,1.229,0,0,0-1.222-.653c-.869-.005-1.738,0-2.607,0" transform="translate(0 0)" fill="#376460"/>
        <path id="Trazado_610620" data-name="Trazado 610620" d="M173.958,46.419c-.346,8.127-3.871,14.4-10.938,18.574a21.058,21.058,0,0,1-15.433,2.2,20.862,20.862,0,0,1-8.641-4.327,1.645,1.645,0,0,0-1.569-.387c-1.377.264-2.746.569-4.134.78-1.221.185-2.426.469-3.64.7a1.286,1.286,0,0,1-1.365-.493,1.221,1.221,0,0,1-.076-1.49c.975-1.637,1.939-3.28,2.907-4.921.5-.845.991-1.692,1.494-2.534a.447.447,0,0,0,.024-.438,20.677,20.677,0,0,1-1.472-8.563,21.475,21.475,0,0,1,16.532-19.976,20.246,20.246,0,0,1,5.3-.572,22.1,22.1,0,0,1,4.6.605,21.584,21.584,0,0,1,16.416,20.85M152.622,65.107a18.75,18.75,0,0,0,5.888-.936A18.551,18.551,0,0,0,167.1,58.2a18.172,18.172,0,0,0,4.056-9.761,19.111,19.111,0,0,0-.646-7.478A18.762,18.762,0,0,0,157.94,28.4a19.08,19.08,0,0,0-6.814-.708,18.364,18.364,0,0,0-4.89,1A18.587,18.587,0,0,0,138.23,34.2a18,18,0,0,0-4.112,8.579,19.741,19.741,0,0,0-.287,5.06,17.318,17.318,0,0,0,1.316,5.6,2.152,2.152,0,0,1-.169,2.147c-1.022,1.66-1.994,3.351-2.984,5.031-.044.074-.127.159-.067.243s.165.009.243-.016a16.41,16.41,0,0,1,2.186-.472,22.624,22.624,0,0,0,2.853-.537c1.134-.344,2.118-.369,2.917.64a.179.179,0,0,0,.024.023,18.516,18.516,0,0,0,7,3.871,19.583,19.583,0,0,0,5.476.746" transform="translate(-93.599 -18.256)" fill="#376460"/>
        <path id="Trazado_610621" data-name="Trazado 610621" d="M61.433,80.95A6.7,6.7,0,0,1,58.306,68.4a6.507,6.507,0,0,1,6.373-.045c.194.1.341.374.565.293.179-.065.3-.287.449-.436.472-.474.952-.941,1.416-1.424.135-.14.22-.142.353-.007q.752.762,1.52,1.508c.151.146.133.244-.011.383-.6.581-1.185,1.181-1.793,1.755-.139.13-.079.194-.009.3a5.958,5.958,0,0,1,1.047,3.435A6.594,6.594,0,0,1,65.354,79.7a6.758,6.758,0,0,1-3.921,1.252m.224-2.715a3.727,3.727,0,0,0,2.377-.839,3.956,3.956,0,0,0,1.381-4.226c-.046-.211-.025-.529-.213-.595-.212-.074-.352.22-.5.37q-1.677,1.659-3.342,3.331c-.12.12-.213.218-.38.048-.516-.525-1.043-1.038-1.568-1.554-.106-.1-.125-.173,0-.3,1.157-1.146,2.3-2.3,3.455-3.454a3.622,3.622,0,0,0,.281-.286c.093-.116.1-.214-.083-.267a4.42,4.42,0,0,0-3.324.136,4.029,4.029,0,0,0,1.922,7.633" transform="translate(-40.101 -48.778)" fill="#376460"/>
        <path id="Trazado_610622" data-name="Trazado 610622" d="M105.142,22.639c-1.684,0-3.369-.005-5.053.006-.244,0-.325-.052-.318-.31q.029-1.036,0-2.074c-.008-.262.081-.307.321-.307q5.053.012,10.106,0c.229,0,.306.052.3.292q-.025,1.053,0,2.107c.006.244-.077.291-.3.29-1.684-.009-3.369,0-5.053,0" transform="translate(-72.988 -14.598)" fill="#376460"/>
        <path id="Trazado_610623" data-name="Trazado 610623" d="M117.42,82.489c-.792,0-1.584-.007-2.375,0-.22,0-.313-.036-.307-.285.017-.713.013-1.427,0-2.141,0-.2.053-.264.261-.263q2.425.013,4.851,0c.216,0,.258.073.255.269-.01.714-.012,1.427,0,2.141,0,.217-.057.284-.278.28-.8-.013-1.606-.005-2.409-.005" transform="translate(-83.937 -58.382)" fill="#376460"/>
        <path id="Trazado_610624" data-name="Trazado 610624" d="M117.428,99.757c.8,0,1.606.008,2.409-.005.225,0,.278.07.275.283q-.018,1.07,0,2.141c0,.2-.045.267-.258.266q-2.425-.014-4.851,0c-.212,0-.261-.066-.258-.266q.017-1.07,0-2.141c0-.213.049-.287.275-.283.8.014,1.606.005,2.409.005" transform="translate(-83.943 -72.975)" fill="#376460"/>
        <path id="Trazado_610625" data-name="Trazado 610625" d="M81.169,19.96c.367,0,.736.01,1.1,0,.2-.008.243.063.241.248-.009.736-.008,1.471,0,2.207,0,.169-.04.234-.222.232q-1.12-.014-2.241,0c-.18,0-.225-.061-.223-.231.008-.736.013-1.472,0-2.207,0-.225.087-.255.275-.249.356.012.713,0,1.07,0" transform="translate(-58.397 -14.599)" fill="#376460"/>
        <path id="Trazado_610626" data-name="Trazado 610626" d="M179.6,66.077q0-3.815,0-7.63a2.726,2.726,0,0,1,.015-.4,1.41,1.41,0,0,1,1.618-1.368c1.127-.011,2.254-.013,3.38,0,.278,0,.364-.066.348-.347a8.206,8.206,0,0,1,.107-1.833,5.31,5.31,0,0,1,10.538.407,11.839,11.839,0,0,1,.058,1.436c-.015.253.049.341.323.337,1.082-.017,2.164-.009,3.246-.005a2.893,2.893,0,0,1,.5.041,1.328,1.328,0,0,1,1.284,1.4c.008.089.008.179.008.268q0,7.63,0,15.259a4.45,4.45,0,0,1-.863,2.856,4.19,4.19,0,0,1-3.492,1.587q-6.342.017-12.684,0a4.148,4.148,0,0,1-3.8-2.015,4.54,4.54,0,0,1-.578-2.407c-.014-2.532-.005-5.064-.005-7.6m10.713,3.987q3.865,0,7.729,0c.217,0,.31-.031.309-.283q-.013-5.086,0-10.171c0-.2-.05-.268-.26-.264-.7.013-1.406.015-2.108,0-.242-.006-.327.048-.319.308.02.691,0,1.383.012,2.074,0,.22-.035.313-.285.307-.714-.017-1.428-.013-2.141,0-.205,0-.267-.054-.263-.261.012-.714,0-1.428.009-2.141,0-.21-.045-.286-.273-.285q-2.409.015-4.818,0c-.23,0-.275.078-.272.286.011.714,0,1.428.009,2.141,0,.209-.06.264-.264.261-.714-.012-1.428-.016-2.141,0-.251.006-.289-.089-.285-.308.013-.691-.009-1.383.012-2.074.008-.262-.08-.313-.321-.307-.68.016-1.361.019-2.041,0-.27-.008-.328.077-.327.334q.012,5.019,0,10.037c0,.273.059.353.344.351,2.565-.012,5.131-.007,7.7-.007m0,2.68c-2.565,0-5.131.005-7.7-.007-.286,0-.363.08-.341.353.024.3.005.6.006.9a1.29,1.29,0,0,0,1.429,1.426h8.734c1.528,0,3.056.013,4.584,0a1.242,1.242,0,0,0,1.317-1.328c.007-.334-.017-.671.008-1,.02-.275-.059-.354-.343-.352-2.565.012-5.131.007-7.7.007m0-16.068c.792,0,1.584-.007,2.376,0,.216,0,.323-.029.309-.283-.022-.412,0-.825-.008-1.237a2.63,2.63,0,0,0-2.29-2.49,2.678,2.678,0,0,0-2.938,1.8,8.015,8.015,0,0,0-.128,1.926c-.016.248.081.292.3.288.792-.013,1.584,0,2.376,0" transform="translate(-131.385 -36.588)" fill="#376460"/>
      </g>
    </g>
  </g>
</svg>
