<svg xmlns="http://www.w3.org/2000/svg" xmlns:xlink="http://www.w3.org/1999/xlink" width="70" height="70" viewBox="0 0 70 70">
  <defs>
    <clipPath id="clip-path">
      <rect id="Rectángulo_378585" data-name="Rectángulo 378585" width="55.451" height="44.258" fill="#376460"/>
    </clipPath>
  </defs>
  <g id="Grupo_1073317" data-name="Grupo 1073317" transform="translate(-300 -1548)">
    <g id="Grupo_1073200" data-name="Grupo 1073200" transform="translate(31 590)">
      <circle id="Elipse_5614" data-name="Elipse 5614" cx="35" cy="35" r="35" transform="translate(269 958)" fill="#fff"/>
      <g id="Grupo_1073273" data-name="Grupo 1073273" transform="translate(276.274 970.871)">
        <g id="Grupo_1073272" data-name="Grupo 1073272" clip-path="url(#clip-path)">
          <path id="Trazado_610887" data-name="Trazado 610887" d="M44.912,16.636c-.33-.018-.66-.033-.99-.054a15.26,15.26,0,0,0-4.187.354,14.592,14.592,0,0,0-7.367,3.946,17.624,17.624,0,0,0-1.659,1.783,16.685,16.685,0,0,0-1.728,2.989A17.131,17.131,0,0,0,27.968,29a9.55,9.55,0,0,0-.125,1.015.388.388,0,0,1-.42.378c-.129.008-.259.007-.388.007-1.249,0-2.5.009-3.746,0a11.755,11.755,0,0,0-1.714.109,2.566,2.566,0,0,0-1.68,1.022,3.443,3.443,0,0,0-.536,2.318c-.014,2.005,0,4.011-.006,6.016a6.489,6.489,0,0,1-.176,1.949,3.563,3.563,0,0,1-1.385,1.91,2.838,2.838,0,0,1-1.688.53c-2.433,0-4.866,0-7.3,0a2.717,2.717,0,0,1-2.07-.893,3.385,3.385,0,0,1-.986-1.409,6.006,6.006,0,0,1-.185-1.507q.005-6.916,0-13.833c0-.5-.007-1,0-1.5,0-.173-.06-.262-.228-.279-.119-.013-.238-.034-.358-.034-.8,0-1.591-.016-2.387,0a2.4,2.4,0,0,1-1.974-1,2.665,2.665,0,0,1,.271-3.672c.654-.693,1.424-1.256,2.133-1.888,1.176-1.049,2.385-2.061,3.568-3.1q1.668-1.47,3.344-2.93c1.054-.922,2.088-1.87,3.17-2.761.782-.644,1.524-1.339,2.291-2,.786-.681,1.6-1.335,2.367-2.032.983-.889,2.011-1.725,2.992-2.619.816-.744,1.619-1.511,2.5-2.179a2.925,2.925,0,0,1,3.873.264q1.913,1.663,3.813,3.34c.7.624,1.418,1.241,2.124,1.864.942.831,1.877,1.67,2.819,2.5,1.446,1.278,2.9,2.545,4.351,3.82q2.215,1.95,4.423,3.908l.289.255-.034.071" transform="translate(0 0)" fill="#376460"/>
          <path id="Trazado_610888" data-name="Trazado 610888" d="M149.892,111.991a8.33,8.33,0,0,1-1.926-.1,14.1,14.1,0,0,1-4.77-1.781,13.27,13.27,0,0,1-2.642-2.257,14.553,14.553,0,0,1-1.317-1.8,10.894,10.894,0,0,1-1.268-2.842,11.275,11.275,0,0,1-.467-3.022,18.241,18.241,0,0,1,.115-2.652,10.542,10.542,0,0,1,.423-1.707,11.02,11.02,0,0,1,.936-2.209,12.08,12.08,0,0,1,2.287-3,13.077,13.077,0,0,1,2.915-2.087,12.563,12.563,0,0,1,2.587-.966,11.587,11.587,0,0,1,3.98-.38,12.816,12.816,0,0,1,3.864.908,12.244,12.244,0,0,1,7.424,8.838c.131.638.131,1.286.237,1.92a9.583,9.583,0,0,1-.117,2.838,11,11,0,0,1-1.228,3.626,12.071,12.071,0,0,1-7.263,6.134,10.755,10.755,0,0,1-3.771.547m-1.366-7.558a1.361,1.361,0,0,0,1.1-.543q1.962-1.95,3.909-3.915c.742-.744,1.495-1.479,2.222-2.237a1.108,1.108,0,0,0,.178-1.632,1.331,1.331,0,0,0-1.9-.444,3.03,3.03,0,0,0-.566.443q-.748.742-1.5,1.484-1.588,1.567-3.176,3.134c-.187.186-.314.182-.534.011-.427-.33-.769-.742-1.168-1.1a11.444,11.444,0,0,0-1.278-1.179,1.432,1.432,0,0,0-2.206.992,1.312,1.312,0,0,0,.474,1.124c.5.528,1.018,1.044,1.538,1.555.658.647,1.285,1.325,1.975,1.94a1.214,1.214,0,0,0,.93.363" transform="translate(-106.888 -67.746)" fill="#376460"/>
        </g>
      </g>
    </g>
  </g>
</svg>
