<svg xmlns="http://www.w3.org/2000/svg" xmlns:xlink="http://www.w3.org/1999/xlink" width="121.916" height="120" viewBox="0 0 121.916 120">
  <defs>
    <clipPath id="clip-path">
      <rect id="Rectángulo_378576" data-name="Rectángulo 378576" width="70.861" height="69.554" fill="#376460"/>
    </clipPath>
  </defs>
  <g id="Grupo_1073321" data-name="Grupo 1073321" transform="translate(-179.001 -1065.361)">
    <g id="Grupo_1073166" data-name="Grupo 1073166" transform="translate(-88.999 107.36)">
      <path id="Trazado_608974" data-name="Trazado 608974" d="M60,0A60,60,0,1,1,0,60,60,60,0,0,1,60,0Z" transform="translate(269 958)" fill="#99fbf2"/>
    </g>
    <g id="Grupo_1073168" data-name="Grupo 1073168" transform="translate(180.001 1175.774)">
      <line id="Línea_2906" data-name="Línea 2906" x1="30.608" transform="translate(13.308)" fill="none" stroke="#376460" stroke-linecap="round" stroke-linejoin="round" stroke-width="2"/>
      <line id="Línea_2907" data-name="Línea 2907" x2="29.277" transform="translate(0 5.323)" fill="none" stroke="#376460" stroke-linecap="round" stroke-linejoin="round" stroke-width="2"/>
      <line id="Línea_2908" data-name="Línea 2908" x2="1.33" transform="translate(33.935 5.323)" fill="none" stroke="#376460" stroke-linecap="round" stroke-linejoin="round" stroke-width="2"/>
    </g>
    <g id="Grupo_1073170" data-name="Grupo 1073170" transform="translate(256.001 1072.498)">
      <line id="Línea_2906-2" data-name="Línea 2906" x1="30.608" transform="translate(13.308 0)" fill="none" stroke="#376460" stroke-linecap="round" stroke-linejoin="round" stroke-width="2"/>
      <line id="Línea_2907-2" data-name="Línea 2907" x2="29.277" transform="translate(0 5.323)" fill="none" stroke="#376460" stroke-linecap="round" stroke-linejoin="round" stroke-width="2"/>
      <line id="Línea_2908-2" data-name="Línea 2908" x2="1.33" transform="translate(33.935 5.323)" fill="none" stroke="#376460" stroke-linecap="round" stroke-linejoin="round" stroke-width="2"/>
    </g>
    <g id="Grupo_1073259" data-name="Grupo 1073259" transform="translate(204.15 1090.585)">
      <g id="Grupo_1073258" data-name="Grupo 1073258" clip-path="url(#clip-path)">
        <path id="Trazado_610848" data-name="Trazado 610848" d="M59.2,30.136c-1.56,3.585-3.388,4.339-6.992,3.924a7.675,7.675,0,0,1-6.822-6.439,12.5,12.5,0,0,1,.025-4.4c.06-.37.377-.9-.23-1-.588-.1-1.278-.682-1.82.08a15.782,15.782,0,0,1-3.75,3.641,2.632,2.632,0,0,0,1.3.555c.721.226,1.235.6.972,1.428-.249.787-.883.791-1.541.574A27.693,27.693,0,0,0,30.2,27.224a26.979,26.979,0,0,0-6.611,1.221c-.707.217-1.381.317-1.656-.506-.288-.861.264-1.283,1.053-1.477.392-.1.769-.247,1.156-.374,0-.4-.355-.45-.561-.609-4.519-3.5-6.49-8.137-5.52-13.719C19.123,5.643,22.945,1.8,28.981.349A13.993,13.993,0,0,1,44.205,7.267c.349.648.657,1.355-.155,1.839-.837.5-1.249-.135-1.635-.78a11.788,11.788,0,0,0-12.18-6.1,11.92,11.92,0,0,0-9.955,8.882,12.042,12.042,0,0,0,6.87,14.047,2.448,2.448,0,0,0,1.294.144,26.592,26.592,0,0,1,6.844,0,2.793,2.793,0,0,0,1.7-.3,11.8,11.8,0,0,0,6.833-9.66c.017-.147.016-.3.039-.441.1-.677.353-1.259,1.171-1.177s.972.674.92,1.375a12.732,12.732,0,0,1-.925,4.078c-.282.662-.168.859.536,1.024a3.3,3.3,0,0,0,2.31-.247A38.347,38.347,0,0,1,55.951,17c2.9-.623,4.2.291,4.442,3.249a20.723,20.723,0,0,1-.344,6.386,1.685,1.685,0,0,0,.441,1.7,16.955,16.955,0,0,1,3.745,6.326,2.153,2.153,0,0,0,1.639,1.588,23.94,23.94,0,0,1,2.314.736,3.808,3.808,0,0,1,2.651,3.7q.044,2.38,0,4.762a3.8,3.8,0,0,1-2.732,3.748c-1.354.473-2.731.885-4.1,1.314a2.264,2.264,0,0,0-1.378,1.015,21.276,21.276,0,0,1-8.11,7.663,2.09,2.09,0,0,0-1.153,1.6C53,62.923,52.6,65.059,52.2,67.2a2.621,2.621,0,0,1-2.674,2.323c-1.549.043-3.1.048-4.65,0a2.585,2.585,0,0,1-2.629-2.359c-.183-.977-.4-1.948-.556-2.93-.086-.547-.312-.743-.876-.669a47.4,47.4,0,0,1-9.391.2c-.6-.04-.862.148-.931.767-.094.84-.291,1.668-.439,2.5a2.691,2.691,0,0,1-2.866,2.5q-2.159.04-4.319,0a2.6,2.6,0,0,1-2.8-2.413c-.38-1.952-.75-3.906-1.131-5.857a1.917,1.917,0,0,0-.914-1.513A19.781,19.781,0,0,1,8,45.135,22.121,22.121,0,0,1,7.746,40.5c.012-.237.143-.561-.175-.686-.4-.157-.482.241-.631.464a7.553,7.553,0,0,1-4.466,3.4,5.838,5.838,0,0,1-.868.151c-.757.069-1.5-.043-1.6-.945-.1-.961.6-1.2,1.431-1.27a4.818,4.818,0,0,0,3.005-1.5c.493-.479.631-.788-.237-.989a6.979,6.979,0,0,1-1.835-.736,2.59,2.59,0,0,1-1.1-3.923,2.883,2.883,0,0,1,4.177-1.106A5.162,5.162,0,0,1,7.769,37.6c.46-.217.358-.619.421-.94a19.551,19.551,0,0,1,9.443-13.415c.582-.354,1.22-.557,1.663.113.455.689.142,1.259-.546,1.641-.193.107-.378.23-.564.35A17,17,0,0,0,11.088,34c-2.546,7.087-1.545,16.277,4.864,21.748a18.669,18.669,0,0,0,3.441,2.4A2.567,2.567,0,0,1,20.841,60.2c.331,2.072.8,4.122,1.163,6.188.13.735.411,1.1,1.224,1.057,1.215-.06,2.438-.057,3.653,0a1,1,0,0,0,1.179-.978c.162-.981.345-1.959.513-2.939.272-1.585.942-2.124,2.5-1.928a39.457,39.457,0,0,0,10.149-.181c1.419-.188,2.088.247,2.369,1.64.233,1.156.471,2.312.636,3.478.1.708.457.916,1.117.9,1.254-.028,2.511-.042,3.764,0,.767.028,1.022-.352,1.142-1.024.407-2.284.866-4.559,1.261-6.846a2.31,2.31,0,0,1,1.293-1.787,20.388,20.388,0,0,0,8.259-7.64,3.308,3.308,0,0,1,1.98-1.493c1.371-.425,2.735-.874,4.107-1.3a2.122,2.122,0,0,0,1.659-2.3c-.03-1.365-.007-2.732-.007-4.1a1.957,1.957,0,0,0-1.466-2.081c-.879-.273-1.752-.564-2.627-.851a3.45,3.45,0,0,1-2.26-2.25,14.027,14.027,0,0,0-3.25-5.646M47.34,25.411c-.079,4.563,3.246,7.475,7.434,6.542a2.437,2.437,0,0,0,1.813-1.307A18.4,18.4,0,0,0,58.2,19.685c-.123-.77-.533-.923-1.254-.781a53.965,53.965,0,0,0-7,2.324c-1.955.669-2.808,1.842-2.609,3.852.011.11,0,.221,0,.332M3.861,34.974c-.548.017-1.135.776-.944,1.219a3.825,3.825,0,0,0,2.45,1.026A.373.373,0,0,0,5.548,37c.181-.645-.994-2.052-1.687-2.031" transform="translate(0.001 0.001)" fill="#376460"/>
        <path id="Trazado_610849" data-name="Trazado 610849" d="M130.5,39.739a4.793,4.793,0,0,1,.006-.774c.157-.946-.192-1.418-1.139-1.763A3.166,3.166,0,0,1,127,33.864c.141-1.638.959-2.516,2.854-3.057.207-.059.5-.025.575-.257.433-1.393.8-.934,1.27-.009.085.169.536.149.816.225a10.309,10.309,0,0,1,1.267.366c.568.236.929.637.637,1.3-.3.688-.807.629-1.375.342a5.571,5.571,0,0,0-.821-.318c-.38-.122-.642-.073-.632.43.017.885.038,1.772-.007,2.655-.033.644.466.657.839.835A3.679,3.679,0,0,1,134.7,41.06a3.249,3.249,0,0,1-2.264,2.364c-.412.141-.783.188-.906.781-.1.5-.785.7-.932.121-.177-.689-.572-.609-1.022-.705a4.505,4.505,0,0,1-2.366-1.111c-.506-.506-.711-1.08-.219-1.665.521-.618.978-.142,1.415.2.557.437,1.236,1.024,1.86.74.556-.254.133-1.126.23-1.716a2.068,2.068,0,0,0,0-.332m2.515.39a1.8,1.8,0,0,0-.678-1.542c-.222-.172-.46-.469-.751-.356-.343.133-.15.513-.163.777-.03.62-.03,1.242,0,1.862.014.3-.19.734.185.875s.682-.166.95-.422a1.648,1.648,0,0,0,.459-1.194M130.6,33.978c-.275-.478.373-1.245-.4-1.48-.6-.183-1.352.725-1.335,1.45.016.669.821,1.679,1.325,1.518.787-.251.137-1.008.413-1.488" transform="translate(-98.645 -23.097)" fill="#376460"/>
        <path id="Trazado_610850" data-name="Trazado 610850" d="M241.429,170.539a3.44,3.44,0,0,1-3.337-3.082,1.067,1.067,0,0,1,.9-1.3.952.952,0,0,1,1.144.924c.108.8.488,1.35,1.316,1.356s1.209-.513,1.322-1.331a.974.974,0,0,1,1.241-.934,1.1,1.1,0,0,1,.829,1.361,3.466,3.466,0,0,1-3.415,3.008" transform="translate(-185.351 -129.337)" fill="#376460"/>
      </g>
    </g>
  </g>
</svg>
