<svg xmlns="http://www.w3.org/2000/svg" xmlns:xlink="http://www.w3.org/1999/xlink" width="62.504" height="62.504" viewBox="0 0 62.504 62.504">
  <defs>
    <clipPath id="clip-path">
      <rect id="Rectángulo_378557" data-name="Rectángulo 378557" width="33.375" height="44.446" fill="#fff"/>
    </clipPath>
  </defs>
  <g id="Grupo_1073000" data-name="Grupo 1073000" transform="translate(-279.816 -1198.717)">
    <g id="Grupo_1072053" data-name="Grupo 1072053" transform="translate(279.816 1198.717)">
      <circle id="Elipse_4742" data-name="Elipse 4742" cx="31.252" cy="31.252" r="31.252" transform="translate(0)" fill="#ac064c"/>
    </g>
    <g id="Grupo_1073225" data-name="Grupo 1073225" transform="translate(293.816 1205.745)">
      <g id="Grupo_1073224" data-name="Grupo 1073224" clip-path="url(#clip-path)">
        <path id="Trazado_610785" data-name="Trazado 610785" d="M33.371,25.109q0,6.1,0,12.2a16.73,16.73,0,0,1-.156,2.5,5.51,5.51,0,0,1-.926,2.3,5.225,5.225,0,0,1-3.046,2.137,5.951,5.951,0,0,1-1.592.2c-7.4,0-14.8.016-22.194,0a5.239,5.239,0,0,1-3.627-1.453A5.724,5.724,0,0,1,0,38.553q0-13.031,0-26.062c0-.381,0-.761,0-1.142A5.682,5.682,0,0,1,.868,8.2,5.439,5.439,0,0,1,3.911,5.866,8.582,8.582,0,0,1,6.326,5.54c.733-.015,1.467,0,2.2,0,.385,0,.421-.06.543-.415a6.194,6.194,0,0,1,.9-1.655,8.255,8.255,0,0,1,2.548-2.324A7.964,7.964,0,0,1,15.49.134c.129-.016.258-.032.385-.054a7.615,7.615,0,0,1,4.439.8A8.344,8.344,0,0,1,23.58,3.706a10.651,10.651,0,0,1,.85,1.527.474.474,0,0,0,.467.307c.77,0,1.541-.019,2.31,0a6.928,6.928,0,0,1,2.972.618,5.256,5.256,0,0,1,2.863,3.37,9.441,9.441,0,0,1,.332,2.577q-.014,6.5,0,13M20.9,22.16v0H18.919c-1.187,0-2.379-.057-3.561.023a1.388,1.388,0,0,0-1.364,1.962,1.075,1.075,0,0,0,.741.764,3.169,3.169,0,0,0,1.011.166q5.135.049,10.27,0a3.055,3.055,0,0,0,1.164-.238c.808-.34.778-1.653.408-2.083a1.77,1.77,0,0,0-1.46-.6c-1.744.011-3.488,0-5.232,0m-.026,11.287c1.829,0,3.657.006,5.486,0a1.43,1.43,0,0,0,1.5-1.37,1.352,1.352,0,0,0-.771-1.33,2.777,2.777,0,0,0-1.168-.21q-5.041,0-10.081,0a3.638,3.638,0,0,0-.909.114,1.207,1.207,0,0,0-.814.535,1.434,1.434,0,0,0,.684,2.125,1.928,1.928,0,0,0,.814.142h5.263M16.678,11.17a2.807,2.807,0,0,0,2.865-2.814,2.834,2.834,0,1,0-5.669-.049,2.792,2.792,0,0,0,2.8,2.863M10.455,32.088A2.127,2.127,0,1,0,6.2,31.932a2.062,2.062,0,0,0,2.083,2.146,2.04,2.04,0,0,0,2.169-1.99M8.4,21.543a2.1,2.1,0,0,0-.187,4.2,2.15,2.15,0,0,0,2.241-1.976A2.043,2.043,0,0,0,8.4,21.543" transform="translate(0 0)" fill="#fff"/>
      </g>
    </g>
  </g>
</svg>
