<svg xmlns="http://www.w3.org/2000/svg" xmlns:xlink="http://www.w3.org/1999/xlink" width="121.916" height="120" viewBox="0 0 121.916 120">
  <defs>
    <clipPath id="clip-path">
      <rect id="Rectángulo_378577" data-name="Rectángulo 378577" width="61.843" height="65.9" fill="#376460"/>
    </clipPath>
  </defs>
  <g id="Grupo_1073322" data-name="Grupo 1073322" transform="translate(-809.001 -1065.361)">
    <g id="Grupo_1073167" data-name="Grupo 1073167" transform="translate(541.001 107.36)">
      <path id="Trazado_608974" data-name="Trazado 608974" d="M60,0A60,60,0,1,1,0,60,60,60,0,0,1,60,0Z" transform="translate(269 958)" fill="#99fbf2"/>
    </g>
    <g id="Grupo_1073169" data-name="Grupo 1073169" transform="translate(810.001 1175.774)">
      <line id="Línea_2906" data-name="Línea 2906" x1="30.608" transform="translate(13.308)" fill="none" stroke="#376460" stroke-linecap="round" stroke-linejoin="round" stroke-width="2"/>
      <line id="Línea_2907" data-name="Línea 2907" x2="29.277" transform="translate(0 5.323)" fill="none" stroke="#376460" stroke-linecap="round" stroke-linejoin="round" stroke-width="2"/>
      <line id="Línea_2908" data-name="Línea 2908" x2="1.33" transform="translate(33.935 5.323)" fill="none" stroke="#376460" stroke-linecap="round" stroke-linejoin="round" stroke-width="2"/>
    </g>
    <g id="Grupo_1073171" data-name="Grupo 1073171" transform="translate(886.001 1072.498)">
      <line id="Línea_2906-2" data-name="Línea 2906" x1="30.608" transform="translate(13.308 0)" fill="none" stroke="#376460" stroke-linecap="round" stroke-linejoin="round" stroke-width="2"/>
      <line id="Línea_2907-2" data-name="Línea 2907" x2="29.277" transform="translate(0 5.323)" fill="none" stroke="#376460" stroke-linecap="round" stroke-linejoin="round" stroke-width="2"/>
      <line id="Línea_2908-2" data-name="Línea 2908" x2="1.33" transform="translate(33.935 5.323)" fill="none" stroke="#376460" stroke-linecap="round" stroke-linejoin="round" stroke-width="2"/>
    </g>
    <g id="Grupo_1073261" data-name="Grupo 1073261" transform="translate(839.08 1092.412)">
      <g id="Grupo_1073260" data-name="Grupo 1073260" clip-path="url(#clip-path)">
        <path id="Trazado_610851" data-name="Trazado 610851" d="M39.637,55.882c0-3.014,0-6.028.006-9.042,0-.256-.053-.335-.322-.333-1.566.014-3.132.012-4.7,0a2.241,2.241,0,0,1-1.329-.294,1.779,1.779,0,0,1,.051-3.008c1.382-.875,2.777-1.732,4.166-2.6l16.7-10.384c1.49-.926,2.974-1.861,4.474-2.769a2.161,2.161,0,0,1,2.321-.021c1.092.639,2.159,1.322,3.235,1.99L82.351,40.681q1.958,1.217,3.915,2.436a1.926,1.926,0,0,1,.972,1.369,1.763,1.763,0,0,1-1.448,1.976,4.5,4.5,0,0,1-.676.051c-1.584,0-3.168,0-4.751-.008-.25,0-.318.065-.318.318.01,2.969.006,5.937.011,8.906a.871.871,0,0,1-.235.72c-.251.225-.52.419-.876.274a.9.9,0,0,1-.655-.844c-.008-1.357-.008-2.715-.01-4.072q0-2.552,0-5.1c0-.127-.033-.184-.164-.184q-1.262,0-2.525-.008c-.135,0-.14.085-.14.18,0,.253,0,.507,0,.76q0,4.06,0,8.119c0,.118,0,.235-.012.353a.907.907,0,0,1-.856.857,1.022,1.022,0,0,1-.9-.776,3.671,3.671,0,0,1-.047-.7q0-4.25,0-8.5c0-.22-.048-.293-.281-.291q-2.172.017-4.344,0c-.218,0-.272.059-.272.273.006,2.96,0,5.919.005,8.879a1.031,1.031,0,0,1-.321.829.757.757,0,0,1-.811.235A.851.851,0,0,1,67,55.982c-.059-.606-.021-1.212-.024-1.818q-.016-3.693-.008-7.385c0-.227-.073-.271-.278-.268-.76.01-1.52.013-2.28,0-.232-.005-.289.059-.288.283q.009,4.249,0,8.5c0,.2.009.4,0,.6a.89.89,0,1,1-1.78-.013c-.014-.416-.014-.832-.014-1.249q0-3.869,0-7.739c0-.371,0-.371-.361-.371-1.439,0-2.878,0-4.317-.007-.188,0-.256.046-.252.24.009.434,0,.869,0,1.3q0,3.788,0,7.576a1.048,1.048,0,0,1-.224.813.822.822,0,0,1-.795.307.945.945,0,0,1-.709-.68,2.556,2.556,0,0,1-.057-.728q0-4.236-.01-8.472c0-.353,0-.353-.352-.353-.724,0-1.448.005-2.172-.007-.2,0-.269.045-.263.254.014.552,0,1.1.005,1.656q0,8.187,0,16.374a.734.734,0,0,1,0,.162c-.047.206.035.27.239.271a.884.884,0,0,1,.8.626.809.809,0,0,1-.191.875A.668.668,0,0,1,53.1,67c-.968,0-1.936,0-2.9,0l-11.837,0h-.081c-.773.005-.879.11-.877.872,0,.86,0,1.72.009,2.58,0,.568.153.718.732.72q2.375.009,4.751.006l9.666,0a2.7,2.7,0,0,1,.567.046.966.966,0,0,1,.764.817.929.929,0,0,1-.642.878,1.7,1.7,0,0,1-.587.085q-7.086,0-14.173,0a4.885,4.885,0,0,1-1.025-.092,2.2,2.2,0,0,1-1.777-1.858,19.039,19.039,0,0,1-.008-3.847,2.259,2.259,0,0,1,2.1-1.967,12.252,12.252,0,0,1,1.546.013c.243.01.319-.046.318-.3-.01-3.023-.006-6.046-.006-9.069M85.355,44.668c-.037-.109-.124-.128-.188-.168l-8.154-5.068Q68.755,34.3,60.5,29.157a1.063,1.063,0,0,0-1.255,0Q53.993,32.44,48.724,35.7,42.712,39.44,36.7,43.173c-.779.484-1.558.969-2.4,1.495ZM51,55.861h0q0-4.546,0-9.092c0-.2-.044-.262-.253-.261-1.4.01-2.8,0-4.206.005-.473,0-.473,0-.473.473q0,8.223,0,16.447c0,.525,0,1.049,0,1.574,0,.127,0,.22.183.219,1.475-.008,2.949-.013,4.423,0,.262,0,.331-.068.33-.329C50.992,61.886,51,58.873,51,55.861m-9.561.031h0q0,4.547,0,9.094c0,.184.028.245.235.24.769-.016,1.539-.021,2.307.006.258.009.3-.068.3-.294q-.008-5.932-.005-11.863c0-2.108-.005-4.216,0-6.325,0-.183-.044-.249-.243-.245-.76.014-1.52.019-2.28,0-.252-.005-.316.069-.316.317q.012,4.533.005,9.067" transform="translate(-25.414 -21.207)" fill="#376460"/>
        <path id="Trazado_610852" data-name="Trazado 610852" d="M1.84,33q0,13.793.012,27.586a3.488,3.488,0,0,0,1.473,2.7,3.739,3.739,0,0,0,2.445.817l11.4,0q6.149,0,12.3,0a3.921,3.921,0,0,0,3.568-1.974,3.523,3.523,0,0,0,.351-.849,3.9,3.9,0,0,1,.2-.56.854.854,0,0,1,1.616.5,5.43,5.43,0,0,1-1.787,3.176,5.756,5.756,0,0,1-3.778,1.491c-.307.014-.615.015-.923.015H6.674a9.093,9.093,0,0,1-2.132-.17A5.687,5.687,0,0,1,.4,62.135,6.332,6.332,0,0,1,0,59.716q0-7.752.006-15.5,0-12.6,0-25.2Q.011,12.69,0,6.364A6.352,6.352,0,0,1,.792,2.976,5.643,5.643,0,0,1,5.215.111C5.675.061,6.135.053,6.6.048,12.949-.019,19.3,0,25.654.021c1.329.005,2.66,0,3.989.044a5.746,5.746,0,0,1,4.532,2.3,1.466,1.466,0,0,1,.259.473.843.843,0,0,1-.333.976.864.864,0,0,1-1.114-.13c-.1-.106-.181-.226-.272-.338a3.8,3.8,0,0,0-2.98-1.489c-.9-.021-1.81-.005-2.715-.015-.159,0-.215.072-.268.2-.328.822-.64,1.652-1,2.458a2.882,2.882,0,0,1-2.785,1.846c-3.457.01-6.914-.007-10.371.007A3.125,3.125,0,0,1,9.751,4.377C9.457,3.592,9.16,2.8,8.8,2.044a.294.294,0,0,0-.306-.2c-.941.01-1.882,0-2.823.017a3.764,3.764,0,0,0-3.3,1.9,3.391,3.391,0,0,0-.534,1.819Q1.849,19.285,1.842,33ZM17.8,1.911q-3.418,0-6.837,0c-.144,0-.294-.015-.212.205a13.858,13.858,0,0,0,.787,1.9,1.034,1.034,0,0,0,.982.564c.244-.006.488,0,.732,0,3.229,0,6.457-.005,9.686.009A1.231,1.231,0,0,0,24.109,3.9a2.977,2.977,0,0,0,.165-.37c.181-.453.339-.916.546-1.356.117-.249.058-.269-.178-.268-2.279.007-4.558,0-6.837,0" transform="translate(0 0)" fill="#376460"/>
        <path id="Trazado_610853" data-name="Trazado 610853" d="M154.108,170.28c4.362,0,8.724.024,13.085-.017a2.435,2.435,0,0,1,2.445,2.4c.007.57,0,1.14,0,1.71q0,7.14,0,14.28a2.4,2.4,0,0,1-.94,2.064,2.49,2.49,0,0,1-1.255.465,4.741,4.741,0,0,1-.488.017q-12.759,0-25.518,0a4.454,4.454,0,0,1-1.213-.1,2.339,2.339,0,0,1-1.75-2.442c-.008-2.443,0-4.887-.007-7.33-.006-1.855-.034-3.709-.037-5.564q0-1.56.046-3.121a2.341,2.341,0,0,1,2.465-2.368h13.166m-.046,10.13v0H140.678c-.421,0-.413-.092-.413.395q0,3.788,0,7.575c0,.145,0,.29.013.434.042.424.225.586.654.586h26.308a.553.553,0,0,0,.609-.516,2.691,2.691,0,0,0,.03-.433c-.008-2.6.031-5.195-.021-7.792,0-.216-.081-.249-.271-.249q-6.76.007-13.521,0m-.015-1.811h3.122q5.171,0,10.342,0c.249,0,.3-.078.295-.308-.015-.733-.007-1.466-.009-2.2,0-.379,0-.38-.372-.38H140.633a.722.722,0,0,1-.108,0c-.168-.026-.214.042-.213.21.008.814.01,1.629,0,2.443,0,.193.056.239.245.238q6.745-.008,13.491,0m.006-4.689v0h12.787c.281,0,.561,0,.842.005.1,0,.188,0,.188-.132a6.85,6.85,0,0,0-.027-1.273c-.059-.319-.163-.418-.49-.428-.343-.011-.688,0-1.031,0H141.86c-.353,0-.706-.01-1.059.007-.389.018-.513.146-.53.538-.014.334.008.67-.009,1-.011.214.049.279.271.279q6.76-.009,13.52,0" transform="translate(-108.28 -133.18)" fill="#376460"/>
        <path id="Trazado_610854" data-name="Trazado 610854" d="M47.842,279.451h-8.06a1.089,1.089,0,0,1-1.07-.5.829.829,0,0,1,.346-1.178,1.93,1.93,0,0,1,.9-.155q3.989,0,7.979,0h8.033c.633,0,.979.217,1.121.7a.837.837,0,0,1-.474,1.008,1.951,1.951,0,0,1-.769.134q-4,0-8.006,0" transform="translate(-30.186 -217.151)" fill="#376460"/>
        <path id="Trazado_610855" data-name="Trazado 610855" d="M148.055,54.865a3.9,3.9,0,0,1-3.856,3.891,3.9,3.9,0,1,1-.036-7.806,3.918,3.918,0,0,1,3.893,3.915m-3.893-2.135A2.137,2.137,0,0,0,144.134,57a2.137,2.137,0,1,0,.027-4.275" transform="translate(-109.71 -39.853)" fill="#376460"/>
        <path id="Trazado_610856" data-name="Trazado 610856" d="M156.218,221.988a3.5,3.5,0,0,1-.095,7,3.5,3.5,0,0,1,.095-7m-.054,1.784a1.57,1.57,0,0,0-1.666,1.576,1.632,1.632,0,0,0,1.646,1.85,1.713,1.713,0,1,0,.02-3.426" transform="translate(-119.421 -173.636)" fill="#376460"/>
        <path id="Trazado_610857" data-name="Trazado 610857" d="M210.923,241.985q-2.686,0-5.372,0a1.162,1.162,0,0,1-.992-.325.9.9,0,0,1-.188-.887.806.806,0,0,1,.658-.577,2.329,2.329,0,0,1,.458-.039h10.907a2.256,2.256,0,0,1,.378.025.866.866,0,0,1,.762.879.91.91,0,0,1-.78.9,2.243,2.243,0,0,1-.351.024q-2.74,0-5.481,0Z" transform="translate(-159.824 -187.851)" fill="#376460"/>
        <path id="Trazado_610858" data-name="Trazado 610858" d="M210.924,226.035q-2.688,0-5.375,0a3.022,3.022,0,0,1-.458-.038.784.784,0,0,1-.727-.658.824.824,0,0,1,.458-.974,1.41,1.41,0,0,1,.677-.165h10.885a1.311,1.311,0,0,1,.815.251.811.811,0,0,1,.31.818.746.746,0,0,1-.517.667,2.056,2.056,0,0,1-.64.1h-5.429Z" transform="translate(-159.839 -175.368)" fill="#376460"/>
      </g>
    </g>
  </g>
</svg>
